<svg width="24" height="24" xmlns="http://www.w3.org/2000/svg"><path d="M20 3.5a3.01 3.01 0 012.995 2.824L23 6.5v11a3.01 3.01 0 01-2.824 2.995L20 20.5H8L.5 12 8 3.5h12zM20 5H8.7l-6.2 7 6.2 7H20c.8 0 1.423-.576 1.493-1.352l.007-.148v-11c0-.8-.576-1.423-1.352-1.493L20 5zm-8.95 3.5a.722.722 0 01.965-.074l.085.074 2.4 2.45 2.45-2.45c.3-.3.75-.3 1.05 0a.742.742 0 01.03 1.021L15.55 12l2.35 2.4c.3.3.3.75 0 1.05a.722.722 0 01-.965.074l-.085-.074-2.4-2.4-2.4 2.4c-.3.3-.75.3-1.05 0a.722.722 0 01-.074-.965L11 14.4l2.45-2.45-2.4-2.4c-.3-.3-.3-.75 0-1.05z" fill="#000" fill-rule="evenodd"/></svg>