<svg width="24" height="24" xmlns="http://www.w3.org/2000/svg"><path d="M11.41 7.252a6.077 6.077 0 015.719 4.015A4.644 4.644 0 0119.6 15.37c0 2.483-1.95 4.515-4.39 4.626L15 20H5C2.684 20 .8 18.104.8 15.772c0-1.53.826-2.932 2.134-3.678.111-1.992 1.757-3.577 3.763-3.577.295 0 .59.036.88.107a6.047 6.047 0 013.832-1.372zm0 1.2c-1.126 0-2.211.392-3.085 1.11l-.198.172-.263.24-.337-.116a2.542 2.542 0 00-.83-.14c-.94 0-1.764.512-2.212 1.275a2.696 2.696 0 00-.358 1.495l.027.352-.373.168A3.033 3.033 0 002 15.772c0 1.61 1.251 2.93 2.824 3.023L5 18.8h10c1.875 0 3.4-1.54 3.4-3.43a3.44 3.44 0 00-1.828-3.04l-.18-.087-.242-.11-.08-.255a4.883 4.883 0 00-4.66-3.426zm7.25-4.772a3.83 3.83 0 011.868-.022 3.239 3.239 0 002.177 6.064 3.829 3.829 0 01-3.65 1.483 5.807 5.807 0 00-.967-.769 7.317 7.317 0 00-2.294-2.904 3.847 3.847 0 012.867-3.852z" fill="#000" fill-rule="evenodd"/></svg>