<svg width="24" height="24" xmlns="http://www.w3.org/2000/svg"><path d="M11.41 7.252a6.077 6.077 0 015.72 4.015 4.644 4.644 0 012.47 4.102c0 2.483-1.95 4.515-4.39 4.626L15 20H5C2.684 20 .8 18.104.8 15.772c0-1.53.826-2.932 2.134-3.678.112-1.992 1.757-3.577 3.764-3.577.295 0 .59.036.88.107a6.044 6.044 0 013.832-1.372zm7.25-3.572a3.83 3.83 0 011.867-.022 3.24 3.24 0 002.177 6.064 3.832 3.832 0 01-3.649 1.483 5.804 5.804 0 00-.967-.769 7.32 7.32 0 00-2.294-2.904A3.847 3.847 0 0118.66 3.68z" fill-rule="evenodd"/></svg>