<svg width="24" height="24" xmlns="http://www.w3.org/2000/svg"><path d="M2.23 4.5c1.729 0 3.376.79 4.466 2.125l.159.205 7 9.45a4.28 4.28 0 003.18 1.713l.235.007H18v-2.85l5.5 3.6-5.5 3.6V19.5h-.735a5.768 5.768 0 01-4.461-2.125l-.159-.205-7-9.45a4.28 4.28 0 00-3.18-1.713L2.23 6h-.98a.749.749 0 01-.102-1.493L1.25 4.5h.98zm5.65 8.76l.935 1.26-1.965 2.65a5.768 5.768 0 01-4.361 2.324l-.259.006h-.98a.749.749 0 01-.102-1.493L1.25 18h.98c1.261 0 2.47-.571 3.27-1.535l.145-.185 2.235-3.02zM18 1.65l5.5 3.6-5.5 3.6V6h-.73a4.277 4.277 0 00-3.269 1.535l-.146.185-2.235 3.02-.935-1.26 1.965-2.65a5.768 5.768 0 014.361-2.324l.259-.006H18V1.65z" fill-rule="evenodd"/></svg>