<svg xmlns="http://www.w3.org/2000/svg" width="24" height="24">
    <path fill="#262626" fill-rule="evenodd" d="M2.23 4.5c1.815 0 3.54.87 4.625 2.33l7 9.45A4.277 4.277 0 0017.27 18H18v-2.85l5.5 3.6-5.5 3.6V19.5h-.735c-1.815 0-3.54-.87-4.62-2.33l-7-9.45A4.277 4.277 0 002.23 6h-.98a.749.749 0 110-1.5zm5.65 8.76l.935 1.26-1.965 2.65a5.766 5.766 0 01-4.62 2.33h-.98a.749.749 0 110-1.5h.98a4.27 4.27 0 003.415-1.72l2.235-3.02zM18 1.65l5.5 3.6-5.5 3.6V6h-.73c-1.34 0-2.615.645-3.415 1.72l-2.235 3.02-.935-1.26 1.965-2.65a5.766 5.766 0 014.62-2.33H18V1.65z"/>
</svg>
