<svg width="24" height="24" xmlns="http://www.w3.org/2000/svg"><path d="M2.674 4.163A6.147 6.147 0 017.45 6.451l.161.21 6.858 9.257c.65.867 1.648 1.4 2.722 1.463l.216.007h.715v-2.302l5.388 3.526-5.388 3.527v-2.302h-.715a6.147 6.147 0 01-4.775-2.288l-.162-.21-6.857-9.257A3.678 3.678 0 002.89 6.619l-.216-.007h-.98A1.224 1.224 0 011.57 4.17l.126-.007h.98zm5.246 8.66l1.528 2.057-1.837 2.478a6.147 6.147 0 01-4.658 2.473l-.264.006h-.98a1.224 1.224 0 01-.125-2.443l.125-.006h.98a3.684 3.684 0 002.804-1.3l.135-.17 2.292-3.095zM18.122 1.86l5.388 3.527-5.388 3.526V6.612h-.73a3.681 3.681 0 00-2.803 1.3l-.135.17-2.253 3.095-1.528-2.057 1.836-2.478a6.147 6.147 0 014.636-2.472l.262-.007h.715V1.861z" fill-rule="evenodd"/></svg>