<svg xmlns="http://www.w3.org/2000/svg" width="24" height="24">
    <path fill="#262626" fill-rule="evenodd" d="M2.674 4.163c1.949.003 3.78.93 4.937 2.498l6.858 9.257a3.678 3.678 0 002.938 1.47h.715v-2.302l5.388 3.526-5.388 3.527v-2.302h-.715a6.147 6.147 0 01-4.937-2.498L5.613 8.082a3.678 3.678 0 00-2.939-1.47h-.98a1.224 1.224 0 010-2.449zm5.246 8.66l1.528 2.057-1.837 2.478a6.147 6.147 0 01-4.922 2.479h-.98a1.224 1.224 0 110-2.45h.98a3.678 3.678 0 002.939-1.469l2.292-3.095zM18.122 1.86l5.388 3.527-5.388 3.526V6.612h-.73a3.678 3.678 0 00-2.938 1.47L12.2 11.177 10.673 9.12l1.836-2.478a6.147 6.147 0 014.898-2.479h.715V1.861z"/>
</svg>
