<svg xmlns="http://www.w3.org/2000/svg" width="24" height="24">
    <path fill="#262626" fill-rule="evenodd" d="M8.5 21v1.5H6V21h2.5zM3 19.5c0 .825.675 1.5 1.5 1.5v1.5c-1.655 0-3-1.345-3-3zm14 0c0 1.655-1.345 3-3 3V21c.825 0 1.5-.675 1.5-1.5zM12.5 21v1.5H10V21h2.5zM3 15.5V18H1.5v-2.5H3zm14 0V18h-1.5v-2.5H17zm5.5-14V14c0 1.655-1.345 3-3 3h-1v-1.5h1c.825 0 1.5-.675 1.5-1.5V3H8.5v2.5H7v-4h15.5zM3 11.5V14H1.5v-2.5H3zm14 0V14h-1.5v-2.5H17zM17 7v3h-1.5V8.5H14V7h3zM4.5 7v1.5H3V10H1.5V7h3zm8 0v1.5H10V7h2.5zm-4 0v1.5H6V7h2.5z"/>
</svg>
