<svg width="24" height="24" xmlns="http://www.w3.org/2000/svg"><path d="M8.5 21v1.5H6V21h2.5zM3 19.5a1.5 1.5 0 001.356 1.493L4.5 21v1.5a3 3 0 01-2.995-2.824L1.5 19.5H3zm14 0a3 3 0 01-2.824 2.995L14 22.5V21a1.5 1.5 0 001.493-1.356l.007-.144H17zM12.5 21v1.5H10V21h2.5zm4.5-5.5V18h-1.5v-2.5H17zm-14 0V18H1.5v-2.5H3zm19.5-14V14a3 3 0 01-2.824 2.995L19.5 17h-1V5.5H7v-4h15.5zm-5.5 10V14h-1.5v-2.5H17zm-14 0V14H1.5v-2.5H3zM17 7v3h-1.5V8.5H14V7h3zM4.5 7v1.5H3V10H1.5V7h3zm8 0v1.5H10V7h2.5zm-4 0v1.5H6V7h2.5z" fill="#000" fill-rule="evenodd"/></svg>