<svg width="24" height="24" xmlns="http://www.w3.org/2000/svg"><path d="M18.5 1.5a4.002 4.002 0 012.825 6.83 3.985 3.985 0 01-2.59 1.163L18.5 9.5h-.105l1.59 1.59-5.73 5.73-1.52-1.52-5.925 5.54a2.569 2.569 0 01-1.765.695c-.35 0-.693-.08-1.018-.222l-.192-.093L1.7 23.355l-1.06-1.06 2.135-2.135a2.578 2.578 0 01.255-2.826l.13-.149 5.545-5.92-1.52-1.52 5.73-5.735 1.59 1.59a3.97 3.97 0 011.165-2.93A3.998 3.998 0 0118.5 1.5zM9.765 12.325L4.26 18.21c-.4.43-.39 1.095.025 1.51a1.074 1.074 0 001.4.113l.105-.088 5.89-5.505-1.915-1.915zm3.15-6.19l-3.61 3.61 4.95 4.95 3.61-3.61-4.95-4.95zm.635 2.195l2.12 2.12-1.06 1.06-.53-.53-1.06 1.065-1.065-1.065 1.065-1.06-.535-.53 1.065-1.06z" fill-rule="evenodd"/></svg>