<svg height="24" width="24" xmlns="http://www.w3.org/2000/svg"><path d="m18.5 1.5a4.002 4.002 0 0 1 2.825 6.83 3.987 3.987 0 0 1 -2.825 1.17h-.105l1.59 1.59-5.73 5.73-1.52-1.52-5.925 5.54a2.569 2.569 0 0 1 -1.765.695c-.42 0-.83-.115-1.21-.315l-2.135 2.135-1.06-1.06 2.135-2.135c-.505-.95-.39-2.15.385-2.975l5.545-5.92-1.52-1.52 5.73-5.735 1.59 1.59a3.97 3.97 0 0 1 1.165-2.93 3.998 3.998 0 0 1 2.83-1.17zm-8.735 10.825-5.505 5.885c-.4.43-.39 1.095.025 1.51a1.074 1.074 0 0 0 1.505.025l5.89-5.505zm3.15-6.19-3.61 3.61 4.95 4.95 3.61-3.61zm.635 2.195 2.12 2.12-1.06 1.06-.53-.53-1.06 1.065-1.065-1.065 1.065-1.06-.535-.53z" fill="#262626" fill-rule="evenodd"/></svg>