<svg width="24" height="24" xmlns="http://www.w3.org/2000/svg"><path d="M8 12l1.08 1.055-4.825 5.155a1.085 1.085 0 001.44 1.62l.095-.085 5.15-4.805L12 16l-5.185 4.84a2.57 2.57 0 01-1.765.695c-.352-.004-.7-.08-1.02-.222l-.19-.093-2.135 2.135-1.06-1.06 2.135-2.11a2.575 2.575 0 01.252-2.853l.128-.147L8 12zm4.915-8L20 11.085l-5.745 5.73-7.07-7.07L12.915 4zm.635 5.39l-1.08 1.08 1.06 1.06 1.08-1.08-1.06-1.06zm3.968-7.765a4 4 0 013.807 1.05 4 4 0 01-1.449 6.61l-.211.07-5-5a4 4 0 012.853-2.73z" fill="#000" fill-rule="evenodd"/></svg>