<svg xmlns="http://www.w3.org/2000/svg" width="24" height="24">
    <path fill="#262626" fill-rule="evenodd" d="M23.48 14.925L20.27 2h-7.52v-.75a.749.749 0 10-1.5 0V2H3.73L.52 14.925a.736.736 0 00-.02.18c0 1.175.915 3.395 4.375 3.395s4.375-2.22 4.375-3.395c0-.06-.005-.12-.02-.18L6.39 3.5h4.86v16H8.5c-.345 0-.675.07-.975.195-.6.255-1.075.73-1.33 1.33-.125.3-.195.63-.195.975h12c0-.345-.07-.675-.195-.975a2.508 2.508 0 00-1.33-1.33c-.3-.125-.63-.195-.975-.195h-2.75v-16h4.86l-2.835 11.425a.736.736 0 00-.02.18c0 1.175.915 3.395 4.375 3.395s4.37-2.22 4.37-3.395c0-.06-.005-.12-.02-.18zM4.875 3.62L7.7 15H2.05L4.875 3.62zM16.3 15l2.825-11.38L21.95 15H16.3z"/>
</svg>
