<svg width="24" height="24" xmlns="http://www.w3.org/2000/svg"><path d="M12 .998c-5.17 0-9.376 4.205-9.376 9.375A9.303 9.303 0 006 17.563V20c0 1.654 1.346 3 3 3h6c1.654 0 3-1.346 3-3v-2.438a9.304 9.304 0 003.377-7.188c0-5.17-4.206-9.377-9.377-9.377zm4.792 15.61l-.292.226V20c0 .827-.673 1.5-1.5 1.5h-.5V19H13v2.5h-2V19H9.5v2.5H9c-.827 0-1.5-.673-1.5-1.5v-3.166l-.292-.226c-1.96-1.51-3.084-3.783-3.084-6.235 0-4.342 3.533-7.875 7.876-7.875s7.877 3.532 7.877 7.875c0 2.453-1.124 4.725-3.085 6.236zM8.5 10a2 2 0 100 4 2 2 0 000-4zm7 0a2 2 0 100 4 2 2 0 000-4zM11 17.5h2V15h-2v2.5z" fill-rule="evenodd"/></svg>