<svg width="24" height="24" xmlns="http://www.w3.org/2000/svg"><path d="M19.059 19.765a.824.824 0 110 1.647.824.824 0 010-1.647zm0-2.47c1.088.022 2.09.58 2.684 1.482l.106.174-.94.828a2.056 2.056 0 00-3.694-.146l-.071.146-.942-.828a3.294 3.294 0 012.857-1.657zm.706-12.824v8.978c-.236-.037-.47-.037-.706-.037a7.177 7.177 0 00-5.719 2.882l-.907 1.268 1.732 1.497H5.647a2.824 2.824 0 01-2.818-2.652l-.005-.172V4.471h16.94zm-.706 10.353a5.76 5.76 0 014.6 2.298l.143.2-.94.814a4.522 4.522 0 00-7.47-.2l-.136.2-.94-.814a5.76 5.76 0 014.496-2.493l.247-.005zm-5.603-4.52a.707.707 0 00-.912-.073l-.088.075-1.162 1.167-1.162-1.167a.707.707 0 00-1.077.91l.074.088 1.167 1.167-1.167 1.167a.71.71 0 000 .997.71.71 0 00.915.075l.088-.075 1.162-1.167 1.162 1.167a.71.71 0 001.003 0 .71.71 0 00.073-.91l-.073-.087-1.167-1.167 1.167-1.167a.707.707 0 00-.003-1zm-8.75-5.02a.63.63 0 00-.23.048.56.56 0 00-.311.31.588.588 0 000 .47.56.56 0 00.31.312c.049.021.1.035.152.042l.079.005v-.01a.588.588 0 000-1.176zm1.882 0a.63.63 0 00-.23.048.56.56 0 00-.31.31.588.588 0 000 .47.56.56 0 00.31.312c.048.021.1.035.151.042l.08.005v-.01a.588.588 0 000-1.176zm1.883 0a.63.63 0 00-.231.048.56.56 0 00-.31.31.588.588 0 000 .47.56.56 0 00.31.312c.048.021.1.035.152.042l.079.005v-.01a.588.588 0 000-1.176z" fill="#000" fill-rule="evenodd"/></svg>