<svg width="24" height="24" xmlns="http://www.w3.org/2000/svg"><path d="M12 1c6.05 0 11 4.95 11 11s-4.95 11-11 11S1 18.05 1 12 5.95 1 12 1zM6.45 6.45a.722.722 0 01.965-.074l.085.074 4.1 4.1c.15-.05.25-.05.4-.05.85 0 1.5.65 1.5 1.5s-.65 1.5-1.5 1.5-1.5-.65-1.5-1.5c0-.113 0-.197.021-.295l.029-.105-4.1-4.1c-.3-.3-.3-.75 0-1.05zm-1.1 2.1l2.3 2.3c-.08.28-.128.592-.144.91L7.5 12h-3a7.28 7.28 0 01.706-3.172l.144-.278zM12 4.5a7.49 7.49 0 017.496 7.257L19.5 12h-3c0-2.5-2-4.5-4.5-4.5-.32 0-.64.032-.934.096l-.216.054-2.3-2.3c1-.55 2.2-.85 3.45-.85z" fill-rule="evenodd"/></svg>