<svg height="24" width="24" xmlns="http://www.w3.org/2000/svg"><path d="m2.5 17v.5c0 .85.65 1.5 1.5 1.5h.5v1.5h-.5c-1.65 0-3-1.35-3-3v-.5zm15.5 2v1.5h-3v-1.5zm5-2v.5c0 1.65-1.35 3-3 3h-.5v-1.5h.5c.85 0 1.5-.65 1.5-1.5v-.5zm-9.5 2v1.5h-3v-1.5zm-4.5 0v1.5h-3v-1.5zm5.95-7.1c1.3 0 2.35 1 2.35 2.3s-1.05 2.35-2.35 2.35-2.35-1.05-2.35-2.35 1.05-2.3 2.35-2.3zm.85-4.9-5.9 9.5h-1.75l5.95-9.5zm-13.3 5.5v3h-1.5v-3zm20.5 0v3h-1.5v-3zm-8.05.7c-.55 0-.95.45-.95 1s.4 1 .95 1 .95-.4.95-1c0-.55-.4-1-.95-1zm-5.9-6.25c1.3 0 2.35 1.05 2.35 2.35s-1.05 2.3-2.35 2.3-2.35-1-2.35-2.3 1.05-2.35 2.35-2.35zm-6.55 1.05v3h-1.5v-3zm20.5 0v3h-1.5v-3zm-14 .25c-.5 0-.9.45-.95 1 0 .55.4 1 .95 1s.95-.45.95-1-.4-1-.95-1zm14-5.25v3.5h-1.5v-2h-2v-1.5zm-18.5 0v1.5h-2v2h-1.5v-3.5zm13.5 0v1.5h-3v-1.5zm-9 0v1.5h-3v-1.5zm4.5 0v1.5h-3v-1.5z" fill="#262626" fill-rule="evenodd"/></svg>