<svg width="24" height="24" xmlns="http://www.w3.org/2000/svg"><path d="M2.5 17v.5c0 .8.576 1.423 1.352 1.493L4 19h.5v1.5H4a3.01 3.01 0 01-2.995-2.824L1 17.5V17h1.5zM18 19v1.5h-3V19h3zm5-2v.5a3.01 3.01 0 01-2.824 2.995L20 20.5h-.5V19h.5c.8 0 1.423-.576 1.493-1.352l.007-.148V17H23zm-9.5 2v1.5h-3V19h3zM9 19v1.5H6V19h3zm5.95-7.1c1.3 0 2.35 1 2.35 2.3 0 1.3-1.05 2.35-2.35 2.35S12.6 15.5 12.6 14.2s1.05-2.3 2.35-2.3zM15.8 7l-5.9 9.5H8.15L14.1 7h1.7zM2.5 12.5v3H1v-3h1.5zm20.5 0v3h-1.5v-3H23zm-8.05.7c-.55 0-.95.45-.95 1s.4 1 .95 1c.55 0 .95-.4.95-1 0-.55-.4-1-.95-1zm-5.9-6.25c1.3 0 2.35 1.05 2.35 2.35s-1.05 2.3-2.35 2.3-2.35-1-2.35-2.3c0-1.3 1.05-2.35 2.35-2.35zM2.5 8v3H1V8h1.5zM23 8v3h-1.5V8H23zM9 8.25c-.5 0-.9.45-.95 1 0 .55.4 1 .95 1 .55 0 .95-.45.95-1s-.4-1-.95-1zM23 3v3.5h-1.5v-2h-2V3H23zM4.5 3v1.5h-2v2H1V3h3.5zM18 3v1.5h-3V3h3zM9 3v1.5H6V3h3zm4.5 0v1.5h-3V3h3z" fill-rule="evenodd"/></svg>