<svg xmlns="http://www.w3.org/2000/svg" width="24" height="24">
    <path fill="#262626" fill-rule="evenodd" d="M4 3v2h1.5V3h3v2H10V3h3v2h1.5V3h3v2H19V3h3.5v3.5h-2V8h2v3h-2v1.5h2v3h-2V17h2v.5a3 3 0 01-3 3H19v-2h-1.5v2h-3v-2H13v2h-3v-2H8.5v2h-3v-2H4v2h-.5a3 3 0 01-3-3V17h2v-1.5h-2v-3h2V11h-2V8h2V6.5h-2V3H4zm10.295 8.945a2.25 2.25 0 100 4.5 2.25 2.25 0 000-4.5zm.77-4.635H13.43l-5.635 9h1.64l5.63-9zm-.755 5.905a1 1 0 010 1.945.975.975 0 010-1.945zM8.585 7.15a2.25 2.25 0 00-.03 4.5 2.235 2.235 0 002.27-2.245 2.25 2.25 0 00-2.24-2.255zm-.03 1.28a.92.92 0 01.92.975.915.915 0 11-1.825 0 .92.92 0 01.905-.975z"/>
</svg>
