<svg width="24" height="24" xmlns="http://www.w3.org/2000/svg"><path d="M4.5 3v2H6V3h3v2h1.5V3h3v2H15V3h3v2h1.5V3H23v3.5h-2V8h2v3h-2v1.5h2v3h-2V17h2v.5a3 3 0 01-2.824 2.995L20 20.5h-.5v-2H18v2h-3v-2h-1.5v2h-3v-2H9v2H6v-2H4.5v2H4a3 3 0 01-2.995-2.824L1 17.5V17h2v-1.5H1v-3h2V11H1V8h2V6.5H1V3h3.5zm10.295 8.945a2.25 2.25 0 100 4.5 2.25 2.25 0 000-4.5zm.77-4.635H13.93l-5.635 9h1.64l5.63-9zm-.755 5.905a1 1 0 010 1.945.975.975 0 01-.116-1.93l.116-.015zM9.085 7.15a2.25 2.25 0 00-.03 4.5 2.235 2.235 0 002.27-2.245 2.25 2.25 0 00-2.24-2.255zm-.03 1.28a.92.92 0 01.919.849l.001.126a.915.915 0 11-1.826.113l.001-.113a.92.92 0 01.905-.975z" fill-rule="evenodd"/></svg>