<svg width="24" height="24" xmlns="http://www.w3.org/2000/svg"><path d="M4.775 13.05a5 5 0 00-.935 1.263l-.115.237h-.06a1.5 1.5 0 00-1.437 1.081l-.033.139-.335 1.73H.335l.385-2a3 3 0 012.766-2.444l.179-.006h1.11zm15.56.015a3 3 0 012.906 2.26l.039.175.36 2h-1.5l-.335-1.715a1.5 1.5 0 00-1.328-1.213l-.142-.007h-.06a5 5 0 00-.867-1.31l-.183-.19h1.11zm-4.625.05a3.5 3.5 0 013.435 2.753l.035.187.24 1.445H4.58l.24-1.435a3.5 3.5 0 013.28-2.936l.19-.004h1.34L12 15.5l2.37-2.385h1.34zM12 2.235a4.775 4.775 0 014.88 4.885c0 3.07-2.19 5.57-4.88 5.57s-4.88-2.5-4.88-5.57A4.775 4.775 0 0112 2.235zm-5.6 1.58c.223 0 .445.019.665.055-.29.448-.513.934-.665 1.445a2.18 2.18 0 00-2.28 2.28c0 1.36.915 2.86 2.28 2.86.17 0 .338-.026.5-.075.234.457.521.885.855 1.275a3.38 3.38 0 01-1.375.3c-2.085 0-3.78-1.955-3.78-4.36a3.695 3.695 0 013.8-3.78zm11.24 0a3.695 3.695 0 013.78 3.78c0 2.405-1.695 4.36-3.78 4.36a3.38 3.38 0 01-1.375-.3c.334-.39.62-.818.855-1.275.162.049.33.074.5.075 1.365 0 2.28-1.48 2.28-2.86a2.18 2.18 0 00-2.26-2.28 5.595 5.595 0 00-.665-1.445c.22-.036.442-.055.665-.055zm-5.449.92H12A2.275 2.275 0 009.62 7.12c0 1.45 1 3.07 2.38 3.07s2.38-1.62 2.38-3.07a2.28 2.28 0 00-2.189-2.386z" fill="#000" fill-rule="evenodd"/></svg>