<svg width="24" height="24" xmlns="http://www.w3.org/2000/svg"><path d="M17.75 11.5a6.25 6.25 0 110 12.5 6.25 6.25 0 010-12.5zm0 7.673a1 1 0 10-.001 2 1 1 0 000-2zM9.25 2c4.695 0 8.564 3.501 9.16 8.033a7.992 7.992 0 00-.66-.033c-.29 0-.576.02-.857.05a7.753 7.753 0 00-3.468-5.319c.948 1.5 1.566 3.507 1.685 5.74a7.75 7.75 0 00-2.294 1.313l-.25.216H10v6.867l.085-.034a7.61 7.61 0 00.394 1.576 9.22 9.22 0 01-1.23.091 9.25 9.25 0 010-18.5zM8.5 12H4.887c.196 3.263 1.65 6.068 3.444 6.804l.169.063V12zm10 2H17v4h1.5v-4zM3.389 12H1.538a7.755 7.755 0 003.537 5.77c-.952-1.507-1.572-3.526-1.686-5.77zm1.686-7.269a7.758 7.758 0 00-3.504 5.48l-.033.29h1.85c.115-2.245.735-4.265 1.687-5.77zM8.5 3.632c-1.814.605-3.317 3.33-3.591 6.563l-.022.305H8.5V3.632zm1.5 0V10.5h3.613C13.41 7.134 11.87 4.256 10 3.632z" fill-rule="evenodd"/></svg>