<svg width="24" height="24" xmlns="http://www.w3.org/2000/svg"><path d="M12 9.325a3.624 3.624 0 013.62 3.62V14H17v5.5a1.5 1.5 0 01-1.5 1.5h-7A1.5 1.5 0 017 19.5V14h1.38v-1.055A3.624 3.624 0 0112 9.325zm1.512-7.15a7.595 7.595 0 017.148 4.981 5.759 5.759 0 013.09 5.094c0 3.004-2.317 5.472-5.256 5.724v-1.506a4.255 4.255 0 003.756-4.218 4.257 4.257 0 00-2.507-3.872l-.304-.138-.101-.317a6.1 6.1 0 00-5.826-4.249 6.101 6.101 0 00-4.105 1.591l-.328.298-.42-.143a3.188 3.188 0 00-1.037-.176 3.216 3.216 0 00-3.213 3.213l.033.661-.468.21A3.755 3.755 0 001.75 12.75a3.754 3.754 0 003.55 3.745l.206.005V18A5.258 5.258 0 01.25 12.75c0-1.9 1.032-3.643 2.667-4.568a4.718 4.718 0 014.705-4.438c.369 0 .738.045 1.1.133a7.592 7.592 0 014.79-1.703zM12 10.824a2.122 2.122 0 00-2.12 2.12V14h4.24v-1.055c0-1.169-.951-2.12-2.12-2.12z" fill-rule="evenodd"/></svg>