<svg width="24" height="24" xmlns="http://www.w3.org/2000/svg"><path d="M12 9.326a3.623 3.623 0 013.62 3.62V14H17v5.5a1.5 1.5 0 01-1.5 1.5h-7A1.5 1.5 0 017 19.5V14h1.38v-1.055A3.623 3.623 0 0112 9.326zm1.512-7.152a7.595 7.595 0 017.148 4.982 5.759 5.759 0 013.09 5.094 5.754 5.754 0 01-5.256 5.725v-5.342h-1.44A5.072 5.072 0 0012 7.875a5.072 5.072 0 00-5.054 4.758h-1.44V18A5.257 5.257 0 01.25 12.75c0-1.9 1.032-3.643 2.668-4.568a4.717 4.717 0 014.704-4.438c.369 0 .738.045 1.1.133a7.592 7.592 0 014.79-1.703zM12 10.826c-1.168 0-2.12.95-2.12 2.12V14h4.24v-1.055A2.122 2.122 0 0012 10.826z" fill-rule="evenodd"/></svg>