<svg width="24" height="24" xmlns="http://www.w3.org/2000/svg"><path d="M15.085 17.4a5.961 5.961 0 01-4.244 1.756A5.96 5.96 0 016.6 17.4a5.958 5.958 0 01-1.758-4.243c0-1.602.624-3.109 1.758-4.242a5.957 5.957 0 014.242-1.758c1.602 0 3.11.624 4.242 1.758a6.007 6.007 0 010 8.485zM21 8.5V3h-5.5l1.865 1.865-1.469 1.47a8.429 8.429 0 00-5.055-1.679c-2.27 0-4.404.885-6.01 2.49a8.446 8.446 0 00-2.49 6.01c0 2.271.885 4.406 2.49 6.011a8.445 8.445 0 006.01 2.49c2.27 0 4.405-.885 6.011-2.49 3.014-3.013 3.277-7.74.811-11.065l1.47-1.47L21 8.5z" fill="#000" fill-rule="evenodd"/></svg>