<svg width="24" height="24" xmlns="http://www.w3.org/2000/svg"><path d="M22.45 3.5v12.55a3.01 3.01 0 01-2.824 2.995l-.176.005h-7l-3.5 3.5c-.35.35-.75.5-1.2.5-.855 0-1.665-.632-1.744-1.595L6 21.3V19H4.5a3.01 3.01 0 01-2.995-2.824L1.5 16V3.5h20.95zM21 5H3v11c0 .8.576 1.423 1.352 1.493l.148.007h3.05v3.8c0 .188.14.234.21.246l.04.004c.037 0 .075-.028.112-.063L11.9 17.5h7.6c.8 0 1.423-.576 1.493-1.352L21 16V5zm-4.5 7c.4 0 .75.35.75.75a.772.772 0 01-.651.743l-.099.007h-9c-.4 0-.75-.35-.75-.75 0-.367.294-.691.651-.743L7.5 12h9zm0-3.5c.4 0 .75.35.75.75a.772.772 0 01-.651.743L16.5 10h-9c-.4 0-.75-.35-.75-.75 0-.367.294-.691.651-.743L7.5 8.5h9z" fill="#000" fill-rule="evenodd"/></svg>