<svg xmlns="http://www.w3.org/2000/svg" viewBox="0 0 114 38" style="enable-background:new 0 0 114 38" xml:space="preserve"><style>.st0{fill:#fff}</style><switch><g><g id="T_Logo"><path class="st0" d="M7.6 25.1H0v-7.6h7.6v7.6zM0 0v12.9h2.3v-.4c0-6.1 3.4-9.9 9.9-9.9h.4V30c0 3.8-1.5 5.3-5.3 5.3H6.1V38h19.8v-2.7h-1.1c-3.8 0-5.3-1.5-5.3-5.3V2.7h.4c6.5 0 9.9 3.8 9.9 9.9v.4h2.3V0H0zm24.3 25.1h7.6v-7.6h-7.6v7.6z" id="Telekom_Logo"/><g id="Claim"><path id="me" class="st0" d="M61.3 5.9c-.7-.6-1.5-.9-2.6-.9h-4v11.4h1.8v-4.1h2.2c1.1 0 1.9-.3 2.6-.9.7-.6 1-1.5 1-2.7 0-1.3-.3-2.2-1-2.8zM60 10.1c-.4.3-.8.5-1.4.5h-2.1v-4h2.1c.6 0 1 .2 1.4.5.4.3.6.8.6 1.5-.1.7-.3 1.2-.6 1.5zm8.7-1.6c-.5-.3-1.2-.5-1.9-.5s-1.4.2-1.9.5c-.5.4-1 .9-1.3 1.5-.3.6-.4 1.4-.4 2.3 0 .9.1 1.6.4 2.3.3.7.7 1.2 1.3 1.5.5.3 1.2.5 1.9.5s1.4-.2 1.9-.5 1-.8 1.3-1.5c.3-.7.4-1.4.4-2.3 0-.9-.1-1.6-.4-2.3-.3-.6-.7-1.1-1.3-1.5zm-.5 5.8c-.3.5-.8.7-1.4.7-.6 0-1.1-.2-1.4-.7-.3-.5-.5-1.2-.5-2 0-.9.2-1.6.5-2 .3-.5.8-.7 1.4-.7.6 0 1.1.2 1.4.7.3.5.5 1.2.5 2 0 .9-.1 1.5-.5 2zm9.2-5.1h-.1c-.2-.4-.5-.7-.9-.9-.4-.2-.9-.3-1.4-.3-.7 0-1.2.2-1.7.5s-.8.8-1.1 1.5c-.2.6-.4 1.4-.4 2.3 0 .9.1 1.6.4 2.3.2.6.6 1.1 1.1 1.5.5.3 1.1.5 1.7.5.5 0 1-.1 1.4-.4.4-.3.7-.6.9-1.1h.1v1.2H79V4.9h-1.7v4.3zm-.5 5.1c-.3.5-.8.7-1.4.7-.6 0-1.1-.2-1.5-.7-.3-.5-.5-1.2-.5-2 0-.9.2-1.6.5-2 .3-.5.8-.7 1.5-.7.6 0 1.1.2 1.4.7.3.5.5 1.2.5 2 0 .9-.2 1.5-.5 2zm6 2h-1.7V8.2h1.7v8.1zm0-9.5h-1.7V4.9h1.7v1.9zm3.9 0h-1.7V4.9h1.7v1.9zm-2.3 12.5c-.3 0-.5 0-.8-.1v-1.4c.2 0 .3.1.5.1.3 0 .5-.1.7-.3.2-.2.3-.4.3-.7V8.2h1.7v8.6c0 .8-.2 1.4-.6 1.8-.6.5-1.1.7-1.8.7zm9.7-3.4c.6-.4 1-1 1.2-1.8h-1.7c-.1.3-.3.6-.6.8-.3.2-.6.3-1 .3-.6 0-1.1-.2-1.4-.7-.3-.4-.4-1-.5-1.8h5.3v-.6c0-.8-.1-1.6-.4-2.2-.3-.6-.7-1.1-1.2-1.4-.5-.3-1.1-.5-1.8-.5s-1.4.2-1.9.5-.9.8-1.2 1.5c-.3.6-.4 1.4-.4 2.3 0 .9.1 1.7.4 2.3.3.7.7 1.1 1.2 1.5.5.3 1.1.5 1.9.5.8 0 1.5-.2 2.1-.7zm-2.1-6.5c.6 0 1 .2 1.4.6.2.3.4.7.4 1.3h-3.7c.1-.5.2-1 .4-1.3.4-.3.9-.6 1.5-.6zm7 7.1c-.6 0-1-.2-1.4-.5-.3-.3-.5-.8-.5-1.4V4.9h1.7v9.4c0 .2 0 .4.1.5.1.1.2.2.4.2s.4 0 .6-.1v1.3c-.2.2-.5.3-.9.3zm4.2-.2h-1.7V8.2h1.7v8.1zm0-9.5h-1.7V4.9h1.7v1.9zM59.7 25.9h-.1c-.2-.4-.5-.7-.9-.9-.4-.2-.8-.3-1.3-.3-.7 0-1.2.2-1.7.5s-.8.8-1.1 1.5c-.2.6-.4 1.4-.4 2.3 0 .9.1 1.6.4 2.3.2.6.6 1.1 1.1 1.5.5.3 1.1.5 1.7.5.5 0 1-.1 1.4-.4.4-.3.7-.6.9-1.1h.1V33h1.6V21.7h-1.7v4.2zm-.5 5.1c-.3.5-.8.7-1.4.7-.6 0-1.1-.2-1.5-.7-.3-.5-.5-1.2-.5-2 0-.9.2-1.6.5-2 .3-.5.8-.7 1.5-.7.6 0 1.1.2 1.4.7.3.5.5 1.2.5 2 0 .9-.2 1.6-.5 2zm9.4-5.8c-.5-.4-1.2-.5-1.9-.5s-1.4.2-1.9.5c-.5.4-1 .9-1.3 1.5-.3.7-.5 1.4-.5 2.3 0 .9.1 1.6.4 2.3.3.7.7 1.2 1.3 1.5.5.3 1.2.5 1.9.5s1.4-.2 1.9-.5 1-.8 1.3-1.5c.3-.7.4-1.4.4-2.3 0-.9-.1-1.6-.4-2.3-.2-.6-.7-1.1-1.2-1.5zm-.5 5.8c-.3.5-.8.7-1.4.7-.6 0-1.1-.2-1.4-.7-.3-.5-.5-1.2-.5-2 0-.9.2-1.6.5-2 .3-.5.8-.7 1.4-.7.6 0 1.1.2 1.4.7.3.5.5 1.2.5 2 0 .9-.2 1.6-.5 2zm7-7.3h-1.5L72 21.3h1.6l.8 1.2h.1l.8-1.2h1.6l-1.8 2.4zm-1.7 7.9h3.8V33h-5.6v-1.8l3.8-4.8v-.1h-3.6v-1.4h5.4v1.7l-3.7 4.8v.2zm5.7-9.9h1.7v1.8h-1.7v-1.8zm0 3.2h1.7V33h-1.7v-8.1zm8.7 0h1.8L86.8 33H85l-2.8-8.1H84l1.8 5.7h.2l1.8-5.7zm5.5 6.8c.2 0 .4 0 .6-.1V33c-.3.1-.7.2-1 .2-.6 0-1-.2-1.4-.5-.3-.3-.5-.8-.5-1.4v-9.7h1.7V31c0 .2 0 .4.1.5.2.2.3.2.5.2zm2.2-10h1.7v1.8h-1.7v-1.8zm0 3.2h1.7v8.6c0 .8-.2 1.4-.6 1.8-.4.4-1 .6-1.7.6-.3 0-.5 0-.8-.1v-1.4c.2 0 .3.1.5.1.3 0 .5-.1.7-.3.2-.2.3-.4.3-.7l-.1-8.6zm9.8 6.7c-.1-.1-.1-.2-.1-.4v-3.5c0-.9-.3-1.7-.8-2.2-.5-.6-1.3-.8-2.3-.8-.8 0-1.5.2-2.1.6-.5.4-.9 1-.9 1.8h1.6c.1-.4.2-.6.4-.8.2-.2.5-.3.9-.3.5 0 .9.1 1.1.4.2.3.3.7.3 1.2v.4h-.4c-1.3 0-2.3.2-3.1.7-.7.5-1.1 1.2-1.1 2.1 0 .7.2 1.3.6 1.7.4.4 1 .6 1.8.6.5 0 1-.1 1.4-.3.4-.2.7-.5.9-.9h.1c0 .3.2.6.4.8.3.2.6.3 1 .3.2 0 .3 0 .5-.1.1 0 .3-.1.4-.1v-1.3c-.1 0-.2.1-.4.1 0 .2-.1.1-.2 0zm-2.6 0c-.3.2-.6.3-1 .3s-.7-.1-.9-.3c-.2-.2-.3-.5-.3-.9 0-.5.2-.9.6-1.1.4-.2 1.1-.4 1.9-.4h.5v.4c0 .4-.1.8-.2 1.1-.1.4-.3.7-.6.9zm5-9.9h1.7v1.8h-1.7v-1.8zm0 3.2h1.7v8.6c0 .8-.2 1.4-.6 1.8-.4.4-1 .6-1.7.6-.3 0-.5 0-.8-.1v-1.4c.2 0 .3.1.5.1.3 0 .5-.1.7-.3.2-.2.3-.4.3-.7l-.1-8.6zm5.8 6v2.2h-2.2v-2.2h2.2z"/></g></g></g></switch></svg>