<svg xmlns="http://www.w3.org/2000/svg" viewBox="0 0 103 38" style="enable-background:new 0 0 103 38" xml:space="preserve"><style>.st0{fill:#fff}</style><switch><g><g id="T_Logo"><path class="st0" d="M7.6 25.1H0v-7.6h7.6v7.6zM0 0v12.9h2.3v-.4c0-6.1 3.4-9.9 9.9-9.9h.4V30c0 3.8-1.5 5.3-5.3 5.3H6.1V38h19.8v-2.7h-1.1c-3.8 0-5.3-1.5-5.3-5.3V2.7h.4c6.5 0 9.9 3.8 9.9 9.9v.4h2.3V0H0zm24.3 25.1h7.6v-7.6h-7.6v7.6z" id="Telekom_Logo"/><g id="Claim"><path id="hu" class="st0" d="M61.2 16.3h-6.5V4.9h6.5v1.6h-4.7v3.1H61v1.6h-4.5v3.4h4.7v1.7zm7-8.1h1.6v7.9c0 .6-.1 1.2-.4 1.7-.3.5-.7.9-1.2 1.2-.5.3-1.2.4-1.9.4-.6 0-1.2-.1-1.7-.3-.5-.2-.9-.5-1.2-.8-.3-.3-.5-.7-.6-1.2h1.7c.1.3.3.5.6.7.3.2.7.2 1.1.2.6 0 1.1-.2 1.4-.5.3-.3.5-.8.5-1.4V15H68c-.2.4-.5.6-.9.8-.4.2-.8.3-1.3.3-.7 0-1.3-.2-1.7-.5-.5-.3-.9-.8-1.1-1.4-.3-.6-.4-1.3-.4-2.2 0-.8.1-1.5.4-2.1.3-.6.6-1.1 1.1-1.4.5-.4 1.1-.5 1.7-.5.5 0 1 .1 1.4.3.4.2.7.6.9 1h.1V8.2zm0 3.8c0-.8-.2-1.4-.5-1.8-.3-.4-.8-.7-1.4-.7-.6 0-1.1.2-1.5.7-.3.4-.5 1-.5 1.8s.2 1.4.5 1.8c.3.4.8.7 1.5.7.6 0 1.1-.2 1.4-.7.3-.4.5-1 .5-1.8zm10.6-3.8H77l-1.9 5.7H75l-2-5.7h-1.8l3 7.9-.3.9c-.1.4-.3.6-.5.8-.2.1-.4.2-.7.2-.3 0-.6 0-.9-.1v1.4c.3.1.7.2 1.2.2.6 0 1.1-.2 1.5-.5.4-.3.7-.8.9-1.4l3.4-9.4zm3.8-3.3h-1.7v1.9h1.7V4.9zm3.1 0H84v1.9h1.7V4.9zm-.8 10.4h.1v1.1h1.6V8.2h-1.7v4.6c0 .7-.2 1.2-.5 1.6-.3.4-.7.6-1.3.6-.5 0-.8-.1-1-.4-.2-.3-.3-.7-.3-1.2V8.2h-1.7v5.4c0 1 .2 1.7.6 2.2.4.5 1 .8 1.9.8.5 0 .9-.1 1.3-.3.5-.3.8-.6 1-1zm6.2-9.9h-.3l-1.3 1.3v1.5H88v1.4h1.5v4.5c0 .8.2 1.3.6 1.7.4.4 1 .6 1.6.6.6 0 1.1-.1 1.5-.3v-1.3c-.3.1-.7.1-1 .2-.3 0-.6-.1-.8-.3-.2-.2-.3-.5-.3-.8V9.7h2.2V8.2h-2.2V5.4zm6.2 0H97l-1.3 1.3v1.5h-1.5v1.4h1.5v4.5c0 .8.2 1.3.6 1.7.4.4 1 .6 1.6.6.6 0 1.1-.1 1.5-.3v-1.3c-.3.1-.7.1-1 .2-.3 0-.6-.1-.8-.3-.2-.2-.3-.5-.3-.8V9.7h2.2V8.2h-2.2V5.4zm3.5 8.8v2.2h2.2v-2.2h-2.2zm-39.6 7.5-2.8 8.7h-.1l-2.8-8.7h-1.8l3.8 11.4h1.8L63 21.7h-1.8zm8.1 4.9c.3.6.4 1.3.4 2.2v.6h-5.3c0 .8.2 1.4.5 1.8.3.5.8.7 1.4.7.4 0 .8-.1 1-.3.3-.2.5-.4.6-.8h1.7c-.2.8-.6 1.4-1.2 1.8-.6.4-1.3.6-2.2.6-.7 0-1.3-.2-1.9-.5-.5-.3-.9-.8-1.2-1.5-.3-.7-.4-1.4-.4-2.3 0-.9.1-1.7.4-2.3.3-.6.7-1.1 1.2-1.5.5-.3 1.2-.5 1.9-.5s1.3.2 1.8.5c.7.4 1.1.9 1.3 1.5zm-4.4.2c-.2.3-.4.7-.4 1.3h3.7c-.1-.6-.2-1-.4-1.3-.3-.4-.8-.6-1.4-.6-.7-.1-1.2.2-1.5.6zm8.4 4.8c-.1-.1-.1-.3-.1-.5v-9.4h-1.7v9.7c0 .6.2 1.1.5 1.4.3.3.8.5 1.4.5.3 0 .7-.1 1-.2v-1.3c-.2.1-.4.1-.6.1-.3-.2-.4-.2-.5-.3zm8.5-5c.3.6.4 1.3.4 2.2v.6h-5.3c0 .8.2 1.4.5 1.8.3.5.8.7 1.4.7.4 0 .8-.1 1-.3.3-.2.5-.4.6-.8h1.7c-.2.8-.6 1.4-1.2 1.8-.6.4-1.3.6-2.2.6-.7 0-1.3-.2-1.9-.5-.5-.3-.9-.8-1.2-1.5-.3-.7-.4-1.4-.4-2.3 0-.9.1-1.7.4-2.3.3-.6.7-1.1 1.2-1.5.5-.3 1.2-.5 1.9-.5s1.3.2 1.8.5c.6.4 1 .9 1.3 1.5zm-4.4.2c-.2.3-.4.7-.4 1.3h3.7c-.1-.6-.2-1-.4-1.3-.3-.4-.8-.6-1.4-.6-.7-.1-1.2.2-1.5.6zm11.8-5.1h1.7v11.4h-1.6v-1.2h-.1c-.2.4-.5.8-.9 1.1-.4.3-.9.4-1.4.4-.7 0-1.2-.2-1.7-.5s-.8-.8-1.1-1.5c-.2-.6-.4-1.4-.4-2.3 0-.9.1-1.7.4-2.3.2-.6.6-1.1 1.1-1.5.5-.3 1.1-.5 1.7-.5.5 0 1 .1 1.3.3.4.2.7.5.9.9h.1v-4.3zm0 7.3c0-.9-.2-1.6-.5-2-.3-.5-.8-.7-1.4-.7-.6 0-1.1.2-1.5.7-.3.5-.5 1.2-.5 2 0 .9.2 1.6.5 2 .3.5.8.7 1.5.7.6 0 1.1-.2 1.4-.7.3-.4.5-1.1.5-2z"/></g></g></g></switch></svg>