<svg class="svg-logo" xmlns="http://www.w3.org/2000/svg" viewBox="0 0 313.61 42.52">
    <path class="st0" d="M130.03 21.7c0 2.75-1.76 4.27-4.27 4.27h-2.19v4.35h-2.61V17.41h4.79c2.52 0 4.28 1.54 4.28 4.29zm-2.71 0c0-1.22-.75-1.88-1.74-1.88h-2.01v3.73h2.01c.99.01 1.74-.65 1.74-1.85zM135.34 25.61h-1.26v4.72h-2.61V17.41h4.78c2.51 0 4.29 1.49 4.29 4.1 0 1.97-1.02 3.31-2.59 3.83l2.73 4.99h-2.9l-2.44-4.72zm-1.26-2.42h2.03c1.03 0 1.72-.6 1.72-1.68s-.7-1.68-1.72-1.68h-2.03v3.36zM141.76 23.87c0-4.18 1.93-6.75 5.47-6.75s5.47 2.57 5.47 6.75-1.93 6.75-5.47 6.75c-3.54-.01-5.47-2.58-5.47-6.75zm8.23 0c0-2.82-.97-4.25-2.76-4.25-1.8 0-2.76 1.43-2.76 4.25s.97 4.25 2.76 4.25c1.79 0 2.76-1.43 2.76-4.25zM158.47 26.67h2.59c.23 1.08.95 1.51 1.9 1.51 1.12 0 1.68-.62 1.68-1.45 0-.81-.54-1.22-1.55-1.49l-1.49-.42c-2.07-.56-2.88-2.05-2.88-3.67 0-2.48 1.84-4.02 4.23-4.02 2.61 0 4.02 1.51 4.27 3.89h-2.55c-.17-.97-.72-1.45-1.72-1.45-.89 0-1.57.5-1.57 1.41 0 .91.6 1.24 1.32 1.43l1.49.41c1.91.5 3.11 1.91 3.11 3.77 0 2.59-1.91 4.04-4.35 4.04-2.66-.02-4.25-1.41-4.48-3.96zM177.92 21.7c0 2.75-1.76 4.27-4.27 4.27h-2.19v4.35h-2.61V17.41h4.79c2.52 0 4.28 1.54 4.28 4.29zm-2.71 0c0-1.22-.75-1.88-1.74-1.88h-2.01v3.73h2.01c.99.01 1.74-.65 1.74-1.85zM178.94 23.87c0-4.18 1.93-6.75 5.47-6.75s5.47 2.57 5.47 6.75-1.93 6.75-5.47 6.75c-3.54-.01-5.47-2.58-5.47-6.75zm8.23 0c0-2.82-.97-4.25-2.76-4.25-1.8 0-2.77 1.43-2.77 4.25s.97 4.25 2.77 4.25 2.76-1.43 2.76-4.25zM191.69 17.41h2.61v10.5h4.62v2.41h-7.23zM202.92 19.82v2.73h4.79v2.42h-4.79v2.94h4.99v2.41h-7.6V17.41h7.6v2.41zM214.77 17.12c2.57 0 4.54 1.66 4.91 4.39h-2.73c-.29-1.33-1.18-1.9-2.19-1.9-1.78 0-2.76 1.47-2.76 4.25s.99 4.25 2.76 4.25c1.01 0 1.89-.56 2.19-1.9h2.73c-.37 2.73-2.34 4.39-4.91 4.39-3.5 0-5.47-2.59-5.47-6.75s1.97-6.73 5.47-6.73zM215.71 13.19h2.4l-2.22 2.92h-2.28l-2.19-2.92h2.38l.91 1.2h.11zM231.06 17.41v12.91h-2.63l-4.64-8.08h-.12v8.08h-2.61V17.41h2.65l4.64 8.12h.12v-8.12zM236.19 19.82v2.73h4.8v2.42h-4.8v2.94h4.99v2.41h-7.6V17.41h7.6v2.41zM238.34 16.11h-2.47l1.99-2.92h2.49zM255.58 27.91v2.41h-8.1v-2.97l5.24-7.41v-.12h-5.05v-2.41h7.85v2.97l-5.24 7.41v.12zM262.53 13.19h2.5l-1.99 2.92h-2.5zM264.29 27.83h-4.45l-.83 2.49h-2.65l4.41-12.92h2.61l4.41 12.92h-2.65l-.85-2.49zm-.81-2.44l-1.35-4h-.12l-1.35 4h2.82zM276.74 27.91v2.41h-8.1v-2.97l5.24-7.41v-.12h-5.05v-2.41h7.85v2.97l-5.24 7.41v.12zM273.68 13.19h2.38l-2.2 2.92h-2.28l-2.21-2.92h2.4l.89 1.2h.12zM278.28 17.41h2.61v12.91h-2.61zM282.2 17.41h9.23v2.41h-3.31v10.5h-2.61v-10.5h-3.31zM296.28 25.14l-.93 1.18v4h-2.61V17.41h2.61v4.87h.09l3.72-4.87h3.21l-4.41 5.57 4.46 7.34h-2.99l-3.04-5.18zM309.46 25.04v5.28h-2.62v-5.28l-4.15-7.63h3.05l2.34 4.75h.12l2.36-4.75h3.05z"/></g><g id="_x31_-T-3_Logo"><path class="st0" d="M82.12 19.56h4.41v8.61h-8.61v-8.61zM52.09 19.56v8.61h8.61v-8.61h-4.19zM26.26 19.56v8.61h8.61v-8.61h-4.42z"/><path class="st0" d="M.43 0L0 15l2.26.39c.42-4.42 1.58-7.7 3.48-9.84 2-2.24 4.75-3.41 8.29-3.51v31.39c0 2.74-.38 4.52-1.18 5.34-.68.7-1.83 1.13-3.45 1.29-.48.04-1.3.06-2.46.06v2.4h20.99v-2.4c-1.16 0-1.98-.02-2.46-.06-1.62-.16-2.77-.59-3.45-1.29-.8-.82-1.19-2.6-1.19-5.34V2.04c3.54.1 6.3 1.27 8.3 3.51 1.9 2.14 3.06 5.42 3.48 9.84l2.26-.39-.43-15H.43z"/><path class="st0" d="M8.61 19.56H0v8.61h8.61z"/>
</svg>