<svg xmlns="http://www.w3.org/2000/svg" viewBox="0 0 109 38" style="enable-background:new 0 0 109 38" xml:space="preserve"><style>.st0{fill:#fff}</style><switch><g><g id="T_Logo"><path class="st0" d="M7.6 25.1H0v-7.6h7.6v7.6zM0 0v12.9h2.3v-.4c0-6.1 3.4-9.9 9.9-9.9h.4V30c0 3.8-1.5 5.3-5.3 5.3H6.1V38h19.8v-2.7h-1.1c-3.8 0-5.3-1.5-5.3-5.3V2.7h.4c6.5 0 9.9 3.8 9.9 9.9v.4h2.3V0H0zm24.3 25.1h7.6v-7.6h-7.6v7.6z" id="Telekom_Logo"/><g id="Claim"><path id="sk" class="st0" d="M61.5 16.3h-7v-2l5.1-7.6v-.1h-4.9V5h6.7v2l-5.1 7.6v.1h5.1v1.6zm8-1.3c.1 0 .3 0 .4-.1v1.3c-.1.1-.3.1-.4.1-.2 0-.3.1-.5.1-.4 0-.8-.1-1-.3-.2-.2-.4-.4-.4-.8h-.1c-.2.4-.6.7-.9.9-.4.2-.9.3-1.4.3-.8 0-1.4-.2-1.8-.6-.4-.4-.6-1-.6-1.7 0-.9.4-1.6 1.1-2.1.7-.5 1.8-.7 3.1-.7h.5V11c0-.5-.1-.9-.3-1.2-.2-.3-.6-.4-1.1-.4-.4 0-.7.1-.9.3-.2.2-.4.5-.4.8h-1.6c.1-.8.4-1.4.9-1.8.3-.5 1-.7 1.8-.7 1 0 1.8.3 2.3.8.5.6.8 1.3.8 2.2v3.5c0 .2 0 .3.1.4.1.1.2.1.4.1zm-2.3-.9c.2-.3.2-.7.2-1.1v-.4h-.5c-.8 0-1.5.1-1.9.4-.4.2-.6.6-.6 1.1 0 .4.1.7.3.9.2.2.5.3.9.3s.7-.1 1-.3l.6-.9zm9.5.8h-3.8v-.1l3.7-4.8V8.2h-5.4v1.4h3.6v.1L71 14.5v1.8h5.6v-1.4zm-2-7.9 1.7-2.4h-1.6L74 5.7h-.1l-.8-1.2h-1.6L73.2 7h1.5zm5.5-2.1h-1.7v1.8h1.7V4.9zm0 3.3h-1.7v8.1h1.7V8.2zm3.9 3.5c0-.7.2-1.2.5-1.6.3-.4.7-.6 1.3-.6.5 0 .8.1 1 .4.2.3.3.7.3 1.2v5.2h1.7v-4.6c0-.7.1-1.2.4-1.6.3-.4.7-.6 1.3-.6.5 0 .8.1 1 .4.2.3.3.7.3 1.2v5.2h1.7V11c0-1-.2-1.7-.6-2.2-.4-.6-1-.8-1.9-.8-.5 0-1 .1-1.5.4-.4.2-.8.6-1 1h-.1c-.2-.5-.4-.8-.8-1-.3-.3-.8-.4-1.3-.4s-1 .1-1.4.3c-.4.2-.7.6-.9 1H84V8.2h-1.6v8.1h1.7v-4.6zm18.1 2.4c-.2.8-.6 1.4-1.2 1.8-.6.4-1.3.6-2.2.6-.7 0-1.3-.2-1.9-.5-.5-.3-.9-.8-1.2-1.5-.3-.7-.4-1.4-.4-2.3 0-.9.1-1.7.4-2.3.3-.6.7-1.1 1.3-1.4.5-.3 1.1-.5 1.9-.5.7 0 1.3.2 1.8.5s.9.8 1.2 1.4c.3.6.4 1.3.4 2.2v.6H97c0 .8.2 1.4.5 1.8.3.5.8.7 1.4.7.4 0 .8-.1 1-.3.3-.2.5-.4.6-.8h1.7zm-4.8-4c-.2.3-.4.7-.4 1.3h3.7c-.1-.6-.2-1-.4-1.3-.3-.4-.8-.6-1.4-.6-.7-.1-1.2.2-1.5.6zm-40.1 12H57l-1.3 1.3v1.5h-1.5v1.4h1.5v4.5c0 .8.2 1.3.6 1.7.4.4 1 .6 1.6.6.6 0 1.1-.1 1.5-.3v-1.3c-.3.1-.7.1-1 .2-.3 0-.6-.1-.8-.3-.2-.2-.3-.5-.3-.8v-4.2h2.2V25h-2.2v-2.9zm10.2 4.6c.3.6.4 1.4.4 2.3 0 .9-.1 1.6-.4 2.3-.3.7-.7 1.2-1.3 1.5-.5.3-1.2.5-1.9.5s-1.4-.2-1.9-.5-1-.8-1.3-1.5c-.3-.7-.4-1.4-.4-2.3 0-.9.1-1.6.4-2.3.3-.6.7-1.1 1.3-1.5.5-.4 1.2-.5 1.9-.5s1.4.2 1.9.5c.6.4 1 .9 1.3 1.5zM66.3 29c0-.9-.2-1.6-.5-2-.3-.5-.8-.7-1.4-.7-.6 0-1.1.2-1.4.7-.3.5-.5 1.2-.5 2 0 .9.2 1.6.5 2 .3.5.8.7 1.4.7.6 0 1.1-.2 1.4-.7.3-.4.5-1.1.5-2zm10-.6-1-.3c-.3-.1-.6-.2-.7-.4-.2-.2-.2-.4-.2-.6 0-.3.1-.6.3-.7.2-.2.5-.3.9-.3.3 0 .6.1.8.3.2.2.3.5.4.8h1.6c-.1-.8-.4-1.4-.9-1.8-.5-.4-1.2-.7-2-.7-.6 0-1.1.1-1.5.3-.4.2-.8.5-1 .9-.2.4-.4.8-.4 1.2 0 .7.2 1.2.5 1.6.3.4.8.6 1.4.8l1 .3c.4.1.6.2.8.4.2.2.3.4.3.7 0 .3-.1.6-.3.8-.2.2-.5.3-.9.3s-.7-.1-.9-.3c-.2-.2-.4-.4-.5-.8h-1.6c.1.8.4 1.4.9 1.8.5.4 1.2.6 2.1.6.9 0 1.6-.2 2.1-.7.5-.5.8-1.1.8-1.8 0-.6-.2-1.1-.5-1.5-.3-.4-.8-.7-1.5-.9zm10.6-1.7c.3.6.4 1.4.4 2.3 0 .9-.1 1.6-.4 2.3-.3.6-.6 1.1-1.1 1.5-.5.3-1 .5-1.7.5-.5 0-.9-.1-1.3-.3-.4-.2-.7-.5-.9-.9h-.1V36h-1.7V25h1.6v1.2h.1c.2-.4.5-.8.9-1 .4-.3.9-.4 1.4-.4.7 0 1.2.2 1.7.5s.9.8 1.1 1.4zM85.6 29c0-.9-.2-1.6-.5-2-.3-.5-.8-.7-1.4-.7-.6 0-1.1.2-1.4.7-.3.5-.5 1.2-.5 2 0 .9.2 1.6.5 2 .3.5.8.7 1.4.7.6 0 1.1-.2 1.4-.7.3-.4.5-1.1.5-2zm9.9-2.3c.3.6.4 1.4.4 2.3 0 .9-.1 1.6-.4 2.3-.3.7-.7 1.2-1.3 1.5-.5.3-1.2.5-1.9.5s-1.4-.2-1.9-.5-1-.8-1.3-1.5c-.3-.7-.4-1.4-.4-2.3 0-.9.1-1.6.4-2.3.3-.6.7-1.1 1.3-1.5.5-.4 1.2-.5 1.9-.5s1.4.2 1.9.5c.6.4 1 .9 1.3 1.5zM94.3 29c0-.9-.2-1.6-.5-2-.3-.5-.8-.7-1.4-.7-.6 0-1.1.2-1.4.7-.3.5-.5 1.2-.5 2 0 .9.2 1.6.5 2 .3.5.8.7 1.4.7.6 0 1.1-.2 1.4-.7.3-.4.5-1.1.5-2zm5.2 2.6c-.1-.1-.1-.3-.1-.5v-9.4h-1.7v9.7c0 .6.2 1.1.5 1.4.3.3.8.5 1.4.5.3 0 .7-.1 1-.2v-1.3c-.2.1-.4.1-.6.1-.3-.2-.4-.2-.5-.3zm7.2-6.7v4.6c0 .7-.2 1.2-.5 1.6-.3.4-.7.6-1.3.6-.5 0-.8-.1-1-.4-.2-.3-.3-.7-.3-1.2v-5.2h-1.7v5.4c0 1 .2 1.7.6 2.2.4.5 1 .8 1.9.8.5 0 .9-.1 1.3-.3.4-.2.7-.6.9-1h.1v1.1h1.6V25l-1.6-.1z"/></g></g></g></switch></svg>