<svg class="svg-logo" xmlns="http://www.w3.org/2000/svg" viewBox="0 0 289.56 42.52">
    <path class="st0" d="M286.56 27.35H289.53v2.97h-2.97zM280.12 23.52v2.24h2.36c-.21 1.72-1.14 2.36-2.51 2.36-1.95 0-2.94-1.47-2.94-4.25s1.04-4.25 2.88-4.25c1.14 0 1.97.62 2.26 1.59h2.78c-.37-2.42-2.26-4.08-5.05-4.08-3.58 0-5.59 2.61-5.59 6.75 0 4.14 1.9 6.75 5.65 6.75 3.27 0 5.18-2.11 5.18-6.38v-.72h-5.02zM269.84 17.41v8.12h-.11l-4.64-8.12h-2.65v12.91h2.61v-8.08h.12l4.64 8.08h2.63V17.41zM257.3 30.32h2.61V17.41H257.3zM252.9 30.32h2.9l-2.73-4.99c1.57-.52 2.59-1.86 2.59-3.83 0-2.61-1.78-4.1-4.29-4.1h-4.78v12.92h2.61V25.6h1.26l2.44 4.72zm-3.7-10.5h2.03c1.03 0 1.72.6 1.72 1.68s-.7 1.68-1.72 1.68h-2.03v-3.36zM242.94 30.32h2.65l-4.41-12.92h-2.61l-4.41 12.92h2.65l.83-2.49h4.45l.85 2.49zm-4.48-4.93l1.35-4h.12l1.35 4h-2.82zM230.56 17.41v5.14h-4.62v-5.14h-2.61v12.91h2.61v-5.35h4.62v5.35h2.61V17.41zM217.34 30.61c2.44 0 4.35-1.45 4.35-4.04 0-1.86-1.2-3.27-3.11-3.77l-1.49-.41c-.72-.19-1.32-.52-1.32-1.43 0-.91.68-1.41 1.57-1.41 1.01 0 1.55.48 1.72 1.45h2.55c-.25-2.38-1.66-3.89-4.27-3.89-2.4 0-4.23 1.55-4.23 4.02 0 1.62.81 3.11 2.88 3.67l1.49.42c1.01.27 1.55.68 1.55 1.49 0 .83-.56 1.45-1.68 1.45-.95 0-1.66-.42-1.9-1.51h-2.59c.22 2.57 1.81 3.96 4.48 3.96zM204.58 30.32h2.9l-2.73-4.99c1.57-.52 2.59-1.86 2.59-3.83 0-2.61-1.78-4.1-4.29-4.1h-4.78v12.92h2.61V25.6h1.26l2.44 4.72zm-3.69-10.5h2.03c1.03 0 1.72.6 1.72 1.68s-.7 1.68-1.72 1.68h-2.03v-3.36zM191 30.61c3.54 0 5.47-2.57 5.47-6.75s-1.93-6.75-5.47-6.75-5.47 2.57-5.47 6.75 1.93 6.75 5.47 6.75zm0-2.49c-1.8 0-2.77-1.43-2.77-4.25s.97-4.25 2.77-4.25 2.77 1.43 2.77 4.25-.97 4.25-2.77 4.25zM184.31 19.82v-2.41h-7.4v12.91h2.61v-5.16h4.62v-2.42h-4.62v-2.92zM166.4 30.61c2.44 0 4.35-1.45 4.35-4.04 0-1.86-1.2-3.27-3.11-3.77l-1.49-.41c-.72-.19-1.32-.52-1.32-1.43 0-.91.68-1.41 1.57-1.41 1.01 0 1.55.48 1.72 1.45h2.55c-.25-2.38-1.66-3.89-4.27-3.89-2.4 0-4.23 1.55-4.23 4.02 0 1.62.81 3.11 2.88 3.67l1.49.42c1.01.27 1.55.68 1.55 1.49 0 .83-.56 1.45-1.68 1.45-.95 0-1.66-.42-1.9-1.51h-2.59c.22 2.57 1.81 3.96 4.48 3.96zM157.82 30.32h2.61V17.41H157.82zM151.17 19.82v-2.41h-7.6v12.91h7.6v-2.41h-4.99v-2.94h4.8v-2.42h-4.8v-2.73zM142.13 19.82v-2.41h-7.41v12.91h2.61v-5.16h4.62v-2.42h-4.62v-2.92zM129.58 30.32h2.61V17.41H129.58zM120.96 30.32h7.23v-2.41h-4.62v-10.5h-2.61z"/></g><g id="_x31_-T-3_Logo"><path class="st0" d="M82.12 19.56h4.41v8.61h-8.61v-8.61zM52.09 19.56v8.61h8.61v-8.61h-4.19zM26.26 19.56v8.61h8.61v-8.61h-4.42z"/><path class="st0" d="M.43 0L0 15l2.26.39c.42-4.42 1.58-7.7 3.48-9.84 2-2.24 4.75-3.41 8.29-3.51v31.39c0 2.74-.38 4.52-1.18 5.34-.68.7-1.83 1.13-3.45 1.29-.48.04-1.3.06-2.46.06v2.4h20.99v-2.4c-1.16 0-1.98-.02-2.46-.06-1.62-.16-2.77-.59-3.45-1.29-.8-.82-1.19-2.6-1.19-5.34V2.04c3.54.1 6.3 1.27 8.3 3.51 1.9 2.14 3.06 5.42 3.48 9.84l2.26-.39-.43-15H.43z"/><path class="st0" d="M8.61 19.56H0v8.61h8.61z"/>
</svg>