<svg class="svg-logo" xmlns="http://www.w3.org/2000/svg" viewBox="0 0 262.23 42.52">
    <path class="st0" d="M129.06 27.91v2.41h-8.1v-2.97l5.24-7.41v-.12h-5.04v-2.41h7.85v2.97l-5.24 7.41v.12zM137.78 27.83h-4.45l-.83 2.49h-2.65l4.41-12.92h2.61l4.41 12.92h-2.65l-.85-2.49zm-.81-2.44l-1.35-4h-.12l-1.35 4h2.82zM150.13 27.91v2.41h-8.1v-2.97l5.24-7.41v-.12h-5.05v-2.41h7.85v2.97l-5.24 7.41v.12zM147.07 13.19h2.38l-2.2 2.92h-2.28l-2.21-2.92h2.4l.89 1.2h.11zM151.96 17.41h2.61v12.91h-2.61zM169.69 17.41v12.91h-2.59v-7.29h-.12l-3.17 5.69h-.83l-3.15-5.69h-.12v7.29h-2.61V17.41h2.4l3.85 7.15h.11l3.83-7.15zM174.82 19.82v2.73h4.8v2.42h-4.8v2.94h4.99v2.41h-7.6V17.41h7.6v2.41zM185.06 17.41h9.23v2.41h-3.31v10.5h-2.61v-10.5h-3.31zM194.4 23.87c0-4.18 1.93-6.75 5.47-6.75s5.47 2.57 5.47 6.75-1.93 6.75-5.47 6.75c-3.54-.01-5.47-2.58-5.47-6.75zm8.23 0c0-2.82-.97-4.25-2.76-4.25-1.8 0-2.76 1.43-2.76 4.25s.97 4.25 2.76 4.25c1.8 0 2.76-1.43 2.76-4.25zM211.11 26.67h2.59c.23 1.08.95 1.51 1.9 1.51 1.12 0 1.68-.62 1.68-1.45 0-.81-.54-1.22-1.55-1.49l-1.49-.42c-2.07-.56-2.88-2.05-2.88-3.67 0-2.48 1.84-4.02 4.23-4.02 2.61 0 4.02 1.51 4.27 3.89h-2.55c-.17-.97-.72-1.45-1.72-1.45-.89 0-1.57.5-1.57 1.41 0 .91.6 1.24 1.32 1.43l1.49.41c1.91.5 3.11 1.91 3.11 3.77 0 2.59-1.91 4.04-4.35 4.04-2.66-.02-4.25-1.41-4.48-3.96zM230.75 21.7c0 2.75-1.76 4.27-4.27 4.27h-2.19v4.35h-2.61V17.41h4.79c2.52 0 4.28 1.54 4.28 4.29zm-2.71 0c0-1.22-.75-1.88-1.74-1.88h-2.01v3.73h2.01c.99.01 1.74-.65 1.74-1.85zM231.77 23.87c0-4.18 1.93-6.75 5.47-6.75s5.47 2.57 5.47 6.75-1.93 6.75-5.47 6.75c-3.54-.01-5.47-2.58-5.47-6.75zm8.24 0c0-2.82-.97-4.25-2.76-4.25-1.8 0-2.76 1.43-2.76 4.25s.97 4.25 2.76 4.25c1.79 0 2.76-1.43 2.76-4.25zM244.52 17.41h2.61v10.5h4.63v2.41h-7.24zM252.66 25.61v-8.2h2.59v7.85c0 2.01.62 2.86 2.2 2.86 1.57 0 2.2-.85 2.2-2.86v-7.85h2.57v8.2c0 3.23-1.72 5.01-4.78 5.01-3.06-.01-4.78-1.79-4.78-5.01z"/></g><g id="_x31_-T-3_Logo"><path class="st0" d="M82.12 19.56h4.41v8.61h-8.61v-8.61zM52.09 19.56v8.61h8.61v-8.61h-4.19zM26.26 19.56v8.61h8.61v-8.61h-4.42z"/><path class="st0" d="M.43 0L0 15l2.26.39c.42-4.42 1.58-7.7 3.48-9.84 2-2.24 4.75-3.41 8.29-3.51v31.39c0 2.74-.38 4.52-1.18 5.34-.68.7-1.83 1.13-3.45 1.29-.48.04-1.3.06-2.46.06v2.4h20.99v-2.4c-1.16 0-1.98-.02-2.46-.06-1.62-.16-2.77-.59-3.45-1.29-.8-.82-1.19-2.6-1.19-5.34V2.04c3.54.1 6.3 1.27 8.3 3.51 1.9 2.14 3.06 5.42 3.48 9.84l2.26-.39-.43-15H.43z"/><path class="st0" d="M8.61 19.56H0v8.61h8.61z"/>
</svg>