<svg xmlns="http://www.w3.org/2000/svg" viewBox="0 0 126 38" style="enable-background:new 0 0 126 38" xml:space="preserve"><style>.st0{fill:#fff}</style><switch><g><g id="T_Logo"><path class="st0" d="M7.6 25.1H0v-7.6h7.6v7.6zM0 0v12.9h2.3v-.4c0-6.1 3.4-9.9 9.9-9.9h.4V30c0 3.8-1.5 5.3-5.3 5.3H6.1V38h19.8v-2.7h-1.1c-3.8 0-5.3-1.5-5.3-5.3V2.7h.4c6.5 0 9.9 3.8 9.9 9.9v.4h2.3V0H0zm24.3 25.1h7.6v-7.6h-7.6v7.6z" id="Telekom_Logo"/><g id="Claim"><path id="mk_lat" class="st0" d="M61.4 4.9h1.7v11.4h-1.8l-4.8-8.1h-.1v8.1h-1.8V4.9h1.8l4.8 8.1h.1V4.9zm9.2 11.4v-1.2h-.1c-.2.4-.5.8-.9 1.1-.4.3-.9.4-1.4.4-.7 0-1.2-.2-1.7-.5s-.8-.8-1.1-1.5c-.2-.6-.4-1.4-.4-2.3 0-.9.1-1.7.4-2.3.2-.6.6-1.1 1.1-1.5.4-.3.9-.5 1.6-.5.5 0 1 .1 1.3.3.4.2.7.5.9.9h.1V4.9h1.7v11.4h-1.5zm-.1-4c0-.9-.2-1.6-.5-2-.3-.5-.8-.7-1.4-.7-.6 0-1.1.2-1.5.7-.3.5-.5 1.2-.5 2 0 .9.2 1.6.5 2 .3.5.8.7 1.5.7.6 0 1.1-.2 1.4-.7.3-.5.5-1.1.5-2zm10.6 4c-.1.1-.3.1-.4.1-.2 0-.3.1-.5.1-.4 0-.8-.1-1-.3-.2-.2-.4-.4-.4-.8h-.1c-.2.4-.6.7-.9.9-.4.2-.9.3-1.4.3-.8 0-1.4-.2-1.8-.6-.4-.4-.6-1-.6-1.7 0-.9.4-1.6 1.1-2.1.7-.5 1.8-.7 3.1-.7h.5V11c0-.5-.1-.9-.3-1.2-.2-.3-.6-.4-1.1-.4-.4 0-.7.1-.9.3-.2.2-.4.5-.4.8h-1.6c.1-.8.4-1.4.9-1.8.3-.5 1-.7 1.8-.7 1 0 1.8.3 2.3.8.5.6.8 1.3.8 2.2v3.5c0 .2 0 .3.1.4.1.1.2.1.3.1.1 0 .3 0 .4-.1l.1 1.4zm-2.7-2.2c.2-.3.2-.7.2-1.1v-.4h-.5c-.8 0-1.5.1-1.9.4-.4.2-.6.6-.6 1.1 0 .4.1.7.3.9.2.2.5.3.9.3s.7-.1 1-.3l.6-.9zm6.1-9.2h-1.7v1.8h1.7V4.9zm-.7 13.7c.4-.4.6-1 .6-1.8V8.2h-1.7v8.5c0 .3-.1.6-.3.7-.2.2-.4.3-.7.3-.2 0-.3 0-.5-.1V19c.3.1.5.1.8.1.8.2 1.4 0 1.8-.5zm2.9-11.8h1.7V4.9h-1.7v1.9zm0 9.5h1.7V8.2h-1.7v8.1zM61.6 26.7c.3.6.4 1.4.4 2.3 0 .9-.1 1.6-.4 2.3-.3.6-.6 1.1-1.1 1.5-.5.3-1 .5-1.7.5-.5 0-.9-.1-1.3-.3-.4-.2-.7-.5-.9-.9h-.1V36h-1.7V25h1.6v1.2h.1c.2-.4.5-.8.9-1 .4-.3.9-.4 1.4-.4.7 0 1.2.2 1.7.5.4.3.8.8 1.1 1.4zM60.2 29c0-.9-.2-1.6-.5-2-.3-.5-.8-.7-1.4-.7-.6 0-1.1.2-1.4.7-.3.5-.5 1.2-.5 2 0 .9.2 1.6.5 2 .3.5.8.7 1.4.7.6 0 1.1-.2 1.4-.7.4-.4.5-1.1.5-2zm9.7-2.4c.3.6.4 1.3.4 2.2v.6H65c0 .8.2 1.4.5 1.8.3.5.8.7 1.4.7.4 0 .8-.1 1-.3.3-.2.5-.4.6-.8h1.7c-.2.8-.6 1.4-1.2 1.8-.6.4-1.3.6-2.2.6-.7 0-1.3-.2-1.9-.5-.5-.3-.9-.8-1.2-1.5-.3-.7-.4-1.4-.4-2.3 0-.9.1-1.7.4-2.3.3-.6.7-1.1 1.2-1.5.5-.3 1.2-.5 1.9-.5s1.3.2 1.8.5c.6.4 1 .9 1.3 1.5zm-4.5.2c-.2.3-.4.7-.4 1.3h3.7c-.1-.6-.2-1-.4-1.3-.3-.4-.8-.6-1.4-.6-.6-.1-1.1.2-1.5.6zm3.9-5.1h-1.7v1.9h1.7v-1.9zm-3.1 0h-1.7v1.9h1.7v-1.9zm10.1 3.2c-.1-.1-.3-.1-.6-.1-.4 0-.8.1-1.2.3-.4.2-.6.5-.8.9h-.1v-1.1H72V33h1.7v-4.5c0-.5.1-.9.2-1.2.1-.3.4-.5.7-.7.3-.2.7-.2 1.1-.2h.6v-1.5zm1.4-1.4h1.7v-1.8h-1.7v1.8zm0 10c0 .3-.1.6-.3.7-.2.2-.4.3-.7.3-.2 0-.3 0-.5-.1v1.4c.3.1.5.1.8.1.7 0 1.3-.2 1.7-.6.4-.4.6-1 .6-1.8v-8.6h-1.7l.1 8.6zm10-6.9c.3.6.4 1.3.4 2.2v.6h-5.3c0 .8.2 1.4.5 1.8.3.5.8.7 1.4.7.4 0 .8-.1 1-.3.3-.2.5-.4.6-.8H88c-.2.8-.6 1.4-1.2 1.8-.6.4-1.3.6-2.2.6-.7 0-1.3-.2-1.9-.5-.5-.3-.9-.8-1.2-1.5-.3-.7-.4-1.4-.4-2.3 0-.9.1-1.7.4-2.3.3-.6.7-1.1 1.2-1.5.5-.3 1.2-.5 1.9-.5s1.3.2 1.8.5c.6.4 1 .9 1.3 1.5zm-4.4.2c-.2.3-.4.7-.4 1.3h3.7c-.1-.6-.2-1-.4-1.3-.3-.4-.8-.6-1.4-.6-.7-.1-1.2.2-1.5.6zm8.8-4.7h-.3l-1.3 1.3v1.5H89v1.4h1.5v4.5c0 .8.2 1.3.6 1.7.4.4 1 .6 1.6.6.6 0 1.1-.1 1.5-.3v-1.3c-.3.1-.7.1-1 .2-.3 0-.6-.1-.8-.3-.2-.2-.3-.5-.3-.8v-4.2h2.2V25h-2.2v-2.9zm3.8 11h1.7V25h-1.7v8.1zm0-9.6h1.7v-1.8h-1.7v1.8zm12.5 1.2c-.5 0-1 .1-1.5.4-.4.2-.8.6-1 1h-.1c-.2-.5-.4-.8-.8-1-.4-.2-.8-.4-1.4-.4-.5 0-1 .1-1.4.3-.4.2-.7.6-.9 1h-.1v-1.1h-1.6V33h1.7v-4.6c0-.7.2-1.2.5-1.6.3-.4.7-.6 1.3-.6.5 0 .8.1 1 .4.2.3.3.7.3 1.2V33h1.7v-4.6c0-.7.1-1.2.4-1.6.3-.4.7-.6 1.3-.6.5 0 .8.1 1 .4.2.3.3.7.3 1.2V33h1.7v-5.4c0-1-.2-1.7-.6-2.2-.3-.4-.9-.7-1.8-.7zm10.8 1.9c.3.6.4 1.3.4 2.2v.6h-5.3c0 .8.2 1.4.5 1.8.3.5.8.7 1.4.7.4 0 .8-.1 1-.3.3-.2.5-.4.6-.8h1.7c-.2.8-.6 1.4-1.2 1.8-.6.4-1.3.6-2.2.6-.7 0-1.3-.2-1.9-.5-.5-.3-.9-.8-1.2-1.5-.3-.7-.4-1.4-.4-2.3 0-.9.1-1.7.4-2.3.3-.6.7-1.1 1.2-1.5.5-.3 1.2-.5 1.9-.5s1.3.2 1.8.5c.6.4 1 .9 1.3 1.5zm-4.5.2c-.2.3-.4.7-.4 1.3h3.7c-.1-.6-.2-1-.4-1.3-.3-.4-.8-.6-1.4-.6-.7-.1-1.1.2-1.5.6zm11.1-.4V25h-2.2v-2.8h-.3l-1.3 1.3V25h-1.5v1.4h1.5v4.5c0 .8.2 1.3.6 1.7.4.4 1 .6 1.6.6.6 0 1.1-.1 1.5-.3v-1.3c-.3.1-.7.1-1 .2-.3 0-.6-.1-.8-.3-.2-.2-.3-.5-.3-.8v-4.2l2.2-.1z"/></g></g></g></switch></svg>