<svg class="svg-logo" xmlns="http://www.w3.org/2000/svg" viewBox="0 0 314.73 42.52">
    <path class="st0" d="M123.57 19.82v2.73h4.8v2.41h-4.8v2.94h4.99v2.42h-7.6V17.41h7.6v2.41zM136.85 23.86l3.67 6.46h-3.05l-2.32-4.37h-.12l-2.32 4.37h-3.05l3.65-6.46-3.65-6.45h3.05l2.32 4.38h.12l2.32-4.38h3.05zM150.98 21.7c0 2.75-1.76 4.27-4.27 4.27h-2.19v4.35h-2.61V17.41h4.79c2.52 0 4.28 1.54 4.28 4.29zm-2.71 0c0-1.22-.75-1.88-1.74-1.88h-2.01v3.73h2.01c.99 0 1.74-.65 1.74-1.85zM155.03 19.82v2.73h4.8v2.41h-4.8v2.94h4.99v2.42h-7.6V17.41h7.6v2.41zM166.11 25.6h-1.26v4.72h-2.61V17.41h4.78c2.51 0 4.29 1.49 4.29 4.1 0 1.97-1.02 3.31-2.59 3.83l2.73 4.99h-2.9l-2.44-4.73zm-1.26-2.41h2.03c1.03 0 1.72-.6 1.72-1.68s-.7-1.68-1.72-1.68h-2.03v3.36zM173.14 17.41H175.75v12.91h-2.61zM180.89 19.82v2.73h4.79v2.41h-4.79v2.94h4.99v2.42h-7.6V17.41h7.6v2.41zM198.09 17.41v12.91h-2.63l-4.64-8.08h-.12v8.08h-2.61V17.41h2.65l4.64 8.12h.12v-8.12zM199.4 17.41h9.22v2.41h-3.3v10.5h-2.61v-10.5h-3.31zM202.82 34.19c.81-.02 1.1-.29 1.1-.79v-.06h-1.1v-1.89h2.36v1.47c0 1.47-.56 2.24-2.36 2.26v-.99zM212.54 19.82v2.73h4.8v2.41h-4.8v2.94h4.99v2.42h-7.6V17.41h7.6v2.41zM226.4 14.91l-.91 1.2h-2.38l2.18-2.92h2.29l2.22 2.92h-2.4l-.89-1.2zM225.14 17.41h2.61v12.91h-2.61zM242.87 17.41v12.91h-2.59v-7.29h-.12l-3.17 5.69h-.83l-3.15-5.69h-.12v7.29h-2.61V17.41h2.4l3.85 7.15h.11l3.83-7.15zM254.46 21.7c0 2.75-1.76 4.27-4.27 4.27H248v4.35h-2.61V17.41h4.79c2.52 0 4.28 1.54 4.28 4.29zm-2.71 0c0-1.22-.75-1.88-1.74-1.88H248v3.73h2.01c.99 0 1.74-.65 1.74-1.85zM259.77 25.6h-1.26v4.72h-2.61V17.41h4.78c2.51 0 4.29 1.49 4.29 4.1 0 1.97-1.02 3.31-2.59 3.83l2.73 4.99h-2.9l-2.44-4.73zm-1.26-2.41h2.03c1.03 0 1.72-.6 1.72-1.68s-.7-1.68-1.72-1.68h-2.03v3.36zM269.41 19.82v2.73h4.8v2.41h-4.8v2.94h4.99v2.42h-7.6V17.41h7.6v2.41zM276.33 25.6v-8.2h2.59v7.85c0 2.01.62 2.86 2.2 2.86 1.57 0 2.2-.85 2.2-2.86V17.4h2.57v8.2c0 3.23-1.72 5.01-4.78 5.01-3.06 0-4.78-1.78-4.78-5.01zM298.13 17.41v12.91h-2.63l-4.64-8.08h-.11v8.08h-2.61V17.41h2.64l4.65 8.12h.11v-8.12zM307.06 27.83h-4.45l-.83 2.49h-2.65l4.41-12.92h2.61l4.41 12.92h-2.65l-.85-2.49zm-.81-2.44l-1.35-4h-.12l-1.35 4h2.82zM307.89 13.19c0 1.91-1.22 3.02-3.04 3.02-1.84 0-3.04-1.1-3.04-3.02h1.93c.02.72.43 1.12 1.1 1.12.68 0 1.06-.41 1.08-1.12h1.97zM311.75 27.34h2.98v2.98h-2.98z"/></g><g id="_x31_-T-3_Logo"><path class="st0" d="M82.12 19.56h4.41v8.61h-8.61v-8.61zM52.09 19.56v8.61h8.61v-8.61h-4.19zM26.26 19.56v8.61h8.61v-8.61h-4.42z"/><path class="st0" d="M.43 0L0 15l2.26.39c.42-4.42 1.58-7.7 3.48-9.84 2-2.24 4.75-3.41 8.29-3.51v31.39c0 2.74-.38 4.52-1.18 5.34-.68.7-1.83 1.13-3.45 1.29-.48.04-1.3.06-2.46.06v2.4h20.99v-2.4c-1.16 0-1.98-.02-2.46-.06-1.62-.16-2.77-.59-3.45-1.29-.8-.82-1.19-2.6-1.19-5.34V2.04c3.54.1 6.3 1.27 8.3 3.51 1.9 2.14 3.06 5.42 3.48 9.84l2.26-.39-.43-15H.43z"/><path class="st0" d="M8.61 19.56H0v8.61h8.61z"/>
</svg>