<svg class="svg-logo" xmlns="http://www.w3.org/2000/svg" viewBox="0 0 257.77 42.52">
    <path class="st0" d="M129.06 27.91v2.41h-8.1v-2.97l5.24-7.41v-.12h-5.04v-2.41h7.85v2.97l-5.24 7.41v.12zM126.01 13.19h2.38l-2.21 2.92h-2.28l-2.2-2.92h2.4l.89 1.2h.11zM130.41 17.41H133.02v12.91h-2.61zM144.91 17.41l-4.21 12.91h-2.61l-4.22-12.91h2.69l2.76 8.74h.12l2.79-8.74zM147.42 28.12c.97 0 1.74-.62 1.74-2.28v-8.43h2.59v8.76c0 2.67-1.7 4.45-4.33 4.45-2.69 0-4.1-1.64-4.29-4.43h2.61c.11 1.27.62 1.93 1.68 1.93zM156.6 19.82v2.73h4.79v2.42h-4.79v2.94h4.99v2.41h-7.6V17.41h7.6v2.41zM162.68 17.41h9.23v2.41h-3.31v10.5h-2.61v-10.5h-3.31zM173.22 17.41H175.83v12.91h-2.61zM190.92 27.91v2.41h-8.1v-2.97l5.24-7.41v-.12h-5.05v-2.41h7.85v2.97l-5.24 7.41v.12zM199.54 27.83h-4.45l-.83 2.49h-2.65l4.41-12.92h2.61l4.41 12.92h-2.65l-.85-2.49zm-.81-2.44l-1.35-4h-.12l-1.35 4h2.82zM207.25 28.12c.97 0 1.74-.62 1.74-2.28v-8.43h2.59v8.76c0 2.67-1.7 4.45-4.33 4.45-2.69 0-4.1-1.64-4.29-4.43h2.61c.11 1.27.62 1.93 1.68 1.93zM216.23 19.82v2.73h4.8v2.42h-4.8v2.94h4.99v2.41h-7.6V17.41h7.6v2.41zM223.15 17.41h4.49c3.36 0 5.47 2.26 5.47 6.46s-2.11 6.46-5.47 6.46h-4.49V17.41zm4.29 10.5c1.8 0 2.96-1.2 2.96-4.04s-1.16-4.04-2.96-4.04h-1.68v8.08h1.68zM244.82 17.41v12.91h-2.63l-4.64-8.08h-.12v8.08h-2.61V17.41h2.65l4.64 8.12h.12v-8.12zM246.82 23.87c0-4.18 1.93-6.75 5.47-6.75s5.47 2.57 5.47 6.75-1.93 6.75-5.47 6.75c-3.53-.01-5.47-2.58-5.47-6.75zm8.24 0c0-2.82-.97-4.25-2.76-4.25-1.8 0-2.76 1.43-2.76 4.25s.97 4.25 2.76 4.25c1.79 0 2.76-1.43 2.76-4.25z"/></g><g id="_x31_-T-3_Logo"><path class="st0" d="M82.12 19.56h4.41v8.61h-8.61v-8.61zM52.09 19.56v8.61h8.61v-8.61h-4.19zM26.26 19.56v8.61h8.61v-8.61h-4.42z"/><path class="st0" d="M.43 0L0 15l2.26.39c.42-4.42 1.58-7.7 3.48-9.84 2-2.24 4.75-3.41 8.29-3.51v31.39c0 2.74-.38 4.52-1.18 5.34-.68.7-1.83 1.13-3.45 1.29-.48.04-1.3.06-2.46.06v2.4h20.99v-2.4c-1.16 0-1.98-.02-2.46-.06-1.62-.16-2.77-.59-3.45-1.29-.8-.82-1.19-2.6-1.19-5.34V2.04c3.54.1 6.3 1.27 8.3 3.51 1.9 2.14 3.06 5.42 3.48 9.84l2.26-.39-.43-15H.43z"/><path class="st0" d="M8.61 19.56H0v8.61h8.61z"/>
</svg>