<svg xmlns="http://www.w3.org/2000/svg" viewBox="0 0 142 38" style="enable-background:new 0 0 142 38" xml:space="preserve"><style>.st0{fill:#fff}</style><switch><g><g id="Claim_00000138553441439286777800000011449169597455446683_"><g id="Claim"><path id="cz" class="st0" d="M56.5 12.2h2.2c1.1 0 1.9-.3 2.6-.9.7-.6 1-1.5 1-2.7 0-1.2-.3-2.1-1-2.7-.7-.6-1.5-.9-2.6-.9h-4v11.4h1.8v-4.2zm2.1-5.6c.6 0 1 .2 1.4.5.4.3.6.8.6 1.5s-.2 1.2-.6 1.5c-.4.3-.8.5-1.4.5h-2.1v-4h2.1zm6.8 9.7h-1.7V8.2h1.6v1.1h.1c.2-.4.5-.7.8-.9.4-.2.8-.3 1.2-.3.2 0 .4 0 .6.1v1.5h-.6c-.5 0-.8.1-1.1.2-.3.2-.5.4-.7.7-.1.3-.2.7-.2 1.2v4.5zm8.9-7.8c-.6-.3-1.2-.5-2-.5-.7 0-1.4.2-1.9.5-.5.4-1 .9-1.3 1.5-.3.6-.4 1.4-.4 2.3 0 .9.1 1.6.4 2.3.3.7.7 1.2 1.3 1.5.5.3 1.2.5 1.9.5s1.4-.2 1.9-.5 1-.8 1.3-1.5c.3-.7.4-1.4.4-2.3 0-.9-.1-1.6-.4-2.3-.3-.6-.7-1.1-1.2-1.5zm-.5 5.8c-.4.5-.8.7-1.5.7-.6 0-1.1-.2-1.4-.7-.3-.5-.5-1.2-.5-2 0-.9.2-1.6.5-2 .3-.5.8-.7 1.4-.7.6 0 1.1.2 1.4.7.3.5.5 1.2.5 2 .1.9-.1 1.5-.4 2zm12-1.8c.4.4.5.9.5 1.5 0 .8-.3 1.4-.8 1.8-.5.5-1.2.7-2.1.7-.9 0-1.6-.2-2.1-.6-.5-.4-.8-1-.9-1.8H82c.1.4.2.6.5.8.2.2.5.3.9.3s.7-.1.9-.3c.2-.2.3-.4.3-.8 0-.3-.1-.6-.3-.7-.2-.2-.5-.3-.8-.4l-1-.3c-.6-.2-1.1-.4-1.4-.8-.3-.4-.5-.9-.5-1.6 0-.4.1-.9.4-1.2.2-.4.6-.7 1-.9.4-.1.9-.2 1.5-.2.8 0 1.5.2 2 .7.5.4.8 1 .9 1.8h-1.6c0-.4-.2-.6-.4-.8-.2-.2-.5-.3-.8-.3-.4 0-.7.1-.9.3-.2.2-.3.5-.3.7 0 .3.1.5.2.6.2.2.4.3.7.4l1 .3c.7.2 1.2.5 1.5.8zm9.4-.2c0-.9-.1-1.7-.4-2.3-.3-.6-.6-1.1-1.1-1.5-.5-.3-1-.5-1.7-.5-.5 0-1 .1-1.4.4-.4.3-.7.6-.9 1h-.1V8.2H88v11h1.7v-3.9h.1c.2.4.6.7.9.9.4.2.8.3 1.3.3.7 0 1.2-.2 1.7-.5s.8-.8 1.1-1.5c.3-.6.4-1.3.4-2.2zm-2.2 2c-.3.5-.8.7-1.4.7-.6 0-1.1-.2-1.4-.7-.3-.5-.5-1.2-.5-2 0-.9.2-1.6.5-2 .3-.5.8-.7 1.4-.7.6 0 1.1.2 1.4.7.3.5.5 1.2.5 2 0 .9-.1 1.5-.5 2zm9.3-5.8c-.5-.4-1.2-.5-1.9-.5s-1.4.2-1.9.5c-.5.4-1 .9-1.3 1.5-.3.6-.4 1.4-.4 2.3 0 .9.1 1.6.4 2.3.3.7.7 1.2 1.3 1.5.5.3 1.2.5 1.9.5s1.4-.2 1.9-.5 1-.8 1.3-1.5c.3-.7.4-1.4.4-2.3 0-.9-.1-1.6-.4-2.3-.4-.6-.8-1.1-1.3-1.5zm-.5 5.8c-.3.5-.8.7-1.4.7-.6 0-1.1-.2-1.4-.7-.3-.5-.5-1.2-.5-2 0-.9.2-1.6.5-2 .3-.5.8-.7 1.4-.7.6 0 1.1.2 1.4.7.3.5.5 1.2.5 2 0 .9-.2 1.5-.5 2zm6.1.7c.2 0 .4 0 .6-.1v1.3c-.3.1-.7.2-1 .2-.6 0-1-.2-1.4-.5-.3-.3-.5-.8-.5-1.4V4.9h1.7v9.4c0 .2 0 .4.1.5.2.2.3.2.5.2zm6.9-6.5c-.5-.3-1.1-.5-1.8-.5s-1.4.2-1.9.5-.9.8-1.2 1.5c-.3.6-.4 1.4-.4 2.3 0 .9.1 1.7.4 2.3.3.7.7 1.1 1.2 1.5.5.3 1.1.5 1.9.5.8 0 1.6-.2 2.2-.6.6-.4 1-1 1.2-1.8h-1.7c-.1.3-.3.6-.6.8-.3.2-.6.3-1 .3-.6 0-1.1-.2-1.4-.7-.3-.4-.4-1-.5-1.8h5.3v-.6c0-.8-.1-1.6-.4-2.2-.4-.7-.8-1.2-1.3-1.5zm-1.8.9c.6 0 1 .2 1.4.6.2.3.4.7.4 1.3h-3.7c.1-.5.2-1 .4-1.3.4-.3.9-.6 1.5-.6zm7.1.8c-.3.5-.5 1.2-.5 2 0 .9.2 1.6.5 2 .3.5.8.7 1.4.7.4 0 .8-.1 1.1-.3.3-.2.4-.6.5-1h1.7c-.1.9-.5 1.6-1.1 2.1-.6.5-1.3.8-2.3.8-.7 0-1.4-.2-1.9-.5s-.9-.8-1.2-1.5c-.3-.7-.4-1.4-.4-2.3 0-.9.1-1.6.4-2.3.3-.6.7-1.1 1.2-1.5.5-.3 1.2-.5 1.9-.5.9 0 1.7.3 2.3.8.6.5.9 1.2 1.1 2.1h-1.7c-.1-.5-.3-.8-.5-1-.3-.2-.6-.3-1.1-.3-.7 0-1.1.3-1.4.7zm.6-3.2L119 4.5h1.6l.8 1.2h.1l.8-1.2h1.6L122.2 7h-1.5zm11.4 1.7c.4.5.6 1.3.6 2.2v5.4H131v-5.2c0-.5-.1-.9-.3-1.2-.2-.3-.6-.4-1-.4-.5 0-1 .2-1.3.6-.3.4-.5.9-.5 1.6v4.6h-1.7V8.2h1.6v1.1h.1c.2-.4.5-.7.9-1 .4-.2.8-.3 1.4-.3.9 0 1.5.2 1.9.7zm6.5-1.8h-1.7l1.6-2.4h1.8l-1.7 2.4zm2.3 3c-.3-.6-.7-1.1-1.2-1.4-.5-.3-1.1-.5-1.8-.5s-1.4.2-1.9.5-.9.8-1.2 1.5c-.3.6-.4 1.4-.4 2.3 0 .9.1 1.7.4 2.3.3.7.7 1.1 1.2 1.5.5.3 1.1.5 1.9.5.8 0 1.6-.2 2.2-.6.6-.4 1-1 1.2-1.8h-1.7c-.1.3-.3.6-.6.8-.3.2-.6.3-1 .3-.6 0-1.1-.2-1.4-.7-.3-.4-.4-1-.5-1.8h5.3v-.6c0-1-.2-1.7-.5-2.3zm-3-.5c.6 0 1 .2 1.4.6.2.3.4.7.4 1.3H136c.1-.5.2-1 .4-1.3.4-.3.9-.6 1.5-.6zM56.3 31.6h3.8V33h-5.6v-1.8l3.8-4.8v-.1h-3.6v-1.4h5.4v1.7l-3.7 4.8-.1.2zm9.2-7.9h-1.7l1.6-2.4h1.8l-1.7 2.4zm2.4 7.9c-.1-.1-.1-.2-.1-.4v-3.5c0-.9-.3-1.7-.8-2.2-.5-.6-1.3-.8-2.3-.8-.8 0-1.5.2-2.1.6-.5.4-.9 1-.9 1.8h1.6c.1-.4.2-.6.4-.8.2-.2.5-.3.9-.3.5 0 .9.1 1.1.4.2.3.3.7.3 1.2v.4h-.5c-1.3 0-2.3.2-3.1.7-.7.5-1.1 1.2-1.1 2.1 0 .7.2 1.3.6 1.7.4.4 1 .6 1.8.6.5 0 1-.1 1.4-.3.4-.2.7-.5.9-.9h.1c0 .3.2.6.4.8.3.2.6.3 1 .3.2 0 .3 0 .5-.1.1 0 .3-.1.4-.1v-1.3c-.1 0-.2.1-.4.1.1.2-.1.1-.1 0zm-2.7 0c-.3.2-.6.3-1 .3s-.7-.1-.9-.3c-.2-.2-.3-.5-.3-.9 0-.5.2-.9.6-1.1.4-.2 1.1-.4 1.9-.4h.5v.4c0 .4-.1.8-.2 1.1-.1.4-.3.7-.6.9zm8.2-7.9h-1.5l-1.7-2.4h1.6l.8 1.2h.1l.8-1.2h1.6l-1.7 2.4zm-1.8 7.9h3.8V33h-5.6v-1.8l3.8-4.8v-.1H70v-1.4h5.4v1.7l-3.7 4.8v.2zm5.7-9.9H79v1.8h-1.7v-1.8zm0 3.2H79V33h-1.7v-8.1zm6.3 0h2.2v1.4h-2.2v4.2c0 .4.1.6.3.8.2.2.4.3.8.3.3 0 .7-.1 1-.2v1.3c-.4.2-.9.3-1.5.3-.7 0-1.2-.2-1.6-.6-.4-.4-.6-1-.6-1.7v-4.5h-1.5v-1.4H82v-1.5l1.3-1.3h.3v2.9zm10.4 0-3.3 3.5 3.2 4.7h-2l-2.3-3.4h-.1l-.5.6v2.8h-1.7V21.7H89v6.2h.1l2.7-3H94zm6.4 0h1.8l-3.4 9.3c-.2.6-.5 1.1-.9 1.4-.4.3-.9.5-1.5.5-.4 0-.8-.1-1.2-.2v-1.4c.3.1.6.1.9.1.3 0 .5-.1.7-.2.2-.1.3-.4.5-.8l.3-.9-3-7.9h1.8l2 5.7h.1l1.9-5.6z"/></g></g><g id="T_Logo"><path class="st0" d="M7.6 25.1H0v-7.6h7.6v7.6zM0 0v12.9h2.3v-.4c0-6.1 3.4-9.9 9.9-9.9h.4V30c0 3.8-1.5 5.3-5.3 5.3H6.1V38h19.8v-2.7h-1.1c-3.8 0-5.3-1.5-5.3-5.3V2.7h.4c6.5 0 9.9 3.8 9.9 9.9v.4h2.3V0H0zm24.3 25.1h7.6v-7.6h-7.6v7.6z" id="Telekom_Logo"/></g></g></switch></svg>