<svg xmlns="http://www.w3.org/2000/svg" viewBox="0 0 107 38" style="enable-background:new 0 0 107 38" xml:space="preserve"><style>.st0{fill:#fff}</style><switch><g><g id="T_Logo"><path class="st0" d="M7.6 25.1H0v-7.6h7.6v7.6zM0 0v12.9h2.3v-.4c0-6.1 3.4-9.9 9.9-9.9h.4V30c0 3.8-1.5 5.3-5.3 5.3H6.1V38h19.8v-2.7h-1.1c-3.8 0-5.3-1.5-5.3-5.3V2.7h.4c6.5 0 9.9 3.8 9.9 9.9v.4h2.3V0H0zm24.3 25.1h7.6v-7.6h-7.6v7.6z" id="Telekom_Logo"/><g id="Claim"><path id="hr_00000181783255629822503830000009455660059486819772_" class="st0" d="m57.3 3.8-1.8-2.3h1.7l.8 1.1h.1l.9-1.1h1.7l-1.8 2.3h-1.6zm4.2 10.9h-5.1v-.1L61.5 7V5h-6.7v1.6h4.9v.1l-5.1 7.6v2h7v-1.6zM65 4.9h-1.7v1.8H65V4.9zm0 3.3h-1.7v8.1H65V8.2zm5.9 8.1 2.8-8.1h-1.8L70.1 14H70l-1.8-5.7h-1.8l2.8 8.1h1.7zm2.8 2.8c.3.1.5.1.8.1.7 0 1.3-.2 1.7-.6.4-.4.6-1 .6-1.8V8.2h-1.7v8.5c0 .3-.1.6-.3.7-.2.2-.4.3-.7.3-.2 0-.3 0-.5-.1l.1 1.5zm3.1-14.2h-1.7v1.8h1.7V4.9zm2.2 9.7c-.3-.7-.4-1.4-.4-2.3 0-.9.1-1.7.4-2.3.3-.6.7-1.1 1.2-1.5.5-.3 1.2-.5 1.9-.5s1.3.2 1.8.5.9.8 1.2 1.4c.3.6.4 1.3.4 2.2v.6h-5.3c0 .8.2 1.4.5 1.8.3.5.8.7 1.4.7.4 0 .8-.1 1-.3.3-.2.5-.4.6-.8h1.7c-.2.8-.6 1.4-1.2 1.8-.6.4-1.3.6-2.2.6-.7 0-1.3-.2-1.9-.5-.4-.3-.8-.8-1.1-1.4zm1.6-4.5c-.2.3-.4.7-.4 1.3h3.7c-.1-.6-.2-1-.4-1.3-.3-.4-.8-.6-1.4-.6-.6-.1-1.1.2-1.5.6zm11 4.7c-.3.1-.7.1-1 .2-.3 0-.6-.1-.8-.3-.2-.2-.3-.5-.3-.8V9.7h2.2V8.2h-2.2V5.4h-.3l-1.3 1.3v1.5h-1.5v1.4h1.5v4.5c0 .8.2 1.3.6 1.7.4.4 1 .6 1.6.6.6 0 1.1-.1 1.5-.3v-1.3zm3.6-9.9h-1.7v1.8h1.7V4.9zm0 3.3h-1.7v8.1h1.7V8.2zM56.3 31.5l3.7-4.8V25h-5.4v1.4h3.6v.1l-3.8 4.8v1.8H60v-1.4h-3.8l.1-.2zm12 .3c.1 0 .3 0 .4-.1V33c-.1.1-.3.1-.4.1-.2 0-.3.1-.5.1-.4 0-.8-.1-1-.3-.2-.2-.4-.4-.4-.8h-.1c-.2.4-.6.7-.9.9-.4.2-.9.3-1.4.3-.8 0-1.4-.2-1.8-.6-.4-.4-.6-1-.6-1.7 0-.9.4-1.6 1.1-2.1.7-.5 1.8-.7 3.1-.7h.5v-.4c0-.5-.1-.9-.3-1.2-.2-.3-.6-.4-1.1-.4-.4 0-.7.1-.9.3-.2.2-.4.5-.4.8H62c.1-.8.4-1.4.9-1.8.5-.4 1.2-.6 2.1-.6 1 0 1.8.3 2.3.8.5.6.8 1.3.8 2.2v3.5c0 .2 0 .3.1.4-.2-.1-.1 0 .1 0zm-2.3-1c.2-.3.2-.7.2-1.1v-.4h-.5c-.8 0-1.5.1-1.9.4-.4.2-.6.6-.6 1.1 0 .4.1.7.3.9.2.2.5.3.9.3s.7-.1 1-.3l.6-.9zm4.2-7.3h1.7v-1.8h-1.7v1.8zm0 10c0 .3-.1.6-.3.7-.2.2-.4.3-.7.3-.2 0-.3 0-.5-.1v1.4c.3.2.6.2.8.2.7 0 1.3-.2 1.7-.6.4-.4.6-1 .6-1.8V25h-1.7l.1 8.5zm9.9-6.9c.3.6.4 1.3.4 2.2v.6h-5.3c0 .8.2 1.4.5 1.8.3.5.8.7 1.4.7.4 0 .8-.1 1-.3.3-.2.5-.4.6-.8h1.7c-.2.8-.6 1.4-1.2 1.8-.6.4-1.3.6-2.2.6-.7 0-1.3-.2-1.9-.5-.5-.3-.9-.8-1.2-1.5-.3-.7-.4-1.4-.4-2.3 0-.9.1-1.7.4-2.3.3-.6.7-1.1 1.2-1.5.5-.3 1.2-.5 1.9-.5s1.3.2 1.8.5c.6.4 1 .9 1.3 1.5zm-4.4.2c-.2.3-.4.7-.4 1.3H79c-.1-.6-.2-1-.4-1.3-.3-.4-.8-.6-1.4-.6-.7-.1-1.2.2-1.5.6zm11.8-5.1h1.7v11.4h-1.6v-1.2h-.1c-.2.4-.5.8-.9 1.1-.4.3-.9.4-1.4.4-.7 0-1.2-.2-1.7-.5s-.8-.8-1.1-1.5c-.2-.6-.4-1.4-.4-2.3 0-.9.1-1.7.4-2.3.2-.6.6-1.1 1.1-1.5.5-.3 1.1-.5 1.7-.5.5 0 1 .1 1.3.3.4.2.7.5.9.9h.1v-4.3zm0 7.3c0-.9-.2-1.6-.5-2-.3-.5-.8-.7-1.4-.7-.6 0-1.1.2-1.5.7-.3.5-.5 1.2-.5 2 0 .9.2 1.6.5 2 .3.5.8.7 1.5.7.6 0 1.1-.2 1.4-.7.3-.4.5-1.1.5-2zm7.8-4.3c-.5 0-1 .1-1.4.3-.4.2-.7.6-.9 1h-.1v-1.1h-1.6V33H93v-4.6c0-.7.2-1.2.5-1.6.3-.4.7-.6 1.3-.6.5 0 .8.1 1 .4.2.3.3.7.3 1.2V33h1.7v-5.4c0-1-.2-1.7-.6-2.2-.5-.4-1.1-.7-1.9-.7zm11.4 4.3c0 .9-.1 1.6-.4 2.3-.3.7-.7 1.2-1.3 1.5-.5.3-1.2.5-1.9.5s-1.4-.2-1.9-.5-1-.8-1.3-1.5c-.3-.7-.4-1.4-.4-2.3 0-.9.1-1.6.4-2.3.3-.6.7-1.1 1.3-1.5.5-.4 1.2-.5 1.9-.5s1.4.2 1.9.5c.5.4 1 .9 1.3 1.5.3.7.4 1.4.4 2.3zm-1.7 0c0-.9-.2-1.6-.5-2-.3-.5-.8-.7-1.4-.7-.6 0-1.1.2-1.4.7-.3.5-.5 1.2-.5 2 0 .9.2 1.6.5 2 .3.5.8.7 1.4.7.6 0 1.1-.2 1.4-.7.3-.4.5-1.1.5-2z"/></g></g></g></switch></svg>