<svg class="svg-logo" xmlns="http://www.w3.org/2000/svg" viewBox="0 0 239.39 42.52">
    <path class="st0" d="M123.57 19.82v2.73h4.8v2.42h-4.8v2.94h4.99v2.41h-7.6V17.41h7.6v2.41zM140.95 23.52v.72c0 4.27-1.91 6.38-5.18 6.38-3.75 0-5.65-2.61-5.65-6.75 0-4.14 2.01-6.75 5.59-6.75 2.78 0 4.68 1.66 5.05 4.08h-2.78c-.29-.97-1.12-1.59-2.26-1.59-1.84 0-2.88 1.47-2.88 4.25s.99 4.25 2.94 4.25c1.37 0 2.3-.64 2.51-2.36h-2.36v-2.24h5.02zM147.54 25.04v5.28h-2.61v-5.28l-4.16-7.63h3.05l2.34 4.75h.12l2.36-4.75h3.05zM152.44 25.61v-8.2h2.59v7.85c0 2.01.62 2.86 2.2 2.86 1.57 0 2.2-.85 2.2-2.86v-7.85H162v8.2c0 3.23-1.72 5.01-4.78 5.01-3.06-.01-4.78-1.79-4.78-5.01zM156.58 13.81v2.26h-2.5v-2.26h1.04zM160.35 13.81v2.26h-2.48v-2.26h1.31zM163.13 17.41h9.22v2.41h-3.31v10.5h-2.61v-10.5h-3.3zM173.21 17.41h9.23v2.41h-3.31v10.5h-2.61v-10.5h-3.31zM182.2 27.35h2.98v2.97h-2.98zM200.51 17.41l-4.22 12.91h-2.61l-4.21-12.91h2.68l2.77 8.74h.12l2.78-8.74zM204.16 19.82v2.73h4.79v2.42h-4.79v2.94h4.98v2.41h-7.59V17.41h7.59v2.41zM211.17 17.41h2.61v10.5h4.62v2.41h-7.23zM222.4 19.82v2.73h4.79v2.42h-4.79v2.94h4.99v2.41h-7.6V17.41h7.6v2.41zM229.41 17.41h4.49c3.36 0 5.47 2.26 5.47 6.46s-2.11 6.46-5.47 6.46h-4.49V17.41zm4.29 10.5c1.8 0 2.96-1.2 2.96-4.04s-1.16-4.04-2.96-4.04h-1.68v8.08h1.68z"/></g><g id="_x31_-T-3_Logo"><path class="st0" d="M82.12 19.56h4.41v8.61h-8.61v-8.61zM52.09 19.56v8.61h8.61v-8.61h-4.19zM26.26 19.56v8.61h8.61v-8.61h-4.42z"/><path class="st0" d="M.43 0L0 15l2.26.39c.42-4.42 1.58-7.7 3.48-9.84 2-2.24 4.75-3.41 8.29-3.51v31.39c0 2.74-.38 4.52-1.18 5.34-.68.7-1.83 1.13-3.45 1.29-.48.04-1.3.06-2.46.06v2.4h20.99v-2.4c-1.16 0-1.98-.02-2.46-.06-1.62-.16-2.77-.59-3.45-1.29-.8-.82-1.19-2.6-1.19-5.34V2.04c3.54.1 6.3 1.27 8.3 3.51 1.9 2.14 3.06 5.42 3.48 9.84l2.26-.39-.43-15H.43z"/><path class="st0" d="M8.61 19.56H0v8.61h8.61z"/>
</svg>