<svg class="svg-logo" xmlns="http://www.w3.org/2000/svg" viewBox="0 0 335.4 42.52">
    <path class="st0" d="M332.39 27.34h2.98v2.98h-2.98zM323.5 19.82h3.31v10.5h2.61v-10.5h3.31v-2.41h-9.23zM322.41 19.82v-2.41h-7.6v12.91h7.6v-2.41h-4.99v-2.94h4.79v-2.42h-4.79v-2.73zM302.94 30.32h4.49c3.36 0 5.47-2.26 5.47-6.46s-2.11-6.46-5.47-6.46h-4.49v12.92zm2.61-2.41v-8.08h1.68c1.8 0 2.96 1.2 2.96 4.04s-1.16 4.04-2.96 4.04h-1.68zM297.82 17.41v8.12h-.11l-4.64-8.12h-2.65v12.91h2.61v-8.08h.12l4.64 8.08h2.63V17.41zM285.28 30.32h2.61V17.41h-2.61zM281.63 23.87v-.08c.99-.58 1.59-1.62 1.59-2.96 0-1.86-1.12-3.42-3.77-3.42h-4.91v12.92h4.81c2.8 0 3.98-1.61 3.98-3.58 0-1.36-.62-2.38-1.7-2.88zm-2.53-4.16c.85 0 1.41.58 1.41 1.49 0 .89-.54 1.51-1.41 1.51h-1.95v-3h1.95zm-.06 8.31h-1.9v-3.09h1.9c1.03 0 1.59.6 1.59 1.53-.01.98-.57 1.56-1.59 1.56zM269.94 30.32h2.9l-2.73-4.99c1.57-.52 2.59-1.86 2.59-3.83 0-2.61-1.78-4.1-4.29-4.1h-4.78v12.92h2.61V25.6h1.26l2.44 4.72zm-3.7-10.5h2.03c1.03 0 1.72.6 1.72 1.68s-.7 1.68-1.72 1.68h-2.03v-3.36zM261.42 19.82v-2.41h-7.6v12.91h7.6v-2.41h-4.99v-2.94h4.79v-2.42h-4.79v-2.73zM250.09 17.41l-2.78 8.74h-.12l-2.76-8.74h-2.69l4.21 12.91h2.62l4.21-12.91zM232.78 30.61c2.44 0 4.35-1.45 4.35-4.04 0-1.86-1.2-3.27-3.11-3.77l-1.49-.41c-.72-.19-1.32-.52-1.32-1.43 0-.91.68-1.41 1.57-1.41 1.01 0 1.55.48 1.72 1.45h2.55c-.25-2.38-1.66-3.89-4.27-3.89-2.4 0-4.23 1.55-4.23 4.02 0 1.62.81 3.11 2.88 3.67l1.49.42c1.01.27 1.55.68 1.55 1.49 0 .83-.56 1.45-1.68 1.45-.95 0-1.66-.42-1.9-1.51h-2.59c.22 2.57 1.81 3.96 4.48 3.96zM225.13 30.32h2.65l-4.41-12.92h-2.61l-4.41 12.92H219l.83-2.49h4.45l.85 2.49zm-4.49-4.93l1.35-4h.12l1.35 4h-2.82zM214.52 17.41l-2.09 8.64h-.11l-2.11-8.64h-2.9l-2.09 8.64h-.12l-2.1-8.64h-2.69l3.44 12.91h2.8l2.15-8.45h.12l2.16 8.45h2.79l3.44-12.91zM193.08 27.34v2.98h1.41v.08c0 1.12-.35 1.64-1.41 1.7v1.37c2.17-.1 2.98-1.37 2.98-3.38v-2.75h-2.98zM188.27 17.41v8.12h-.11l-4.64-8.12h-2.65v12.91h2.61v-8.08h.11l4.64 8.08h2.64V17.41zM178.65 19.82v-2.41h-7.6v12.91h7.6v-2.41h-4.99v-2.94h4.8v-2.42h-4.8v-2.73zM167.31 23.87v-.08c.99-.58 1.59-1.62 1.59-2.96 0-1.86-1.12-3.42-3.77-3.42h-4.91v12.92h4.81c2.8 0 3.98-1.61 3.98-3.58 0-1.36-.62-2.38-1.7-2.88zm-2.54-4.16c.85 0 1.41.58 1.41 1.49 0 .89-.54 1.51-1.41 1.51h-1.95v-3h1.95zm-.05 8.31h-1.9v-3.09h1.9c1.03 0 1.59.6 1.59 1.53-.01.98-.57 1.56-1.59 1.56zM157.99 19.82v-2.41h-7.6v12.91h7.6v-2.41H153v-2.94h4.8v-2.42H153v-2.73zM141.68 30.32h7.23v-2.41h-4.62v-10.5h-2.61zM137.08 30.32h2.9l-2.73-4.99c1.57-.52 2.59-1.86 2.59-3.83 0-2.61-1.78-4.1-4.29-4.1h-4.78v12.92h2.61V25.6h1.26l2.44 4.72zm-3.69-10.5h2.03c1.03 0 1.72.6 1.72 1.68s-.7 1.68-1.72 1.68h-2.03v-3.36zM128.56 19.82v-2.41h-7.6v12.91h7.6v-2.41h-4.99v-2.94h4.8v-2.42h-4.8v-2.73z"/></g><g id="_x31_-T-3_Logo"><path class="st0" d="M82.12 19.56h4.41v8.61h-8.61v-8.61zM52.09 19.56v8.61h8.61v-8.61h-4.19zM26.26 19.56v8.61h8.61v-8.61h-4.42z"/><path class="st0" d="M.43 0L0 15l2.26.39c.42-4.42 1.58-7.7 3.48-9.84 2-2.24 4.75-3.41 8.29-3.51v31.39c0 2.74-.38 4.52-1.18 5.34-.68.7-1.83 1.13-3.45 1.29-.48.04-1.3.06-2.46.06v2.4h20.99v-2.4c-1.16 0-1.98-.02-2.46-.06-1.62-.16-2.77-.59-3.45-1.29-.8-.82-1.19-2.6-1.19-5.34V2.04c3.54.1 6.3 1.27 8.3 3.51 1.9 2.14 3.06 5.42 3.48 9.84l2.26-.39-.43-15H.43z"/><path class="st0" d="M8.61 19.56H0v8.61h8.61z"/>
</svg>