<svg xmlns="http://www.w3.org/2000/svg" viewBox="0 0 144 38" style="enable-background:new 0 0 144 38" xml:space="preserve"><style>.st0{fill:#fff}</style><switch><g><g id="T_Logo"><path class="st0" d="M7.6 25.1H0v-7.6h7.6v7.6zM0 0v12.9h2.3v-.4c0-6.1 3.4-9.9 9.9-9.9h.4V30c0 3.8-1.5 5.3-5.3 5.3H6.1V38h19.8v-2.7h-1.1c-3.8 0-5.3-1.5-5.3-5.3V2.7h.4c6.5 0 9.9 3.8 9.9 9.9v.4h2.3V0H0zm24.3 25.1h7.6v-7.6h-7.6v7.6z" id="Telekom_Logo"/><g id="Claim"><path id="mk_kyr" class="st0" d="M56.4 8.3c-.2.6-.3 1.4-.3 2.3 0 .9.1 1.7.3 2.3.2.6.5 1.1 1 1.4.4.3.9.5 1.6.5.6 0 1.1-.2 1.5-.5.4-.4.7-.9.9-1.5h1.8c-.1.8-.4 1.4-.8 2-.4.6-.9 1-1.5 1.3-.6.3-1.3.5-2 .5-1 0-1.8-.2-2.5-.7-.7-.5-1.2-1.2-1.6-2-.4-.9-.6-1.9-.6-3.2 0-1.2.2-2.3.6-3.2.4-.9.9-1.6 1.6-2 .7-.5 1.5-.7 2.5-.7.7 0 1.4.2 2 .5.6.3 1.1.8 1.5 1.3.4.6.6 1.2.8 2h-1.8c-.1-.7-.4-1.2-.9-1.5-.4-.4-.9-.5-1.5-.5s-1.1.2-1.6.5c-.5.1-.8.6-1 1.2zm10.2 1.4h3.1v6.6h1.7V8.2H65v8.1h1.7V9.7zm7 4.9c-.3-.7-.4-1.4-.4-2.3 0-.9.1-1.6.4-2.3.3-.6.7-1.1 1.3-1.5.5-.3 1.1-.5 1.9-.5.7 0 1.4.2 1.9.5.5.4 1 .9 1.3 1.5.3.6.4 1.4.4 2.3 0 .9-.1 1.6-.4 2.3-.3.7-.7 1.2-1.3 1.5-.5.3-1.2.5-1.9.5s-1.4-.2-1.9-.5c-.6-.4-1-.9-1.3-1.5zm1.2-2.3c0 .9.2 1.6.5 2 .3.5.8.7 1.4.7.6 0 1.1-.2 1.4-.7.3-.5.5-1.2.5-2 0-.9-.2-1.6-.5-2-.3-.5-.8-.7-1.4-.7-.6 0-1.1.2-1.4.7-.3.4-.5 1.1-.5 2zm13.2 4h-5v2h-1.6v-3.5h.6c.2-.1.3-.3.4-.5.1-.2.2-.5.2-1l.2-5.2h6v6.6h.9v3.5H88v-1.9zm-.9-6.6h-2.7l-.2 3.5c0 .3-.1.6-.1.9-.1.2-.2.5-.3.7h3.4l-.1-5.1zm7.2 6.9c-.7 0-1.3-.2-1.9-.5-.5-.3-.9-.8-1.2-1.5-.3-.6-.4-1.4-.4-2.3 0-.9.1-1.7.4-2.3.3-.6.7-1.1 1.2-1.5.5-.4 1.2-.5 1.9-.5s1.3.2 1.8.5.9.8 1.2 1.4c.3.6.4 1.3.4 2.2v.6h-5.3c0 .8.2 1.4.5 1.8.3.5.8.7 1.4.7.4 0 .8-.1 1-.3.3-.2.5-.4.6-.7h1.7c-.2.8-.6 1.3-1.2 1.8-.6.4-1.3.6-2.1.6zm-1.4-6.5c-.2.3-.4.7-.4 1.3h3.7c-.1-.6-.2-1-.4-1.3-.3-.4-.8-.6-1.4-.6-.7-.1-1.2.2-1.5.6zm8.7 3.9.2-4.3h2.7v6.6h1.7V8.2h-6l-.2 5.6c0 .4-.1.7-.2.9-.2.2-.4.2-.7.2h-.4v1.4c.2.1.5.1.8.1.6 0 1.1-.2 1.5-.6.4-.3.6-1 .6-1.8zm8.6-.6-.1-5.2h-1.7v8.1h1.7l3.1-5.1h.1v5.1h1.7V8.2h-1.7l-3.1 5.2zM61.3 31.6h.9v3.5h-1.7v-2h-5v2h-1.6v-3.5h.6c.2-.1.3-.3.4-.5.1-.2.2-.5.2-1l.2-5.2h6v6.7zm-1.7-5.2h-2.7l-.1 3.6c0 .3-.1.6-.1.9-.1.2-.2.5-.3.7h3.4l-.2-5.2zm10.7.3c.3.6.4 1.4.4 2.3 0 .9-.1 1.6-.4 2.3-.3.7-.7 1.2-1.3 1.5-.5.3-1.2.5-1.9.5s-1.4-.2-1.9-.5-1-.8-1.3-1.5c-.3-.7-.4-1.4-.4-2.3 0-.9.1-1.6.4-2.3.3-.6.7-1.1 1.3-1.5.5-.4 1.2-.5 1.9-.5s1.4.2 1.9.5c.6.4 1 .9 1.3 1.5zM69 29c0-.9-.2-1.6-.5-2-.3-.5-.8-.7-1.4-.7-.6 0-1.1.2-1.4.7-.3.5-.5 1.2-.5 2 0 .9.2 1.6.5 2 .3.5.8.7 1.4.7.6 0 1.1-.2 1.4-.7.4-.4.5-1.1.5-2zm13.7-4.1h-2l-2 3.3h-.9v-3.3h-1.7v3.3h-.9l-2-3.3h-2l2.6 4-2.6 4.1h2l2-3.3h.9V33h1.7v-3.3h.9l2 3.3h2l-2.5-4 2.5-4.1zm3.2 5.2-.1-5.2h-1.7V33h1.7l3.1-5.1h.1V33h1.7v-8.1H89l-3.1 5.2zm12.8-.4c.2.3.3.7.3 1.1 0 .7-.2 1.2-.7 1.6-.5.4-1.2.6-2.1.6h-3.3v-8.1h3.4c.9 0 1.5.2 1.9.6.4.4.7.9.7 1.5 0 .4-.1.8-.3 1.1-.2.3-.5.6-.9.8v.1c.5.1.8.4 1 .7zm-4.1-1.4h1.5c.3 0 .6-.1.8-.3.2-.2.3-.4.3-.7 0-.3-.1-.6-.3-.7-.2-.2-.5-.3-.8-.3h-1.5v2zm2.7 2.3c0-.3-.1-.6-.3-.8-.2-.2-.5-.3-.9-.3h-1.5v2.1h1.5c.4 0 .7-.1.9-.3.2-.1.3-.3.3-.7zm6.5 0h-.1l-2-5.7H100l3 7.9-.3.9c-.1.4-.3.6-.5.8-.2.1-.4.2-.7.2-.3 0-.6 0-.9-.1V36c.3.1.7.2 1.2.2.6 0 1.1-.2 1.5-.5.4-.3.7-.8.9-1.4l3.4-9.3h-1.8l-2 5.6zm10.8-.9c.2.3.3.7.3 1.1 0 .7-.2 1.2-.7 1.6-.5.4-1.2.6-2.1.6h-3.3v-8.1h3.4c.9 0 1.5.2 1.9.6.4.4.7.9.7 1.5 0 .4-.1.8-.3 1.1-.2.3-.5.6-.9.8v.1c.4.1.7.4 1 .7zm-4.1-1.4h1.5c.3 0 .6-.1.8-.3.2-.2.3-.4.3-.7 0-.3-.1-.6-.3-.7-.2-.2-.5-.3-.8-.3h-1.5v2zm2.7 2.3c0-.3-.1-.6-.3-.8-.2-.2-.5-.3-.9-.3h-1.5v2.1h1.5c.4 0 .7-.1.9-.3.2-.1.3-.3.3-.7zm9.9 1.2c.1 0 .3 0 .4-.1V33c-.1.1-.3.1-.4.1-.2 0-.3.1-.5.1-.4 0-.7-.1-1-.3-.2-.2-.4-.5-.4-.8h-.1c-.2.4-.6.7-1 .9-.4.2-.9.3-1.4.3-.8 0-1.4-.2-1.8-.6-.4-.4-.6-1-.6-1.7 0-.9.4-1.6 1.1-2.1.7-.5 1.8-.7 3.1-.7h.5v-.4c0-.5-.1-.9-.3-1.2-.2-.3-.6-.4-1.1-.4-.4 0-.7.1-.9.3-.2.2-.4.5-.4.8h-1.6c.1-.8.4-1.4.9-1.8.5-.4 1.2-.6 2.1-.6 1 0 1.8.3 2.3.8.5.6.8 1.3.8 2.2v3.5c0 .2 0 .3.1.4h.2zm-2.3-.9c.2-.3.2-.7.2-1.1v-.5h-.5c-.8 0-1.5.1-1.9.4-.4.2-.6.6-.6 1.1 0 .4.1.7.3.9.2.2.5.3.9.3s.7-.1 1-.3c.3-.3.5-.5.6-.8zm14.1-2.5c.5.5.8 1.1.8 2 0 .8-.3 1.5-.8 2s-1.2.7-2 .7h-3.2v-3.9h-3v3.9H125V25h1.7v2.8h3V25h1.7v2.8h1.5c.8-.1 1.5.2 2 .6zm-.9 2c0-.4-.1-.7-.3-1-.2-.2-.5-.3-.9-.3h-1.3v2.6h1.3c.4 0 .7-.1.9-.3.2-.3.3-.6.3-1zm10 1.3V33c-.1.1-.3.1-.4.1-.2 0-.3.1-.5.1-.4 0-.7-.1-1-.3-.2-.2-.4-.5-.4-.8h-.1c-.2.4-.6.7-1 .9-.4.2-.9.3-1.4.3-.8 0-1.4-.2-1.8-.6-.4-.4-.6-1-.6-1.7 0-.9.4-1.6 1.1-2.1.7-.5 1.8-.7 3.1-.7h.5v-.4c0-.5-.1-.9-.3-1.2-.2-.3-.6-.4-1.1-.4-.4 0-.7.1-.9.3-.2.2-.4.5-.4.8H137c.1-.8.4-1.4.9-1.8.5-.4 1.2-.6 2.1-.6 1 0 1.8.3 2.3.8.5.6.8 1.3.8 2.2v3.5c0 .2 0 .3.1.4.1.1.2.1.3.1.2-.1.3-.1.5-.2zm-2.7-.8c.2-.3.2-.7.2-1.1v-.5h-.5c-.8 0-1.5.1-1.9.4-.4.2-.6.6-.6 1.1 0 .4.1.7.3.9.2.2.5.3.9.3s.7-.1 1-.3c.2-.3.4-.5.6-.8z"/></g></g></g></switch></svg>