<svg width="24" height="24" xmlns="http://www.w3.org/2000/svg"><path d="M10.1 8.381a5.577 5.577 0 015.242 3.639 4.246 4.246 0 012.258 3.744 4.242 4.242 0 01-4.024 4.23l-.212.006h-9.09A3.877 3.877 0 01.4 16.127a3.88 3.88 0 011.941-3.355 3.486 3.486 0 014.262-3.158A5.575 5.575 0 0110.1 8.381zm8.077-5.476a5.383 5.383 0 012.621-.03 4.55 4.55 0 003.058 8.515 5.374 5.374 0 01-2.934 1.969 5.37 5.37 0 01-2.685.015 5.421 5.421 0 00-1.938-2.184 6.749 6.749 0 00-2.137-2.675 5.404 5.404 0 014.015-5.61z" fill-rule="evenodd"/></svg>