<?xml version="1.0" encoding="UTF-8"?>
<svg width="24px" height="24px" viewBox="0 0 24 24" version="1.1" xmlns="http://www.w3.org/2000/svg" xmlns:xlink="http://www.w3.org/1999/xlink">
    <title>icon/weather/moon-cloudy-a/selected</title>
    <g id="icon/weather/moon-cloudy-a/selected" stroke="none" stroke-width="1" fill="none" fill-rule="evenodd">
        <path d="M10.1,8.381 C12.4535,8.381 14.5285,9.833 15.3425,12.02 C16.7225,12.751 17.6005,14.1925 17.6005,15.7635 C17.6005,18.0287121 15.8134366,19.8844183 13.5755791,19.9948052 L13.3645,20 L4.2735,20 C2.1375,20 0.4005,18.263 0.4005,16.127 C0.4005,14.7355 1.151,13.4585 2.3425,12.772 C2.4625,10.96 3.975,9.523 5.8165,9.523 C6.0805,9.523 6.3445,9.5535 6.604,9.6145 C7.597,8.817 8.8255,8.381 10.1,8.381 Z M18.177,2.9055 C19.0665,2.672 19.962,2.676 20.798,2.875 C18.8735,3.801 17.8095,5.9865 18.3725,8.129 C19.0045,10.535 21.4485,11.98 23.8555,11.3905 C23.15,12.324 22.1415,13.039 20.9215,13.359 C20.0095,13.599 19.0915,13.589 18.237,13.3745 C17.8055,12.4955 17.1465,11.734 16.2985,11.1905 C15.8135,10.103 15.073,9.1925 14.1615,8.5145 C13.979,5.971 15.6205,3.577 18.177,2.9055 Z" id="Shape" fill="#262626"></path>
    </g>
</svg>