<svg height="24" width="24" xmlns="http://www.w3.org/2000/svg"><path d="m16 .5v3h5.5c.4 0 .75.35.75.75s-.35.75-.75.75h-1.05l-.8 15.65c-.1 1.6-1.4 2.85-3 2.85h-9.25c-1.6 0-2.9-1.25-3-2.85l-.85-15.65h-1.05c-.4 0-.75-.35-.75-.75s.35-.75.75-.75h5.5v-3zm2.95 4.5h-13.9l.85 15.6c.05.8.7 1.4 1.5 1.4h9.2c.8 0 1.45-.6 1.5-1.4zm-6.95 2.75c.4 0 .75.35.75.75v10c0 .4-.35.75-.75.75s-.75-.35-.75-.75v-10c0-.4.35-.75.75-.75zm3.5 0c.4 0 .75.35.75.75v10c0 .4-.35.75-.75.75s-.75-.35-.75-.75v-10c0-.4.35-.75.75-.75zm-7 0c.4 0 .75.35.75.75v10c0 .4-.35.75-.75.75s-.75-.35-.75-.75v-10c0-.4.35-.75.75-.75zm6-5.75h-5v1.5h5z" fill="#262626" fill-rule="evenodd"/></svg>