<svg height="24" width="24" xmlns="http://www.w3.org/2000/svg"><path d="m18.15 3.4c-1.5-1.85-3.75-2.9-6.15-2.9s-4.6 1.05-6.1 2.9a7.844 7.844 0 0 0 -1.6 6.6l1.35 6.45c-1.25.25-2.15 1.4-2.15 2.65 0 1.4 1.05 2.55 2.45 2.7l4.05.4c.25.95 1.05 1.6 2.1 1.6 1.2 0 2.15-.95 2.15-2.15s-.95-2.15-2.15-2.15c-.85 0-1.55.5-1.9 1.2l-4.05-.4c-.6-.05-1.1-.6-1.1-1.2 0-.55.4-1.05.95-1.2l3.4-.7c.8-.15 1.35-.95 1.2-1.75l-.75-3.7a1.52 1.52 0 0 0 -1.75-1.2l-2.1.45-.25-1.3c-.4-1.9.1-3.85 1.3-5.35 1.25-1.5 3.05-2.35 4.95-2.35s3.75.85 4.95 2.35 1.7 3.45 1.3 5.35l-.2 1.3-1.95-.4c-.8-.15-1.6.35-1.75 1.2l-.8 3.7c-.15.8.35 1.6 1.2 1.75l3.4.7 1.6-7.95c.5-2.35-.1-4.75-1.6-6.6z" fill="#262626" fill-rule="evenodd"/></svg>