<svg xmlns="http://www.w3.org/2000/svg" width="24" height="24">
    <path fill="#262626" fill-rule="evenodd" d="M18.535 3.09a8.405 8.405 0 00-14.745 7l1.34 6.525a2.715 2.715 0 00.775 5.2l4.04.42a2.155 2.155 0 10.155-1.5l-4.04-.415a1.215 1.215 0 01-.19-2.385l1.655-.34 1.775-.35a1.5 1.5 0 001.2-1.745l-.74-3.72A1.5 1.5 0 008 10.595l-1.5.29-.265-1.295a5.905 5.905 0 1111.565 0l-.265 1.295-1.47-.29A1.5 1.5 0 0014.3 11.77l-.735 3.73a1.5 1.5 0 001.18 1.765l1.76.35 2.12.435 1.63-7.945a8.39 8.39 0 00-1.72-7.015z"/>
</svg>
