<svg width="24" height="24" xmlns="http://www.w3.org/2000/svg"><path d="M12 1c.631 0 1.263.288 1.664.865l.095.15 5.738 9.939c.756 1.31-.134 2.937-1.61 3.04l-.149.006H12.75v2.5H22v3.169a1.75 1.75 0 11-1.5 0V19h-7.75v1.669c.55.261.943.801.994 1.437l.006.144a1.75 1.75 0 11-2.5-1.582V19H3.5v1.669a1.75 1.75 0 11-1.5 0V17.5h9.25V15H6.263c-1.514 0-2.478-1.585-1.83-2.914l.07-.133 5.738-9.938A2.012 2.012 0 0112 1zm0 1.5a.514.514 0 00-.398.178l-.062.087-5.737 9.939a.513.513 0 000 .53c.049.085.156.22.353.256l.107.01h11.475a.514.514 0 00.46-.265.514.514 0 00.04-.446l-.04-.085-5.738-9.939A.514.514 0 0012 2.5zm0 8a.98.98 0 110 1.961.98.98 0 010-1.961zm.75-5v4h-1.5v-4h1.5z" fill-rule="evenodd"/></svg>