<svg width="24" height="24" xmlns="http://www.w3.org/2000/svg"><path d="M12 1c.632 0 1.263.288 1.664.865l.095.15 5.738 9.939c.757 1.31-.134 2.937-1.61 3.04l-.149.006h-4.987v2.5H22v3.175A1.745 1.745 0 0121.25 24a1.75 1.75 0 01-1.75-1.75c0-.643.35-1.201.867-1.505l.133-.07V19h-7.75v1.675A1.745 1.745 0 0112 24a1.75 1.75 0 01-1.75-1.75c0-.643.35-1.201.867-1.505l.133-.07V19H3.5v1.675A1.745 1.745 0 012.75 24 1.75 1.75 0 011 22.25c0-.643.35-1.201.867-1.505l.133-.07V17.5h9.25V15H6.263c-1.513 0-2.477-1.585-1.83-2.914l.071-.133 5.738-9.938A2.012 2.012 0 0112 1zm0 9.5a.98.98 0 100 1.961.98.98 0 000-1.961zm.75-5h-1.5v4h1.5v-4z" fill="#000" fill-rule="evenodd"/></svg>