<svg xmlns="http://www.w3.org/2000/svg" width="24" height="24">
    <path fill="#262626" fill-rule="evenodd" d="M20.945 7.3a.747.747 0 011.015.165 7.442 7.442 0 011.51 5.215c-.35 3.9-3.755 6.82-7.67 6.82h-5.3v2.85L5 18.75l5.5-3.6V18h5.32c3.295 0 6.175-2.695 6.18-5.99 0-1.36-.45-2.62-1.215-3.625-.265-.35-.2-.84.16-1.085zM13.5 1.65l5.5 3.6-5.5 3.6V6H8.18C4.885 6 2.005 8.695 2 11.99c0 1.36.45 2.62 1.215 3.625.265.35.2.84-.16 1.085a.747.747 0 01-1.015-.165A7.45 7.45 0 01.53 11.32C.88 7.42 4.285 4.5 8.2 4.5h5.3V1.65z"/>
</svg>
