<svg xmlns="http://www.w3.org/2000/svg" width="24" height="24">
    <path fill="#262626" fill-rule="evenodd" d="M8.013 6.612h5.211v2.302l5.388-3.526-5.388-3.527v2.302H8.033A7.998 7.998 0 00.029 11.29a7.807 7.807 0 001.582 5.451 1.22 1.22 0 001.66.28c.269-.188.446-.48.49-.804a1.234 1.234 0 00-.24-.98A5.358 5.358 0 012.45 12a5.554 5.554 0 015.564-5.388zM21.9 7.26a1.224 1.224 0 00-1.656-.27 1.176 1.176 0 00-.49.804 1.24 1.24 0 00.24.98A5.358 5.358 0 0121.061 12a5.554 5.554 0 01-5.564 5.388h-5.211v-2.302l-5.388 3.526 5.388 3.527v-2.302h5.192a7.998 7.998 0 008.003-7.127 7.807 7.807 0 00-1.582-5.451z"/>
</svg>
