<svg height="24" width="24" xmlns="http://www.w3.org/2000/svg"><path d="m15.7 14.6c1.75 0 3.2 1.25 3.5 2.95l.25 1.45h-14.85l.25-1.4c.25-1.7 1.7-2.95 3.45-2.95h1.35l2.35 2.35 2.35-2.4zm4.65-.05c1.45 0 2.7 1.05 2.95 2.45l.4 2h-1.55l-.35-1.75c-.1-.7-.75-1.2-1.45-1.2h-.05c-.25-.55-.6-1.05-1.05-1.5zm-15.55 0c-.45.45-.8.95-1.1 1.5h-.05c-.7 0-1.3.5-1.45 1.2l-.35 1.75h-1.55l.4-2c.25-1.45 1.5-2.45 2.95-2.45zm7.2-10.3c2.5 0 4.4 1.9 4.4 4.4 0 2.45-1.8 5.05-4.4 5.05s-4.4-2.65-4.4-5.05c0-2.5 1.9-4.4 4.4-4.4zm-5.6 1.1c.2 0 .45 0 .65.05-.25.45-.5.95-.65 1.45-1.35 0-2.3.95-2.3 2.3s.95 2.85 2.3 2.85c.15 0 .35-.05.5-.1.25.45.5.85.85 1.25-.4.2-.85.3-1.35.3-2.1 0-3.8-1.95-3.8-4.3 0-2.15 1.65-3.8 3.8-3.8zm11.2-.1c2.15 0 3.8 1.65 3.8 3.8 0 2.4-1.7 4.35-3.8 4.35-.45 0-.9-.1-1.35-.3.35-.35.6-.8.85-1.25.15.05.3.1.5.1 1.4 0 2.3-1.45 2.3-2.85 0-1.35-.95-2.3-2.3-2.35-.15-.55-.35-1-.65-1.45.2-.05.4-.05.65-.05zm-5.6.5c-1.7 0-2.9 1.15-2.9 2.9 0 1.7 1.15 3.55 2.9 3.55s2.9-1.8 2.9-3.55c0-1.7-1.2-2.9-2.9-2.9z" fill="#262626" fill-rule="evenodd"/></svg>