<svg width="24" height="24" xmlns="http://www.w3.org/2000/svg"><path d="M12 .98l9.5 2.171v7.998c0 5.589-3.684 10.575-8.997 12.234l-.297.088-.206.058-.206-.058c-5.373-1.534-9.154-6.447-9.29-12.012l-.004-.31V3.151L12 .981zm0 1.54L4 4.346v6.802c0 4.954 3.28 9.371 8 10.82 4.627-1.42 7.868-5.69 7.996-10.523l.004-.297V4.347L12 2.52zm4.175 5.93l.638.771a7.37 7.37 0 01-2.313 1.29v.99H17v1h-2.5v1l-.012.113a7.365 7.365 0 012.325 1.293l-.638.771a6.327 6.327 0 00-1.933-1.093A2.492 2.492 0 0112 16c-.99 0-1.838-.58-2.243-1.415a6.35 6.35 0 00-1.933 1.093l-.637-.77a7.35 7.35 0 012.324-1.294l-.01-.114v-1H7v-1h2.5v-.989a7.348 7.348 0 01-2.314-1.29l.637-.77c2.381 1.971 5.97 1.971 8.351 0zM12 6.5c.966 0 1.75.783 1.75 1.75 0 .145-.023.285-.057.421a5.715 5.715 0 01-3.386 0 1.73 1.73 0 01-.057-.42c0-.968.783-1.75 1.75-1.75z" fill="#000" fill-rule="evenodd"/></svg>