<svg width="24" height="24" xmlns="http://www.w3.org/2000/svg"><path d="M12 .98l9.5 2.172v7.998c0 5.587-3.684 10.572-8.997 12.233l-.297.089-.206.058-.206-.058c-5.373-1.537-9.155-6.448-9.29-12.013l-.004-.31V3.153L12 .98zm4.176 7.47c-2.311 1.916-5.76 1.972-8.138.17l-.213-.17-.638.772a7.34 7.34 0 002.004 1.175l.309.114v.989H7v1h2.5v1l.012.115a7.4 7.4 0 00-2.059 1.082l-.266.21.638.77a6.345 6.345 0 011.933-1.091A2.491 2.491 0 0012 16c.99 0 1.838-.58 2.243-1.414.594.21 1.161.507 1.679.892l.254.2.637-.771a7.321 7.321 0 00-2.325-1.292l.012-.115v-1H17v-1h-2.5v-.99a7.389 7.389 0 002.048-1.08l.265-.208-.637-.771zM12 6.5a1.75 1.75 0 00-1.75 1.75c0 .146.023.287.058.423a5.696 5.696 0 003.385 0c.034-.137.057-.277.057-.423A1.75 1.75 0 0012 6.5z" fill="#000" fill-rule="evenodd"/></svg>