<svg width="24" height="24" xmlns="http://www.w3.org/2000/svg"><path d="M18.002 1.5a3 3 0 012.995 2.824l.005.176v15a3 3 0 01-2.824 2.995l-.176.005h-12a3 3 0 01-2.995-2.824l-.005-.176v-15a3 3 0 012.823-2.995l.177-.005h12zm1.5 14.5h-15v3.5c0 .778.596 1.42 1.355 1.493l.145.007h12c.778 0 1.42-.596 1.493-1.356l.007-.144V16zm-3.5 1.5a1 1 0 110 2 1 1 0 010-2zm3.5-8h-15v5h15v-5zm-3.5 1.5a1 1 0 110 2 1 1 0 010-2zm2-8h-12c-.779 0-1.42.596-1.494 1.356l-.006.144V8h15V4.5c0-.827-.673-1.5-1.5-1.5zm-2 1.5a1 1 0 110 2 1 1 0 010-2z" fill-rule="evenodd"/></svg>