<svg height="24" width="24" xmlns="http://www.w3.org/2000/svg"><path d="m2.95 16.65c1.1 0 1.8.85 1.8 2.15v.4h-2.6c.05.75.35 1 .8 1 .3 0 .55-.15.65-.4h1.15c-.2.85-.9 1.35-1.8 1.35-1.15 0-1.9-.85-1.9-2.25 0-1.45.75-2.25 1.9-2.25zm17.05-13.65c1.65 0 3 1.35 3 3v12c0 1.65-1.35 3-3 3h-.5v-1.5h.5c.85 0 1.5-.65 1.5-1.5v-12c0-.85-.65-1.5-1.5-1.5h-11.9l-5.6 5.6v4.9h-1.5v-5.5l6.5-6.5zm-12.7 12c1.15 0 1.8.7 1.9 1.75h-1.15c-.05-.45-.3-.65-.75-.65-.4 0-.7.25-.7.65s.3.55.6.65l.65.2c.85.25 1.4.9 1.4 1.6 0 1.15-.85 1.8-1.95 1.8-1.2 0-1.9-.6-2-1.75h1.15c.1.5.4.7.85.7.5 0 .75-.3.75-.65s-.25-.55-.7-.65l-.65-.2c-.95-.25-1.3-.9-1.3-1.65 0-1.1.8-1.8 1.9-1.8zm3.9.2v5.8h-1.15v-5.8zm2.2 0 1.75 3.2h.05l1.7-3.2h1.1v5.8h-1.2v-3.3h-.05l-1.4 2.6h-.4l-1.4-2.6h-.05v3.3h-1.15v-5.8zm-10.45 2.4c-.4 0-.7.2-.8.75h1.55c-.1-.55-.4-.75-.75-.75z" fill="#262626" fill-rule="evenodd"/></svg>