<svg xmlns="http://www.w3.org/2000/svg" width="24" height="24">
    <path fill="#262626" fill-rule="evenodd" d="M20 3a3 3 0 013 3v12a3 3 0 01-3 3h-.5v-2.5h.5a.5.5 0 00.5-.5V6a.5.5 0 00-.5-.5H8.535L3.5 10.535V15H1V9.5L7.5 3zM7.29 14.83a1.775 1.775 0 011.92 1.745H8.065a.705.705 0 00-.775-.65.625.625 0 00-.7.635c0 .405.265.555.59.64l.665.185a1.725 1.725 0 011.385 1.71c0 1.165-.86 1.815-1.955 1.815-1.185 0-1.895-.625-2-1.77H6.44a.785.785 0 00.85.675c.505 0 .755-.285.755-.65 0-.365-.24-.545-.695-.665l-.665-.215a1.615 1.615 0 01-1.295-1.65 1.77 1.77 0 011.9-1.805zm-4.35 1.605c1.095 0 1.81.835 1.79 2.125a2.3 2.3 0 010 .395H2.11c.06.775.38 1 .805 1 .28.03.548-.126.66-.385h1.13a1.695 1.695 0 01-1.79 1.33c-1.12 0-1.875-.82-1.875-2.23 0-1.41.73-2.235 1.9-2.235zm8.3-1.475v5.8h-1.17v-5.8h1.17zm2.17 0l1.73 3.215h.05l1.72-3.215h1.075v5.8H16.82v-3.27h-.05l-1.425 2.55h-.37l-1.42-2.55h-.05v3.27h-1.17v-5.8h1.075zM2.94 17.385c-.405 0-.69.18-.795.745H3.69c-.08-.565-.345-.745-.75-.745z"/>
</svg>
