<svg width="24" height="24" xmlns="http://www.w3.org/2000/svg"><g fill-rule="evenodd"><path d="M20 3a3 3 0 012.995 2.824L23 6v12a3 3 0 01-2.824 2.995L20 21h-.5v-2.5h.5a.5.5 0 00.492-.41L20.5 18V6a.5.5 0 00-.41-.492L20 5.5H8.535L3.5 10.535V15H1V9.5L7.5 3H20z"/><path d="M2.95 16.65c1.05 0 1.736.774 1.796 1.976l.004.174v.4h-2.6c.05.75.35 1 .8 1 .262 0 .487-.115.606-.311L3.6 19.8h1.15c-.2.85-.9 1.35-1.8 1.35-1.15 0-1.9-.85-1.9-2.25 0-1.45.75-2.25 1.9-2.25zM7.3 15c1.09 0 1.73.628 1.88 1.587l.02.163H8.05c-.05-.45-.3-.65-.75-.65-.4 0-.7.25-.7.65 0 .36.243.517.51.618l.09.032.65.2c.85.25 1.4.9 1.4 1.6 0 1.15-.85 1.8-1.95 1.8-1.137 0-1.825-.539-1.98-1.573l-.02-.177h1.15c.1.5.4.7.85.7.5 0 .75-.3.75-.65 0-.315-.203-.509-.571-.617l-.129-.033-.65-.2c-.95-.25-1.3-.9-1.3-1.65 0-1.1.8-1.8 1.9-1.8zm3.9.2V21h-1.15v-5.8h1.15zm2.2 0l1.75 3.2h.05l1.7-3.2H18V21h-1.2v-3.3h-.05l-1.4 2.6h-.4l-1.4-2.6h-.05V21h-1.15v-5.8h1.05zM2.95 17.6c-.367 0-.65.168-.77.62l-.03.13H3.7c-.1-.55-.4-.75-.75-.75z"/></g></svg>