<svg width="24" height="24" xmlns="http://www.w3.org/2000/svg"><path d="M20 3a3 3 0 012.995 2.824L23 6v12a3 3 0 01-2.824 2.995L20 21h-.5v-2.5h.5a.5.5 0 00.492-.41L20.5 18V6a.5.5 0 00-.41-.492L20 5.5H8.535L3.5 10.535V15H1V9.5L7.5 3H20zM7.29 14.83a1.775 1.775 0 011.91 1.582l.01.163H8.065a.705.705 0 00-.775-.65.625.625 0 00-.7.635c0 .364.215.522.495.612l.76.213a1.725 1.725 0 011.385 1.71c0 1.165-.86 1.815-1.955 1.815-1.123 0-1.819-.56-1.978-1.594l-.022-.176H6.44a.785.785 0 00.85.675c.505 0 .755-.285.755-.65 0-.328-.194-.507-.565-.627l-.13-.038-.665-.215a1.615 1.615 0 01-1.295-1.65 1.77 1.77 0 011.9-1.805zm-4.35 1.605c1.095 0 1.81.835 1.79 2.125.008.088.01.176.008.263l-.008.132H2.11c.056.723.338.968.721.997l.084.003c.245.026.48-.09.611-.293l.049-.092h1.13c-.17.78-.857 1.33-1.642 1.335l-.148-.005c-1.12 0-1.875-.82-1.875-2.23 0-1.41.73-2.235 1.9-2.235zm8.3-1.475v5.8h-1.17v-5.8h1.17zm2.17 0l1.73 3.215h.05l1.72-3.215h1.075v5.8H16.82v-3.27h-.05l-1.425 2.55h-.37l-1.42-2.55h-.05v3.27h-1.17v-5.8h1.075zM2.94 17.385c-.371 0-.642.151-.765.612l-.03.133H3.69c-.08-.565-.345-.745-.75-.745z" fill="#000" fill-rule="evenodd"/></svg>