<svg width="24" height="24" xmlns="http://www.w3.org/2000/svg"><path d="M22.613 9.215a1.713 1.713 0 00-1.51-1.184l-5.451-.399-2.064-5.061a1.713 1.713 0 00-1.592-1.07c-.703 0-1.327.42-1.593 1.07L8.34 7.633l-5.452.398c-.7.052-1.292.516-1.51 1.184a1.712 1.712 0 00.526 1.845l4.176 3.527-1.304 5.308a1.715 1.715 0 00.658 1.802c.568.413 1.321.44 1.918.07l4.644-2.881 4.646 2.881a1.716 1.716 0 002.575-1.871l-1.305-5.309 4.176-3.527a1.714 1.714 0 00.526-1.845zm-1.494.699l-4.886 4.127 1.527 6.212c.03.119-.03.19-.084.23a.203.203 0 01-.244.009l-5.436-3.372V3.002c.067 0 .156.024.203.137l2.416 5.922 6.38.468a.206.206 0 01.192.151.206.206 0 01-.068.235z" fill-rule="evenodd"/></svg>