<svg width="24" height="24" xmlns="http://www.w3.org/2000/svg"><path d="M11.997 1.501c.652 0 1.237.362 1.53.934l.062.136 2.064 5.062 5.452.398c.7.052 1.293.516 1.51 1.184.2.616.04 1.28-.408 1.735l-.118.11-4.175 3.527 1.304 5.308a1.715 1.715 0 01-.659 1.802 1.712 1.712 0 01-1.777.149l-.14-.079-4.645-2.881-4.646 2.881a1.716 1.716 0 01-2.604-1.725l.03-.146 1.304-5.309-4.176-3.527a1.714 1.714 0 01-.526-1.845 1.712 1.712 0 011.362-1.166l.148-.018 5.452-.399 2.064-5.061c.265-.65.89-1.07 1.592-1.07zm0 1.5a.205.205 0 00-.171.079l-.033.058L9.378 9.06l-6.38.468a.206.206 0 00-.193.151.206.206 0 00.023.186l.045.049 4.886 4.127-1.527 6.212c-.029.119.03.19.084.23.044.032.107.06.184.037l.06-.028 5.436-3.372V3.002z" fill-rule="evenodd"/></svg>