<svg width="24" height="24" xmlns="http://www.w3.org/2000/svg"><path d="M14 1l.5 2.75a.992.992 0 001.448.71l.102-.06 2.3-1.6 2.85 2.85-1.6 2.3c-.378.567-.087 1.312.537 1.52l.113.03L23 10v4l-2.75.5a.992.992 0 00-.71 1.448l.06.102 1.6 2.3-2.85 2.85-2.3-1.6c-.567-.378-1.312-.087-1.52.537l-.03.113L14 23h-4l-.5-2.75c-.142-.661-.863-1.01-1.448-.71l-.102.06-2.3 1.6-2.85-2.85 1.6-2.3c.378-.567.087-1.312-.537-1.52l-.113-.03L1 14v-4l2.75-.5a.992.992 0 00.71-1.448L4.4 7.95l-1.6-2.3L5.65 2.8l2.3 1.6c.567.378 1.312.087 1.52-.537l.03-.113L10 1h4zm-1.25 1.5h-1.5l-.3 1.5c-.2 1.2-1.25 2.05-2.45 2.05-.438 0-.875-.115-1.246-.345L5.8 4.7 4.75 5.75l.9 1.3c.464.65.584 1.472.318 2.227L5.9 9.45c-.279.743-.902 1.27-1.67 1.462l-.18.038-1.55.3v1.5l1.55.25c.85.15 1.5.7 1.85 1.5a2.426 2.426 0 01-.149 2.247l-.101.153-.9 1.3 1.05 1.05 1.3-.9c.4-.3.9-.45 1.4-.45 1.145 0 2.154.774 2.418 1.889l.332 1.711h1.5l.3-1.55c.2-1.2 1.25-2.05 2.45-2.05.438 0 .875.115 1.246.345L18.2 19.25l1.05-1.05-.9-1.3c-.5-.7-.55-1.6-.25-2.3.279-.743.902-1.27 1.67-1.462l.18-.038 1.55-.3v-1.5l-1.55-.3c-.85-.15-1.5-.7-1.85-1.5a2.426 2.426 0 01.149-2.247l.101-.153.9-1.3-1.05-1.05-1.3.9c-.4.3-.9.45-1.4.45-1.145 0-2.154-.774-2.418-1.889L12.75 2.5zM12 9a3 3 0 110 6 3 3 0 010-6z" fill="#000" fill-rule="evenodd"/></svg>