<svg xmlns="http://www.w3.org/2000/svg" width="24" height="24">
    <path fill="#262626" fill-rule="evenodd" d="M20.235 14.5L23 14v-4l-2.765-.5a1 1 0 01-.64-1.555l1.595-2.31-2.825-2.825-2.31 1.595a1 1 0 01-1.555-.64L14 1h-4l-.5 2.76a1 1 0 01-1.555.645L5.635 2.81 2.81 5.635l1.595 2.31a1 1 0 01-.64 1.555L1 10v4l2.76.5a1 1 0 01.645 1.555l-1.595 2.31 2.825 2.825 2.31-1.595a1 1 0 011.555.64L10 23h4l.5-2.765a1 1 0 011.555-.64l2.31 1.595 2.825-2.825-1.595-2.31a1 1 0 01.64-1.555zM12 15a3 3 0 110-6 3 3 0 010 6z"/>
</svg>
