<svg height="24" width="24" xmlns="http://www.w3.org/2000/svg"><path d="m16.05 13.3-1.7 1.7c-.25.25-.7.3-1 .05-.55-.45-1.4-1.15-2.3-2.05s-1.6-1.75-2.05-2.3a.76.76 0 0 1 .05-1l1.7-1.7-3.35-6c-1.1.1-3.45.35-4.7 2.25-1.15 1.85-.5 4.1-.3 4.75.85 2.35 2.65 5 5.1 7.5 2.5 2.5 5.15 4.3 7.45 5.1.35.1 1.25.4 2.25.4.8 0 1.7-.15 2.5-.65 1.9-1.2 2.15-3.55 2.25-4.7zm2.9 6.7c-1.25.8-3 .3-3.45.15-2.1-.7-4.55-2.4-6.9-4.75-2.3-2.3-4-4.75-4.7-6.9-.15-.5-.65-2.2.15-3.45.45-.75 1.35-1.25 2.6-1.45l2.3 4.05-.95.9c-.8.8-.9 2.1-.15 3 .5.6 1.25 1.5 2.15 2.45.95.95 1.85 1.7 2.45 2.15.9.7 2.2.65 3-.15l.9-.9 4.05 2.3c-.25 1.25-.7 2.15-1.45 2.6z" fill="#262626" fill-rule="evenodd"/></svg>