<svg width="24" height="24" xmlns="http://www.w3.org/2000/svg"><path d="M12.006 18a2 2 0 11-.001 4.001A2 2 0 0112.006 18zm-1.08-4.4c.15.684.394 1.33.722 1.926a4.494 4.494 0 00-3.501 2.162l-.11.195-1.438-1.49a6.494 6.494 0 014.327-2.792zm.517-4.584a7.157 7.157 0 00-.612 2.063 8.985 8.985 0 00-5.801 3.25l-.19.242-1.407-1.46a10.98 10.98 0 018.01-4.095zm.563-4.516c1.47 0 2.89.205 4.235.587a7.158 7.158 0 00-2.92 1.48 13.47 13.47 0 00-11.405 4.468l-.23.264L.293 9.854A15.464 15.464 0 0112.006 4.5zm5.938 1.875a5.688 5.688 0 11-.002 11.376 5.688 5.688 0 01.002-11.376zm.004 2.888a.255.255 0 00-.202.1l-.03.05-.59 1.445-1.564.114a.255.255 0 00-.188.405l.042.045 1.193 1.008-.373 1.517a.257.257 0 00.327.303l.055-.025 1.323-.823 1.323.823a.257.257 0 00.39-.217l-.007-.061-.373-1.517 1.193-1.008a.255.255 0 00-.073-.44l-.059-.013-1.564-.114-.589-1.443a.254.254 0 00-.234-.15z" fill="#000" fill-rule="evenodd"/></svg>