<svg width="24" height="24" xmlns="http://www.w3.org/2000/svg"><path d="M17.75 11.5a6.25 6.25 0 110 12.5 6.25 6.25 0 010-12.5zM6.8 6l1.741 1.5H4.5c-.778 0-1.42.596-1.493 1.356L3 9v10c0 .778.596 1.42 1.356 1.493l.144.007h6.011c.162.424.356.83.584 1.215l.178.285H4.5a3 3 0 01-2.995-2.824L1.5 19V9a3 3 0 012.824-2.995L4.5 6h2.3zm8.42 9.22a.749.749 0 000 1.06l1.47 1.47-1.47 1.47a.749.749 0 101.061 1.06l1.469-1.47 1.47 1.47a.746.746 0 001.061 0 .749.749 0 000-1.06l-1.47-1.47 1.47-1.47a.749.749 0 10-1.061-1.06l-1.47 1.469-1.469-1.47a.75.75 0 00-1.061 0zM19.5 6a3 3 0 012.995 2.824L22.5 9v2.636a7.61 7.61 0 00-1.182-.758L21 10.722V9c0-.778-.596-1.42-1.356-1.493L19.5 7.5h-4.042L17.2 6h2.3zm-7.5.5a1 1 0 011 1 .931.931 0 01-.015.15L12 8.5l-.985-.85A.931.931 0 0111 7.5a1 1 0 011-1zm0-3c1.404 0 2.64.729 3.352 1.827l.114.186-1.168 1.007A2.5 2.5 0 0012 5c-.97 0-1.812.555-2.226 1.365l-.072.155-1.168-1.007A3.997 3.997 0 0112 3.5zm0-3a6.99 6.99 0 015.606 2.818l.156.217-1.145.986A5.498 5.498 0 0012 2c-1.85 0-3.488.921-4.485 2.326l-.132.195-1.145-.986A6.993 6.993 0 0112 .5z" fill="#000" fill-rule="evenodd"/></svg>