<svg width="24" height="24" xmlns="http://www.w3.org/2000/svg"><path d="M17.742 11.5a6.25 6.25 0 110 12.5 6.25 6.25 0 010-12.5zm0 1.5a4.756 4.756 0 00-4.75 4.75 4.756 4.756 0 004.75 4.75c2.62 0 4.75-2.131 4.75-4.75 0-2.62-2.13-4.75-4.75-4.75zM6.8 6l5.2 4.48L17.2 6h2.3a3 3 0 012.994 2.824L22.5 9v2.646A7.694 7.694 0 0017.742 10c-4.273 0-7.75 3.477-7.75 7.75 0 1.457.407 2.819 1.11 3.984l.168.266H4.5a3 3 0 01-2.995-2.824L1.5 19V9a3 3 0 012.823-2.995L4.5 6h2.302zm8.413 9.22a.75.75 0 01.976-.073l.084.073 1.47 1.469 1.47-1.47a.75.75 0 011.133.977l-.073.084-1.47 1.47 1.47 1.47a.749.749 0 01-.967 1.14l-.094-.08-1.47-1.468-1.469 1.468a.746.746 0 01-1.06 0 .749.749 0 01-.073-.976l.072-.084 1.47-1.47-1.47-1.47a.749.749 0 010-1.06zM12 6.5a1 1 0 110 2 1 1 0 010-2zm0-3c1.482 0 2.777.812 3.466 2.013L14.3 6.52a2.502 2.502 0 00-2.3-1.52c-1.03 0-1.915.627-2.298 1.52L8.534 5.513A4.002 4.002 0 0111.998 3.5zm0-3a6.99 6.99 0 015.607 2.818l.155.217-1.146.986A5.496 5.496 0 0012 2c-1.85 0-3.486.921-4.484 2.326l-.132.195-1.144-.986A6.993 6.993 0 0111.998.5z" fill="#000" fill-rule="evenodd"/></svg>