<svg width="24" height="24" xmlns="http://www.w3.org/2000/svg"><path d="M10.783 10.627h-.037l-1.232-2.29h-.767v4.134h.835v-2.333h.037l1.01 1.819h.265l1.015-1.819h.037v2.333h.829V8.338h-.768l-1.224 2.289zm-3.02 1.843V8.337h-.768l-1.224 2.29h-.037l-1.231-2.29h-.768v4.133h.835v-2.333h.037l1.009 1.82h.266l1.014-1.82h.038v2.333h.829zm7.16-.686c-.303 0-.531-.136-.605-.482h-.83c.075.816.582 1.261 1.436 1.261.78 0 1.392-.463 1.392-1.293 0-.593-.384-1.045-.996-1.206l-.476-.13c-.23-.062-.421-.167-.421-.458 0-.291.216-.452.5-.452.322 0 .495.155.552.465h.816c-.08-.762-.532-1.244-1.367-1.244-.767 0-1.355.495-1.355 1.287 0 .52.26.996.922 1.175l.476.136c.322.087.495.217.495.477 0 .266-.18.464-.538.464zM23.5 16.75l-5.5-3.6V16h-3.75a.75.75 0 100 1.5H18v2.85l5.5-3.6zM9.998 16l-3.713 3.713c-.12.12-.285.017-.285-.117V16H3.357A1.359 1.359 0 012 14.643V4.5h16v6.857l1.5.982V3H.5v11.643A2.857 2.857 0 003.357 17.5H4.5v2.096c0 1.004.822 1.67 1.678 1.67.41 0 .827-.152 1.167-.492l3.274-3.274H12V16H9.998z" fill-rule="evenodd"/></svg>