<svg width="24" height="24" xmlns="http://www.w3.org/2000/svg"><path d="M19.503 3v9.697l-.842-.551a1.195 1.195 0 00-1.228-.052 1.2 1.2 0 00-.622.925l-.007.131v1.65h-2.55a1.953 1.953 0 00-1.852 2.559l.053.141h-1.833l-3.274 3.274a1.63 1.63 0 01-1.167.491c-.81 0-1.591-.597-1.671-1.514l-.007-.155V17.5H3.36a2.857 2.857 0 01-2.852-2.69l-.005-.167V3h19zm-1.499 10.15l5.5 3.6-5.5 3.6V17.5h-3.75a.75.75 0 01-.102-1.493l.102-.007h3.75v-2.85zm-3.076-4.905c-.767 0-1.355.495-1.355 1.287 0 .48.222.923.776 1.129l.146.046.477.136c.322.087.495.217.495.477-.001.266-.18.464-.54.464-.269 0-.48-.107-.575-.375l-.03-.107h-.83c.074.816.582 1.261 1.435 1.261.78 0 1.393-.463 1.393-1.293 0-.548-.327-.975-.86-1.164l-.137-.042-.476-.13c-.229-.062-.42-.167-.42-.458 0-.291.216-.452.5-.452.287 0 .455.123.528.367l.024.098h.817c-.081-.762-.532-1.244-1.368-1.244zm-5.41.093h-.767v4.133h.835v-2.333h.037l1.01 1.819h.265l1.015-1.819h.037v2.333h.829V8.338h-.768l-1.224 2.289h-.038l-1.23-2.29zm-5.012-.001h-.768v4.133h.836v-2.333h.037l1.009 1.82h.266l1.014-1.82h.037v2.333h.83V8.337h-.768l-1.224 2.29h-.038l-1.23-2.29z" fill-rule="evenodd"/></svg>