<svg height="24" width="24" xmlns="http://www.w3.org/2000/svg"><path d="m22.5 3v15.5c0 1.65-1.35 3-3 3h-15c-1.65 0-3-1.35-3-3v-15.5zm-1.5 1.5h-18v14c0 .85.65 1.5 1.5 1.5h15c.85 0 1.5-.65 1.5-1.5zm-3.25 11.5c.4 0 .75.35.75.75s-.35.75-.75.75h-4c-.4 0-.75-.35-.75-.75s.35-.75.75-.75zm-6.75-5v6.5h-5.5v-6.5zm6.75 2.5c.4 0 .75.35.75.75s-.35.75-.75.75h-4c-.4 0-.75-.35-.75-.75s.35-.75.75-.75zm0-2.5c.4 0 .75.35.75.75s-.35.75-.75.75h-4c-.4 0-.75-.35-.75-.75s.35-.75.75-.75zm.75-4v2h-13v-2z" fill="#262626" fill-rule="evenodd"/></svg>