<svg width="24" height="24" xmlns="http://www.w3.org/2000/svg"><path d="M22.5 3v15.5a3.01 3.01 0 01-2.824 2.995l-.176.005h-15a3.01 3.01 0 01-2.995-2.824L1.5 18.5V3h21zM21 4.5H3v14c0 .8.576 1.423 1.352 1.493L4.5 20h15c.8 0 1.423-.576 1.493-1.352L21 18.5v-14zM17.75 16c.4 0 .75.35.75.75a.772.772 0 01-.651.743l-.099.007h-4c-.4 0-.75-.35-.75-.75 0-.367.294-.691.651-.743L13.75 16h4zM11 11v6.5H5.5V11H11zm6.75 2.5c.4 0 .75.35.75.75a.772.772 0 01-.651.743L17.75 15h-4c-.4 0-.75-.35-.75-.75 0-.367.294-.691.651-.743l.099-.007h4zm0-2.5c.4 0 .75.35.75.75a.772.772 0 01-.651.743l-.099.007h-4c-.4 0-.75-.35-.75-.75 0-.367.294-.691.651-.743L13.75 11h4zm.75-4v2h-13V7h13z" fill="#000" fill-rule="evenodd"/></svg>