<svg width="24" height="24" xmlns="http://www.w3.org/2000/svg"><path d="M6.342 12l.87 1.5H4.116l-1.521 5.069c-.138.459-.053.943.233 1.326.255.342.63.554 1.046.597l.158.008h15.936c.479 0 .918-.22 1.203-.605.254-.341.35-.761.27-1.172l-.037-.154-1.52-5.069h-3.096l.87-1.5H21l1.841 6.138a3 3 0 01-2.697 3.857l-.176.005H4.032a3 3 0 01-2.92-3.692l.046-.17L3 12h3.342zm1.647-9.44a5.936 5.936 0 018.022 0l.186.178.179.187a5.936 5.936 0 01.883 6.76l-.125.227-4.031 6.952c-.468.808-1.6.846-2.131.116l-.075-.116-4.032-6.952a5.935 5.935 0 01.759-6.987l.179-.187.186-.178zM12 4.6a2.186 2.186 0 10.001 4.373A2.186 2.186 0 0012 4.6z" fill="#000" fill-rule="evenodd"/></svg>