<svg width="24" height="24" xmlns="http://www.w3.org/2000/svg"><path d="M6.345 12L9.6 17.615a2.77 2.77 0 004.696.167l.104-.167L17.66 12H21l1.84 6.14a3 3 0 01-2.668 3.853L19.97 22H4.03a3 3 0 01-2.921-3.665l.051-.195L3 12h3.345zM12 1c1.481 0 2.906.554 3.995 1.548l.2.192.18.187a5.925 5.925 0 01.885 6.756l-.125.227-4.03 6.955c-.287.496-.87.74-1.425.595l-.138-.045-.132-.06-.075-.045-.09-.064-.155-.131a1.395 1.395 0 01-.136-.162l-.059-.088-4.03-6.955a5.925 5.925 0 01.76-6.983l.18-.187.2-.192A5.925 5.925 0 0112 1zm0 3.6a2.185 2.185 0 100 4.37 2.185 2.185 0 000-4.37z" fill="#000" fill-rule="evenodd"/></svg>