<svg xmlns="http://www.w3.org/2000/svg" width="24" height="24">
    <path fill="#262626" fill-rule="evenodd" d="M14.75 16.5c1.25 0 2.25 1 2.25 2.25 0 .75-.4 1.45-1 1.85v2.9l-1.25-.5-1.25.5v-2.9c-.6-.4-1-1.05-1-1.85 0-1.25 1-2.25 2.25-2.25zM21 .5v19c0 1.65-1.35 3-3 3h-.5V21h.5c.85 0 1.5-.65 1.5-1.5V2h-15v17.5c0 .85.65 1.5 1.5 1.5h6v1.5H6c-1.65 0-3-1.35-3-3V.5h18zM16 12c.4 0 .75.35.75.75s-.35.75-.75.75H8c-.4 0-.75-.35-.75-.75S7.6 12 8 12zm0-3c.4 0 .75.35.75.75s-.35.75-.75.75H8c-.4 0-.75-.35-.75-.75S7.6 9 8 9zm0-3c.4 0 .75.35.75.75s-.35.75-.75.75H8c-.4 0-.75-.35-.75-.75S7.6 6 8 6z"/>
</svg>
