<svg width="24" height="24" xmlns="http://www.w3.org/2000/svg"><path d="M7.264 14.698a.75.75 0 10-1.061 1.061l2.4 2.402 4.28-4.279a.75.75 0 00-1.06-1.06l-3.22 3.216-1.34-1.34zm1.173-8.704a.959.959 0 101.917 0 .959.959 0 00-1.917 0zm6.166 13.896c0 .757-.618 1.374-1.375 1.374H5.562a1.376 1.376 0 01-1.375-1.375V6.933L9.393 3.07l5.208 3.863V19.89zM2.687 6.177V19.89a2.875 2.875 0 002.875 2.875h7.666a2.875 2.875 0 002.875-2.875V6.18l-6.71-4.976-6.707 4.975zm20.627 9.495l-4.7-12.301-6.078-1.704 3.377 2.505 1.57.44 4.428 11.596a.863.863 0 01-.497 1.113l-3.813 1.455v1.113c0 .171-.013.34-.032.505l4.38-1.672a2.36 2.36 0 001.363-3.049z" fill-rule="evenodd"/></svg>