<svg width="24" height="24" xmlns="http://www.w3.org/2000/svg"><path d="M12.883 12.822a.749.749 0 00-1.06 0l-3.218 3.217-1.341-1.34a.749.749 0 10-1.06 1.06l2.4 2.401 4.279-4.279a.749.749 0 000-1.06zM8.436 5.995a.96.96 0 101.92-.002.96.96 0 00-1.92.002zm7.667.183V19.89a2.875 2.875 0 01-2.875 2.874H5.562a2.875 2.875 0 01-2.875-2.875V6.18l6.708-4.976 6.708 4.975zm5.848 12.544l-4.38 1.671c.02-.166.031-.333.031-.504V5.423l-.606-.45-4.458-3.306 6.078 1.704 4.698 12.302a2.362 2.362 0 01-1.364 3.048z" fill-rule="evenodd"/></svg>