<svg width="24" height="24" xmlns="http://www.w3.org/2000/svg"><path d="M12 18a2 2 0 110 4 2 2 0 010-4zm-1.08-4.4a7.14 7.14 0 00.722 1.925 4.496 4.496 0 00-3.502 2.163l-.11.195-1.437-1.49a6.494 6.494 0 014.327-2.792zm7.017-7.224a5.686 5.686 0 110 11.374 5.687 5.687 0 010-11.374zm.007 1.499a4.193 4.193 0 00-4.188 4.187 4.193 4.193 0 004.188 4.188 4.192 4.192 0 004.187-4.188 4.192 4.192 0 00-4.187-4.187zm-6.508 1.14a7.125 7.125 0 00-.61 2.064 8.985 8.985 0 00-5.801 3.25l-.19.24-1.408-1.458a10.98 10.98 0 018.01-4.095zm7.84.745l-1.339 1.337L16.6 9.76a.683.683 0 00-.966.965l1.338 1.338-1.338 1.337a.683.683 0 00.966.965l1.337-1.337 1.338 1.337a.679.679 0 00.965 0 .683.683 0 000-.965l-1.338-1.337 1.338-1.338a.683.683 0 00-.965-.965zM12 4.5c1.468 0 2.89.206 4.235.587a7.16 7.16 0 00-2.92 1.48A13.466 13.466 0 001.91 11.036l-.23.265L.287 9.855A15.46 15.46 0 0112 4.5z" fill-rule="evenodd"/></svg>