<svg width="24" height="24" xmlns="http://www.w3.org/2000/svg"><path d="M17.229 0c1.334 0 2.46.958 2.688 2.256l.024.172 1.027 9.24a3.005 3.005 0 01-.746 2.333 3.005 3.005 0 01-2.04.993l-.195.006h-.203l.713 6.269a2.005 2.005 0 11-3.992.376l-.005-.15V2.73A2.732 2.732 0 0117.229 0zM5 1v6.25C5 8.49 6.01 9.5 7.25 9.5a2.253 2.253 0 002.245-2.096L9.5 7.25V1H11v6.25a3.75 3.75 0 01-2.062 3.346l-.178.084.61 10.573a2.124 2.124 0 11-4.244.152l.003-.152.61-10.573a3.755 3.755 0 01-2.233-3.223L3.5 7.25V1H5zm12.229.5c-.635 0-1.16.485-1.223 1.104L16 2.729V13.5h1.986a1.48 1.48 0 001.118-.5 1.48 1.48 0 00.382-1.005l-.01-.16-1.026-9.242A1.227 1.227 0 0017.229 1.5zM8 1v6.25a.75.75 0 01-1.493.102L6.5 7.25V1H8z" fill-rule="evenodd"/></svg>