<svg width="24" height="24" xmlns="http://www.w3.org/2000/svg"><path d="M5.002 1v6.25c0 1.24 1.009 2.25 2.25 2.25a2.253 2.253 0 002.244-2.096l.005-.154V1h1.5v6.25a3.75 3.75 0 01-2.062 3.346l-.177.084.61 10.573a2.124 2.124 0 11-4.244.152l.003-.152.61-10.573a3.755 3.755 0 01-2.234-3.223l-.006-.207V1h1.5zM17.23 0c1.334 0 2.46.958 2.688 2.256l.024.172 1.026 9.24a3.005 3.005 0 01-.745 2.333 3.005 3.005 0 01-2.04.993l-.196.006h-.203l.713 6.269a2.005 2.005 0 11-3.991.376l-.005-.15V2.73A2.732 2.732 0 0117.23 0zM8 1v6.25a.75.75 0 01-1.493.102l-.006-.102V1h1.5z" fill-rule="evenodd"/></svg>