<svg width="24" height="24" xmlns="http://www.w3.org/2000/svg"><path d="M14.748 18.404a.173.173 0 01.288.103l-.001.051-.587 3.749a1.502 1.502 0 01-1.716 1.252c-1.199-.188-1.676-1.632-.876-2.498l.094-.093 2.798-2.564zM9.85 14.217l1.298.75-.884 1.533H12V18h-1.666l.816 1.413-1.3.75L9 18.69l-.85 1.473-1.3-.75L7.668 18H6v-1.5h1.736l-.885-1.533 1.298-.75L9 15.69l.85-1.473zm7.743-2.508a.15.15 0 01.248.084v.05l-.651 4.166a1.626 1.626 0 01-1.859 1.357c-1.3-.204-1.817-1.772-.946-2.71l.099-.097 3.109-2.85zM13.511.566a7.596 7.596 0 017.15 5.019 5.805 5.805 0 013.089 5.127c0 2.982-2.252 5.443-5.134 5.754l.03-.11.026-.114.21-1.335a4.285 4.285 0 003.368-4.195A4.3 4.3 0 0019.937 6.9l-.196-.096-.303-.138-.101-.317c-.816-2.562-3.157-4.284-5.825-4.284-1.42 0-2.79.501-3.887 1.415l-.216.188-.329.302-.421-.146a3.178 3.178 0 00-1.037-.176A3.206 3.206 0 004.918 5.14c-.465.728-.52 1.42-.506 1.912l.03.498-.466.209a3.791 3.791 0 00-2.226 3.456A3.784 3.784 0 004.312 14.8l.188.058V16.4a5.282 5.282 0 01-4.25-5.185 5.299 5.299 0 012.667-4.598c.14-2.49 2.197-4.472 4.705-4.472.369 0 .736.045 1.1.134a7.558 7.558 0 014.79-1.715z" fill-rule="evenodd"/></svg>