<svg width="24" height="24" xmlns="http://www.w3.org/2000/svg"><path d="M14.747 18.404a.174.174 0 01.289.103v.052l-.588 3.748a1.502 1.502 0 01-1.716 1.252c-1.199-.188-1.675-1.632-.876-2.498l.094-.093 2.797-2.564zM9.85 14.218l1.3.75-.886 1.532H12V18h-1.667l.816 1.413-1.299.75L9 18.69l-.85 1.473-1.3-.75L7.666 18H6v-1.5h1.735l-.885-1.532 1.3-.75L9 15.69l.85-1.472zm7.744-2.508a.15.15 0 01.249.083v.05l-.653 4.166a1.626 1.626 0 01-1.858 1.356c-1.3-.203-1.817-1.771-.946-2.708l.098-.098 3.11-2.85zM13.51.547a7.596 7.596 0 017.15 5.02 5.805 5.805 0 013.088 5.127c0 3.05-2.357 5.55-5.332 5.767l.031-.124.027-.127.652-4.167a1.45 1.45 0 00-2.29-1.391l-.12.098-3.11 2.85a2.9 2.9 0 00-.574.726l-.104.202L9.5 12.54a1 1 0 00-.88-.06l-.12.058-3.297 1.893a1.001 1.001 0 00-.495.75l-.007.117v1.116a5.275 5.275 0 01-4.45-5.216A5.299 5.299 0 012.915 6.6c.14-2.49 2.197-4.471 4.705-4.471.369 0 .737.045 1.1.133A7.558 7.558 0 0113.51.547z" fill-rule="evenodd"/></svg>