<svg width="24" height="24" xmlns="http://www.w3.org/2000/svg"><path d="M8.905 17.5L12 20.595l3.095-3.095h2.265a4.73 4.73 0 014.645 3.757l.04.213.175 1.03H1.78l.175-1.03a4.73 4.73 0 014.468-3.966l.217-.004h2.265zM11.5 2a4.96 4.96 0 014.07 2c1.72.252 2.388 1.705 2.428 4.705L18 9l-.003.22C17.895 12.537 15.512 16 12 16s-5.895-3.464-5.997-6.78L6 8.95l.001-.193c.003-.194.009-.388.019-.583l.026-.39C6.284 4.861 7.529 2 11.5 2zm3.115 4.195l-.117.169-.112.147-.15.182-.184.21C13.34 7.68 11.969 8.836 10 9c.109-.492.14-.998.095-1.5a7.37 7.37 0 01-2.281 1.28l-.314.1V9c0 2.655 1.81 5.5 4.5 5.5 2.62 0 4.404-2.697 4.496-5.29L16.5 9v-.205a8.275 8.275 0 01-1.885-2.6z" fill-rule="evenodd"/></svg>