<svg width="24" height="24" xmlns="http://www.w3.org/2000/svg"><g fill="#000" fill-rule="evenodd"><path d="M17.483 13.115h-.776v3.728h.776c.829 0 1.365-.553 1.365-1.864s-.536-1.864-1.365-1.864M14 5.5v-5h-4V8h4z"/><path d="M17.572 17.959h-2.069v-5.958h2.07c1.552 0 2.524 1.043 2.524 2.979 0 1.935-.973 2.979-2.525 2.979zm-4.443 0h1.204v-5.958H13.13v5.958zm-9.126.011l.133-.719a1.666 1.666 0 011.64-1.364h.815l1.163 1.163 1.162-1.163h.816c.804 0 1.492.573 1.638 1.364l.133.719h-7.5zm3.751-7.5c1.151 0 2.083.827 2.083 2.093 0 1.265-.877 2.491-2.083 2.491-1.207 0-2.084-1.226-2.084-2.491 0-1.266.933-2.093 2.084-2.093zM15.5 5.5v4h-7v-4h-8v14a3 3 0 003 3h17a3 3 0 003-3v-14h-8z"/></g></svg>