<svg width="24" height="24" xmlns="http://www.w3.org/2000/svg"><path d="M16.707 16.844v-3.73h.776c.829 0 1.365.553 1.365 1.864 0 1.312-.536 1.865-1.365 1.865h-.776zm3.39-1.864c0-1.935-.972-2.98-2.525-2.98h-2.069v5.959h2.069c1.552 0 2.525-1.044 2.525-2.98zm-6.967 2.979h1.204V12H13.13v5.958zm-5.376-2.905c1.206 0 2.083-1.226 2.083-2.491 0-1.266-.932-2.093-2.083-2.093-1.151 0-2.083.827-2.083 2.093 0 1.264.877 2.49 2.083 2.49zm1.978.833h-.815L7.754 17.05l-1.162-1.163h-.817c-.804 0-1.492.574-1.638 1.364l-.134.718h7.5l-.133-.718a1.665 1.665 0 00-1.638-1.364zM22.001 19.5c0 .827-.674 1.5-1.5 1.5h-17c-.828 0-1.5-.673-1.5-1.5V7h8v2.5h4V7h8v12.5zm-8-14v-5h-4v5h-9.5v14a3 3 0 003 3h17a3 3 0 003-3v-14h-9.5z" fill="#000" fill-rule="evenodd"/></svg>