<svg width="24" height="24" xmlns="http://www.w3.org/2000/svg"><path d="M16.707 16.843v-3.729h.776c.829 0 1.365.553 1.365 1.864 0 1.312-.536 1.865-1.365 1.865h-.776zm3.39-1.864c0-1.934-.972-2.978-2.525-2.978h-2.069v5.958h2.069c1.552 0 2.525-1.044 2.525-2.98zm-6.967 2.98h1.204V12H13.13v5.958zm-5.376-2.905c1.206 0 2.083-1.226 2.083-2.492 0-1.265-.932-2.092-2.083-2.092-1.151 0-2.083.826-2.083 2.092s.877 2.492 2.083 2.492zm1.978.832h-.815L7.754 17.05l-1.162-1.162h-.817c-.804 0-1.492.573-1.638 1.363l-.134.72h7.5l-.133-.72a1.665 1.665 0 00-1.638-1.364zM22.001 19.5c0 .826-.674 1.5-1.5 1.5h-17c-.828 0-1.5-.674-1.5-1.5V7h8v2.5h4V7h8v12.5zm-8-14v-5h-4v5h-9.5v14a3 3 0 003 3h17a3 3 0 003-3v-14h-9.5z" fill="#000" fill-rule="evenodd"/></svg>