<svg width="24" height="24" xmlns="http://www.w3.org/2000/svg"><path d="M8.725 4.955l1.107 1.01a3.043 3.043 0 014.336 0l1.107-1.009a4.537 4.537 0 00-6.55 0zM12 2.056c1.725 0 3.279.728 4.383 1.889l1.107-1.009A7.528 7.528 0 0012 .556a7.528 7.528 0 00-5.49 2.38l1.107 1.009A6.033 6.033 0 0112 2.056zM6 7v10.5a6 6 0 0012 0V7H6zm10.5 10.5c0 2.482-2.018 4.5-4.5 4.5a4.505 4.505 0 01-4.5-4.5v-9h9v9zm-4.5-1a3 3 0 100-6 3 3 0 000 6zm0-4.5c.827 0 1.5.673 1.5 1.5S12.827 15 12 15s-1.5-.673-1.5-1.5.673-1.5 1.5-1.5z" fill-rule="evenodd"/></svg>