<svg width="24" height="24" xmlns="http://www.w3.org/2000/svg"><path d="M18.003 7v10.5a6 6 0 01-11.995.225l-.005-.225V7h12zm-6 3.5a3 3 0 100 6 3 3 0 000-6zm0 1.5c.828 0 1.5.673 1.5 1.5s-.672 1.5-1.5 1.5c-.826 0-1.5-.673-1.5-1.5s.674-1.5 1.5-1.5zm0-8.442c1.2 0 2.291.469 3.105 1.23l.17.168-1.106 1.009a3.043 3.043 0 00-4.194-.136l-.143.136-1.107-1.01a4.534 4.534 0 013.276-1.397zm0-3.002a7.52 7.52 0 015.29 2.175l.2.205-1.106 1.009a6.026 6.026 0 00-8.578-.19l-.189.19-1.106-1.009a7.528 7.528 0 015.49-2.38z" fill="#000" fill-rule="evenodd"/></svg>