<svg width="24" height="24" xmlns="http://www.w3.org/2000/svg"><path d="M15.917 11.71l-4.178 4.886a.967.967 0 01-1.476 0l-4.251-4.97a2.802 2.802 0 01-.187-3.399A2.77 2.77 0 018.138 7c.331 0 .663.058.978.172 1.143.42 1.459 1.23 1.885 2.074.406-.805.708-1.59 1.778-2.032A2.848 2.848 0 0113.864 7a2.77 2.77 0 011.98.828A2.237 2.237 0 0117 7.5h.483c-.024-.038-.041-.08-.066-.117A4.294 4.294 0 0013.864 5.5c-.573 0-1.131.11-1.658.328a4.161 4.161 0 00-1.204.748 4.116 4.116 0 00-1.371-.812A4.332 4.332 0 008.138 5.5a4.294 4.294 0 00-3.554 1.883 4.312 4.312 0 00.288 5.216l4.25 4.973a2.47 2.47 0 003.756 0l4.25-4.973c.163-.19.305-.39.429-.599H17c-.395 0-.761-.112-1.084-.29M23 9h-2.25V6.75a.75.75 0 10-1.5 0V9H17a.75.75 0 100 1.5h2.25v2.25a.75.75 0 001.5 0V10.5H23A.75.75 0 0023 9M1 4h1.5v1.5a.75.75 0 001.5 0V4h1.5a.75.75 0 000-1.5H4V1a.75.75 0 10-1.5 0v1.5H1A.75.75 0 101 4m6.5 14.5H5V16a.75.75 0 10-1.5 0v2.5H1A.75.75 0 001 20h2.5v2.5a.75.75 0 101.5 0V20h2.5a.75.75 0 100-1.5" fill="#000" fill-rule="evenodd"/></svg>