<svg width="24" height="24" xmlns="http://www.w3.org/2000/svg"><path d="M16.92 11.992c-.058.08-.108.164-.173.24l-4.251 4.972c-.375.439-.921.69-1.501.69a1.965 1.965 0 01-1.497-.69l-4.252-4.972a3.81 3.81 0 01-.254-4.61 3.797 3.797 0 013.14-1.664c1.487 0 2.419.843 2.52.939l.345.325.343-.325c.102-.096 1.035-.94 2.52-.94 1.21 0 2.338.58 3.054 1.552a2.248 2.248 0 00-2.163 2.24c0 1.214.966 2.199 2.169 2.243M23 10.5h-2.25v2.25a.75.75 0 11-1.5 0V10.5H17A.75.75 0 1117 9h2.25V6.75a.75.75 0 011.5 0V9H23a.75.75 0 010 1.5M1 4h1.5v1.5a.75.75 0 101.5 0V4h1.5a.75.75 0 100-1.5H4V1a.75.75 0 00-1.5 0v1.5H1A.75.75 0 001 4m6.5 14.5H5V16a.75.75 0 00-1.5 0v2.5H1A.75.75 0 001 20h2.5v2.5a.75.75 0 101.5 0V20h2.5a.75.75 0 100-1.5" fill="#000" fill-rule="evenodd"/></svg>