<svg height="24" width="24" xmlns="http://www.w3.org/2000/svg"><path d="m19 15.5c1.4 0 2.5 1.1 2.5 2.5s-1.1 2.5-2.5 2.5-2.5-1.1-2.5-2.5 1.1-2.5 2.5-2.5zm-12.5 0c1.4 0 2.5 1.1 2.5 2.5s-1.1 2.5-2.5 2.5-2.5-1.1-2.5-2.5 1.1-2.5 2.5-2.5zm12.5 1.5c-.55 0-1 .45-1 1s.45 1 1 1 1-.45 1-1-.45-1-1-1zm-12.5 0c-.55 0-1 .45-1 1s.45 1 1 1 1-.45 1-1-.45-1-1-1zm9.35-.5c-.2.45-.35.95-.35 1.5h-5.5c0-.55-.1-1.05-.35-1.5zm1.15-13v3h4.75c.3 0 .6.2.7.5l1.25 3.75c.2.55.3 1.15.3 1.75v5.5h-1.5v-5.5c0-.4-.05-.85-.2-1.25l-1.1-3.25h-4.2v6c0 .4-.35.75-.75.75s-.75-.35-.75-.75v-9h-14v10c0 .85.65 1.5 1.5 1.5h.35c-.2.45-.35.95-.35 1.5-1.65 0-3-1.35-3-3v-11.5zm3.5 5.5.85 2.55c.1.3.15.65.15.95v.5h-3.5v-4z" fill="#262626" fill-rule="evenodd"/></svg>