<svg width="24" height="24" xmlns="http://www.w3.org/2000/svg"><path d="M6.5 15.5a2.5 2.5 0 110 5 2.5 2.5 0 010-5zm12.5 0a2.5 2.5 0 110 5 2.5 2.5 0 010-5zM6.5 17a1 1 0 100 2 1 1 0 000-2zM19 17a1 1 0 100 2 1 1 0 000-2zM16.25 4.25V7.5h.25l.25-.25h5L23 11c.13.387.21.788.238 1.195l.012.305v4.75h-.84a3.5 3.5 0 00-6.776-.189l-.049.189h-5.67a3.5 3.5 0 00-6.782-.19l-.048.19H3a2.245 2.245 0 01-2.242-2.052L.75 15V4.25h15.5zM20.5 9H18v4h3.5v-.5a2.88 2.88 0 00-.09-.765l-.055-.185L20.5 9z" fill="#000" fill-rule="evenodd"/></svg>