<svg width="24" height="24" xmlns="http://www.w3.org/2000/svg"><path d="M6.5 15.5C7.9 15.5 9 16.6 9 18s-1.1 2.5-2.5 2.5S4 19.4 4 18s1.1-2.5 2.5-2.5zm12.5 0c1.4 0 2.5 1.1 2.5 2.5s-1.1 2.5-2.5 2.5-2.5-1.1-2.5-2.5 1.1-2.5 2.5-2.5zm0 1.5c-.55 0-1 .45-1 1s.45 1 1 1 1-.45 1-1-.45-1-1-1zM6.5 17c-.55 0-1 .45-1 1s.45 1 1 1 1-.45 1-1-.45-1-1-1zM17 3.5v3h4.75c.267 0 .533.158.66.404l.04.096 1.25 3.75c.167.458.264.951.292 1.45l.008.3V18h-1.5c0-1.96-1.54-3.5-3.5-3.5a3.463 3.463 0 00-3.495 3.305L15.5 18H10c0-1.96-1.54-3.5-3.5-3.5a3.463 3.463 0 00-3.495 3.305L3 18a3.01 3.01 0 01-2.995-2.824L0 15V3.5h17zM20.5 9H18v4h3.5v-.5l-.01-.233a3.216 3.216 0 00-.089-.544l-.051-.173L20.5 9z" fill="#000" fill-rule="evenodd"/></svg>