<svg width="24" height="24" xmlns="http://www.w3.org/2000/svg"><path d="M11.75 4.75A2.126 2.126 0 1011.75.498a2.126 2.126 0 00.002 4.252m7.44-1.426a.925.925 0 00-1.301.138c-.68.838-1.576 1.854-1.828 2.028-1.951 1.341-7.306.664-8.816-.75-.238-.263-1.007-1.756-1.576-2.985a.926.926 0 00-1.679.779c.517 1.116 1.46 3.06 1.977 3.543.609.571 1.55 1.045 2.65 1.39-.086 1.056-.274 3.4-.377 5.04-.111 1.778-.19 4.755-.218 5.953-.012.5.192.983.558 1.324l3.652 3.392a.95.95 0 001.368-1.313l-3.024-3.541.287-3.477 3.36 1.339-.657 4.149a.95.95 0 001.86.379l1.337-5.346a.951.951 0 00-.495-1.079l-3.523-1.774.51-4.441c1.492-.063 2.885-.392 3.854-1.057.597-.411 1.849-1.933 2.218-2.389a.926.926 0 00-.137-1.302" fill="#000" fill-rule="evenodd"/></svg>