<svg width="24" height="24" xmlns="http://www.w3.org/2000/svg"><path d="M15.251 17.5a.75.75 0 100 1.5.75.75 0 000-1.5zm-2.5-2.5a.75.75 0 100 1.5.75.75 0 000-1.5zm2.5 0a.75.75 0 100 1.5.75.75 0 000-1.5zm-2.5 2.5a.75.75 0 100 1.5.75.75 0 000-1.5zm5-2.5a.75.75 0 100 1.5.75.75 0 000-1.5zm-5.75-1.5h6.5V10h-6.5v3.5zm5.75 4a.75.75 0 100 1.5.75.75 0 000-1.5zm4.25 2.007c0 .85-.65 1.5-1.5 1.5h-12v-13h12c.85 0 1.5.65 1.5 1.5v10zm-15 1.5h-3.5c-.85 0-1.5-.65-1.5-1.5v-10c0-.85.65-1.5 1.5-1.5h3.5v13zm3.007-14.501h9.512V3.021h-9.512v3.485zm10.677.011h.335V1.521H8.508v4.986H3.501c-1.65 0-3 1.35-3 3v10c0 1.65 1.35 3 3 3h17c1.65 0 3-1.35 3-3v-10a3.005 3.005 0 00-2.816-2.99z" fill="#000" fill-rule="evenodd"/></svg>