<svg width="24" height="24" xmlns="http://www.w3.org/2000/svg"><path d="M.501 9.507v10c0 1.65 1.35 3 3 3h3.5v-16h-3.5c-1.65 0-3 1.35-3 3zm9.507-3h9.512V3.022h-9.512v3.485zm1.993 6.993h6.5V10h-6.5v3.5zm5.75 3a.75.75 0 110-1.5.75.75 0 010 1.5zm0 2.5a.75.75 0 110-1.5.75.75 0 010 1.5zm-2.5-2.5a.75.75 0 110-1.5.75.75 0 010 1.5zm0 2.5a.75.75 0 110-1.5.75.75 0 010 1.5zm-2.5-2.5a.75.75 0 110-1.5.75.75 0 010 1.5zm0 2.5a.75.75 0 110-1.5.75.75 0 010 1.5zm8.184-12.457h.085V1.522H8.508v4.985h-.007v16h12c1.65 0 3-1.35 3-3v-10a3.008 3.008 0 00-2.566-2.964z" fill="#000" fill-rule="evenodd"/></svg>