<svg width="24" height="24" xmlns="http://www.w3.org/2000/svg"><path d="M16.7 3l1.5 2.5H20a3.01 3.01 0 012.995 2.824L23 8.5V17a3.01 3.01 0 01-2.824 2.995L20 20H4a3.01 3.01 0 01-2.995-2.824L1 17V8.5a3.01 3.01 0 012.824-2.995L4 5.5h1.85L7.35 3h9.35zm-.9 1.5H8.15L6.65 7H4c-.8 0-1.423.576-1.493 1.352L2.5 8.5V17c0 .8.576 1.423 1.352 1.493L4 18.5h16c.8 0 1.423-.576 1.493-1.352L21.5 17V8.5c0-.8-.576-1.423-1.352-1.493L20 7h-2.7l-1.5-2.5zM12 7c2.75 0 5 2.25 5 5s-2.25 5-5 5-5-2.25-5-5 2.25-5 5-5zm0 1.5c-1.95 0-3.5 1.55-3.5 3.5s1.55 3.5 3.5 3.5 3.5-1.55 3.5-3.5-1.55-3.5-3.5-3.5zm7 0a1 1 0 110 2 1 1 0 010-2z" fill="#000" fill-rule="evenodd"/></svg>