<svg height="24" width="24" xmlns="http://www.w3.org/2000/svg"><path d="m16.7 3 1.5 2.5h1.8c1.65 0 3 1.35 3 3v8.5c0 1.65-1.35 3-3 3h-16c-1.65 0-3-1.35-3-3v-8.5c0-1.65 1.35-3 3-3h1.85l1.5-2.5zm-.9 1.5h-7.65l-1.5 2.5h-2.65c-.85 0-1.5.65-1.5 1.5v8.5c0 .85.65 1.5 1.5 1.5h16c.85 0 1.5-.65 1.5-1.5v-8.5c0-.85-.65-1.5-1.5-1.5h-2.7zm-3.8 2.5c2.75 0 5 2.25 5 5s-2.25 5-5 5-5-2.25-5-5 2.25-5 5-5zm0 1.5c-1.95 0-3.5 1.55-3.5 3.5s1.55 3.5 3.5 3.5 3.5-1.55 3.5-3.5-1.55-3.5-3.5-3.5zm7 0a1 1 0 1 1 0 2 1 1 0 0 1 0-2z" fill="#262626" fill-rule="evenodd"/></svg>