<svg width="24" height="24" xmlns="http://www.w3.org/2000/svg"><path d="M12.006 18a2 2 0 11-.001 4.001A2 2 0 0112.006 18zm-1.08-4.4c.15.684.394 1.33.722 1.926a4.494 4.494 0 00-3.501 2.162l-.11.195-1.438-1.49a6.494 6.494 0 014.327-2.792zm.517-4.584a7.157 7.157 0 00-.612 2.063 8.985 8.985 0 00-5.801 3.25l-.19.242-1.407-1.46a10.98 10.98 0 018.01-4.095zm.563-4.516c1.47 0 2.89.205 4.235.587a7.158 7.158 0 00-2.92 1.48 13.47 13.47 0 00-11.405 4.468l-.23.264L.293 9.854A15.464 15.464 0 0112.006 4.5zm6.45 8.944v1.153h-1.154v-1.153h1.154zm-.496-4.116c.92 0 1.645.61 1.645 1.514 0 .552-.265.88-.546 1.147l-.31.282c-.16.152-.29.304-.33.495l-.011.134h-1.06v-.16c0-.477.235-.757.493-.985l.299-.25c.203-.175.366-.351.366-.613 0-.351-.22-.546-.546-.546-.334 0-.545.21-.578.626h-1.1c.025-.887.62-1.644 1.678-1.644zm-.016-2.953a5.688 5.688 0 10.218.004l-.218-.004z" fill="#000" fill-rule="evenodd"/></svg>