<svg width="24" height="24" xmlns="http://www.w3.org/2000/svg"><path d="M6.55 3.453c-.037.11-.047.247-.05.37V4.92h-2v15.647c0 .783.576 1.392 1.352 1.46l.148.007h12c.8 0 1.423-.563 1.493-1.322l.007-.145V4.92h-2v-.977c0-.11 0-.248-.021-.372l-.029-.117H21v17.113c0 1.556-1.255 2.84-2.824 2.929L18 23.5H6c-1.591 0-2.903-1.228-2.995-2.762L3 20.566V3.453h3.55zM16 16.166c.4 0 .75.342.75.733 0 .359-.294.676-.651.726l-.099.007H8c-.4 0-.75-.342-.75-.733 0-.359.294-.676.651-.726L8 16.166h8zm0-3.423c.4 0 .75.342.75.733 0 .359-.294.676-.651.727L16 14.21H8c-.4 0-.75-.343-.75-.734 0-.358.294-.676.651-.726L8 12.743h8zm0-3.423c.4 0 .75.342.75.734 0 .358-.294.676-.651.726l-.099.007H8c-.4 0-.75-.342-.75-.733 0-.359.294-.677.651-.727L8 9.32h8zm-5.5-7.334c0-.88.85-1.614 1.8-1.467a1.53 1.53 0 011.193 1.37l.007.146v.44h1c.8 0 1.423.563 1.493 1.322l.007.145v1.955H8V3.942c0-.783.576-1.392 1.352-1.46l.148-.007h1v-.49z" fill="#000" fill-rule="evenodd"/></svg>