<svg height="24" width="24" xmlns="http://www.w3.org/2000/svg"><path d="m6.661 3.429c-.049.147-.049.342-.049.49v.979h-1.959v15.673c0 .833.637 1.47 1.47 1.47h11.755c.832 0 1.469-.637 1.469-1.47v-15.673h-1.96v-.98c0-.147 0-.342-.048-.49h3.477v17.143a2.947 2.947 0 0 1 -2.938 2.94h-11.756a2.947 2.947 0 0 1 -2.938-2.94v-17.141zm9.257 12.734c.392 0 .735.343.735.735a.753.753 0 0 1 -.735.735h-7.836a.753.753 0 0 1 -.735-.735c0-.392.343-.735.735-.735zm0-3.428c.392 0 .735.343.735.734a.753.753 0 0 1 -.735.735h-7.836a.753.753 0 0 1 -.735-.735c0-.391.343-.734.735-.734zm0-3.429c.392 0 .735.343.735.735a.753.753 0 0 1 -.735.735h-7.836a.753.753 0 0 1 -.735-.735c0-.392.343-.735.735-.735zm-5.387-7.346c0-.881.832-1.616 1.763-1.47.686.148 1.175.784 1.175 1.52v.44h.98c.833 0 1.47.637 1.47 1.47v1.959h-7.838v-1.96c0-.832.636-1.469 1.469-1.469h.98z" fill="#262626" fill-rule="evenodd"/></svg>