<svg width="24" height="24" xmlns="http://www.w3.org/2000/svg"><path d="M6.661 3.429c-.037.11-.046.248-.048.372v1.097h-1.96v15.673a1.44 1.44 0 001.325 1.463l.144.007h11.756a1.44 1.44 0 001.462-1.325l.007-.145V4.898h-1.96v-.98c0-.11 0-.248-.02-.372l-.028-.117h3.477V20.57a2.948 2.948 0 01-2.766 2.934l-.172.005H6.122a2.948 2.948 0 01-2.933-2.767l-.005-.172V3.43H6.66zm9.257 12.734c.392 0 .735.343.735.735 0 .36-.288.677-.638.728l-.097.007H8.082a.753.753 0 01-.735-.735c0-.36.288-.677.638-.728l.097-.007h7.836zm0-3.428c.392 0 .735.343.735.734 0 .36-.288.678-.638.728l-.097.007H8.082a.753.753 0 01-.735-.735c0-.359.288-.677.638-.727l.097-.007h7.836zm0-3.429c.392 0 .735.343.735.735 0 .359-.288.677-.638.728l-.097.007H8.082a.753.753 0 01-.735-.735c0-.36.288-.677.638-.728l.097-.007h7.836zM10.531 1.96c0-.881.832-1.616 1.763-1.47.64.138 1.11.702 1.169 1.374l.006.145v.441h.98a1.44 1.44 0 011.463 1.325l.006.144v1.96H8.082v-1.96a1.44 1.44 0 011.324-1.463l.145-.006h.98v-.49z" fill="#000" fill-rule="evenodd"/></svg>