<svg width="24" height="24" xmlns="http://www.w3.org/2000/svg"><path d="M6.545 3.5c-.018.11-.031.221-.038.333L6.5 4v3.5h11V4a3.384 3.384 0 00-.022-.334l-.023-.166H21v17a3 3 0 01-2.824 2.995L18 23.5H6a3 3 0 01-2.995-2.824L3 20.5v-17h3.545zM16 16.5H8a.75.75 0 00-.102 1.493L8 18h8a.75.75 0 00.102-1.493L16 16.5zm0-3.5H8a.75.75 0 00-.102 1.493L8 14.5h8a.75.75 0 00.102-1.493L16 13zm0-3.5H8a.75.75 0 00-.102 1.493L8 11h8a.75.75 0 00.102-1.493L16 9.5zm-4-9a1.5 1.5 0 011.493 1.356L13.5 2v.5h1a1.5 1.5 0 011.493 1.356L16 4v2H8V4a1.5 1.5 0 011.356-1.493L9.5 2.5h1V2A1.5 1.5 0 0112 .5z" fill="#000" fill-rule="evenodd"/></svg>