<svg width="24" height="24" xmlns="http://www.w3.org/2000/svg"><path d="M6.545 3a3.32 3.32 0 00-.038.333L6.5 3.5V7h11V3.5a3.32 3.32 0 00-.022-.334L17.455 3H21v17.5a3 3 0 01-2.824 2.995L18 23.5H6a3 3 0 01-2.995-2.824L3 20.5V3h3.545zM16 16H8a.75.75 0 00-.102 1.493L8 17.5h8a.75.75 0 00.102-1.493L16 16zm0-3.5H8a.75.75 0 00-.102 1.493L8 14h8a.75.75 0 00.102-1.493L16 12.5zM16 9H8a.75.75 0 00-.102 1.493L8 10.5h8a.75.75 0 00.102-1.493L16 9zm-4-9a1.5 1.5 0 011.493 1.356l.007.144V2h1a1.5 1.5 0 011.493 1.356L16 3.5v2H8v-2a1.5 1.5 0 011.356-1.493L9.5 2h1v-.5A1.5 1.5 0 0112 0z" fill="#000" fill-rule="evenodd"/></svg>