<svg height="24" width="24" xmlns="http://www.w3.org/2000/svg"><path d="m5.5 4.31 2.805 5.045-1.28 1.28a1.5 1.5 0 0 0 -.105 2 29.66 29.66 0 0 0 2.115 2.365l.458.442c.616.583 1.258 1.14 1.922 1.668a1.5 1.5 0 0 0 2-.11l1.305-1.275 5 2.805c-.59 5.135-4.67 4.315-6 3.86-2.415-.825-4.965-2.695-7.17-4.905l-.329-.334c-2.065-2.13-3.792-4.542-4.576-6.841-.455-1.345-1.275-5.425 3.855-6zm16.905-2.715-1.435 6.875-2.19-2.19-5.655 5.655a.74.74 0 0 1 -.53.22.725.725 0 0 1 -.53-.22.745.745 0 0 1 0-1.06l5.655-5.655-2.19-2.19z" fill="#262626" fill-rule="evenodd"/></svg>