<svg width="24" height="24" xmlns="http://www.w3.org/2000/svg"><path d="M5.9 3.5l3.4 5.95-1.7 1.7c-.25.25-.3.7-.05 1l.423.512.34.4.387.438.43.466a23.96 23.96 0 00.954.955l.466.43.438.385.584.494.328.27a.76.76 0 00.92.019l.08-.069 1.6-1.65 5.95 3.35-.043.442-.042.338c-.172 1.231-.63 2.95-2.165 3.92-.8.5-1.7.65-2.5.65a6.477 6.477 0 01-1.458-.183l-.326-.082-.466-.135C11.15 22.3 8.5 20.5 6 18c-2.45-2.5-4.25-5.15-5.1-7.5l-.077-.262-.06-.228L.7 9.744C.487 8.75.337 7.137 1.2 5.75c.962-1.462 2.574-1.947 3.768-2.138l.344-.05.16-.02L5.9 3.5zm16.55-1.9L21 8.5l-2.2-2.2-5.65 5.65c-.15.15-.35.2-.55.2-.2 0-.4-.05-.55-.2a.722.722 0 01-.074-.965l.074-.085 5.7-5.65-2.2-2.2 6.9-1.45z" fill="#000" fill-rule="evenodd"/></svg>