<svg width="24" height="24" xmlns="http://www.w3.org/2000/svg"><path d="M19.506 3v6.697l-.841-.551a1.195 1.195 0 00-1.227-.052 1.2 1.2 0 00-.623.925l-.007.131v1.65h-2.55c-1.075 0-1.95.875-1.95 1.95 0 1.026.797 1.87 1.805 1.945l.145.005h2.55v1.65l.008.076.012.074h-6.203l-3.274 3.274a1.63 1.63 0 01-1.167.491c-.81 0-1.591-.597-1.671-1.514l-.007-.155V17.5H3.363a2.857 2.857 0 01-2.852-2.69l-.005-.167V3h19zm-1.498 7.15l5.5 3.6-5.5 3.6V14.5h-3.75a.75.75 0 01-.102-1.493l.102-.007h3.75v-2.85z" fill-rule="evenodd"/></svg>