<svg width="24" height="24" xmlns="http://www.w3.org/2000/svg"><path d="M8.905 17.5L12 20.595l3.095-3.095h2.266a4.734 4.734 0 014.644 3.749l.042.22.172 1.031H1.781l.172-1.031a4.734 4.734 0 014.461-3.964l.224-.005h2.267zm2.6-15.5c1.766 0 2.942.78 3.675 1.551 1.044.054 1.785.507 2.242 1.399.471.922.53 1.613.54 2.352l.005.685c.008.476.038.998.168 1.627.21 1.016.683 2.31 1.748 4.136-.166.107-.474.225-.88.341l-.371.098-.202.049-.431.093c-.3.06-.62.117-.953.167l-.51.07c-.345.044-.698.08-1.053.106-.95.816-2.131 1.326-3.479 1.326-1.348 0-2.53-.511-3.48-1.329-.265-.02-.53-.044-.792-.074l-.517-.065a20.5 20.5 0 01-.978-.16l-.449-.09-.413-.095-.191-.049-.348-.099c-.324-.099-.57-.198-.71-.289 1.083-1.858 1.542-3.155 1.743-4.186a9.143 9.143 0 00.157-1.52l.02-.802c.022-.614.084-1.225.358-1.971C7.092 3.395 8.692 2 11.504 2zm2.745 4.416c-2.343 2.11-4.585 2.966-6.74 2.71.055 2.619 1.845 5.374 4.495 5.374 2.598 0 4.368-2.65 4.487-5.224-.733-.648-1.705-1.66-2.242-2.86z" fill-rule="evenodd"/></svg>