<svg width="24" height="24" xmlns="http://www.w3.org/2000/svg"><path d="M8.905 17.5L12 20.595l3.095-3.095h2.265a4.73 4.73 0 014.645 3.757l.04.213.175 1.03H1.78l.175-1.03a4.73 4.73 0 014.468-3.966l.217-.004h2.265zM11.5 2a4.92 4.92 0 013.695 1.55 2.47 2.47 0 012.24 1.4c.394.77.493 1.417.527 2.087l.014.405.015.633c.03.874.133 1.885.704 3.285a18.8 18.8 0 001.205 2.39c-.143.091-.39.19-.714.29l-.348.1c-.186.049-.388.097-.604.144l-.448.09c-.154.03-.313.058-.477.085l-.5.075-.256.035-.523.06c-.176.017-.353.033-.53.046A5.29 5.29 0 0112 16a5.26 5.26 0 01-3.475-1.33l-.254-.02-.506-.05c-.084-.009-.167-.018-.25-.029l-.49-.065-.24-.037-.462-.079-.437-.085-.406-.09-.368-.093-.325-.095c-.302-.095-.532-.19-.662-.277a18.8 18.8 0 001.2-2.39c.53-1.3.645-2.267.686-3.126l.03-.906c.026-.663.083-1.308.359-2.058C7.09 3.395 8.685 2 11.5 2zm2.75 4.415c-2.345 2.11-4.585 2.965-6.75 2.71.06 2.62 1.895 5.375 4.5 5.375s4.375-2.65 4.5-5.225a8.94 8.94 0 01-2.25-2.86z" fill="#000" fill-rule="evenodd"/></svg>