<svg width="24" height="24" xmlns="http://www.w3.org/2000/svg"><path d="M14.69 9.311a.75.75 0 00-1.061 0l-1.628 1.628-1.629-1.628a.75.75 0 10-1.061 1.061L10.94 12l-1.629 1.628a.75.75 0 101.061 1.061l1.629-1.629 1.628 1.629a.751.751 0 001.062-1.061L13.061 12l1.629-1.628a.75.75 0 000-1.061zM12.001 18.5a1.25 1.25 0 10-.002 2.498 1.25 1.25 0 00.002-2.498zm5.5 2c0 .827-.674 1.5-1.5 1.5h-8c-.827 0-1.5-.673-1.5-1.5v-17c0-.827.673-1.5 1.5-1.5h2v1.5h4V2h2c.826 0 1.5.673 1.5 1.5v17zm-1.5-20h-8a3 3 0 00-3 3v17a3 3 0 003 3h8a3 3 0 003-3v-17a3 3 0 00-3-3z" fill-rule="evenodd"/></svg>