<svg width="24" height="24" xmlns="http://www.w3.org/2000/svg"><path d="M8.35 17.807l1.3.75L8.816 20H10.5v1.5H8.781l.868 1.503-1.298.75L7.5 22.28l-.85 1.473-1.3-.75.869-1.503H4.5V20h1.684l-.833-1.443 1.298-.75.851 1.474.85-1.474zm6.5-4.5l1.3.75-.833 1.443H17V17h-1.719l.868 1.503-1.299.75L14 17.78l-.85 1.473-1.3-.75.87-1.503H11v-1.5h1.684l-.833-1.443 1.298-.75L14 14.78l.85-1.473zM13.512.565a7.596 7.596 0 017.149 5.019 5.803 5.803 0 013.089 5.127c0 2.945-2.196 5.379-5.026 5.739l-.224.024v-1.507c2.108-.251 3.75-2.063 3.75-4.256a4.3 4.3 0 00-2.314-3.813l-.195-.095-.303-.138-.101-.317c-.816-2.563-3.157-4.284-5.825-4.284-1.42 0-2.79.5-3.888 1.415l-.216.188-.328.301-.422-.146a3.178 3.178 0 00-1.036-.176 3.21 3.21 0 00-2.806 1.665 3.382 3.382 0 00-.405 1.84l.031.4-.466.209a3.791 3.791 0 00-2.226 3.456c0 2.02 1.579 3.677 3.557 3.78L5.5 15h4v1.5h-4c-2.895 0-5.25-2.37-5.25-5.284a5.299 5.299 0 012.667-4.598c.14-2.49 2.197-4.472 4.705-4.472.369 0 .736.045 1.1.134a7.558 7.558 0 014.79-1.715z" fill-rule="evenodd"/></svg>