<svg width="24" height="24" xmlns="http://www.w3.org/2000/svg"><path d="M8.35 17.807l1.299.75L8.816 20h1.683v1.5H8.781l.868 1.503-1.3.75-.85-1.473-.85 1.473-1.3-.75.869-1.503H4.499V20h1.684l-.833-1.443 1.299-.75.85 1.473.85-1.473zm6.5-4.5l1.298.75-.833 1.443H17V17h-1.72l.868 1.503-1.299.75L14 17.78l-.85 1.473-1.3-.75.868-1.503H11v-1.5h1.683l-.832-1.443 1.298-.75L14 14.78l.85-1.473zM13.51.547a7.596 7.596 0 017.15 5.02 5.805 5.805 0 013.088 5.127c0 3.015-2.302 5.49-5.229 5.757l-.22.016v-2.089a1 1 0 00-.402-.802l-.099-.065-3.302-1.903a1.001 1.001 0 00-.877-.06l-.119.058-3.298 1.889a.999.999 0 00-.496.75l-.007.117v2.11l-4.479-.004C2.455 16.32.25 14.017.25 11.198A5.299 5.299 0 012.916 6.6c.14-2.49 2.196-4.47 4.704-4.47.37 0 .737.045 1.1.133A7.558 7.558 0 0113.51.547z" fill-rule="evenodd"/></svg>