<svg width="24" height="24" xmlns="http://www.w3.org/2000/svg"><path d="M19 12.1l1.5 1.5V19a3.01 3.01 0 01-2.824 2.995L17.5 22h-11a3.01 3.01 0 01-2.995-2.824L3.5 19v-5.4L5 12.1V19c0 .8.576 1.423 1.352 1.493l.148.007h11c.8 0 1.423-.576 1.493-1.352L19 19v-6.9zm-7 3.65a.9.9 0 110 1.8.9.9 0 010-1.8zm-.05-2.65c1.228 0 2.322.624 2.945 1.578l.105.172-1 .9c-.3-.75-1.1-1.3-2.1-1.35-.84 0-1.55.48-1.925 1.193l-.075.157-1-.9c.6-1.05 1.75-1.75 3.05-1.75zm.05-2.6c2.012 0 3.795.964 4.909 2.453l.141.197-1 .85c-.85-1.3-2.35-2.2-4.05-2.2-1.619 0-3.057.771-3.924 2.01L7.95 14l-1-.85c1.1-1.6 2.95-2.65 5.05-2.65zm0-9.65l11.55 11.6-1.05 1.05L12 3 1.5 13.5.45 12.45 12 .85z" fill="#000" fill-rule="evenodd"/></svg>