<svg height="24" width="24" xmlns="http://www.w3.org/2000/svg"><path d="m19 12.1 1.5 1.5v5.4c0 1.65-1.35 3-3 3h-11c-1.65 0-3-1.35-3-3v-5.4l1.5-1.5v6.9c0 .85.65 1.5 1.5 1.5h11c.85 0 1.5-.65 1.5-1.5zm-7 3.65a.9.9 0 1 1 0 1.8.9.9 0 0 1 0-1.8zm-.05-2.65c1.3 0 2.45.7 3.05 1.75l-1 .9c-.3-.75-1.1-1.3-2.1-1.35-.9 0-1.65.55-2 1.35l-1-.9c.6-1.05 1.75-1.75 3.05-1.75zm.05-2.6c2.1 0 3.95 1.05 5.05 2.65l-1 .85c-.85-1.3-2.35-2.2-4.05-2.2s-3.2.85-4.05 2.2l-1-.85c1.1-1.6 2.95-2.65 5.05-2.65zm0-9.65 11.55 11.6-1.05 1.05-10.5-10.5-10.5 10.5-1.05-1.05z" fill="#262626" fill-rule="evenodd"/></svg>