<svg width="24" height="24" xmlns="http://www.w3.org/2000/svg"><path d="M18 6A1.5 1.5 0 1121 5.999 1.5 1.5 0 0118 6m1.42 7.973l.085-.007.05-.086 3.405-5.874a4.001 4.001 0 00-6.289-4.835 4.001 4.001 0 00-.632 4.835l2.632 4.54c-1.4.176-4.086.686-5.024 2.058a1.949 1.949 0 00-.258 1.718c.385 1.273 1.888 1.548 3.342 1.815 1.733.317 2.448.551 2.396 1.176-.118 1.401-5.689 1.639-9.544 1.679l-.873 1.505c6.69-.03 11.687-.382 11.912-3.059.174-2.083-2.019-2.484-3.62-2.777-.868-.159-2.057-.377-2.178-.774a.456.456 0 01.061-.436c.547-.801 2.94-1.338 4.534-1.478M7 7a2.5 2.5 0 10.001 5 2.5 2.5 0 000-5m4.325 5.008L7 19.467l-4.326-7.459a5.007 5.007 0 01.79-6.044A4.97 4.97 0 017 4.5c1.335 0 2.591.52 3.535 1.464a5.007 5.007 0 01.791 6.044m.27-7.104A6.48 6.48 0 007 3a6.498 6.498 0 00-5.623 9.76L7 22.458l5.623-9.698a6.5 6.5 0 00-1.027-7.856" fill="#000" fill-rule="evenodd"/></svg>