<svg width="24" height="24" xmlns="http://www.w3.org/2000/svg"><path d="M18 6a1.5 1.5 0 113 0 1.5 1.5 0 01-3 0m1.418 7.973l.087-.007.05-.087 3.405-5.873a4 4 0 10-6.92 0l2.632 4.54c-1.4.176-4.087.686-5.025 2.058a1.95 1.95 0 00-.258 1.718c.386 1.273 1.888 1.548 3.343 1.815 1.732.317 2.448.551 2.395 1.176-.117 1.402-5.689 1.639-9.544 1.679l-.872 1.505c6.69-.031 11.686-.382 11.911-3.059.175-2.083-2.019-2.484-3.62-2.778-.868-.158-2.057-.376-2.178-.773a.456.456 0 01.061-.436c.547-.801 2.94-1.338 4.533-1.478M7 12a2.5 2.5 0 11.002-5.002A2.5 2.5 0 017 12m4.596-7.096A6.475 6.475 0 007 3a6.475 6.475 0 00-4.596 1.904 6.498 6.498 0 00-1.027 7.856L7 22.458l5.623-9.698a6.498 6.498 0 00-1.027-7.856" fill="#000" fill-rule="evenodd"/></svg>