<svg height="24" width="24" xmlns="http://www.w3.org/2000/svg"><path d="m21.45 5.1c-1.6-.65-3.3-.3-4.5.9l-10.95 10.95c-.9.9-2.1.9-2.85.55-.8-.3-1.65-1.1-1.65-2.4v-6.2c0-1.3.85-2.1 1.65-2.45.9-.4 2.05-.25 2.85.55l3.9 3.9 1.05-1.05-3.9-3.85c-1.2-1.2-2.95-1.55-4.5-.9s-2.55 2.1-2.55 3.8v6.15c0 1.7 1 3.15 2.55 3.8s3.3.3 4.5-.9l10.95-10.9c.9-.9 2.1-.9 2.85-.55.8.35 1.65 1.15 1.65 2.45v6.15c0 1.3-.85 2.1-1.65 2.45s-1.95.35-2.85-.55l-3.9-3.9-1.05 1.05 3.9 3.9c1.2 1.2 2.95 1.55 4.5.9s2.55-2.1 2.55-3.8v-6.25c0-1.7-1-3.15-2.55-3.8z" fill="#262626" fill-rule="evenodd"/></svg>