<svg xmlns="http://www.w3.org/2000/svg" width="24" height="24">
    <path fill="#262626" fill-rule="evenodd" d="M21.005 5.102a4.195 4.195 0 00-4.651.922l-.927.926-8.64 8.64-.921.922a2.227 2.227 0 01-3.807-1.574V9.043a2.203 2.203 0 011.378-2.059c.277-.114.574-.173.873-.173.586 0 1.148.237 1.556.658l3.724 3.725 1.44-1.44-3.724-3.725a4.205 4.205 0 00-4.656-.922A4.196 4.196 0 000 9.043v5.914a4.21 4.21 0 002.635 3.945 4.214 4.214 0 004.656-.926l.922-.926 8.64-8.64.921-.922A2.227 2.227 0 0121.6 9.043v5.914a2.227 2.227 0 01-3.806 1.574l-3.725-3.725-1.44 1.44 3.73 3.73a4.214 4.214 0 002.99 1.262 4.32 4.32 0 001.66-.336 4.21 4.21 0 002.636-3.945V9.043a4.195 4.195 0 00-2.64-3.94z"/>
</svg>
