<svg xmlns="http://www.w3.org/2000/svg" width="24" height="24">
    <path fill="#262626" fill-rule="evenodd" d="M11.285 15.695a.885.885 0 011.43 0l.975 1.345c-.28.39-.61.655-.965.81l.545 1.81 2.875-4.16h1.215c2.33 0 4.3 1.67 4.685 3.97l.17 1.03H1.78l.175-1.03A4.738 4.738 0 016.64 15.5h1.215l2.875 4.16.545-1.81c-.355-.155-.685-.425-.965-.81zM12 1c3.475 0 6 2.525 6 6 0 3.38-2.41 7-6 7s-6-3.62-6-7c0-3.475 2.525-6 6-6zm0 1.5C9.395 2.5 7.5 4.395 7.5 7c0 2.655 1.81 5.5 4.5 5.5s4.5-2.845 4.5-5.5c0-2.605-1.895-4.5-4.5-4.5z"/>
</svg>
