<?xml version="1.0" encoding="UTF-8"?>
<svg width="108px" height="24px" viewBox="0 0 108 24" version="1.1" xmlns="http://www.w3.org/2000/svg" xmlns:xlink="http://www.w3.org/1999/xlink">
    <title>AA-Tag</title>
    <g id="AA-Tag" stroke="none" stroke-width="1" fill="none" fill-rule="evenodd">
        <g id="Chips/Large/Not-interactive/Black/Available-Copy-3">
            <rect id="Rectangle-" fill="#54B200" x="0" y="0" width="108" height="24" rx="4"></rect>
            <path d="M10.232,17 L11,14.712 L15.096,14.712 L15.864,17 L17.592,17 L13.896,6.312 L12.2,6.312 L8.504,17 L10.232,17 Z M14.552,13.128 L11.544,13.128 L13,8.808 L13.096,8.808 L14.552,13.128 Z M21.704,17.224 C23.48,17.224 24.6,16.12 24.824,14.488 L23.16,14.504 C23,15.288 22.504,15.72 21.704,15.72 C20.584,15.72 20.008,14.808 20.008,13.176 C20.008,11.544 20.584,10.632 21.704,10.632 C22.504,10.632 23,11.08 23.16,11.88 L24.824,11.88 C24.6,10.264 23.48,9.144 21.704,9.144 C19.608,9.144 18.36,10.712 18.36,13.176 C18.36,15.656 19.608,17.224 21.704,17.224 Z M29.24,17.224 C31.016,17.224 32.136,16.12 32.36,14.488 L30.696,14.504 C30.536,15.288 30.04,15.72 29.24,15.72 C28.12,15.72 27.544,14.808 27.544,13.176 C27.544,11.544 28.12,10.632 29.24,10.632 C30.04,10.632 30.536,11.08 30.696,11.88 L32.36,11.88 C32.136,10.264 31.016,9.144 29.24,9.144 C27.144,9.144 25.896,10.712 25.896,13.176 C25.896,15.656 27.144,17.224 29.24,17.224 Z M36.744,17.224 C38.344,17.224 39.528,16.36 39.896,14.92 L38.216,14.92 C37.976,15.512 37.48,15.832 36.744,15.832 C35.752,15.832 35.08,15.208 35,13.56 L39.96,13.56 C39.976,13.416 39.976,13.208 39.976,13 C39.976,10.632 38.712,9.144 36.76,9.144 C34.696,9.144 33.432,10.648 33.432,13.176 C33.432,15.752 34.744,17.224 36.744,17.224 Z M38.424,12.312 L35.032,12.312 C35.224,11.064 35.832,10.552 36.76,10.552 C37.656,10.552 38.296,11.064 38.424,12.312 Z M43.928,17.224 C45.576,17.224 46.68,16.28 46.68,14.856 C46.68,13.64 45.944,12.92 44.712,12.6 L43.72,12.36 C43.144,12.2 42.84,11.928 42.84,11.432 C42.84,10.888 43.272,10.472 43.944,10.472 C44.568,10.472 44.984,10.824 45.08,11.496 L46.648,11.496 C46.488,10.056 45.464,9.16 43.944,9.16 C42.296,9.16 41.256,10.184 41.256,11.448 C41.256,12.744 41.96,13.384 43.048,13.672 L44.04,13.944 C44.6,14.104 45.08,14.312 45.08,14.952 C45.08,15.528 44.616,15.896 43.928,15.896 C43.208,15.896 42.776,15.56 42.648,14.936 L41.112,14.92 C41.272,16.36 42.264,17.224 43.928,17.224 Z M50.6,17.224 C52.248,17.224 53.352,16.28 53.352,14.856 C53.352,13.64 52.616,12.92 51.384,12.6 L50.392,12.36 C49.816,12.2 49.512,11.928 49.512,11.432 C49.512,10.888 49.944,10.472 50.616,10.472 C51.24,10.472 51.656,10.824 51.752,11.496 L53.32,11.496 C53.16,10.056 52.136,9.16 50.616,9.16 C48.968,9.16 47.928,10.184 47.928,11.448 C47.928,12.744 48.632,13.384 49.72,13.672 L50.712,13.944 C51.272,14.104 51.752,14.312 51.752,14.952 C51.752,15.528 51.288,15.896 50.6,15.896 C49.88,15.896 49.448,15.56 49.32,14.936 L47.784,14.92 C47.944,16.36 48.936,17.224 50.6,17.224 Z M56.552,8.04 L56.552,6.312 L54.936,6.312 L54.936,8.04 L56.552,8.04 Z M56.552,17 L56.552,9.368 L54.936,9.368 L54.936,17 L56.552,17 Z M62.424,17.224 C64.312,17.224 65.4,15.672 65.4,13.176 C65.4,10.696 64.312,9.144 62.424,9.144 C61.464,9.144 60.744,9.608 60.328,10.296 L60.216,10.296 L60.216,6.312 L58.584,6.312 L58.584,17 L60.12,17 L60.12,15.896 L60.216,15.896 C60.632,16.696 61.384,17.224 62.424,17.224 Z M61.976,15.72 C60.792,15.72 60.2,14.792 60.2,13.176 C60.2,11.576 60.792,10.632 61.976,10.632 C63.176,10.632 63.736,11.56 63.736,13.176 C63.736,14.808 63.176,15.72 61.976,15.72 Z M68.76,17.112 C69.128,17.112 69.464,17.032 69.704,16.936 L69.704,15.624 C69.528,15.672 69.32,15.704 69.128,15.704 C68.808,15.704 68.616,15.496 68.616,15.112 L68.616,6.312 L66.984,6.312 L66.984,15.336 C66.984,16.488 67.624,17.112 68.76,17.112 Z M73.96,17.224 C75.56,17.224 76.744,16.36 77.112,14.92 L75.432,14.92 C75.192,15.512 74.696,15.832 73.96,15.832 C72.968,15.832 72.296,15.208 72.216,13.56 L77.176,13.56 C77.192,13.416 77.192,13.208 77.192,13 C77.192,10.632 75.928,9.144 73.976,9.144 C71.912,9.144 70.648,10.648 70.648,13.176 C70.648,15.752 71.96,17.224 73.96,17.224 Z M75.64,12.312 L72.248,12.312 C72.44,11.064 73.048,10.552 73.976,10.552 C74.872,10.552 75.512,11.064 75.64,12.312 Z M82.728,17 L83.496,14.712 L87.592,14.712 L88.36,17 L90.088,17 L86.392,6.312 L84.696,6.312 L81,17 L82.728,17 Z M87.048,13.128 L84.04,13.128 L85.496,8.808 L85.592,8.808 L87.048,13.128 Z M92.136,17 L92.904,14.712 L97,14.712 L97.768,17 L99.496,17 L95.8,6.312 L94.104,6.312 L90.408,17 L92.136,17 Z M96.456,13.128 L93.448,13.128 L94.904,8.808 L95,8.808 L96.456,13.128 Z" id="AccessibleAA" fill="#FFFFFF" fill-rule="nonzero"></path>
        </g>
    </g>
</svg>