<?xml version="1.0" encoding="UTF-8"?>
<svg width="126px" height="24px" viewBox="0 0 126 24" version="1.1" xmlns="http://www.w3.org/2000/svg" xmlns:xlink="http://www.w3.org/1999/xlink">
    <title>Beta-Component</title>
    <g id="Beta-Component" stroke="none" stroke-width="1" fill="none" fill-rule="evenodd">
        <g id="Chips/Large/Not-interactive/Black/Available-Copy-3">
            <rect id="Rectangle-" fill="#AE461C" x="0" y="0" width="126" height="24" rx="4"></rect>
            <path d="M13.432,17 C15.704,17 16.664,15.72 16.664,14.056 C16.664,12.968 16.168,12.056 15.176,11.64 L15.176,11.576 C16.104,11.112 16.552,10.184 16.552,9.128 C16.552,7.544 15.592,6.312 13.512,6.312 L9.624,6.312 L9.624,17 L13.432,17 Z M13.272,10.856 L11.32,10.856 L11.32,7.816 L13.272,7.816 C14.216,7.816 14.776,8.392 14.776,9.336 C14.776,10.28 14.216,10.856 13.272,10.856 Z M13.208,15.48 L11.32,15.48 L11.32,12.328 L13.208,12.328 C14.296,12.328 14.904,12.904 14.904,13.896 C14.904,14.92 14.296,15.48 13.208,15.48 Z M21.304,17.224 C22.904,17.224 24.088,16.36 24.456,14.92 L22.776,14.92 C22.536,15.512 22.04,15.832 21.304,15.832 C20.312,15.832 19.64,15.208 19.56,13.56 L24.52,13.56 C24.536,13.416 24.536,13.208 24.536,13 C24.536,10.632 23.272,9.144 21.32,9.144 C19.256,9.144 17.992,10.648 17.992,13.176 C17.992,15.752 19.304,17.224 21.304,17.224 Z M22.984,12.312 L19.592,12.312 C19.784,11.064 20.392,10.552 21.32,10.552 C22.216,10.552 22.856,11.064 22.984,12.312 Z M28.888,17.112 C29.416,17.112 29.864,17.032 30.264,16.84 L30.264,15.56 C29.992,15.624 29.64,15.688 29.336,15.688 C28.744,15.688 28.392,15.368 28.392,14.696 L28.392,10.76 L30.44,10.76 L30.44,9.368 L28.392,9.368 L28.392,6.712 L28.072,6.712 L26.76,7.992 L26.76,9.368 L25.384,9.368 L25.384,10.76 L26.76,10.76 L26.76,14.872 C26.76,16.328 27.608,17.112 28.888,17.112 Z M33.656,17.144 C34.568,17.144 35.384,16.76 35.832,16.04 L35.896,16.04 C36.008,16.808 36.648,17.096 37.272,17.096 C37.56,17.096 37.912,17.032 38.136,16.92 L38.136,15.688 C38.008,15.736 37.912,15.752 37.768,15.752 C37.512,15.752 37.352,15.592 37.352,15.272 L37.352,12.056 C37.352,10.312 36.376,9.144 34.44,9.144 C32.856,9.144 31.752,9.992 31.592,11.496 L33.16,11.496 C33.272,10.872 33.688,10.488 34.424,10.488 C35.4,10.488 35.768,11.08 35.768,11.96 L35.768,12.28 L35.288,12.28 C32.92,12.28 31.368,13.144 31.368,14.92 C31.368,16.296 32.2,17.144 33.656,17.144 Z M34.04,15.896 C33.4,15.896 32.936,15.48 32.936,14.808 C32.936,13.88 33.752,13.464 35.288,13.464 L35.768,13.464 L35.768,13.88 C35.768,15 35.096,15.896 34.04,15.896 Z M46.6,17.224 C48.68,17.224 50.248,15.88 50.568,13.688 L48.776,13.688 C48.504,14.968 47.64,15.576 46.6,15.576 C44.92,15.576 43.976,14.184 43.976,11.656 C43.976,9.128 44.92,7.72 46.6,7.72 C47.64,7.72 48.504,8.344 48.776,9.624 L50.568,9.624 C50.248,7.432 48.68,6.088 46.6,6.088 C43.8,6.088 42.2,8.216 42.2,11.656 C42.2,15.08 43.8,17.224 46.6,17.224 Z M55.064,17.224 C57.192,17.224 58.488,15.64 58.488,13.176 C58.488,10.712 57.192,9.144 55.064,9.144 C52.936,9.144 51.64,10.712 51.64,13.176 C51.64,15.64 52.936,17.224 55.064,17.224 Z M55.064,15.72 C53.88,15.72 53.304,14.808 53.304,13.176 C53.304,11.56 53.88,10.632 55.064,10.632 C56.248,10.632 56.824,11.56 56.824,13.176 C56.824,14.808 56.248,15.72 55.064,15.72 Z M61.72,17 L61.72,12.632 C61.72,11.416 62.312,10.632 63.304,10.632 C64.232,10.632 64.552,11.24 64.552,12.12 L64.552,17 L66.184,17 L66.184,12.632 C66.184,11.336 66.76,10.632 67.768,10.632 C68.68,10.632 69.016,11.24 69.016,12.12 L69.016,17 L70.648,17 L70.648,11.944 C70.648,10.168 69.912,9.144 68.28,9.144 C67.288,9.144 66.44,9.576 66.024,10.44 L65.928,10.44 C65.608,9.624 64.92,9.144 63.832,9.144 C62.888,9.144 62.12,9.576 61.72,10.376 L61.624,10.376 L61.624,9.368 L60.104,9.368 L60.104,17 L61.72,17 Z M74.216,19.688 L74.216,16.072 L74.312,16.072 C74.744,16.76 75.448,17.224 76.424,17.224 C78.328,17.224 79.4,15.672 79.4,13.176 C79.4,10.696 78.328,9.144 76.424,9.144 C75.384,9.144 74.632,9.672 74.232,10.456 L74.12,10.456 L74.12,9.368 L72.6,9.368 L72.6,19.688 L74.216,19.688 Z M75.976,15.72 C74.792,15.72 74.216,14.792 74.216,13.176 C74.216,11.576 74.792,10.632 75.976,10.632 C77.176,10.632 77.752,11.56 77.752,13.176 C77.752,14.792 77.176,15.72 75.976,15.72 Z M84.024,17.224 C86.152,17.224 87.448,15.64 87.448,13.176 C87.448,10.712 86.152,9.144 84.024,9.144 C81.896,9.144 80.6,10.712 80.6,13.176 C80.6,15.64 81.896,17.224 84.024,17.224 Z M84.024,15.72 C82.84,15.72 82.264,14.808 82.264,13.176 C82.264,11.56 82.84,10.632 84.024,10.632 C85.208,10.632 85.784,11.56 85.784,13.176 C85.784,14.808 85.208,15.72 84.024,15.72 Z M90.68,17 L90.68,12.632 C90.68,11.416 91.272,10.632 92.264,10.632 C93.192,10.632 93.512,11.24 93.512,12.12 L93.512,17 L95.144,17 L95.144,11.944 C95.144,10.168 94.408,9.144 92.792,9.144 C91.848,9.144 91.08,9.576 90.68,10.376 L90.584,10.376 L90.584,9.368 L89.064,9.368 L89.064,17 L90.68,17 Z M100.008,17.224 C101.608,17.224 102.792,16.36 103.16,14.92 L101.48,14.92 C101.24,15.512 100.744,15.832 100.008,15.832 C99.016,15.832 98.344,15.208 98.264,13.56 L103.224,13.56 C103.24,13.416 103.24,13.208 103.24,13 C103.24,10.632 101.976,9.144 100.024,9.144 C97.96,9.144 96.696,10.648 96.696,13.176 C96.696,15.752 98.008,17.224 100.008,17.224 Z M101.688,12.312 L98.296,12.312 C98.488,11.064 99.096,10.552 100.024,10.552 C100.92,10.552 101.56,11.064 101.688,12.312 Z M106.472,17 L106.472,12.632 C106.472,11.416 107.064,10.632 108.056,10.632 C108.984,10.632 109.304,11.24 109.304,12.12 L109.304,17 L110.936,17 L110.936,11.944 C110.936,10.168 110.2,9.144 108.584,9.144 C107.64,9.144 106.872,9.576 106.472,10.376 L106.376,10.376 L106.376,9.368 L104.856,9.368 L104.856,17 L106.472,17 Z M115.64,17.112 C116.168,17.112 116.616,17.032 117.016,16.84 L117.016,15.56 C116.744,15.624 116.392,15.688 116.088,15.688 C115.496,15.688 115.144,15.368 115.144,14.696 L115.144,10.76 L117.192,10.76 L117.192,9.368 L115.144,9.368 L115.144,6.712 L114.824,6.712 L113.512,7.992 L113.512,9.368 L112.136,9.368 L112.136,10.76 L113.512,10.76 L113.512,14.872 C113.512,16.328 114.36,17.112 115.64,17.112 Z" id="BetaComponent" fill="#FFFFFF" fill-rule="nonzero"></path>
        </g>
    </g>
</svg>