<svg width="24" height="24" xmlns="http://www.w3.org/2000/svg"><path d="M23.5 13v5a3.01 3.01 0 01-2.824 2.995L20.5 21h-17a3.01 3.01 0 01-2.995-2.824L.5 18v-5h23zM22 14.5H2V18c0 .8.576 1.423 1.352 1.493l.148.007h17c.8 0 1.423-.576 1.493-1.352L22 18v-3.5zM19 16v2h-2v-2h2zm.2-11.5l1.05 1.05C18.05 7.7 15.3 8.9 12.2 8.9c-2.98 0-5.777-1.11-7.899-3.106L4.05 5.55 5.1 4.5c1.85 1.9 4.4 2.95 7.05 2.95 2.54 0 4.941-.964 6.81-2.717l.24-.233zm-2.85-2.85L17.4 2.7c-1.4 1.4-3.3 2.2-5.3 2.2a7.49 7.49 0 01-5.086-1.995L6.8 2.7l1.05-1.05A5.935 5.935 0 0012.1 3.4a5.933 5.933 0 004.043-1.553l.207-.197z" fill-rule="evenodd"/></svg>