<svg width="24" height="24" xmlns="http://www.w3.org/2000/svg"><path d="M23.5 13v5a3 3 0 01-2.824 2.995L20.5 21h-17a3 3 0 01-2.995-2.824L.5 18v-5h23zM19 16h-2v2h2v-2zm.175-11.53l1.06 1.06A11.42 11.42 0 0112.1 8.9a11.41 11.41 0 01-7.878-3.124L3.97 5.53l1.06-1.06A9.93 9.93 0 0012.1 7.4a9.935 9.935 0 006.838-2.699l.237-.231zm-2.83-2.83l1.06 1.06A7.44 7.44 0 0112.1 4.9a7.435 7.435 0 01-5.086-1.993L6.8 2.7l1.06-1.06A5.95 5.95 0 0012.1 3.4a5.96 5.96 0 004.043-1.566l.202-.194z" fill-rule="evenodd"/></svg>