<svg height="24" width="24" xmlns="http://www.w3.org/2000/svg"><path d="m23.5 10v9c0 1.65-1.35 3-3 3h-9c-1.65 0-3-1.35-3-3v-9zm-1.5 3h-12v6c0 .85.65 1.5 1.5 1.5h9c.85 0 1.5-.65 1.5-1.5zm-3.5-11v6.5h-1.5v-3.5h-15v9.5c0 .85.65 1.5 1.5 1.5h3.5v1.5h-3.5c-1.65 0-3-1.35-3-3v-12.5zm-12 .9c-.35 0-.6.25-.6.6s.25.65.6.65.6-.35.6-.65-.25-.6-.6-.6zm-2 0c-.35 0-.6.25-.6.6s.25.65.6.65.6-.35.6-.65-.25-.6-.6-.6zm-2 0c-.35 0-.6.25-.6.6s.25.65.6.65.6-.35.6-.65-.25-.6-.6-.6z" fill="#262626" fill-rule="evenodd"/></svg>