<svg width="24" height="24" xmlns="http://www.w3.org/2000/svg"><path d="M23.5 10v9a3.01 3.01 0 01-2.824 2.995L20.5 22h-9a3.01 3.01 0 01-2.995-2.824L8.5 19v-9h15zM22 13H10v6c0 .8.576 1.423 1.352 1.493l.148.007h9c.8 0 1.423-.576 1.493-1.352L22 19v-6zM18.5 2v6.5H17V5H2v9.5c0 .8.576 1.423 1.352 1.493L3.5 16H7v1.5H3.5a3.01 3.01 0 01-2.995-2.824L.5 14.5V2h18zm-12 .9c-.35 0-.6.25-.6.6s.25.65.6.65.6-.35.6-.65c0-.3-.25-.6-.6-.6zm-2 0c-.35 0-.6.25-.6.6s.25.65.6.65.6-.35.6-.65c0-.3-.25-.6-.6-.6zm-2 0c-.35 0-.6.25-.6.6s.25.65.6.65.6-.35.6-.65c0-.3-.25-.6-.6-.6z" fill="#000" fill-rule="evenodd"/></svg>