<svg width="24" height="24" xmlns="http://www.w3.org/2000/svg"><path d="M9.366 18.195a.142.142 0 01.234.08v.046l-.479 3.063a1.227 1.227 0 01-1.402 1.023c-.974-.152-1.364-1.319-.728-2.027l.09-.09 2.285-2.095zm-1.25-4.16a.142.142 0 01.234.08v.047l-.529 3.386a1.342 1.342 0 01-1.533 1.118c-1.069-.167-1.496-1.45-.79-2.224l.09-.09 2.528-2.316zm4.934-1.304a.142.142 0 01.234.08v.046l-.615 3.936a1.537 1.537 0 01-1.756 1.28c-1.226-.191-1.714-1.669-.896-2.554l.096-.096 2.937-2.692zM10.51 5.95a5.56 5.56 0 015.233 3.674 4.25 4.25 0 012.261 3.753c0 2.265-1.775 4.12-3.999 4.231l-.23.005c.052-.13.098-.265.133-.405l.044-.214.616-3.936a1.441 1.441 0 00-2.28-1.382l-.119.098-2.518 2.308a1.443 1.443 0 00-2.294-1.103l-.12.098-2.528 2.316a2.616 2.616 0 00-.846 2.13 3.86 3.86 0 01-3.059-3.777c0-1.4.755-2.684 1.952-3.366C2.86 8.558 4.365 7.107 6.2 7.107c.27 0 .54.033.806.098A5.53 5.53 0 0110.51 5.95zm9.236 4.596a.6.6 0 01.765-.069l.083.07.85.848a.6.6 0 01-.775.912l-.074-.064-.849-.848a.6.6 0 010-.849zM16.601 4.4c1.654 0 3 1.345 3 3 0 1.132-.63 2.118-1.558 2.63a5.43 5.43 0 00-1.344-1.24 6.768 6.768 0 00-2.628-2.996 2.997 2.997 0 012.53-1.394zm6.25 2.4a.6.6 0 01.097 1.192L22.85 8h-1.2a.6.6 0 01-.098-1.192l.098-.008h1.2zM11.757 2.556a.6.6 0 01.766-.069l.083.07.849.848a.6.6 0 01-.775.912l-.074-.064-.849-.848a.6.6 0 010-.849zm8.84 0a.6.6 0 01.917.766l-.07.083-.848.848a.596.596 0 01-.849 0 .6.6 0 01-.07-.765l.07-.083.85-.849zM16.6.55a.6.6 0 01.592.503l.008.097v1.2a.6.6 0 01-1.193.097L16 2.35v-1.2a.6.6 0 01.6-.6z" fill-rule="evenodd"/></svg>