<svg width="24px" height="24px" viewBox="0 0 24 24" version="1.1" xmlns="http://www.w3.org/2000/svg" xmlns:xlink="http://www.w3.org/1999/xlink">
  <g stroke="none" stroke-width="1" fill="none" fill-rule="evenodd">
     <g transform="translate(-263.000000, -93.000000)">
        <g transform="translate(36.000000, 36.000000)">
            <g transform="translate(98.000000, 56.000000)">
                <g>
                    <g transform="translate(128.000000, 0.000000)">
                        <path d="M22.9819498,9.388125 C22.9065748,9.15675 22.6909498,9 22.4468248,9 L14.8751998,9 L12.5351998,1.888125 C12.4594498,1.65675 12.2434498,1.5 12.0000748,1.5 C11.7563248,1.5 11.5403248,1.65675 11.4649498,1.888125 L9.12494981,9 L1.55219981,9 C1.30844981,9 1.09282481,9.15675 1.01744981,9.388125 C0.942449807,9.62025 1.02457481,9.87375 1.22182481,10.017375 L7.34819981,14.55975 L5.00782481,21.761625 C4.93244981,21.99375 5.01532481,22.248 5.21219981,22.390875 C5.40982481,22.53375 5.67644981,22.53375 5.87369981,22.390875 L11.9996998,17.94 L18.1260748,22.390875 C18.2243248,22.4625 18.3405748,22.4985 18.4568248,22.4985 C18.5726998,22.4985 18.6889498,22.4625 18.7871998,22.390875 C18.9844498,22.248 19.0669498,21.99375 18.9915748,21.761625 L16.6519498,14.55975 L22.7775748,10.017375 C22.9744498,9.87375 23.0569498,9.62025 22.9819498,9.388125" id="🎨-Icon-Color" fill="#DCDCDC"></path>
                        <g stroke-width="1"></g>
                    </g>
                </g>
            </g>
        </g>
      </g>
  </g>
</svg>