<svg width="24" height="24" xmlns="http://www.w3.org/2000/svg"><path d="M12 1c6.1 0 11 4.9 11 11s-4.9 11-11 11S1 18.1 1 12 5.95 1 12 1zm0 1.5c-5.25 0-9.5 4.25-9.5 9.5s4.25 9.5 9.5 9.5 9.5-4.25 9.5-9.5-4.25-9.5-9.5-9.5zM6.95 15.35c.35-.25.8-.15 1.05.2C9 17.1 10.5 18 12 18s3-.9 4-2.45c.25-.35.7-.45 1.05-.2.35.2.45.65.2 1.05-1.3 2-3.25 3.15-5.25 3.15S8.05 18.4 6.75 16.4c-.25-.35-.15-.8.2-1.05zM8.5 7.5a1.5 1.5 0 110 3 1.5 1.5 0 010-3zm7 0a1.5 1.5 0 110 3 1.5 1.5 0 010-3z" fill="#000" fill-rule="evenodd"/></svg>