<svg height="24" width="24" xmlns="http://www.w3.org/2000/svg"><path d="m12 1c6.1 0 11 4.9 11 11s-4.9 11-11 11-11-4.9-11-11 4.95-11 11-11zm0 1.5c-5.25 0-9.5 4.25-9.5 9.5s4.25 9.5 9.5 9.5 9.5-4.25 9.5-9.5-4.25-9.5-9.5-9.5zm-5.05 12.85c.35-.25.8-.15 1.05.2 1 1.55 2.5 2.45 4 2.45s3-.9 4-2.45c.25-.35.7-.45 1.05-.2.35.2.45.65.2 1.05-1.3 2-3.25 3.15-5.25 3.15s-3.95-1.15-5.25-3.15c-.25-.35-.15-.8.2-1.05zm1.55-7.85a1.5 1.5 0 1 1 0 3 1.5 1.5 0 0 1 0-3zm7 0a1.5 1.5 0 1 1 0 3 1.5 1.5 0 0 1 0-3z" fill="#262626" fill-rule="evenodd"/></svg>