<svg width="24" height="24" xmlns="http://www.w3.org/2000/svg"><path d="M18.228 4.394c.45-.45.535-1.15.204-1.694L17.251.75 16.068 2.7a1.383 1.383 0 002.16 1.694zm-12.455 0a1.38 1.38 0 002.159-1.693L6.751.75 5.568 2.7a1.383 1.383 0 00.205 1.694zm7.205 0c.45-.45.535-1.15.204-1.694L12.001.75 10.818 2.7a1.383 1.383 0 002.16 1.694zm7.523 11.264a3.702 3.702 0 01-4.843-.308l-.525-.515-.525.515A3.706 3.706 0 0112 16.417c-.98 0-1.906-.379-2.607-1.067l-.526-.516-.525.516a3.702 3.702 0 01-4.843.308V12.5c0-.827.674-1.5 1.5-1.5h14c.827 0 1.5.673 1.5 1.5v3.158h.002zm0 5.342h-17v-3.594a5.192 5.192 0 005.368-.533 5.185 5.185 0 003.132 1.044 5.192 5.192 0 003.133-1.044 5.187 5.187 0 005.367.533V21zm-1.5-11.5h-1V6h-1.5v3.5h-3.75V6h-1.5v3.5h-3.75V6h-1.5v3.5h-1a3 3 0 00-3 3v10h20v-10a3 3 0 00-3-3z" fill-rule="evenodd"/></svg>