<svg width="24" height="24" xmlns="http://www.w3.org/2000/svg"><g fill="#000" fill-rule="evenodd"><path d="M12.978 4.394c.45-.45.534-1.149.204-1.694L12 .75 10.818 2.7a1.383 1.383 0 002.16 1.694M18.228 4.394c.45-.45.534-1.149.204-1.694L17.25.75 16.068 2.7a1.383 1.383 0 002.16 1.694M7.727 4.394c.45-.45.534-1.149.205-1.693L6.75.75 5.569 2.7a1.382 1.382 0 002.159 1.694M18.526 17.916a5.552 5.552 0 01-3.262-1.044A5.555 5.555 0 0112 17.916a5.552 5.552 0 01-3.262-1.044 5.555 5.555 0 01-3.263 1.044A5.567 5.567 0 012 16.704V22.5h20v-5.794a5.575 5.575 0 01-3.475 1.21M5.476 16.416a3.938 3.938 0 002.715-1.067l.547-.515.548.515a3.938 3.938 0 002.715 1.067 3.94 3.94 0 002.715-1.067l.547-.515.548.515a3.938 3.938 0 002.715 1.067c1.481 0 2.824-.819 3.474-2.091V12.5a3 3 0 00-3-3h-1V6h-1.5v3.5h-3.75V6h-1.5v3.5H7.5V6H6v3.5H5a3 3 0 00-3 3v1.823c.65 1.273 1.993 2.093 3.476 2.093"/></g></svg>