<svg width="24" height="24" xmlns="http://www.w3.org/2000/svg"><path d="M14.75 16.5c1.25 0 2.25 1 2.25 2.25 0 .692-.34 1.342-.865 1.752L16 20.6v2.9l-1.25-.5-1.25.5v-2.9c-.6-.4-1-1.05-1-1.85 0-1.25 1-2.25 2.25-2.25zM21 .5v19a3.01 3.01 0 01-2.824 2.995L18 22.5h-.5V21h.5c.8 0 1.423-.576 1.493-1.352l.007-.148V2h-15v17.5c0 .8.576 1.423 1.352 1.493L6 21h6v1.5H6a3.01 3.01 0 01-2.995-2.824L3 19.5V.5h18zM16 12c.4 0 .75.35.75.75a.772.772 0 01-.651.743L16 13.5H8c-.4 0-.75-.35-.75-.75 0-.367.294-.691.651-.743L8 12h8zm0-3c.4 0 .75.35.75.75a.772.772 0 01-.651.743L16 10.5H8c-.4 0-.75-.35-.75-.75 0-.367.294-.691.651-.743L8 9h8zm0-3c.4 0 .75.35.75.75a.772.772 0 01-.651.743L16 7.5H8c-.4 0-.75-.35-.75-.75 0-.367.294-.691.651-.743L8 6h8z" fill-rule="evenodd"/></svg>