<svg width="24" height="24" xmlns="http://www.w3.org/2000/svg"><path d="M14.285 13.802h2.254v-2.236h-2.254v2.236zM8.963 7.938c.52-.58 1.242-.883 2.163-.909v8.118c0 .42-.03.732-.086.94-.11.398-.374.642-.795.73-.208.041-.53.061-.966.061v.622h5.431v-.622c-.304 0-.519-.005-.644-.015-.423-.041-.725-.153-.902-.334-.21-.212-.313-.673-.313-1.383V7.03c.924.026 1.648.328 2.17.908.496.555.8 1.405.91 2.55l.588-.101-.11-3.886H7.581l-.11 3.886.588.1c.109-1.144.41-1.994.905-2.549zM2 2v17a3 3 0 003 3h14a3 3 0 003-3V2H2zm18.5 17c0 .827-.673 1.5-1.5 1.5H5c-.827 0-1.5-.673-1.5-1.5V3.5h17V19zM9.736 11.566H7.482v2.236h2.254v-2.236z" fill="#000" fill-rule="evenodd"/></svg>