<svg width="24" height="24" xmlns="http://www.w3.org/2000/svg"><path d="M22.002 2v17a3 3 0 01-2.824 2.995L19 22h-14a3 3 0 01-2.994-2.824L2 19V2h20zM16.41 6.5H7.581l-.109 3.886.587.1c.11-1.144.411-1.994.905-2.549.477-.531 1.122-.83 1.936-.896l.226-.012v8.118c0 .42-.029.732-.086.94-.109.398-.374.642-.795.73l-.096.016-.234.025-.138.01-.317.01h-.18v.622h5.43v-.622h-.144l-.244-.003-.255-.012c-.423-.041-.725-.153-.902-.334-.189-.191-.292-.583-.31-1.177l-.004-.206V7.03c.925.026 1.649.328 2.171.908.455.509.748 1.265.878 2.27l.031.28.588-.101-.11-3.886zm-6.674 5.066H7.485v2.236h2.254v-2.236zm6.804 0h-2.255v2.236h2.255v-2.236z" fill="#000" fill-rule="evenodd"/></svg>