<svg width="24" height="24" xmlns="http://www.w3.org/2000/svg"><path d="M16.532 14.371h.045l1.797 3.128h1.017v-5h-1.003v3.144h-.045L16.547 12.5h-1.025v5h1.01v-3.128zm-3.9-.33h.045l.524 1.55h-1.093l.524-1.55zm-.839 2.493h1.722l.329.966h1.026l-1.706-5h-1.011l-1.706 5h1.026l.32-.965zm-4.154.075V15.41h.733c.396 0 .614.232.614.591 0 .381-.218.606-.614.606h-.733zm0-3.218h.756c.329 0 .547.223.547.575 0 .345-.21.585-.547.585h-.756v-1.16zm2.395 2.724c0-.525-.24-.92-.658-1.116v-.029c.381-.225.613-.629.613-1.145 0-.719-.434-1.325-1.46-1.325H6.628v5h1.864c1.085 0 1.542-.622 1.542-1.385zM4.506 17.5h1.01v-5h-1.01v5zM22.001 8h-20V6.5c0-.827.672-1.5 1.5-1.5h17c.827 0 1.5.673 1.5 1.5V8zm0 9.5c0 .827-.673 1.5-1.5 1.5h-17c-.828 0-1.5-.673-1.5-1.5V11h20v6.5zm-1.5-14h-17a3 3 0 00-3 3v11a3 3 0 003 3h17a3 3 0 003-3v-11a3 3 0 00-3-3z" fill="#000" fill-rule="evenodd"/></svg>