<svg width="24" height="24" xmlns="http://www.w3.org/2000/svg"><path d="M20.5 3.5h-17a3 3 0 00-3 3V8h23V6.5a3 3 0 00-3-3zm-15.996 14h1.011v-5h-1.01v5zm2.124 0h1.863c1.086 0 1.543-.622 1.543-1.385 0-.524-.24-.921-.659-1.115v-.03c.382-.224.613-.629.613-1.144 0-.719-.433-1.326-1.459-1.326h-1.9v5zm3.818 0h1.026l.321-.966h1.721l.33.966h1.026l-1.707-5h-1.01l-1.707 5zm5.075 0h1.01v-3.129h.047l1.796 3.129h1.017v-5H18.39v3.144h-.047L16.548 12.5h-1.026v5zM.502 11h23v6.5a3 3 0 01-3 3h-17a3 3 0 01-3-3V11zm8.486 5.003c0-.36-.219-.592-.616-.592h-.733v1.197h.733c.397 0 .615-.224.615-.605zm3.69-1.961h-.046l-.523 1.549h1.093l-.524-1.549zm-4.283.509h-.756v-1.16h.756c.33 0 .547.224.547.576 0 .344-.209.584-.547.584z" fill-rule="evenodd"/></svg>