<svg width="24" height="24" xmlns="http://www.w3.org/2000/svg"><path d="M13.903 4.746C11.753 3.652 9.332 2.427 5 3.836v-.511A1.745 1.745 0 004.25 0a1.745 1.745 0 00-.75 3.325V23A.75.75 0 105 23v-5.076c4.037-1.459 6.076-.433 8.223.66 1.899.965 3.457 1.624 5.527 1.535 3.934-.167 4.75-2.448 4.75-3.908V4.788c-4.657 1.88-6.2 1.686-9.597-.042zM22 16.211c0 2.199-2.359 2.378-3.393 2.404-1.915.05-3.278-.644-4.704-1.369-1.46-.742-3.043-1.548-5.263-1.548-1.052 0-2.247.18-3.64.634V5.418c4.042-1.462 6.075-.427 8.223.665 2.235 1.136 4.54 2.31 8.777.893v9.235z" fill="#000" fill-rule="evenodd"/></svg>