<svg width="24" height="24" xmlns="http://www.w3.org/2000/svg"><path d="M17.75.5H8v3H5v3H2v14.75a2.25 2.25 0 002.25 2.25h9a2.25 2.25 0 002.25-2.25v-.75h.75a2.25 2.25 0 002.25-2.25v-.75h.75a2.25 2.25 0 002.25-2.25V4.363L17.75.5zM14 21.25a.75.75 0 01-.75.75h-9a.75.75 0 01-.75-.75V8H5v10.25a2.25 2.25 0 002.25 2.25H14v.75zm3-3a.75.75 0 01-.75.75h-9a.75.75 0 01-.75-.75V5H8v10.25a2.25 2.25 0 002.25 2.25H17v.75zM19.25 16h-9a.75.75 0 01-.75-.75V2H16v2.17c0 .734.595 1.33 1.33 1.33H20v9.75a.75.75 0 01-.75.75z" fill="#000" fill-rule="evenodd"/></svg>