<svg width="24" height="24" xmlns="http://www.w3.org/2000/svg"><path d="M15.55.46V4a2.33 2.33 0 002.145 2.328l.185.007h3.62v8.875a2.245 2.245 0 01-2.052 2.242l-.198.008h-.75v.79a2.245 2.245 0 01-2.052 2.242l-.198.008h-.75v.75a2.245 2.245 0 01-2.052 2.242l-.198.008h-9a2.245 2.245 0 01-2.242-2.052L2 21.25V6.5h3v-3h3V.46h7.55zM5 8H3.5v13.25c0 .38.282.693.648.743L4.25 22h9a.75.75 0 00.743-.648L14 21.25v-.75H7.25a2.245 2.245 0 01-2.242-2.052L5 18.25V8zm3-3H6.5v13.25c0 .38.282.693.648.743L7.25 19h9a.75.75 0 00.743-.648L17 18.25v-.79h-6.75a2.245 2.245 0 01-2.242-2.052L8 15.21V5zM16.625.46L21.5 5.335h-3.545a1.33 1.33 0 01-1.322-1.185L16.625 4V.46z" fill-rule="evenodd"/></svg>