<svg height="24" width="24" xmlns="http://www.w3.org/2000/svg"><path d="m10 6c1.4 0 2.5 1.1 2.5 2.5v13c0 1.4-1.1 2.5-2.5 2.5h-6c-1.4 0-2.5-1.1-2.5-2.5v-13c0-1.4 1.1-2.5 2.5-2.5zm-4.5 1.5h-1.5c-.55 0-1 .45-1 1v13c0 .55.45 1 1 1h6c.55 0 1-.45 1-1v-13c0-.55-.45-1-1-1h-1.5v1.5h-3zm1.5 12.25a1 1 0 1 1 0 2 1 1 0 0 1 0-2zm12.5-19.75c1.65 0 3 1.35 3 3v14.5c0 1.65-1.35 3-3 3h-5.5v-1.5h5.5c.85 0 1.5-.65 1.5-1.5v-14.5c0-.85-.65-1.5-1.5-1.5h-9.5c-.85 0-1.5.65-1.5 1.5v1.5h-1.5v-1.5c0-1.65 1.35-3 3-3zm-4.75 16a1 1 0 1 1 0 2 1 1 0 0 1 0-2z" fill="#262626" fill-rule="evenodd"/></svg>