<svg width="24" height="24" xmlns="http://www.w3.org/2000/svg"><path d="M10 6a2.473 2.473 0 012.495 2.333l.005.167v13a2.473 2.473 0 01-2.333 2.495L10 24H4a2.473 2.473 0 01-2.495-2.333L1.5 21.5v-13a2.473 2.473 0 012.333-2.495L4 6h6zM5.5 7.5H4c-.51 0-.935.388-.993.884L3 8.5v13c0 .51.388.935.884.993L4 22.5h6c.51 0 .935-.388.993-.884L11 21.5v-13c0-.51-.388-.935-.884-.993L10 7.5H8.5V9h-3V7.5zM7 19.75a1 1 0 110 2 1 1 0 010-2zM19.5 0a3.01 3.01 0 012.995 2.824L22.5 3v14.5a3.01 3.01 0 01-2.824 2.995l-.176.005H14V19h5.5c.8 0 1.423-.576 1.493-1.352L21 17.5V3c0-.8-.576-1.423-1.352-1.493L19.5 1.5H10c-.8 0-1.423.576-1.493 1.352L8.5 3v1.5H7V3A3.01 3.01 0 019.824.005L10 0h9.5zm-4.75 16a1 1 0 110 2 1 1 0 010-2z" fill-rule="evenodd"/></svg>