<svg width="24" height="24" xmlns="http://www.w3.org/2000/svg"><path d="M10 6a2.5 2.5 0 012.495 2.336l.005.164v13a2.5 2.5 0 01-2.336 2.495L10 24H4a2.5 2.5 0 01-2.492-2.302L1.5 21.5v-13a2.5 2.5 0 012.336-2.495L4 6h6zM7 19.75a1 1 0 100 2 1 1 0 000-2zM19.5 0a3 3 0 012.995 2.824L22.5 3v14.5a3 3 0 01-2.824 2.995l-.176.005H14V19h5.5a1.5 1.5 0 001.493-1.356L21 17.5V3a1.5 1.5 0 00-1.356-1.493L19.5 1.5H10a1.5 1.5 0 00-1.493 1.356L8.5 3v1.5H7V3A3 3 0 019.824.005L10 0h9.5zm-4.75 16a1 1 0 110 2 1 1 0 010-2zM8.5 7.5h-3V9h3V7.5z" fill="#000" fill-rule="evenodd"/></svg>