<svg width="24" height="24" xmlns="http://www.w3.org/2000/svg"><path d="M12.042 7.041c-1.367 0-2.715-.161-3.922-.378l2.39 2.671c.395.441.7.77.929 1.011a.778.778 0 001.13-.005c.226-.238.527-.565.924-1.009l2.389-2.669c-1.207.218-2.473.379-3.84.379zm-5.16 11.678a1.5 1.5 0 00-.381 1v.781h11v-.781a1.5 1.5 0 00-.382-1c-1.255-1.403-3.4-3.048-5.118-3.048-1.72 0-3.905 1.692-5.118 3.048zm7.73-5.052l3.625 4.052a3 3 0 01.764 2v.781c0 .827-.674 1.5-1.5 1.5h-11c-.828 0-1.5-.673-1.5-1.5v-.781c0-.739.27-1.449.763-2l3.626-4.052c.85-.951.85-2.384 0-3.334L5.764 6.281a2.995 2.995 0 01-.764-2V2h14v2.281a3 3 0 01-.764 2l-3.626 4.052c-.85.95-.85 2.384.002 3.334zm4.742-6.386a4.496 4.496 0 001.147-3V.5h-17v3.781c0 1.106.408 2.175 1.146 3l3.626 4.052c.339.379.339.954 0 1.334l-3.626 4.052a4.5 4.5 0 00-1.146 3v.781a3 3 0 003 3h11a3 3 0 003-3v-.781a4.497 4.497 0 00-1.147-3l-3.625-4.052a1.002 1.002 0 010-1.334l3.625-4.052z" fill-rule="evenodd"/></svg>