<svg width="24" height="24" xmlns="http://www.w3.org/2000/svg"><path d="M13.493 9.332c-.396.444-.698.77-.924 1.008a.78.78 0 01-1.13.006 44.54 44.54 0 01-.929-1.011L8.119 6.662c1.207.219 2.556.38 3.923.38 1.366 0 2.633-.161 3.84-.38l-2.389 2.67zm3.626 9.388a1.5 1.5 0 01.382 1v.78h-11v-.78c0-.37.135-.725.381-1 1.214-1.356 3.4-3.048 5.119-3.048 1.718 0 3.862 1.645 5.118 3.048zm2.235-11.438a4.496 4.496 0 001.147-3.001V.5h-17v3.78c0 1.107.407 2.176 1.146 3l3.626 4.053a1 1 0 010 1.333l-3.626 4.052a4.499 4.499 0 00-1.146 3v.781a3 3 0 003 3h11a3 3 0 003-3v-.78a4.496 4.496 0 00-1.147-3l-3.625-4.053a1 1 0 010-1.334l3.625-4.052z" fill="#000" fill-rule="evenodd"/></svg>