<svg width="24" height="24" xmlns="http://www.w3.org/2000/svg"><path d="M23.5 3.5v14a3.01 3.01 0 01-2.824 2.995l-.176.005h-17a3.01 3.01 0 01-2.995-2.824L.5 17.5v-14h23zM22 5H2v12.5c0 .8.576 1.423 1.352 1.493L3.5 19h17c.8 0 1.423-.576 1.493-1.352L22 17.5V5zM7.15 13.5l1.15 1.1 1.1-1.1h.75c.703 0 1.318.483 1.516 1.162l.034.138.1.7H4.7l.15-.7c.14-.703.72-1.23 1.41-1.294l.14-.006h.75zm12.1-1c.4 0 .75.35.75.75a.772.772 0 01-.651.743L19.25 14h-5c-.4 0-.75-.35-.75-.75 0-.367.294-.691.651-.743l.099-.007h5zm-11-4.45c1.15 0 2.1.85 2.1 2.1s-.9 2.5-2.1 2.5c-1.2 0-2.1-1.25-2.1-2.5s.95-2.1 2.1-2.1zm11 1.45c.4 0 .75.35.75.75a.772.772 0 01-.651.743L19.25 11h-5c-.4 0-.75-.35-.75-.75 0-.367.294-.691.651-.743l.099-.007h5z" fill="#000" fill-rule="evenodd"/></svg>