<svg width="24" height="24" xmlns="http://www.w3.org/2000/svg"><path d="M11.775 19.452l1.898 1.9-2.607.707.71-2.607zm9.836-9.307a1.376 1.376 0 011.073 2.238l-.1.112-8.044 8.037-1.946-1.947 8.044-8.037c.269-.268.62-.403.973-.403zM19.115 2v8.047l-1.431 1.43V3.43H2.43v9.67c0 .67.51 1.221 1.162 1.288l.132.006h2.52v3.429c0 .114.086.148.135.157l.035.005a.11.11 0 00.07-.023l.031-.027 3.54-3.54 4.71-.001-1.431 1.43h-2.686l-3.122 3.122a1.556 1.556 0 01-1.112.469c-.771 0-1.513-.566-1.593-1.436l-.007-.156v-1.998h-1.09a2.724 2.724 0 01-2.719-2.558L1 13.1V2h18.115z" fill-rule="evenodd"/></svg>