<svg width="24" height="24" xmlns="http://www.w3.org/2000/svg"><path d="M11.252 19.359l1.898 1.899-2.607.708.709-2.607zm9.836-9.307a1.376 1.376 0 011.073 2.238l-.1.112-8.044 8.037-1.946-1.947 8.044-8.037c.269-.269.62-.403.973-.403zm-2.496-8.145v8.047l-1.431 1.43V3.337H1.908v9.67c0 .67.51 1.221 1.162 1.288l.132.006h2.52v3.428c0 .115.085.148.135.158l.035.004a.11.11 0 00.07-.022l.03-.027 3.54-3.54 4.71-.001-1.43 1.43h-2.687l-3.121 3.122a1.556 1.556 0 01-1.112.469c-.772 0-1.513-.566-1.593-1.436l-.008-.157v-1.998H3.2a2.724 2.724 0 01-2.718-2.558l-.005-.165V1.907h18.115z" fill="#000" fill-rule="evenodd"/></svg>