<svg xmlns="http://www.w3.org/2000/svg" width="24" height="24">
    <path fill="#262626" fill-rule="evenodd" d="M5.25 9.5c.4 0 .75.35.75.75V12c0 3.3 2.7 6 6 6 .85 0 1.6-.15 2.35-.5l1.1 1.15c-.8.4-1.75.7-2.7.8v4.05h-1.5v-4.05C7.45 19.1 4.5 15.9 4.5 12v-1.75c0-.4.35-.75.75-.75zm-2.4-6.65c.3-.3.75-.3 1.05 0L21.15 20.1c.3.3.3.75 0 1.05-.3.3-.75.3-1.05 0L2.85 3.9c-.3-.3-.3-.75 0-1.05zM7.5 10.7L9 12.2c.1 1.5 1.3 2.7 2.8 2.8l1.35 1.35c-.35.1-.75.15-1.15.15-2.5 0-4.5-2-4.5-4.5v-1.3zm11.25-1.2c.4 0 .75.35.75.75V12c0 1.25-.3 2.45-.9 3.45l-1.1-1.1c.35-.75.5-1.5.5-2.35v-1.75c0-.4.35-.75.75-.75zM12 .5c2.5 0 4.5 2 4.5 4.5v7c0 .4-.05.8-.15 1.15L15 11.8V5c0-1.65-1.35-3-3-3S9 3.35 9 5v.8L7.55 4.35C7.85 2.2 9.75.5 12 .5z"/>
</svg>
