<svg width="24" height="24" xmlns="http://www.w3.org/2000/svg"><path d="M5.25 9.5c.367 0 .691.294.743.651L6 10.25V12c0 3.3 2.7 6 6 6 .744 0 1.41-.115 2.069-.378l.281-.122 1.1 1.15c-.7.35-1.515.623-2.344.753l-.356.047v4.05h-1.5v-4.05c-3.72-.343-6.624-3.415-6.746-7.202L4.5 12v-1.75c0-.4.35-.75.75-.75zm-2.4-6.65a.722.722 0 01.965-.074l.085.074L21.15 20.1c.3.3.3.75 0 1.05a.722.722 0 01-.965.074l-.085-.074L2.85 3.9c-.3-.3-.3-.75 0-1.05zM7.5 10.7L9 12.2a3.012 3.012 0 002.621 2.783L11.8 15l1.35 1.35c-.35.1-.75.15-1.15.15a4.48 4.48 0 01-4.495-4.287L7.5 12v-1.3zm11.25-1.2c.367 0 .691.294.743.651l.007.099V12c0 1.146-.252 2.25-.756 3.196l-.144.254-1.1-1.1a5.26 5.26 0 00.493-2.036L18 12v-1.75c0-.4.35-.75.75-.75zM12 .5a4.48 4.48 0 014.495 4.287L16.5 5v7c0 .32-.032.64-.096.934l-.054.216L15 11.8V5c0-1.65-1.35-3-3-3a3.01 3.01 0 00-2.995 2.824L9 5v.8L7.55 4.35C7.85 2.2 9.75.5 12 .5z" fill="#000" fill-rule="evenodd"/></svg>