<svg xmlns="http://www.w3.org/2000/svg" width="24" height="24">
    <path fill="#262626" fill-rule="evenodd" d="M5.25 9.5a.75.75 0 01.75.75V12a6 6 0 008.34 5.525l1.125 1.12a7.5 7.5 0 01-2.715.815v4.04h-1.5v-4.04A7.5 7.5 0 014.5 12v-1.75a.75.75 0 01.75-.75zM2.863 2.863a.75.75 0 011.042-.018l17.25 17.25a.745.745 0 010 1.06.75.75 0 01-1.06 0L2.845 3.905a.75.75 0 01.018-1.042zM7.5 10.68l5.66 5.665A4.67 4.67 0 0112 16.5 4.5 4.5 0 017.5 12v-1.32zM18.75 9.5a.75.75 0 01.75.75V12a7.435 7.435 0 01-.88 3.465L17.5 14.34A6 6 0 0018 12v-1.75a.75.75 0 01.75-.75zM12.104.539l.212.01A4.5 4.5 0 0116.5 5v7a4.67 4.67 0 01-.155 1.16L7.55 4.37A4.5 4.5 0 0112.316.549z"/>
</svg>
