<svg width="24" height="24" xmlns="http://www.w3.org/2000/svg"><path d="M5.25 9.5a.75.75 0 01.743.648L6 10.25V12a6 6 0 008.097 5.622l.243-.097 1.125 1.12a7.5 7.5 0 01-2.36.77l-.355.045v4.04h-1.5v-4.04a7.5 7.5 0 01-6.746-7.21L4.5 12v-1.75a.75.75 0 01.75-.75zM2.863 2.863a.75.75 0 01.949-.092l.093.074 17.25 17.25a.745.745 0 010 1.06.75.75 0 01-.976.073l-.084-.073-17.25-17.25a.75.75 0 01.018-1.042zM7.5 10.68l5.66 5.665A4.67 4.67 0 0112 16.5a4.5 4.5 0 01-4.495-4.288L7.5 12v-1.32zM18.75 9.5a.75.75 0 01.743.648l.007.102V12a7.435 7.435 0 01-.731 3.171l-.149.294-1.12-1.125a6 6 0 00.49-2.038L18 12v-1.75a.75.75 0 01.75-.75zM12.104.539l.212.01a4.5 4.5 0 014.177 4.239L16.5 5v7a4.67 4.67 0 01-.089.874l-.066.286L7.55 4.37A4.5 4.5 0 0112.104.539z" fill="#000" fill-rule="evenodd"/></svg>