<svg width="24" height="24" xmlns="http://www.w3.org/2000/svg"><path d="M7.2 8.5l-1.55 2.4 2.7 1.75c1.65 1.1 2.9 2.6 3.65 4.4.659-1.647 1.85-3.117 3.363-4.201l.287-.199 2.7-1.75-1.55-2.4h6.65l-2.65 6-1.55-2.4-2.7 1.75c-2.269 1.497-3.652 3.925-3.745 6.611l-.005.289v1.45a.772.772 0 01-.651.743l-.099.007-.099-.007a.778.778 0 01-.644-.644L11.3 22.2v-1.45l-.005-.289c-.09-2.59-1.379-4.94-3.505-6.447l-.24-.164-2.7-1.75-1.55 2.4-2.65-6H7.2zM12 1l3.6 5.5h-2.85v6.55c0 .4-.35.75-.75.75a.772.772 0 01-.743-.651l-.007-.099V6.5H8.4L12 1z" fill="#000" fill-rule="evenodd"/></svg>