<svg width="24" height="24" xmlns="http://www.w3.org/2000/svg"><path d="M7.205 8.69L5.92 10.66l2.685 1.755c1.419.92 2.585 2.18 3.395 3.665a10.175 10.175 0 013.095-3.458l.3-.202 2.685-1.755-1.285-1.97h6.57l-2.69 6.02-1.285-1.97-2.685 1.755a7.725 7.725 0 00-3.496 6.22l-.004.28v1.275a1.255 1.255 0 01-.138.586l-.067.114V23a1 1 0 01-.17.21l-.105.085H12.7a1.256 1.256 0 01-.488.19l-.132.015H12l-.14-.006a1.255 1.255 0 01-.915-.544.455.455 0 01-.045-.085 1.09 1.09 0 01-.147-.396l-.015-.179.002-.04V21l-.004-.28a7.725 7.725 0 00-3.264-6.063L7.24 14.5l-2.685-1.75-1.285 1.97L.635 8.69h6.57zM12 1l3.6 5.5h-2.35v6.25a1.25 1.25 0 01-2.494.128l-.006-.128V6.5H8.4L12 1z" fill="#000" fill-rule="evenodd"/></svg>