<svg width="24" height="24" xmlns="http://www.w3.org/2000/svg"><path d="M12 .98l9.5 2.173v7.998c0 5.587-3.684 10.572-8.997 12.232l-.297.089-.206.058-.206-.058c-5.373-1.536-9.154-6.447-9.29-12.012l-.004-.31V3.154L12 .98zm0 1.54L4 4.349v6.802c0 4.953 3.278 9.37 8 10.817 4.627-1.417 7.869-5.689 7.996-10.52L20 11.15V4.349l-8-1.83zm0 3.605a2.928 2.928 0 012.918 2.752l.005.172v.95H16v4a1.5 1.5 0 01-1.355 1.494l-.145.007h-5a1.5 1.5 0 01-1.493-1.356L8 14v-4h1.076v-.951A2.928 2.928 0 0112 6.125zm0 1.25c-.874 0-1.594.674-1.667 1.53l-.007.144v.95h3.347v-.95c0-.923-.75-1.674-1.673-1.674z" fill-rule="evenodd"/></svg>