<svg width="24" height="24" xmlns="http://www.w3.org/2000/svg"><path d="M12 .98l9.5 2.171v7.998c0 5.693-3.822 10.758-9.294 12.322L12 23.53l-.206-.058C6.322 21.907 2.5 16.841 2.5 11.15V3.152L12 .98zm0 5.145a2.927 2.927 0 00-2.918 2.752l-.005.171v.953H8v4l.007.144a1.5 1.5 0 001.348 1.349l.145.007h5l.145-.007a1.5 1.5 0 001.348-1.35l.007-.143v-4h-1.077v-.952l-.005-.172A2.927 2.927 0 0012 6.125zm0 1.25c.874 0 1.594.674 1.667 1.53l.006.144V10h-3.346v-.952l.006-.145A1.675 1.675 0 0112 7.375z" fill-rule="evenodd"/></svg>