<svg width="24" height="24" xmlns="http://www.w3.org/2000/svg"><path d="M13.998 18.465a.173.173 0 01.288.102l-.001.052-.587 3.748a1.502 1.502 0 01-1.716 1.252c-1.199-.188-1.676-1.632-.876-2.498l.094-.093 2.798-2.563zM11.761 13.5L8.557 18h3.111L5.36 23.098c-.16.13-.373-.04-.315-.213l.027-.052 2.26-3.337H4.939L8.264 13.5h3.497zm5.082-1.731a.15.15 0 01.248.083v.05l-.651 4.167a1.626 1.626 0 01-1.859 1.355c-1.3-.203-1.817-1.771-.946-2.708l.099-.098 3.109-2.85zM13.511.565a7.596 7.596 0 017.15 5.019 5.805 5.805 0 013.089 5.128c0 3.118-2.46 5.667-5.53 5.784l-.22.005h-.127l.026-.1.023-.099.205-1.308c2.284-.069 4.123-1.961 4.123-4.282a4.3 4.3 0 00-2.314-3.813l-.195-.095-.303-.138-.101-.318c-.816-2.561-3.157-4.283-5.825-4.283-1.42 0-2.79.5-3.888 1.415l-.216.188-.328.301-.354-.122c-.34-.115-.66-.2-1.105-.2a3.22 3.22 0 00-3.034 2.176 3.259 3.259 0 00-.176 1.154l.014.307.017.267-.398.179a3.8 3.8 0 00-.807.471 3.798 3.798 0 00-1.487 3.014c0 2.022 1.579 3.678 3.557 3.78L5.5 15h.218l-.811 1.464C2.291 16.166.25 13.927.25 11.216a5.299 5.299 0 012.667-4.598c.14-2.49 2.197-4.472 4.705-4.472.369 0 .736.045 1.1.134a7.558 7.558 0 014.79-1.715z" fill="#000" fill-rule="evenodd"/></svg>