<svg width="24" height="24" xmlns="http://www.w3.org/2000/svg"><path d="M14.01 18.465a.173.173 0 01.287.102v.052l-.587 3.748a1.502 1.502 0 01-1.716 1.252c-1.199-.188-1.676-1.632-.876-2.498l.094-.093 2.797-2.563zM11.773 13.5L8.569 18h3.111l-6.308 5.097c-.161.13-.373-.04-.315-.213l.026-.052 2.26-3.337H4.95L8.277 13.5h3.497zm5.082-1.731a.15.15 0 01.248.083v.05l-.652 4.167a1.626 1.626 0 01-1.858 1.355c-1.3-.203-1.817-1.771-.946-2.708l.098-.098 3.11-2.85zM13.523.565a7.596 7.596 0 017.15 5.019 5.805 5.805 0 013.089 5.127c0 3.118-2.461 5.668-5.53 5.785l-.22.004h-.329l.03-.114.024-.116.652-4.166a1.45 1.45 0 00-2.29-1.392l-.12.098-1.518 1.39h-6.95L5.14 16.477a5.27 5.27 0 01-4.877-5.26 5.299 5.299 0 012.667-4.598c.14-2.49 2.196-4.472 4.704-4.472.37 0 .737.045 1.1.134a7.558 7.558 0 014.79-1.715z" fill="#000" fill-rule="evenodd"/></svg>