<svg width="24" height="24" xmlns="http://www.w3.org/2000/svg"><path d="M13.773 1.152l.105.011C19.052 2.057 23 6.575 23 12c0 3.454-1.601 6.54-4.1 8.557l1.588 2.436-6.673-.013 2.68-6.112 1.577 2.42A9.465 9.465 0 0021.5 12c0-4.689-3.415-8.594-7.889-9.361a.74.74 0 01-.603-.628L13 1.904l.006-.097a.755.755 0 01.664-.65l.103-.005zM3.512 1.008l6.673.012-2.68 6.112-1.578-2.42A9.471 9.471 0 002.5 12c0 4.689 3.415 8.595 7.889 9.362a.74.74 0 01.603.627l.008.107-.006.097a.753.753 0 01-.872.644C4.948 21.943 1 17.425 1 12c0-3.454 1.601-6.54 4.1-8.557L3.512 1.008zm8.652 6.497c1.577 0 2.774 1.038 3.05 2.734h-1.802c-.157-.762-.617-1.117-1.248-1.117-.762 0-1.236.434-1.46 1.406h1.841v1.262H10.56v.644h1.985v1.262h-1.84c.223.96.697 1.393 1.459 1.393.631 0 1.091-.354 1.248-1.117h1.801c-.275 1.696-1.471 2.734-3.05 2.734-1.696 0-2.825-1.117-3.207-3.01h-.775v-1.262h.63v-.644h-.63v-1.262h.775c.382-1.906 1.498-3.024 3.208-3.024z" fill="#000" fill-rule="evenodd"/></svg>