<svg width="24" height="24" xmlns="http://www.w3.org/2000/svg"><path d="M3.512 1.008l6.674.012-2.68 6.112L6.2 5.13C4.21 6.82 3 9.332 3 12c0 4.18 2.956 7.874 7.029 8.784.566.126.953.619.972 1.174v.138a.748.748 0 01-.038.223 1.248 1.248 0 01-1.479.904C4.279 22.061.501 17.341.501 12c0-3.396 1.533-6.599 4.06-8.758l.265-.22-1.314-2.014zm9.518.698a1.245 1.245 0 011.486-.929C19.721 1.939 23.5 6.659 23.5 12c0 3.396-1.534 6.598-4.06 8.758l-.265.22 1.314 2.014-6.674-.012 2.68-6.112 1.306 2.002C19.79 17.179 21 14.666 21 12c0-4.18-2.956-7.874-7.029-8.784A1.245 1.245 0 0113 2.04l.002-.135c0-.07.012-.135.029-.199zm-.866 5.798c1.514 0 2.678.958 3.013 2.535l.037.2h-1.801c-.157-.762-.617-1.117-1.249-1.117-.714 0-1.175.381-1.414 1.23l-.045.176h1.84v1.262h-1.984v.644h1.985v1.262h-1.84c.223.96.696 1.393 1.458 1.393.586 0 1.025-.306 1.21-.96l.039-.157h1.801c-.276 1.696-1.472 2.734-3.05 2.734-1.63 0-2.738-1.033-3.16-2.795l-.047-.215H8.18v-1.262h.631v-.644h-.63v-1.262h.775c.381-1.906 1.498-3.024 3.207-3.024z" fill-rule="evenodd"/></svg>