<svg width="24" height="24" xmlns="http://www.w3.org/2000/svg"><path d="M17.75 14.25a1.25 1.25 0 10-.001 2.498 1.25 1.25 0 00.002-2.498m-3-2.5a1.25 1.25 0 10-.002 2.498 1.25 1.25 0 00.002-2.498M10 13.5H8.5V12A.75.75 0 107 12v1.5H5.5a.75.75 0 100 1.5H7v1.5a.75.75 0 101.5 0V15H10a.75.75 0 100-1.5m11.99 7.167a2.625 2.625 0 01-1.635 1.3 2.667 2.667 0 01-2.692-.811L15.34 18.5H8.66l-2.323 2.655a2.667 2.667 0 01-2.692.812 2.63 2.63 0 01-1.636-1.3 2.626 2.626 0 01-.185-2.08L4.795 9.5h14.412l2.97 9.087a2.618 2.618 0 01-.186 2.08m1.612-2.547L20.295 8H3.707L.397 18.12a4.119 4.119 0 00.293 3.259 4.112 4.112 0 002.562 2.035 4.171 4.171 0 004.214-1.271L9.34 20h5.32l1.875 2.143a4.173 4.173 0 004.215 1.271 4.113 4.113 0 002.56-2.035 4.11 4.11 0 00.292-3.259M12 2.056c1.725 0 3.279.729 4.383 1.889l1.107-1.009A7.533 7.533 0 0012 .556a7.531 7.531 0 00-5.49 2.38l1.107 1.009A6.032 6.032 0 0112 2.056m-3.275 2.9l1.106 1.008a3.045 3.045 0 014.338.001l1.106-1.009a4.537 4.537 0 00-6.55 0" fill-rule="evenodd"/></svg>