<svg width="24" height="24" xmlns="http://www.w3.org/2000/svg"><path d="M22.532 15.169a.75.75 0 111.436.43 12.812 12.812 0 01-5.043 6.891.75.75 0 11-.844-1.239 11.312 11.312 0 004.451-6.082zM5.01 10.51V15a4.504 4.504 0 004.286 4.495l.211.005h3.483l-2.121 2.123a2.993 2.993 0 01-4.074.152l-.164-.152-4.242-4.245a3.008 3.008 0 01-.135-4.102l.135-.143 2.62-2.623zm13.116 7.173a.749.749 0 111.127.989 9.582 9.582 0 01-3.921 2.68.749.749 0 11-.512-1.41 8.068 8.068 0 003.306-2.26zm-6.12-13.44a4.004 4.004 0 013.993 3.8l.005.2v1.244H17.5V15a3 3 0 01-2.822 2.995l-.176.005H9.506a2.999 2.999 0 01-2.993-2.824L6.508 15V9.487h1.5V8.243c0-2.205 1.793-4 3.997-4zm0 7.757a1.249 1.249 0 00-.857 2.153l.108.091V15.5h1.5v-1.256a1.245 1.245 0 00-.75-2.244zm3.25-10.502c.7 0 1.399.243 1.956.723l.162.152 4.243 4.245a3.003 3.003 0 01.135 4.105l-.135.145L19 13.485V7.987h-1.504a5.504 5.504 0 00-4.548-5.157l-.23-.035.418-.417a2.984 2.984 0 012.119-.88zm-3.25 4.245A2.502 2.502 0 009.512 8.08l-.005.164v1.244h4.997V8.243c0-1.378-1.121-2.5-2.499-2.5zM5.085 1.51a.75.75 0 11.845 1.24 11.304 11.304 0 00-4.45 6.082.75.75 0 01-1.437-.43A12.81 12.81 0 015.086 1.51zM8.68 2.648a.75.75 0 11.513 1.41 8.063 8.063 0 00-3.307 2.26.75.75 0 01-1.127-.99 9.58 9.58 0 013.921-2.68z" fill-rule="evenodd"/></svg>