<svg width="24" height="24" xmlns="http://www.w3.org/2000/svg"><path d="M23.77 17.655a3.735 3.735 0 00-3.7-3.155h-2.955a6.195 6.195 0 01-1.29 2.25A4.715 4.715 0 0119 20.5l.16 1H24a31.14 31.14 0 00-.23-3.845zM14.305 18h-.71L12 19.595 10.405 18h-1.21A3.235 3.235 0 006 20.735l-.14.765h11.78l-.14-.765A3.235 3.235 0 0014.305 18zm3.26-12.5a2.56 2.56 0 012.675 2.675c0 1.605-1.075 3.325-2.675 3.325a1.3 1.3 0 01-.2 0 6 6 0 01.08.96v.545h.145c2.5 0 4.175-2.5 4.175-4.825a4.085 4.085 0 00-4.2-4.18A4.065 4.065 0 0013.5 7.2a5.32 5.32 0 011.425.605 2.535 2.535 0 012.64-2.305zM6.745 11A5.195 5.195 0 017.4 9.5a2.225 2.225 0 01-.4 0c-1.74 0-2.905-1.86-2.905-3.6A2.78 2.78 0 017 3a2.775 2.775 0 012.9 2.9 4.19 4.19 0 01-.345 1.65 5.41 5.41 0 011.715-.5 5.59 5.59 0 00.13-1.15A4.31 4.31 0 007 1.5a4.31 4.31 0 00-4.405 4.4C2.59 8.285 4.25 10.825 6.745 11zm-.19 1.5h-2a4.25 4.25 0 00-4.25 3.77A42.12 42.12 0 000 21.5h4.345l.155-1a4.715 4.715 0 013.575-3.865 6.375 6.375 0 01-1.52-4.135zm1-.055c0 2.79 1.995 5.055 4.445 5.055s4.445-2.265 4.445-5.055A4.345 4.345 0 0012 8a4.345 4.345 0 00-4.445 4.445zM12 10.5a1.84 1.84 0 011.945 1.945c0 1.21-.8 2.555-1.945 2.555s-1.945-1.345-1.945-2.555A1.84 1.84 0 0112 10.5z" fill="#000" fill-rule="evenodd"/></svg>