<svg width="24" height="24" xmlns="http://www.w3.org/2000/svg"><path d="M15.5 8.5V21a3.003 3.003 0 01-2.824 2.995L12.5 24H3a3.003 3.003 0 01-2.995-2.824L0 21V8.5h15.5zm8.5 4a3.003 3.003 0 01-2.824 2.995L21 15.5V14c.776 0 1.42-.598 1.493-1.356l.007-.144H24zM19.5 14v1.5H17V14h2.5zM24 8.5V11h-1.5V8.5H24zm-14-4V7H8.5V4.5H10zm14 0V7h-1.5V4.5H24zM11.5 0v1.5c-.776 0-1.42.598-1.493 1.356L10 3H8.5A3.003 3.003 0 0111.324.005L11.5 0zM21 0a3.003 3.003 0 012.995 2.824L24 3h-1.5c0-.776-.598-1.42-1.356-1.493L21 1.5V0zm-1.5 0v1.5H17V0h2.5zm-4 0v1.5H13V0h2.5z" fill="#000" fill-rule="evenodd"/></svg>