<svg width="24" height="24" xmlns="http://www.w3.org/2000/svg"><path d="M17.539 10.507c.27 0 .523.15.65.394l.043.096 1.418 3.756.116-.016.324-.02-.492-2.237a.915.915 0 01-.027-.282c.013-.273.162-.505.429-.596l.04-.022a.598.598 0 01.147-.019c.273 0 .457.223.557.513l.075.229.55 1.617.447 1.352.363 1.115c.816 2.531.15 4.69-2.311 5.726a4.225 4.225 0 01-1.663.352c-1.148 0-2.15-.502-3.08-1.074l-.459-.29-.85-.549-.507-.34-1.088-.765c-.263-.187-.424-.6-.218-.96.123-.217.37-.32.622-.32.122 0 .245.024.355.072l.222.1.45.21.986.476.144.065c.052.024.11.034.169.034.328 0 .684-.35.304-.971l-.08-.12-2.867-4.329a.735.735 0 011.163-.892l.066.086 2.427 3.36.27-.162.132-.075-2.161-4.236a.735.735 0 011.243-.775l.055.088 2.258 4.233.389-.142-1.303-3.702a.734.734 0 01.692-.98zM13.499 3v1.5H20v5.574a2.061 2.061 0 00-.495.104 2.24 2.24 0 00-2.71-1.042 2.233 2.233 0 00-.73.427 2.235 2.235 0 00-3.414 1.52 2.238 2.238 0 00-1.596 3.446l1.42 2.143c-.757.046-1.413.44-1.774 1.071A2.245 2.245 0 0010.74 20H7.5a3 3 0 01-3-3v-3.5H3V12h1.5V4.5H12V3h1.5zm-12 9v1.5H0V12h1.5zm0-3v1.5H0V9h1.5zm0-3v1.5H0V6h1.5zm0-3v1.5H0V3h1.5zm6-3v1.5H6V0h1.5zm-6 0v1.5H0V0h1.5zm3 0v1.5H3V0h1.5zm6 0v1.5H9V0h1.5zm3 0v1.5H12V0h1.5z" fill="#000" fill-rule="evenodd"/></svg>