<svg width="24" height="24" xmlns="http://www.w3.org/2000/svg"><path d="M15.5 8.5V21a3 3 0 01-2.824 2.995L12.5 24H3a3 3 0 01-2.995-2.824L0 21V8.5h15.5zM5.27 11.66v6.385l1.415-1.73.895 2.125.92-.39-.905-2.12 2.225.19-4.55-4.46zM19.5 14v1.5H17V14h2.5zm4.5-1.5a3 3 0 01-2.824 2.995L21 15.5V14a1.5 1.5 0 001.493-1.356l.007-.144H24zm0-4V11h-1.5V8.5H24zm0-4V7h-1.5V4.5H24zm-14 0V7H8.5V4.5H10zM21 0a3 3 0 012.995 2.824L24 3h-1.5a1.5 1.5 0 00-1.356-1.493L21 1.5V0zm-9.5 0v1.5a1.5 1.5 0 00-1.493 1.356L10 3H8.5A3 3 0 0111.324.005L11.5 0zm4 0v1.5H13V0h2.5zm4 0v1.5H17V0h2.5z" fill-rule="evenodd"/></svg>