<svg width="24" height="24" xmlns="http://www.w3.org/2000/svg"><path d="M20 6.144V3.5h-3.096l-2.38-2.034a3.869 3.869 0 00-5.048 0L7.096 3.5H4v2.644L.5 9.134V20.5c0 1.654 1.345 3 3 3h17c1.654 0 3-1.346 3-3V9.134L20 6.144zM5.5 5h13v6.799L12 15.393l-6.5-3.595V5zM22 20.5c0 .827-.673 1.5-1.5 1.5h-17c-.827 0-1.5-.673-1.5-1.5v-8.923l10 5.53 10-5.53V20.5zM9 9h6a.75.75 0 100-1.5H9A.75.75 0 109 9zm6.75 2.25a.75.75 0 00-.75-.75H9A.75.75 0 109 12h6a.75.75 0 00.75-.75z" fill="#000" fill-rule="evenodd"/></svg>