<svg width="24" height="24" xmlns="http://www.w3.org/2000/svg"><path d="M.504 10.754l11.502 6.369 11.498-6.365v9.764a3.003 3.003 0 01-2.824 2.994l-.176.006h-17a3.003 3.003 0 01-2.995-2.824l-.005-.176v-9.768zm14.5-.232a.75.75 0 01.102 1.493l-.102.007h-6a.75.75 0 01-.102-1.494l.102-.006h6zM9.48 1.488a3.867 3.867 0 014.876-.139l.172.14 1.533 1.309 4.704.002v4.016l2.66 2.272-4.16 2.302V4.3L4.752 4.294v7.098L.586 9.085l2.666-2.277V2.793l4.699.002L9.48 1.488zm5.524 6.034a.75.75 0 01.102 1.493l-.102.007h-6a.75.75 0 01-.102-1.494l.102-.006h6z" fill="#000" fill-rule="evenodd"/></svg>