<svg width="24" height="24" xmlns="http://www.w3.org/2000/svg"><path d="M12 21.477c-3.308 0-6-2.691-6-6 0-3.31 2.692-6 6-6 3.31 0 6 2.69 6 6 0 3.309-2.69 6-6 6M13 7.04v-.934l.163.162c.244.245.564.367.884.367a1.25 1.25 0 00.884-2.134L13.769 3.34l1.202-1.202A1.25 1.25 0 1013.203.372L12 1.572 10.8.373a1.249 1.249 0 10-1.768 1.767l1.202 1.202L9.072 4.5A1.25 1.25 0 1010.84 6.27l.16-.161v.933c-4.216.497-7.5 4.088-7.5 8.436 0 4.687 3.814 8.5 8.5 8.5 4.688 0 8.5-3.813 8.5-8.5 0-4.348-3.282-7.94-7.5-8.436" fill="#000" fill-rule="evenodd"/></svg>