<svg height="24" width="24" xmlns="http://www.w3.org/2000/svg"><path d="m21.5 9.5c1.1 0 2 .9 2 2v10c0 1.1-.9 2-2 2h-4.5c-1.1 0-2-.9-2-2v-10c0-1.1.9-2 2-2zm-3.5 1.5h-1c-.3 0-.5.2-.5.5v10c0 .3.2.5.5.5h4.5c.3 0 .5-.2.5-.5v-10c0-.3-.2-.5-.5-.5h-1v1h-2.5zm1.25 9a.75.75 0 1 1 0 1.5.75.75 0 0 1 0-1.5zm3.25-19.5v7.65c-.3-.1-.65-.15-1-.15h-.5v-6h-19v11c0 .85.65 1.5 1.5 1.5h10v4h-8.5v-1.5h2.498c.278-.003.884-.059 1.402-1h-5.4c-1.65 0-3-1.35-3-3v-12.5zm-13.5 4.15 5.5 3.6-5.5 3.6z" fill="#262626" fill-rule="evenodd"/></svg>