<svg width="24" height="24" xmlns="http://www.w3.org/2000/svg"><path d="M21.5 9.5c1.05 0 1.918.82 1.994 1.851l.006.149v10c0 1.05-.82 1.918-1.851 1.994l-.149.006H17c-1.05 0-1.918-.82-1.994-1.851L15 21.5v-10c0-1.05.82-1.918 1.851-1.994L17 9.5h4.5zM18 11h-1c-.267 0-.454.158-.493.404l-.007.096v10c0 .267.158.454.404.493L17 22h4.5c.267 0 .454-.158.493-.404L22 21.5v-10c0-.267-.158-.454-.404-.493L21.5 11h-1v1H18v-1zm1.25 9a.75.75 0 110 1.5.75.75 0 010-1.5zM22.5.5v7.65a3.092 3.092 0 00-.79-.144L21.5 8H21V2H2v11c0 .8.576 1.423 1.352 1.493l.148.007h10v4H5V17h2.498c.262-.003.814-.052 1.31-.843L8.9 16H3.5a3.01 3.01 0 01-2.995-2.824L.5 13V.5h22zM9 4.65l5.5 3.6-5.5 3.6v-7.2z" fill="#000" fill-rule="evenodd"/></svg>