<svg width="24" height="24" xmlns="http://www.w3.org/2000/svg"><path d="M21.5 9.5a2 2 0 011.995 1.85l.005.15v10a2 2 0 01-1.85 1.995l-.15.005H17a2 2 0 01-1.995-1.85L15 21.5v-10a2 2 0 011.85-1.995L17 9.5h4.5zM18.09 11H17a.5.5 0 00-.492.41l-.008.09v10a.5.5 0 00.41.492L17 22h4.5a.5.5 0 00.492-.41L22 21.5v-10a.5.5 0 00-.41-.492L21.5 11h-1.09v1.035h-2.32V11zm1.16 9a.75.75 0 110 1.5.75.75 0 010-1.5zM14 17v1.5H5V17h9zM22.5.5v8.22a3 3 0 00-.796-.167l-.204-.008H17a3 3 0 00-2.995 2.824l-.005.176V16H3.5a3 3 0 01-2.995-2.824L.5 13V.5h22zM10 5.96v4.58l3.5-2.29L10 5.96z" fill-rule="evenodd"/></svg>