<svg height="24" width="24" xmlns="http://www.w3.org/2000/svg"><path d="m5.9 3.5 3.4 5.95-1.7 1.7c-.25.25-.3.7-.05 1 .45.55 1.15 1.4 2.05 2.3s1.75 1.6 2.3 2.05c.3.25.75.2 1-.05l1.6-1.65 5.95 3.35c-.1 1.15-.35 3.5-2.25 4.7-.8.5-1.7.65-2.5.65-1 0-1.9-.3-2.25-.4-2.3-.8-4.95-2.6-7.45-5.1-2.45-2.5-4.25-5.15-5.1-7.5-.2-.65-.85-2.9.3-4.75 1.25-1.9 3.6-2.15 4.7-2.25zm-.75 1.6c-1.25.2-2.15.7-2.6 1.45-.8 1.25-.3 2.95-.15 3.45.7 2.15 2.4 4.6 4.7 6.9 2.35 2.35 4.8 4.05 6.9 4.75.45.15 2.2.65 3.45-.15.75-.45 1.25-1.35 1.45-2.6l-4.05-2.3-.9.9c-.8.8-2.1.85-3 .15-.6-.45-1.5-1.2-2.45-2.15l-.242-.258a52.645 52.645 0 0 1 -1.908-2.192c-.75-.9-.65-2.2.15-3l.95-.9zm16.25-3.55c.3-.3.75-.3 1.05 0s.3.8 0 1.05l-5.7 5.65 2.2 2.2-6.9 1.45 1.45-6.9 2.2 2.2z" fill="#262626" fill-rule="evenodd"/></svg>