<svg width="24" height="24" xmlns="http://www.w3.org/2000/svg"><path d="M5.5 4.31l2.805 5.045-1.28 1.28a1.5 1.5 0 00-.105 2 29.66 29.66 0 001.672 1.91l.443.455.458.442c.616.583 1.258 1.14 1.922 1.668a1.5 1.5 0 001.888-.008l.112-.102 1.305-1.275 5 2.805c-.397 3.454-2.373 4.214-4.03 4.203l-.265-.009-.258-.02-.249-.03-.237-.038-.225-.044-.31-.074-.27-.077-.156-.051c-2.294-.784-4.71-2.51-6.837-4.576l-.333-.329-.329-.334c-2.065-2.13-3.792-4.542-4.576-6.841l-.077-.243-.051-.187-.05-.204-.047-.219-.041-.232-.034-.245a6.196 6.196 0 01-.014-.126l-.02-.259c-.092-1.663.519-3.766 3.915-4.25L5.5 4.31zm16.405-2.966c.2 0 .39.08.53.221a.745.745 0 01.077.97l-.077.09L16.78 8.28l2.19 2.19-6.875 1.435L13.53 5.03l2.19 2.19 5.655-5.655a.745.745 0 01.53-.221z" fill="#000" fill-rule="evenodd"/></svg>