<svg xmlns="http://www.w3.org/2000/svg" width="24" height="24">
    <path fill="#262626" fill-rule="evenodd" d="M5.5 4.31l2.805 5.045-1.28 1.28a1.5 1.5 0 00-.105 2A29.66 29.66 0 009.035 15l.458.442c.616.583 1.258 1.14 1.922 1.668a1.5 1.5 0 002-.11l1.305-1.275 5 2.805c-.59 5.135-4.67 4.315-6 3.86-2.415-.825-4.965-2.695-7.17-4.905l-.329-.334c-2.065-2.13-3.792-4.542-4.576-6.841C1.19 8.965.37 4.885 5.5 4.31zm16.405-2.966c.2 0 .39.08.53.221a.745.745 0 010 1.06L16.78 8.28l2.19 2.19-6.875 1.435L13.53 5.03l2.19 2.19 5.655-5.655a.745.745 0 01.53-.221z"/>
</svg>
