<svg width="24" height="24" xmlns="http://www.w3.org/2000/svg"><path d="M2.85 2.85a.722.722 0 01.965-.074l.085.074L21.15 20.1c.3.3.3.75 0 1.05a.722.722 0 01-.965.074l-.085-.074L2.85 3.9c-.3-.3-.3-.75 0-1.05zm1.35 4.5L5.25 8.4c-1.1 1.05-2.1 2.3-3.05 3.6l.578.778.39.506.397.494C5.766 16.458 8.287 18.5 12 18.5c.919 0 1.76-.115 2.527-.345l.323-.105L16 19.2c-1.2.5-2.5.8-4 .8-4.108 0-6.987-2.283-9.1-4.68l-.364-.425-.35-.423-.334-.421-.476-.62-.726-.981L.3 12l.35-.45.595-.806C1.969 9.776 2.8 8.73 3.774 7.76L4.2 7.35zM12 4c4.108 0 6.987 2.283 9.1 4.68l.364.425.35.423.334.421.476.62.726.981.35.45-.35.45-.595.806c-.724.968-1.555 2.014-2.529 2.983l-.426.411-1.05-1.05c1.1-1.05 2.1-2.3 3.05-3.6l-.578-.778-.39-.506-.397-.494C18.234 7.542 15.713 5.5 12 5.5c-.919 0-1.76.115-2.527.345l-.323.105L8 4.8c1.2-.5 2.5-.8 4-.8zm-4.35 6.85l5.5 5.5c-.35.1-.75.15-1.15.15-2.5 0-4.5-2-4.5-4.5 0-.32.032-.64.096-.934l.054-.216zM12 7.5c2.5 0 4.5 2 4.5 4.5 0 .32-.032.64-.096.934l-.054.216-5.5-5.5c.35-.1.75-.15 1.15-.15z" fill="#000" fill-rule="evenodd"/></svg>