<svg xmlns="http://www.w3.org/2000/svg" width="24" height="24">
    <path fill="#262626" fill-rule="evenodd" d="M2.85 2.85c.3-.3.75-.3 1.05 0L21.15 20.1c.3.3.3.75 0 1.05-.3.3-.75.3-1.05 0L2.85 3.9c-.3-.3-.3-.75 0-1.05zm1.35 4.5L5.25 8.4c-1.1 1.05-2.1 2.3-3.05 3.6 2.55 3.5 5.3 6.5 9.8 6.5 1.05 0 2-.15 2.85-.45L16 19.2c-1.2.5-2.5.8-4 .8-5.8 0-9.15-4.55-11.35-7.55L.3 12l.35-.45c.95-1.3 2.1-2.85 3.55-4.2zM12 4c5.8 0 9.15 4.55 11.35 7.55l.35.45-.35.45c-.95 1.3-2.1 2.85-3.55 4.2l-1.05-1.05c1.1-1.05 2.1-2.3 3.05-3.6-2.55-3.5-5.3-6.5-9.8-6.5-1.05 0-2 .15-2.85.45L8 4.8c1.2-.5 2.5-.8 4-.8zm-4.35 6.85l5.5 5.5c-.35.1-.75.15-1.15.15-2.5 0-4.5-2-4.5-4.5 0-.4.05-.8.15-1.15zM12 7.5c2.5 0 4.5 2 4.5 4.5 0 .4-.05.8-.15 1.15l-5.5-5.5c.35-.1.75-.15 1.15-.15z"/>
</svg>
