<svg width="24" height="24" xmlns="http://www.w3.org/2000/svg"><path d="M3.815 2.776l.085.074L21.15 20.1c.3.3.3.75 0 1.05a.722.722 0 01-.965.074l-.085-.074L2.85 3.9c-.3-.3-.3-.75 0-1.05a.722.722 0 01.965-.074zM4.2 7.35L5.25 8.4l-.018.017 2.423 2.423A4.67 4.67 0 007.5 12a4.5 4.5 0 004.5 4.5 4.67 4.67 0 00.874-.089l.286-.066 2.285 2.28-.015.005.57.57c-1.2.5-2.5.8-4 .8-4.108 0-6.987-2.283-9.1-4.68l-.364-.425-.35-.423-.334-.421-.476-.62-.726-.981L.3 12l.35-.45.595-.806C1.969 9.776 2.8 8.73 3.774 7.76L4.2 7.35zM12 4c4.108 0 6.987 2.283 9.1 4.68l.364.425.35.423.334.421.476.62.726.981.35.45-.35.45-.595.806c-.724.968-1.555 2.014-2.529 2.983l-.426.411-1.05-1.05.018-.017-2.423-2.423c.1-.379.152-.768.155-1.16A4.5 4.5 0 0012 7.5a4.67 4.67 0 00-.874.089l-.286.066-2.285-2.28.015-.005L8 4.8c1.2-.5 2.5-.8 4-.8zm-3 8.19l2.8 2.8a3 3 0 01-2.783-2.621L9 12.19zm3.2-3.18a3 3 0 012.783 2.621l.017.179-2.8-2.8z" fill="#000" fill-rule="evenodd"/></svg>