<svg xmlns="http://www.w3.org/2000/svg" width="24" height="24">
    <path fill="#262626" fill-rule="evenodd" d="M1.988 1.988A.75.75 0 013.03 1.97l17.25 17.25a.745.745 0 010 1.06.75.75 0 01-1.06 0L1.97 3.03a.75.75 0 01.018-1.042zM4.705 7.89l2.95 2.95A4.67 4.67 0 007.5 12a4.5 4.5 0 004.5 4.5 4.67 4.67 0 001.16-.155l2.285 2.28c-1.1.419-2.268.63-3.445.625-5.25 0-8.25-3.875-10.75-7.25a30.11 30.11 0 013.455-4.11zM12 4.75c5.25 0 8.25 3.875 10.75 7.25a30.11 30.11 0 01-3.455 4.11l-2.95-2.95c.1-.379.152-.768.155-1.16A4.5 4.5 0 0012 7.5a4.67 4.67 0 00-1.16.155l-2.285-2.28A9.562 9.562 0 0112 4.75zm-3 7.44l2.8 2.8a3 3 0 01-2.8-2.8zm3.2-3.18a3 3 0 012.8 2.8z"/>
</svg>
