<svg width="24" height="24" xmlns="http://www.w3.org/2000/svg"><path d="M1.988 1.988a.75.75 0 01.949-.092l.093.074 17.25 17.25a.745.745 0 010 1.06.75.75 0 01-.976.073l-.084-.073L1.97 3.03a.75.75 0 01.018-1.042zM4.705 7.89l2.95 2.95A4.67 4.67 0 007.5 12a4.5 4.5 0 004.5 4.5 4.67 4.67 0 00.874-.089l.286-.066 2.285 2.28c-1.1.419-2.268.63-3.445.625-3.617 0-6.166-1.839-8.219-4.087l-.391-.44-.38-.447-.186-.226-.364-.455-.18-.229-.35-.457L1.25 12a30.11 30.11 0 012.984-3.63l.471-.48zM12 4.75c3.617 0 6.166 1.839 8.219 4.087l.391.44.38.447.186.226.364.455.18.229.35.457.68.909a30.11 30.11 0 01-2.984 3.63l-.471.48-2.95-2.95c.1-.379.152-.768.155-1.16A4.5 4.5 0 0012 7.5a4.67 4.67 0 00-.874.089l-.286.066-2.285-2.28A9.565 9.565 0 0112 4.75zm-3 7.44l2.8 2.8a3 3 0 01-2.783-2.621L9 12.19zm3.2-3.18a3 3 0 012.783 2.621l.017.179-2.8-2.8z" fill="#000" fill-rule="evenodd"/></svg>