<svg width="24" height="24" xmlns="http://www.w3.org/2000/svg"><path d="M12 18.5A1.25 1.25 0 1012 20.998 1.25 1.25 0 0012 18.5zm5.5 2c0 .827-.673 1.5-1.5 1.5H8c-.827 0-1.5-.673-1.5-1.5v-17C6.5 2.673 7.173 2 8 2h2v1.5h4V2h2c.827 0 1.5.673 1.5 1.5v17zM16 .5H8a3 3 0 00-3 3v17a3 3 0 003 3h8a3 3 0 003-3v-17a3 3 0 00-3-3zm-3.206 13.835c-.142-.145-.213-.459-.213-.942V7.861c.63.017 1.124.224 1.48.619.337.378.544.957.62 1.737l.4-.069-.075-2.647H8.991l-.074 2.647.4.069c.074-.78.28-1.359.617-1.737.354-.395.845-.602 1.473-.619v5.532c0 .285-.02.498-.059.64-.074.271-.255.437-.54.497a3.62 3.62 0 01-.659.042v.424h3.7v-.424c-.207 0-.354-.003-.439-.01-.289-.029-.495-.104-.616-.227zm.765-1.859h1.537v-1.524h-1.537v1.524zm-4.634 0h1.534v-1.524H8.925v1.524z" fill="#000" fill-rule="evenodd"/></svg>