<svg width="24" height="24" xmlns="http://www.w3.org/2000/svg"><path d="M12 18.5a1.25 1.25 0 110 2.5 1.25 1.25 0 010-2.5zm3.115-11v2.556h-.447v-.075c0-1.146-.609-1.882-1.762-1.95l-.177-.005h-.075v5.414c0 .705.262 1.013.91 1.049l.134.003h.224v.527h-3.879v-.527h.224c.7 0 1.005-.264 1.04-.917l.004-.135V8.026h-.074c-1.208 0-1.874.682-1.935 1.786l-.004.17v.074H8.85V7.5h6.265zm0 3.342v1.67h-1.67v-1.67h1.67zm-4.594 0v1.67H8.85v-1.67h1.67zM17.5 20.5c0 .827-.674 1.5-1.5 1.5H8c-.827 0-1.5-.673-1.5-1.5v-17C6.5 2.673 7.172 2 8 2h2v1.5h4V2h2c.826 0 1.5.673 1.5 1.5v17zM16 .5H8a3 3 0 00-3 3v17a3 3 0 003 3h8a3 3 0 003-3v-17a3 3 0 00-3-3z" fill-rule="evenodd"/></svg>