<svg width="24" height="24" xmlns="http://www.w3.org/2000/svg"><path d="M13.561 12.476h1.535v-1.524h-1.535v1.524zm-4.636 0h1.535v-1.524H8.925v1.524zm4.926 2.52H10.15v-.423c.298 0 .517-.014.659-.043.286-.06.467-.226.541-.497.039-.142.058-.355.058-.641V7.861c-.627.017-1.118.224-1.473.619-.337.378-.542.957-.617 1.737l-.4-.069.075-2.648h6.014l.075 2.648-.4.069c-.075-.78-.282-1.359-.62-1.737-.357-.395-.849-.602-1.479-.619v5.531c0 .484.071.798.213.943.121.122.327.198.616.227.085.007.232.011.439.011v.423zM12.002 21a1.25 1.25 0 110-2.5 1.25 1.25 0 010 2.5zm-2-17.5h4V2h-4v1.5zm6-3h-8a3 3 0 00-3 3v17a3 3 0 003 3h8a3 3 0 003-3v-17a3 3 0 00-3-3z" fill="#000" fill-rule="evenodd"/></svg>