<svg width="24" height="24" xmlns="http://www.w3.org/2000/svg"><path d="M17.235 9.176a5.882 5.882 0 110 11.765 5.882 5.882 0 010-11.765zm-.049 1.883h-.01a.706.706 0 00-.69.62l-.006.096.06 3.993 3.284-.003a.706.706 0 00.095-1.406l-.096-.006-1.893.002-.038-2.6a.706.706 0 00-.706-.696zM21.236 4v4.959a7.27 7.27 0 00-1.412-.722V5.412H2.412v3.764c0 .779.633 1.412 1.412 1.412h7.648a7.294 7.294 0 00-.86 1.412H3.824A2.826 2.826 0 011 9.176V4h20.235zM5 6.824a1.176 1.176 0 110 2.352 1.176 1.176 0 010-2.352zm3.294 0a1.176 1.176 0 110 2.352 1.176 1.176 0 010-2.352zm3.294 0a1.176 1.176 0 110 2.352 1.176 1.176 0 010-2.352z" fill-rule="evenodd"/></svg>