<svg width="24" height="24" xmlns="http://www.w3.org/2000/svg"><path d="M16.706 8.47a5.882 5.882 0 110 11.765 5.882 5.882 0 010-11.764zm-.05 1.883h-.01a.706.706 0 00-.69.62l-.005.096.06 3.994 3.284-.004a.706.706 0 00.095-1.406l-.097-.006-1.892.002-.038-2.6a.706.706 0 00-.706-.696zm4.05-7.059v4.959a7.27 7.27 0 00-1.412-.721V4.706H1.882V8.47c0 .778.634 1.411 1.412 1.411h7.648a7.294 7.294 0 00-.86 1.412H3.294A2.826 2.826 0 01.471 8.471V3.294h20.235zM4.47 6.118a1.176 1.176 0 110 2.353 1.176 1.176 0 010-2.353zm3.294 0a1.176 1.176 0 110 2.353 1.176 1.176 0 010-2.353zm3.294 0a1.176 1.176 0 110 2.353 1.176 1.176 0 010-2.353z" fill="#000" fill-rule="evenodd"/></svg>