<svg width="24" height="24" xmlns="http://www.w3.org/2000/svg"><path d="M18.248 9.5a6.25 6.25 0 110 12.498 6.25 6.25 0 010-12.499zm0 1.5a4.755 4.755 0 00-4.75 4.749c0 2.619 2.131 4.75 4.75 4.75s4.75-2.131 4.75-4.75-2.131-4.75-4.75-4.75zm-.052.5a.75.75 0 01.742.637l.008.101.04 2.763 2.01-.002a.75.75 0 01.105 1.493l-.102.007-3.49.004-.063-4.243a.75.75 0 01.637-.752l.113-.009zM22.498 4v5.272A7.71 7.71 0 0018.248 8a7.74 7.74 0 00-6.912 4.26l-.116.24H4a3.003 3.003 0 01-2.995-2.825L1 9.5V4h21.498zm-10.25 3a1.25 1.25 0 100 2.5 1.25 1.25 0 000-2.5zM8.75 7a1.25 1.25 0 100 2.5 1.25 1.25 0 000-2.5zm-3.5 0a1.25 1.25 0 100 2.5 1.25 1.25 0 000-2.5z" fill-rule="evenodd"/></svg>