<svg width="24" height="24" xmlns="http://www.w3.org/2000/svg"><path d="M17.75 7.5a6.25 6.25 0 11.001 12.497 6.25 6.25 0 010-12.498zm0 1.5a4.755 4.755 0 00-4.749 4.749c0 2.618 2.13 4.75 4.75 4.75 2.618 0 4.75-2.132 4.75-4.75 0-2.62-2.132-4.75-4.75-4.75zm-.051.499a.75.75 0 01.741.638l.009.1.04 2.764L20.5 13a.75.75 0 01.104 1.493l-.102.006-3.49.004-.062-4.242a.75.75 0 01.637-.753l.113-.008zM22 1.999v5.273A7.71 7.71 0 0017.75 6a7.74 7.74 0 00-6.911 4.26l-.116.24h-7.22A3.003 3.003 0 01.507 7.675L.502 7.5V2H22zM11.751 5a1.25 1.25 0 100 2.5 1.25 1.25 0 000-2.5zm-3.5 0a1.25 1.25 0 100 2.5 1.25 1.25 0 000-2.5zM4.753 5a1.25 1.25 0 100 2.5 1.25 1.25 0 000-2.5z" fill="#000" fill-rule="evenodd"/></svg>