<svg height="24" width="24" xmlns="http://www.w3.org/2000/svg"><path d="m10.255 5.985 7.78 7.785-8.13 8.13a5.46 5.46 0 0 1 -3.89 1.61 5.46 5.46 0 0 1 -3.89-1.61 5.507 5.507 0 0 1 0-7.78zm-.005 2.125-7.07 7.07a4.002 4.002 0 0 0 0 5.655 3.974 3.974 0 0 0 2.83 1.17c1.07 0 2.075-.415 2.83-1.17l7.065-7.07zm-2.675 6.9c.39-.39 1.025-.39 1.415 0s.39 1.025 0 1.415-1.025.39-1.415 0a1.002 1.002 0 0 1 0-1.415zm2.44-2.44c.39-.39 1.025-.39 1.415 0s.39 1.025 0 1.415-1.025.39-1.415 0a1.002 1.002 0 0 1 0-1.415zm3.045-8.145a6.54 6.54 0 0 1 6.535 6.535h-1.5a5.042 5.042 0 0 0 -5.035-5.035zm0-3.43c5.49 0 9.96 4.47 9.96 9.96h-1.5c0-4.665-3.795-8.46-8.46-8.46z" fill="#262626" fill-rule="evenodd"/></svg>