<svg width="24" height="24" xmlns="http://www.w3.org/2000/svg"><path d="M10.255 7.045l6.715 6.72-7.6 7.6a4.745 4.745 0 01-6.533.173l-.182-.173-.173-.182a4.745 4.745 0 010-6.35l.173-.183 7.6-7.605zM9 15a1 1 0 10-1.403 1.425A1 1 0 009 15zm2.43-2.43a1 1 0 00-1.405 0 1 1 0 101.498.094l-.083-.094h-.01zM13.06 1c5.39.032 9.768 4.327 9.935 9.682l.005.278h-1.5a8.5 8.5 0 00-8.182-8.454L13.06 2.5V1zm0 3.425a6.54 6.54 0 016.53 6.3l.005.235h-1.5a5.04 5.04 0 00-4.817-5.03l-.218-.005v-1.5z" fill="#000" fill-rule="evenodd"/></svg>