<svg width="24" height="24" xmlns="http://www.w3.org/2000/svg"><path d="M10.255 5.985l7.78 7.785-8.13 8.13a5.46 5.46 0 01-3.89 1.61 5.46 5.46 0 01-3.89-1.61 5.508 5.508 0 01-.174-7.598l.174-.182 8.13-8.135zm-2.68 9.025c.39-.39 1.025-.39 1.415 0 .39.39.39 1.025 0 1.415-.39.39-1.025.39-1.415 0a1.002 1.002 0 010-1.415zm2.44-2.44c.39-.39 1.025-.39 1.415 0 .39.39.39 1.025 0 1.415-.39.39-1.025.39-1.415 0a1.002 1.002 0 010-1.415zm3.045-8.145a6.54 6.54 0 016.53 6.3l.005.235h-1.5a5.043 5.043 0 00-4.817-5.03l-.218-.005v-1.5zm0-3.43c5.397 0 9.808 4.32 9.956 9.682l.004.278h-1.5c0-4.58-3.658-8.322-8.206-8.456l-.254-.004v-1.5z" fill-rule="evenodd"/></svg>