<svg xmlns="http://www.w3.org/2000/svg" width="24" height="24">
    <path fill="#262626" fill-rule="evenodd" d="M17.75 11.5c3.45 0 6.25 2.8 6.25 6.25S21.2 24 17.75 24s-6.25-2.8-6.25-6.25 2.8-6.25 6.25-6.25zM19 0v10.1c-.4-.05-.8-.1-1.25-.1h-.25V1.5H8.1L2.5 7.1V19c0 .85.65 1.5 1.5 1.5h6.5c.2.55.45 1.05.75 1.5H4c-1.65 0-3-1.35-3-3V6.5L7.5 0H19zm1.85 15.55c-.3-.3-.75-.3-1.05 0l-2.8 2.8-1.4-1.4c-.3-.3-.75-.3-1.05 0-.3.3-.3.75 0 1.05L17 20.5l3.9-3.9c.3-.3.25-.75-.05-1.05zM12.5 8c1.4 0 2.5 1.1 2.5 2.5l-.324.126a6.842 6.842 0 00-1.176.624v-.75c0-.55-.45-1-1-1h-5c-.55 0-1 .45-1 1v5c0 .55.45 1 1 1h2.6c-.05.4-.1.8-.1 1.25V18H7.5C6.1 18 5 16.9 5 15.5v-5C5 9.1 6.1 8 7.5 8z"/>
</svg>
