<svg width="24" height="24" xmlns="http://www.w3.org/2000/svg"><path d="M17.75 11.5c3.45 0 6.25 2.8 6.25 6.25S21.2 24 17.75 24s-6.25-2.8-6.25-6.25 2.8-6.25 6.25-6.25zM19 0v10.1c-.3-.037-.6-.075-.921-.091L17.75 10h-.25V1.5H8.1L2.5 7.1V19c0 .8.576 1.423 1.352 1.493L4 20.5h6.5c.16.44.352.848.576 1.224l.174.276H4a3.01 3.01 0 01-2.995-2.824L1 19V6.5L7.5 0H19zm1.85 15.55a.722.722 0 00-.965-.074l-.085.074-2.8 2.8-1.4-1.4c-.3-.3-.75-.3-1.05 0a.722.722 0 00-.074.965l.074.085L17 20.5l3.9-3.9c.3-.3.25-.75-.05-1.05zM12.5 8a2.473 2.473 0 012.495 2.333L15 10.5l-.324.126a6.996 6.996 0 00-.9.45l-.276.174v-.75c0-.51-.388-.935-.884-.993L12.5 9.5h-5c-.51 0-.935.388-.993.884L6.5 10.5v5c0 .51.388.935.884.993l.116.007h2.6c-.037.3-.075.6-.091.921L10 17.75V18H7.5a2.473 2.473 0 01-2.495-2.333L5 15.5v-5a2.473 2.473 0 012.333-2.495L7.5 8h5z" fill-rule="evenodd"/></svg>