<svg width="24" height="24" xmlns="http://www.w3.org/2000/svg"><path d="M17.5 11a6.5 6.5 0 110 13 6.5 6.5 0 010-13zm0 1.5a5 5 0 100 10 5 5 0 000-10zM19 0v9.645a8.205 8.205 0 00-1.5-.145 7.94 7.94 0 00-2.57.43 2.5 2.5 0 00-2.257-1.924L12.5 8h-5a2.5 2.5 0 00-2.495 2.336L5 10.5v5a2.5 2.5 0 002.336 2.495L7.5 18h2.025a7.96 7.96 0 001.18 3.723l.18.277H4a3 3 0 01-2.995-2.824L1 19V6.5L7.5 0H19zm.655 15.215a.751.751 0 011.138.976l-.073.084-4 4-2.55-2.545a.751.751 0 01.98-1.133l.085.073 1.5 1.5 2.95-2.95-.03-.005zM12.5 9.5a1 1 0 01.993.883l.007.117v.08a8 8 0 00-3.889 5.635l-.041.285H7.5a1 1 0 01-.993-.883L6.5 15.5v-5a1 1 0 01.883-.993L7.5 9.5h5z" fill="#000" fill-rule="evenodd"/></svg>