<svg xmlns="http://www.w3.org/2000/svg" width="24" height="24">
    <path fill="#262626" fill-rule="evenodd" d="M17.5 11a6.5 6.5 0 110 13 6.5 6.5 0 010-13zm0 1.5a5 5 0 100 10 5 5 0 000-10zM19 0v9.645a8.205 8.205 0 00-1.5-.145 7.94 7.94 0 00-2.57.43A2.5 2.5 0 0012.5 8h-5A2.5 2.5 0 005 10.5v5A2.5 2.5 0 007.5 18h2.025a7.96 7.96 0 001.36 4H4a3 3 0 01-3-3V6.5L7.5 0H19zm.655 15.215a.751.751 0 011.065 1.06l-4 4-2.55-2.545a.751.751 0 011.065-1.06l1.5 1.5 2.95-2.95zM12.5 9.5a1 1 0 011 1v.08a8 8 0 00-3.93 5.92H7.5a1 1 0 01-1-1v-5a1 1 0 011-1z"/>
</svg>
