<svg width="24" height="24" xmlns="http://www.w3.org/2000/svg"><path d="M12 9.125l3.275 5H12.73v7.625a.75.75 0 01-1.493.102l-.007-.102v-7.625h-2.5l3.27-5zM21 3.5V16a3 3 0 01-2.698 2.987l-.177.013H14.25v-3.375h1.035a1.5 1.5 0 001.337-2.178l-.082-.142-3.275-5a1.5 1.5 0 00-2.411-.12l-.089.12-3.275 5a1.5 1.5 0 001.11 2.313l.15.007h1V19H6a3 3 0 01-2.995-2.824L3 16V3.5h18zM5 4.375a.625.625 0 100 1.25.625.625 0 000-1.25zm2 0a.625.625 0 100 1.25.625.625 0 000-1.25zm2 0a.625.625 0 100 1.25.625.625 0 000-1.25z" fill="#000" fill-rule="evenodd"/></svg>