<svg width="24" height="24" xmlns="http://www.w3.org/2000/svg"><path d="M12 4.75c3.85 0 6.503 2.084 8.62 4.526l.38.448.368.453.359.457.52.686.503.68-.503.68-.345.458-.353.457-.363.455-.186.226-.38.448c-2.117 2.442-4.77 4.526-8.62 4.526-3.617 0-6.166-1.839-8.219-4.087l-.391-.44-.38-.447-.186-.226-.364-.455a42.13 42.13 0 01-.18-.229l-.35-.457L1.25 12l.503-.68.345-.458.353-.457.363-.455L3 9.724l.38-.448C5.496 6.834 8.15 4.75 12 4.75zM12 7a5 5 0 100 10 5 5 0 000-10zm0 1.5a3.5 3.5 0 110 7 3.5 3.5 0 010-7z" fill="#000" fill-rule="evenodd"/></svg>