<svg width="24" height="24" xmlns="http://www.w3.org/2000/svg"><path d="M12 4c4.108 0 6.987 2.283 9.1 4.68l.364.425.35.423.334.421.476.62.726.981.35.45-.35.45-.726.981-.314.411-.327.419-.342.422c-.059.07-.117.142-.177.212l-.365.424C18.987 17.717 16.11 20 12 20c-4.108 0-6.987-2.283-9.1-4.68l-.364-.425-.35-.423-.334-.421-.476-.62-.726-.981L.3 12l.35-.45.726-.981.314-.411.327-.419.342-.422c.059-.07.117-.142.177-.212L2.9 8.68C5.013 6.283 7.89 4 12 4zm0 3c2.75 0 5 2.25 5 5s-2.25 5-5 5-5-2.25-5-5 2.25-5 5-5zm0 1.5c-1.95 0-3.5 1.55-3.5 3.5s1.55 3.5 3.5 3.5 3.5-1.55 3.5-3.5-1.55-3.5-3.5-3.5z" fill-rule="evenodd"/></svg>