<svg xmlns="http://www.w3.org/2000/svg" width="24" height="24">
    <path fill="#262626" fill-rule="evenodd" d="M22.08 7.35l-5.305-5.305a2.242 2.242 0 00-3.18 0c-.88.88-.88 2.305 0 3.18l.175.175-4.205 4.205a6.988 6.988 0 00-1.815-.24c-1.79 0-3.575.68-4.94 2.045l-.355.355 4.42 4.42L1.04 22.02a.745.745 0 000 1.06c.145.145.34.22.53.22s.385-.075.53-.22l5.835-5.83 4.42 4.42.355-.355a6.984 6.984 0 001.805-6.755l4.205-4.205.175.175a2.242 2.242 0 003.18 0 2.24 2.24 0 00.005-3.18zm-9.235 6.76l.225.835a5.535 5.535 0 01-.775 4.535l-7.65-7.65a5.446 5.446 0 013.11-.96c.485 0 .965.065 1.43.185l.835.225 4.815-4.815 2.83 2.83-4.82 4.815zm8.175-4.64a.752.752 0 01-1.06 0l-5.305-5.305a.754.754 0 010-1.06.752.752 0 011.06 0L21.02 8.41a.752.752 0 010 1.06z"/>
</svg>
