<svg width="24" height="24" xmlns="http://www.w3.org/2000/svg"><path d="M11.957 17.134a.177.177 0 01.294.105l-.001.053-.599 3.828a1.534 1.534 0 01-1.752 1.278c-1.225-.19-1.712-1.666-.896-2.55l.097-.095 2.857-2.619zm-1.563-5.199c.11-.1.277-.028.294.105v.053l-.663 4.233a1.676 1.676 0 01-1.916 1.397c-1.341-.21-1.874-1.827-.976-2.793l.102-.1 3.159-2.895zm6.167-1.63c.11-.1.277-.028.295.105l-.001.053-.77 4.919a1.92 1.92 0 01-2.194 1.6c-1.539-.24-2.148-2.1-1.11-3.205l.11-.108 3.67-3.364zm-3.05-9.74a7.596 7.596 0 017.15 5.019 5.805 5.805 0 013.089 5.127c0 3.118-2.46 5.668-5.53 5.785L18 16.5h-.695c.093-.207.167-.426.218-.655l.044-.232.096-.613H18c2.343 0 4.25-1.924 4.25-4.289A4.3 4.3 0 0019.936 6.9l-.195-.096-.303-.138-.101-.317c-.816-2.562-3.157-4.284-5.825-4.284A6.07 6.07 0 009.624 3.48l-.216.188-.328.302-.422-.146a3.178 3.178 0 00-1.036-.176A3.214 3.214 0 004.747 5.44c-.313.631-.345 1.15-.33 1.634l.025.476-.466.209a3.791 3.791 0 00-2.226 3.456c0 2.046 1.619 3.714 3.631 3.777a3.14 3.14 0 00-.16 1.492C2.456 16.34.25 14.035.25 11.215a5.299 5.299 0 012.667-4.598c.14-2.489 2.197-4.471 4.705-4.471.369 0 .736.045 1.1.134a7.558 7.558 0 014.79-1.715z" fill-rule="evenodd"/></svg>