<svg width="24" height="24" xmlns="http://www.w3.org/2000/svg"><path d="M11.959 17.134a.177.177 0 01.294.105l-.001.053-.599 3.828A1.534 1.534 0 019.9 22.398c-1.224-.19-1.711-1.666-.895-2.55l.096-.095 2.857-2.619zm-1.563-5.199c.11-.1.277-.028.294.105v.053l-.662 4.233a1.676 1.676 0 01-1.917 1.397c-1.341-.21-1.874-1.827-.976-2.793l.102-.1 3.159-2.895zm6.168-1.63a.177.177 0 01.294.105l-.001.053-.77 4.919a1.92 1.92 0 01-2.194 1.6c-1.539-.24-2.148-2.1-1.11-3.205l.11-.108 3.67-3.364zm-3.05-9.74a7.596 7.596 0 017.149 5.019 5.805 5.805 0 013.089 5.127c0 3.118-2.46 5.668-5.53 5.785l-.22.004-.928-.001a3.41 3.41 0 00.25-.675l.048-.241.77-4.92a1.475 1.475 0 00-2.336-1.416l-.122.1-3.67 3.364-.124.12.084-.537a1.478 1.478 0 00-2.334-1.418l-.121.1-3.16 2.895a2.948 2.948 0 00-.958 2.421l.022.193h-.2c-2.765-.146-4.971-2.45-4.971-5.27a5.299 5.299 0 012.667-4.598c.14-2.489 2.196-4.471 4.704-4.471.37 0 .737.045 1.1.134a7.558 7.558 0 014.79-1.715z" fill-rule="evenodd"/></svg>