<svg width="24" height="24" xmlns="http://www.w3.org/2000/svg"><path d="M17 11c3.6 0 6.5 2.9 6.5 6.5S20.6 24 17 24s-6.5-2.9-6.5-6.5S13.4 11 17 11zm0 3.25a.772.772 0 00-.743.651L16.25 15v1.75H14.5c-.4 0-.75.35-.75.75 0 .367.294.691.651.743l.099.007h1.75V20c0 .4.35.75.75.75a.772.772 0 00.743-.651L17.75 20v-1.75h1.75c.4 0 .75-.35.75-.75a.772.772 0 00-.651-.743l-.099-.007h-1.75V15c0-.4-.35-.75-.75-.75zM17.5 2a3.01 3.01 0 012.995 2.824L20.5 5v5.3c-.4-.2-.8-.336-1.2-.46l-.3-.09V8.5H2v4c0 .8.576 1.423 1.352 1.493L3.5 14h6.3c-.2.4-.336.8-.46 1.2l-.09.3H3.5a3.01 3.01 0 01-2.995-2.824L.5 12.5V5a3.01 3.01 0 012.824-2.995L3.5 2h14zm0 1.5h-14c-.8 0-1.423.576-1.493 1.352L2 5v1h17V5c0-.8-.576-1.423-1.352-1.493L17.5 3.5z" fill="#000" fill-rule="evenodd"/></svg>