<svg width="24" height="24" xmlns="http://www.w3.org/2000/svg"><path d="M17.5 10c3.6 0 6.5 2.9 6.5 6.5S21.1 23 17.5 23 11 20.1 11 16.5s2.9-6.5 6.5-6.5zm0 3.25a.772.772 0 00-.743.651L16.75 14v1.75H15c-.4 0-.75.35-.75.75 0 .367.294.691.651.743l.099.007h1.75V19c0 .4.35.75.75.75a.772.772 0 00.743-.651L18.25 19v-1.75H20c.4 0 .75-.35.75-.75a.772.772 0 00-.651-.743L20 15.75h-1.75V14c0-.4-.35-.75-.75-.75zM18 1a3.01 3.01 0 012.995 2.824L21 4v5.3c-.4-.2-.8-.336-1.2-.46l-.3-.09V7.5h-17v4c0 .8.576 1.423 1.352 1.493L4 13h6.3c-.2.4-.336.8-.46 1.2l-.09.3H4a3.01 3.01 0 01-2.995-2.824L1 11.5V4a3.01 3.01 0 012.824-2.995L4 1h14zm0 1.5H4c-.8 0-1.423.576-1.493 1.352L2.5 4v1h17V4c0-.8-.576-1.423-1.352-1.493L18 2.5z" fill="#000" fill-rule="evenodd"/></svg>