<svg height="24" width="24" xmlns="http://www.w3.org/2000/svg"><path d="m17 11c3.6 0 6.5 2.9 6.5 6.5s-2.9 6.5-6.5 6.5-6.5-2.9-6.5-6.5 2.9-6.5 6.5-6.5zm0 3.25c-.4 0-.75.35-.75.75v1.75h-1.75c-.4 0-.75.35-.75.75s.35.75.75.75h1.75v1.75c0 .4.35.75.75.75s.75-.35.75-.75v-1.75h1.75c.4 0 .75-.35.75-.75s-.35-.75-.75-.75h-1.75v-1.75c0-.4-.35-.75-.75-.75zm.5-12.25c1.65 0 3 1.35 3 3v5.3c-.5-.25-1-.4-1.5-.55v-1.25h-17v4c0 .85.65 1.5 1.5 1.5h6.3c-.25.5-.4 1-.55 1.5h-5.75c-1.65 0-3-1.35-3-3v-7.5c0-1.65 1.35-3 3-3zm0 1.5h-14c-.85 0-1.5.65-1.5 1.5v1h17v-1c0-.85-.65-1.5-1.5-1.5z" fill="#262626" fill-rule="evenodd"/></svg>