<svg width="24" height="24" xmlns="http://www.w3.org/2000/svg"><path d="M17.5 10a6.5 6.5 0 110 13 6.5 6.5 0 010-13zm0 1.5a5 5 0 100 10 5 5 0 000-10zm0 1.75a.75.75 0 01.743.648l.007.102v1.75H20a.75.75 0 01.102 1.493L20 17.25h-1.75V19a.75.75 0 01-1.493.102L16.75 19v-1.75H15a.75.75 0 01-.102-1.493L15 15.75h1.75V14a.75.75 0 01.75-.75zM21 7.5v1.815a8 8 0 00-3.5-.815 8 8 0 00-7.671 5.75l-.069.25H4a3 3 0 01-2.995-2.824L1 11.5v-4h20zM18 1a3 3 0 012.995 2.824L21 4v1H1V4a3 3 0 012.824-2.995L4 1h14z" fill-rule="evenodd"/></svg>