<svg width="24" height="24" xmlns="http://www.w3.org/2000/svg"><path d="M10.803 19.303l1.992 1.993-2.737.743.745-2.736zm10.815-10.26a1.444 1.444 0 011.12 2.355l-.1.11-8.935 8.93-2.041-2.043 8.936-8.93c.28-.281.65-.422 1.02-.422zM19 3v5.942l-1.5 1.499V7.15l-5.81 4.963a3.366 3.366 0 01-2.19.814c-.7 0-1.399-.22-1.995-.66l-.194-.154L1.5 7.152v7.377c0 .498.378.908.865.964l.114.007h9.958L10.936 17H2.479A2.476 2.476 0 01.005 14.69L0 14.53V2.999h19zm-1.5 1.5h-16v.679l6.785 5.795c.66.563 1.6.6 2.295.106l.136-.106L17.5 5.179v-.68z" fill="#000" fill-rule="evenodd"/></svg>