<svg width="24" height="24" xmlns="http://www.w3.org/2000/svg"><path d="M23 3.5V16a3 3 0 01-2.824 2.995L20 19h-5.441l.113.21a1.5 1.5 0 001.172.783l.149.007H18.5v1.5h-13V20h2.507a1.5 1.5 0 001.244-.662l.077-.129.113-.209H4a3 3 0 01-2.995-2.824L1 16V3.5h22zM21.5 5h-19v11c0 .778.596 1.42 1.356 1.493L4 17.5h16c.778 0 1.42-.596 1.493-1.356L21.5 16V5zm-9.577 2.654v3.923h3.923a3.923 3.923 0 11-4.125-3.918l.202-.005zM13 6.577a3.91 3.91 0 012.774 1.149 3.91 3.91 0 011.142 2.543l.007.231H13V6.577z" fill="#000" fill-rule="evenodd"/></svg>