<svg width="24" height="24" xmlns="http://www.w3.org/2000/svg"><path d="M21 1v17l-5 5H6a3.003 3.003 0 01-2.995-2.824L3 20V1h18zm-1.5 1.5h-15V20c0 .776.598 1.42 1.356 1.493L6 21.5h9v-3c0-.781.593-1.42 1.355-1.493L16.5 17h3V2.5zM8.315 7.05c.94 0 1.6.58 1.6 1.61 0 .973-.589 1.535-1.446 1.595l-.154.005H7.5v1.63h-.98V7.05h1.795zm3.885 0c1.26 0 2.05.845 2.05 2.42 0 1.505-.726 2.348-1.895 2.416l-.155.004h-1.68V7.05h1.68zm5.59-.005v.91h-1.795v1.09h1.73v.91h-1.73v1.935h-.98V7.045h2.775zm-5.665.91h-.63v3.03h.63c.675 0 1.11-.45 1.11-1.515 0-1.002-.385-1.46-.993-1.51l-.117-.005zm-3.875 0h-.755v1.4h.755c.365 0 .65-.245.65-.695 0-.418-.231-.659-.551-.699l-.099-.006z" fill="#000" fill-rule="evenodd"/></svg>