<svg width="24" height="24" xmlns="http://www.w3.org/2000/svg"><path d="M21 17.5L15.5 23v-4a1.5 1.5 0 011.356-1.493L17 17.5h4zM21 1v15.5h-4a2.5 2.5 0 00-2.495 2.336L14.5 19v4H6a3 3 0 01-2.995-2.824L3 20V1h18zM8.545 6.877L8.4 6.88H6.605v4.845h.975v-1.63h.82A1.5 1.5 0 0010 8.5a1.5 1.5 0 00-1.455-1.623zm3.83.003H10.69v4.845h1.685c1.26 0 2.05-.845 2.05-2.42 0-1.51-.726-2.353-1.895-2.42l-.155-.005zm5.625 0h-2.805v4.845h1V9.79h1.73v-.91h-1.73V7.79H18v-.91zm-5.7.91c.7 0 1.11.48 1.11 1.53 0 .988-.385 1.445-.993 1.495l-.117.005h-.63V7.79h.63zm-3.965 0A.635.635 0 019 8.5a.635.635 0 01-.556.681l-.109.004H7.58V7.79h.755z" fill="#000" fill-rule="evenodd"/></svg>