<svg width="24" height="24" xmlns="http://www.w3.org/2000/svg"><path d="M12 1C6.201 1 1.5 5.701 1.5 11.5c0 2.745 1.063 5.236 2.787 7.108l-.583 2.11c-.328 1.189.61 2.222 1.687 2.222.285 0 .58-.073.863-.234l2.292-1.3C9.63 21.786 10.788 22 12 22c5.799 0 10.5-4.701 10.5-10.5S17.799 1 12 1zm0 19.5c-.994 0-1.99-.172-2.96-.51l-.642-.223-2.884 1.635a.249.249 0 01-.244.003.244.244 0 01-.12-.287l.805-2.914-.565-.613A8.971 8.971 0 013 11.5c0-4.963 4.037-9 9-9 4.962 0 9 4.037 9 9 0 4.962-4.038 9-9 9zm.101-13.982c-1.955 0-2.896 1.387-2.98 2.798h1.812c.09-.737.512-1.158 1.168-1.158.69 0 1.119.435 1.119 1.135 0 .624-.46.997-.947 1.392-.591.481-1.203.978-1.203 2.005v.604h1.747v-.333c0-.622.454-1.029.935-1.461.598-.537 1.275-1.144 1.275-2.313 0-1.546-1.23-2.67-2.926-2.67zM12 14.498a1.25 1.25 0 100 2.5 1.25 1.25 0 000-2.5z" fill="#000" fill-rule="evenodd"/></svg>