<svg width="24" height="24" xmlns="http://www.w3.org/2000/svg"><path d="M12.002 1c5.798 0 10.5 4.701 10.5 10.5S17.8 22 12.002 22c-1.078 0-2.113-.17-3.09-.474l-.365-.12-2.292 1.3a1.74 1.74 0 01-.863.234c-1.034 0-1.94-.952-1.72-2.08l.033-.142.583-2.11A10.452 10.452 0 011.502 11.5c0-5.799 4.701-10.5 10.5-10.5zm0 13.498a1.25 1.25 0 100 2.5 1.25 1.25 0 000-2.5zm.1-7.98c-1.882 0-2.824 1.286-2.967 2.642l-.013.156h1.813c.09-.737.511-1.158 1.167-1.158.69 0 1.12.435 1.12 1.135 0 .52-.32.866-.708 1.195l-.475.391c-.472.398-.902.851-.96 1.627l-.008.184v.604h1.748v-.333c0-.466.255-.812.586-1.138l.23-.215.345-.313c.53-.492 1.048-1.085 1.048-2.108 0-1.546-1.23-2.67-2.926-2.67z" fill-rule="evenodd"/></svg>