<svg height="24" width="24" xmlns="http://www.w3.org/2000/svg"><path d="m12.25 16.5 2.85 2.75 2.75-2.75h1.6c1.95 0 3.65 1.4 3.95 3.35l.1.65h-16.9l.1-.65c.3-1.95 2-3.35 3.95-3.35zm-5.4 0c-.45.45-.8.95-1.1 1.5h-1.25c-.95 0-1.75.65-1.9 1.6l-.15.9h-1.5l.2-1.15c.25-1.65 1.7-2.85 3.35-2.85zm8.2-11.75c2.95 0 5.05 2.15 5.05 5.05 0 2.8-2.05 5.85-5.05 5.85-3.05 0-5.05-3.05-5.05-5.85 0-2.95 2.1-5.05 5.05-5.05zm-7 1.15c.55 0 1.05.1 1.5.25-.25.4-.5.85-.65 1.35-.25-.05-.55-.1-.85-.1-1.7 0-2.85 1.2-2.85 2.85 0 1.7 1.15 3.5 2.85 3.5.5 0 .9-.15 1.3-.4.25.45.5.85.8 1.25-.6.4-1.3.65-2.1.65-2.6 0-4.35-2.6-4.35-5 0-2.5 1.9-4.35 4.35-4.35zm7 .35c-2.1 0-3.55 1.45-3.55 3.55s1.45 4.35 3.55 4.35c2.15 0 3.55-2.25 3.55-4.35s-1.45-3.55-3.55-3.55z" fill="#262626" fill-rule="evenodd"/></svg>