<svg xmlns="http://www.w3.org/2000/svg" width="24" height="24">
    <path fill="#262626" fill-rule="evenodd" d="M8.035 15.25a3.78 3.78 0 002.08-.63 7.29 7.29 0 01-.795-1.265c-.38.255-.827.392-1.285.395-1.695 0-2.835-1.815-2.835-3.5a2.71 2.71 0 012.835-2.83c.284.003.566.043.84.12.167-.48.388-.94.66-1.37a4.58 4.58 0 00-1.5-.25A4.235 4.235 0 003.7 10.235c0 2.42 1.74 5.015 4.335 5.015zm7-.355c2.5 0 4.29-2.5 4.29-5.105a4.15 4.15 0 00-4.29-4.29 4.15 4.15 0 00-4.29 4.29c0 2.595 1.805 5.105 4.29 5.105zm8.345 5.06a4 4 0 00-3.965-3.355H17.7l-2.665 2.665L12.37 16.6h-1.715a4 4 0 00-3.965 3.355l-.09.545h16.87l-.09-.545zM6.955 16.5H4.5a3.395 3.395 0 00-3.355 2.845L.93 20.5h1.5l.15-.89A1.9 1.9 0 014.5 18h1.31a5.445 5.445 0 011.145-1.5z"/>
</svg>
