<svg width="24" height="24" xmlns="http://www.w3.org/2000/svg" xmlns:xlink="http://www.w3.org/1999/xlink"><path d="M7 22.75c-1.55 0-3.05-.6-4.25-1.75a6.005 6.005 0 010-8.5L14.25 1c.3-.3.75-.3 1.05 0 .3.3.3.75 0 1.05L3.8 13.55a4.496 4.496 0 000 6.35 4.496 4.496 0 006.35 0l10.8-10.8c1.05-1.05 1.05-2.8 0-3.9-.5-.5-1.2-.8-1.95-.8s-1.4.3-1.95.8L6.25 16.05c-.15.2-.25.45-.25.7 0 .25.1.5.3.7.4.4 1.05.4 1.4 0l7.95-7.95c.3-.3.75-.3 1.05 0 .3.3.3.75 0 1.05l-7.95 8c-.45.45-1.1.75-1.75.75-.65 0-1.3-.25-1.75-.75-.5-.5-.75-1.1-.75-1.8s.25-1.25.7-1.75L16 4.2a4.255 4.255 0 016 0 4.255 4.255 0 010 6L11.2 21c-1.15 1.2-2.7 1.75-4.2 1.75z"/></svg>