<svg height="24" width="24" xmlns="http://www.w3.org/2000/svg"><path d="m12 .75c.7 0 1.35.45 1.6 1.1l1.5 3.65 3.9.25c.75.05 1.35.5 1.55 1.2s0 1.45-.55 1.9l-3 2.55.95 3.8c.2.7-.05 1.45-.65 1.85s-1.35.4-1.95.05l-2.6-1.6v7.2c0 .4-.35.75-.75.75s-.75-.35-.75-.75v-7.2l-2.6 1.6c-.6.4-1.35.35-1.95-.05-.55-.45-.8-1.15-.65-1.85l.95-3.8-3-2.55c-.55-.5-.8-1.2-.55-1.9s.85-1.15 1.55-1.2l3.9-.25 1.5-3.65c.25-.65.9-1.1 1.6-1.1zm0 1.55h-.1c-.082.004-.158.025-.2.15l-1.85 4.5-4.85.35c-.15 0-.2.1-.2.15s0 .15.1.25l3.7 3.15-1.15 4.7c-.05.1.05.2.1.25s.2.1.3 0l4.15-2.55 4.1 2.55c.15.1.25.05.3 0s.15-.1.05-.25l-1.15-4.7 3.7-3.15c.15-.1.1-.2.1-.25s-.05-.15-.2-.15l-4.85-.35-1.85-4.5c-.05-.15-.15-.15-.25-.15zm8.427 9.404 2.473.804-.463 1.426-2.473-.803zm-16.88-.019.464 1.427-2.473.803-.463-1.426 2.473-.804zm2.443-11.472 1.528 2.104-1.214.881-1.528-2.103zm12.008-.008 1.214.882-1.529 2.103-1.213-.882z" fill="#262626" fill-rule="evenodd"/></svg>