<svg width="24" height="24" xmlns="http://www.w3.org/2000/svg"><path d="M12 1.515a1 1 0 01.873.511l.052.109 1.66 4.045 4.38.32a1 1 0 01.703 1.696l-.093.084-3.355 2.835 1.05 4.265a1 1 0 01-1.382 1.148l-.118-.063-3-1.845v8.095a.75.75 0 01-1.491.113l-.009-.113V14.6l-3 1.845a1 1 0 01-1.523-.953l.023-.132 1.05-4.265L4.465 8.26a1 1 0 01.45-1.744l.12-.016 4.38-.3 1.66-4.065a1 1 0 01.925-.62zm8.443 10.19l2.492.81-.464 1.426-2.491-.81.463-1.426zm-16.885-.003l.464 1.426-2.492.81-.464-1.426 2.492-.81zM18.007.205l1.213.881-1.54 2.12-1.213-.882 1.54-2.12zM5.999.195l1.546 2.122-1.215.885L4.784 1.08 5.999.195z" fill="#000" fill-rule="evenodd"/></svg>