<svg height="24" width="24" xmlns="http://www.w3.org/2000/svg"><path d="m12 1c2.5 0 4.5 2 4.5 4.5v1.5h4.45l.9 12.8c.05.8-.25 1.65-.8 2.25s-1.35.95-2.2.95h-13.7c-.85 0-1.65-.35-2.2-.95s-.85-1.4-.8-2.25l.9-12.8h4.45v-1.5c0-2.5 2-4.5 4.5-4.5zm7.55 7.5h-15.1l-.8 11.35c-.05.45.1.8.4 1.15s.7.5 1.1.5h13.7c.4 0 .8-.2 1.1-.5.25-.3.4-.7.4-1.1zm-11.3 1.25a1 1 0 1 1 0 2 1 1 0 0 1 0-2zm7.5 0a1 1 0 1 1 0 2 1 1 0 0 1 0-2zm-3.75-7.25c-1.65 0-3 1.35-3 3v1.5h6v-1.5c0-1.65-1.35-3-3-3z" fill="#262626" fill-rule="evenodd"/></svg>