<svg width="24" height="24" xmlns="http://www.w3.org/2000/svg"><path d="M12 1a4.48 4.48 0 014.495 4.287l.005.213V7h4.45l.9 12.8c.05.8-.25 1.65-.8 2.25-.504.55-1.218.89-1.989.943L18.85 23H5.15c-.85 0-1.65-.35-2.2-.95a3.049 3.049 0 01-.805-2.039l.005-.211.9-12.8H7.5V5.5C7.5 3 9.5 1 12 1zm7.55 7.5H4.45l-.8 11.35c-.05.45.1.8.4 1.15.262.306.602.46.95.493l.15.007h13.7c.4 0 .8-.2 1.1-.5.214-.257.355-.588.391-.929l.009-.171-.8-11.4zM8.25 9.75a1 1 0 110 2 1 1 0 010-2zm7.5 0a1 1 0 110 2 1 1 0 010-2zM12 2.5a3.01 3.01 0 00-2.995 2.824L9 5.5V7h6V5.5c0-1.65-1.35-3-3-3z" fill-rule="evenodd"/></svg>