<svg width="24" height="24" xmlns="http://www.w3.org/2000/svg"><path d="M22.5 3.5h-21V16a3 3 0 003 3H6v2.275c0 1.055.863 1.753 1.763 1.753.43 0 .868-.159 1.224-.515L12.5 19h7a3 3 0 003-3V3.5zM21 5v11c0 .827-.673 1.5-1.5 1.5h-7.621l-3.952 3.952c-.054.054-.103.076-.164.076-.003 0-.263-.007-.263-.253V17.5h-3c-.827 0-1.5-.673-1.5-1.5V5h18zm-5.734 7.083h1.005c.09.42.367.585.742.585.428 0 .645-.239.645-.563 0-.33-.21-.487-.6-.591l-.577-.165c-.795-.218-1.118-.795-1.118-1.411 0-.952.713-1.567 1.643-1.567 1.012 0 1.56.593 1.657 1.515h-.99c-.067-.375-.277-.563-.667-.563-.345 0-.608.21-.608.548 0 .337.233.465.51.54l.578.157c.75.196 1.207.75 1.207 1.478 0 1.005-.742 1.575-1.68 1.575-1.042 0-1.657-.548-1.747-1.538zm-.765-3.592v5.01h-1.013v-2.827h-.045l-1.23 2.204h-.322l-1.223-2.204h-.044v2.827H9.611v-5.01h.93l1.493 2.775h.045l1.484-2.775h.938zm-9.105 3.592h1.005c.09.42.368.585.743.585.427 0 .645-.239.645-.563 0-.33-.21-.487-.601-.591l-.577-.165c-.795-.218-1.117-.795-1.117-1.411 0-.952.712-1.567 1.642-1.567 1.012 0 1.56.593 1.657 1.515h-.989c-.068-.375-.278-.563-.668-.563-.345 0-.607.21-.607.548 0 .337.232.465.51.54l.577.157c.75.196 1.208.75 1.208 1.478 0 1.005-.743 1.575-1.68 1.575-1.043 0-1.658-.548-1.748-1.538z" fill="#000" fill-rule="evenodd"/></svg>