<svg width="24" height="24" xmlns="http://www.w3.org/2000/svg"><path d="M22.5 3.5V16a3 3 0 01-2.824 2.995L19.5 19h-7l-3.512 3.513a1.717 1.717 0 01-1.226.516c-.853 0-1.676-.63-1.756-1.598L6 21.275V19H4.5a3 3 0 01-2.995-2.824L1.5 16V3.5h21zm-5.198 4.871c-.929 0-1.642.615-1.642 1.567 0 .575.281 1.116.965 1.363l.153.048.577.165c.39.104.6.261.6.591 0 .324-.217.563-.645.563-.337 0-.596-.134-.71-.466l-.032-.119h-1.005c.09.99.704 1.538 1.747 1.538.937 0 1.68-.57 1.68-1.575 0-.68-.398-1.207-1.061-1.434l-.146-.044-.578-.157c-.278-.075-.51-.203-.51-.54 0-.338.262-.548.607-.548.352 0 .557.152.644.456l.024.107h.989c-.096-.922-.644-1.515-1.657-1.515zm-10.17 0c-.929 0-1.642.615-1.642 1.567 0 .575.281 1.116.965 1.363l.153.048.577.165c.39.104.6.261.6.591 0 .324-.217.563-.645.563-.337 0-.596-.134-.71-.466l-.032-.119H5.393c.09.99.704 1.538 1.747 1.538.938 0 1.68-.57 1.68-1.575 0-.68-.398-1.207-1.061-1.434l-.146-.044-.578-.157c-.278-.075-.51-.203-.51-.54 0-.338.263-.548.607-.548.352 0 .557.152.644.456l.024.107h.989c-.096-.922-.644-1.515-1.657-1.515zm3.556.12h-.931v5.01h1.013v-2.827h.045l1.223 2.204h.322l1.23-2.204h.045v2.827h1.013v-5.01h-.938l-1.485 2.775h-.045l-1.492-2.775z" fill-rule="evenodd"/></svg>