<svg width="24" height="24" xmlns="http://www.w3.org/2000/svg"><path d="M5.009 10.51v2.12l-1.562 1.562a1.5 1.5 0 00-.102 2.007l.102.113 4.243 4.245c.284.285.66.44 1.059.44.35 0 .68-.118.948-.339l.111-.1 1.057-1.058h2.124l-2.121 2.122a2.993 2.993 0 01-4.074.153l-.164-.153-4.242-4.245a3.008 3.008 0 01-.135-4.1l.135-.145 2.62-2.622zm13.116 7.172a.749.749 0 111.127.99 9.58 9.58 0 01-3.921 2.68.75.75 0 11-.512-1.41 8.063 8.063 0 003.306-2.26zm-6.12-13.439a4 4 0 013.623 2.315l.082.188-1.355.678a2.493 2.493 0 00-2.35-1.68 2.503 2.503 0 00-2.493 2.335l-.005.164v1.243H17.5V15a3 3 0 01-2.822 2.995l-.176.005H9.506a2.999 2.999 0 01-2.993-2.824L6.508 15V9.486h1.5V8.243c0-2.206 1.793-4 3.997-4zm3.997 6.743H8.007V15c0 .778.596 1.42 1.355 1.493l.144.007h4.997c.777 0 1.419-.596 1.492-1.356l.007-.144v-4.014zM12.006 12c.69 0 1.249.56 1.249 1.25 0 .362-.156.686-.403.914l-.097.08V15.5h-1.499v-1.256a1.244 1.244 0 01-.5-.994c0-.69.56-1.25 1.25-1.25zm3.249-10.503c.7 0 1.399.244 1.956.724l.162.151 4.242 4.245a3.003 3.003 0 01.136 4.105l-.136.145L19 13.485V11.36l1.556-1.558a1.502 1.502 0 00.103-2.007l-.103-.113-4.242-4.245a1.485 1.485 0 00-1.937-.15 5.456 5.456 0 00-1.367-.446l-.291-.046.417-.418a2.984 2.984 0 012.119-.88zm7.277 13.671a.75.75 0 111.436.43 12.814 12.814 0 01-5.043 6.892.748.748 0 01-1.041-.198.75.75 0 01.197-1.041 11.309 11.309 0 004.451-6.083zM5.086 1.51a.75.75 0 01.844 1.239A11.307 11.307 0 001.48 8.83a.75.75 0 11-1.437-.43A12.809 12.809 0 015.086 1.51zM9.64 3.097a.75.75 0 01-.448.96 8.068 8.068 0 00-3.307 2.26.748.748 0 01-1.058.07.75.75 0 01-.069-1.059 9.582 9.582 0 013.921-2.68c.39-.142.82.059.96.449z" fill="#000" fill-rule="evenodd"/></svg>