<svg width="24" height="24" xmlns="http://www.w3.org/2000/svg"><path d="M22.532 15.168a.75.75 0 111.436.43 12.814 12.814 0 01-5.043 6.892.748.748 0 01-1.041-.198.75.75 0 01.197-1.041 11.309 11.309 0 004.451-6.083zM5.01 10.51V15a4.504 4.504 0 004.286 4.495l.21.005h3.484l-2.121 2.122a2.993 2.993 0 01-4.074.153l-.164-.153-4.242-4.245a3.008 3.008 0 01-.135-4.1l.135-.145 2.62-2.622zm13.116 7.172a.749.749 0 111.127.99 9.58 9.58 0 01-3.921 2.68.75.75 0 11-.512-1.41 8.063 8.063 0 003.306-2.26zm-6.12-13.439a4 4 0 013.623 2.315l.082.188-1.355.678a2.493 2.493 0 00-2.35-1.68 2.503 2.503 0 00-2.493 2.335l-.005.164v1.243H17.5V15a3 3 0 01-2.822 2.995l-.176.005H9.506a2.999 2.999 0 01-2.993-2.824L6.508 15V9.486h1.5V8.243c0-2.206 1.793-4 3.997-4zm0 7.757c-.69 0-1.248.56-1.248 1.25 0 .362.156.686.403.914l.096.08V15.5h1.5v-1.256c.301-.228.499-.587.499-.994 0-.69-.56-1.25-1.25-1.25zm3.25-10.503c.7 0 1.399.244 1.956.724l.162.151 4.242 4.245a3.003 3.003 0 01.136 4.105l-.136.145L19 13.485V7.986h-1.504a5.505 5.505 0 00-4.548-5.156l-.23-.035.418-.418a2.984 2.984 0 012.119-.88zm-10.17.013a.75.75 0 01.845 1.239A11.307 11.307 0 001.48 8.83a.75.75 0 11-1.437-.43A12.809 12.809 0 015.086 1.51zM8.68 2.647a.75.75 0 01.513 1.41 8.068 8.068 0 00-3.307 2.26.748.748 0 01-1.058.07.75.75 0 01-.069-1.059 9.582 9.582 0 013.921-2.68z" fill="#000" fill-rule="evenodd"/></svg>