<svg width="24" height="24" xmlns="http://www.w3.org/2000/svg"><path d="M18.652 11.39h-1.314V8.404h-.743v3.673h2.057v-.687zm-5.648-1.386h.032l.897 1.617h.237l.9-1.617h.035v2.073h.742V8.404h-.687l-1.09 2.035h-.032l-1.095-2.035h-.682v3.673h.743v-2.073zm-2.911 2.073h.743V9.09h.94v-.687H9.154v.687h.94v2.986zm-3.481-1.523h1.315v1.523h.743V8.404h-.743v1.463H6.612V8.404H5.87v3.673h.742v-1.523zM19.504 17h-3a1.5 1.5 0 00-1.5 1.5v3h-9a1.5 1.5 0 01-1.5-1.5V2.5h15V17zM3.004 1v19a3 3 0 003 3h10l5-5V1h-18z" fill-rule="evenodd"/></svg>