<svg width="24" height="24" xmlns="http://www.w3.org/2000/svg"><path d="M18.652 12.077h-2.057V8.403h.743v2.987h1.314v.687zm-2.805 0h-.742v-2.073h-.034l-.901 1.617h-.237l-.897-1.617h-.032v2.073h-.743V8.403h.682l1.095 2.035h.032l1.09-2.035h.687v3.674zm-4.07-2.986h-.941v2.986h-.743V9.091h-.94v-.688h2.624v.688zM8.67 12.077h-.743v-1.523H6.612v1.523H5.87V8.403h.742v1.463h1.315V8.403h.743v3.674zM3.004 1v19a3 3 0 003 3h8.5v-4a2.5 2.5 0 012.5-2.5h4V1h-18zm12.5 18v4l5.5-5.5h-4a1.5 1.5 0 00-1.5 1.5z" fill-rule="evenodd"/></svg>