<svg width="24" height="24" xmlns="http://www.w3.org/2000/svg"><path d="M12 1l9.5 2.1v8c0 3.05-1.1 5.95-3 8.2-1.807 2.218-3.884 3.289-5.51 3.877l-.414.144-.39.123L12 23.5l-.267-.07-.23-.067-.412-.133c-.1-.035-.206-.073-.316-.115l-.346-.136A12.802 12.802 0 015.85 19.75a12.774 12.774 0 01-3.344-8.226L2.5 11.15v-8L12 1zm3.3 7.95c.3-.3.75-.3 1.05 0 .273.273.298.67.074.965L16.35 10l-5.05 5.05-3.15-3.15c-.3-.3-.3-.75 0-1.05a.722.722 0 01.965-.074l.085.074 2.15 2.05 3.95-3.95z" fill-rule="evenodd"/></svg>