<svg width="24" height="24" xmlns="http://www.w3.org/2000/svg"><path d="M20.55 13.9c.1-.4.5-.65.9-.55.4.1.65.5.5.9-.523 2.233-1.722 4.194-3.427 5.628l-.273.222 1.6 2.4H13.2l2.7-6.15 1.6 2.45c1.5-1.25 2.6-2.95 3.05-4.9zM1.5 13.2l6.15 2.7-2.45 1.6c1.25 1.5 2.95 2.6 4.9 3.05.4.1.65.5.55.85-.1.4-.5.65-.9.55-2.233-.523-4.194-1.722-5.628-3.427L3.9 18.25l-2.4 1.6V13.2zM13.35 2.55c.1-.4.5-.65.9-.55 2.19.476 4.2 1.723 5.595 3.44l.205.26 2.45-1.55v6.65l-6.15-2.7 2.45-1.6c-1.25-1.5-2.95-2.6-4.9-3.05-.4-.1-.65-.5-.55-.9zM10.8 1.5L8.1 7.65 6.5 5.2C5 6.45 3.9 8.15 3.45 10.1A.745.745 0 112 9.75c.476-2.19 1.723-4.2 3.44-5.595l.26-.205L4.1 1.5h6.7z" fill="#000" fill-rule="evenodd"/></svg>