<svg xmlns="http://www.w3.org/2000/svg" width="24" height="24">
    <path fill="#262626" fill-rule="evenodd" d="M20.55 13.9c.1-.4.5-.65.9-.55.4.1.65.5.5.9-.55 2.35-1.85 4.4-3.7 5.85l1.6 2.4H13.2l2.7-6.15 1.6 2.45c1.5-1.25 2.6-2.95 3.05-4.9zM1.5 13.2l6.15 2.7-2.45 1.6c1.25 1.5 2.95 2.6 4.9 3.05.4.1.65.5.55.85-.1.4-.5.65-.9.55-2.35-.55-4.4-1.85-5.85-3.7l-2.4 1.6V13.2zM13.35 2.55c.1-.4.5-.65.9-.55 2.3.5 4.4 1.85 5.8 3.7l2.45-1.55v6.65l-6.15-2.7 2.45-1.6c-1.25-1.5-2.95-2.6-4.9-3.05-.4-.1-.65-.5-.55-.9zM10.8 1.5L8.1 7.65 6.5 5.2C5 6.45 3.9 8.15 3.45 10.1A.745.745 0 112 9.75c.5-2.3 1.85-4.4 3.7-5.8L4.1 1.5h6.7z"/>
</svg>
