<svg xmlns="http://www.w3.org/2000/svg" width="24" height="24">
    <path fill="#262626" fill-rule="evenodd" d="M1.5 13.215l6.11 2.68-2 1.32a8.255 8.255 0 004.585 2.835v.01a1.25 1.25 0 01-.545 2.44 10.765 10.765 0 01-6.15-3.915l-2 1.305v-6.675zm19.394-.404A1.255 1.255 0 0122.5 14.35a10.765 10.765 0 01-3.915 6.15l1.305 2h-6.675l2.685-6.11 1.32 2a8.24 8.24 0 002.835-4.585c.073-.462.396-.845.839-.994zM10.785 1.5l-2.68 6.11-1.32-2a8.24 8.24 0 00-2.835 4.585 1.255 1.255 0 01-1.495.945A1.245 1.245 0 011.5 9.65 10.745 10.745 0 015.415 3.5l-1.305-2h6.675zm2.359.37a1.255 1.255 0 011.206-.37 10.78 10.78 0 016.15 3.915l2-1.305v6.675l-6.11-2.68 2-1.32a8.24 8.24 0 00-4.585-2.835 1.255 1.255 0 01-.661-2.08z"/>
</svg>
