<svg width="24" height="24" xmlns="http://www.w3.org/2000/svg"><path d="M11.198 19.171a.138.138 0 01.23.077v.046l-.47 3a1.201 1.201 0 01-1.372 1c-.953-.149-1.336-1.29-.713-1.985l.087-.087 2.238-2.05zm-3.718-3.35l1.04.6-.68 1.179H9.2v1.2H7.84l.68 1.178-1.04.6L6.8 19.4l-.68 1.178-1.04-.6.68-1.178H4.4v-1.2h1.36l-.68-1.178 1.04-.6L6.8 17l.68-1.178zm5.995-2.006a.12.12 0 01.198.062l.001.045-.522 3.333a1.301 1.301 0 01-1.354 1.099l-.132-.014-.126-.026c-.942-.238-1.295-1.408-.643-2.128l.09-.091 2.488-2.28zM10.1 5.981a5.577 5.577 0 015.242 3.639 4.245 4.245 0 012.258 3.744 4.24 4.24 0 01-3.273 4.12l.011-.043.2-1.278a3.04 3.04 0 001.862-2.8 3.044 3.044 0 00-1.613-2.68l-.178-.087-.243-.11-.082-.253A4.381 4.381 0 0010.1 7.18a4.377 4.377 0 00-2.757.978l-.191.165-.262.238-.335-.115a2.286 2.286 0 00-.738-.125c-1.206 0-2.196.94-2.277 2.126l-.005.156.024.517-.373.166a2.677 2.677 0 00-1.585 2.44c0 1.028.584 1.921 1.437 2.368l.163.079v1.272a3.877 3.877 0 01-2.8-3.719c0-1.391.75-2.669 1.942-3.355a3.486 3.486 0 014.262-3.158A5.574 5.574 0 0110.1 5.981zM18.176.505a5.38 5.38 0 012.622-.03 4.548 4.548 0 003.057 8.515 5.376 5.376 0 01-2.934 1.969c-.912.24-1.83.23-2.685.015a5.42 5.42 0 00-1.938-2.184 6.748 6.748 0 00-2.137-2.676A5.403 5.403 0 0118.176.505z" fill="#000" fill-rule="evenodd"/></svg>