<svg width="24" height="24" xmlns="http://www.w3.org/2000/svg"><path d="M11.199 19.171a.138.138 0 01.23.077v.046l-.47 3a1.201 1.201 0 01-1.372 1c-.954-.149-1.337-1.29-.713-1.985l.087-.088 2.238-2.05zm-3.72-3.348l1.039.6-.68 1.178h1.36v1.2h-1.36l.68 1.179-1.04.6-.68-1.179-.68 1.179-1.04-.6.68-1.179h-1.36v-1.2h1.36l-.68-1.178 1.04-.6.68 1.178.68-1.178zm5.997-2.008a.12.12 0 01.197.062l.002.044-.522 3.334a1.301 1.301 0 01-1.487 1.085c-1.034-.162-1.448-1.403-.769-2.154l.091-.091 2.488-2.28zm-3.37-7.865a5.56 5.56 0 015.234 3.674 4.25 4.25 0 012.26 3.753c0 2.013-1.403 3.7-3.276 4.128l.015-.065.521-3.333a1.32 1.32 0 00-2.083-1.269l-.108.089-2.491 2.283a2.35 2.35 0 00-.268.292l-.114.158-2.498-1.443a1 1 0 00-.88-.06l-.12.06-2.7 1.554a1 1 0 00-.493.749l-.007.118v.79A3.862 3.862 0 01.4 13.746c0-1.4.755-2.684 1.952-3.366.102-1.822 1.607-3.273 3.443-3.273.27 0 .54.033.805.098a5.53 5.53 0 013.506-1.255zM18.178.505a5.37 5.37 0 012.621-.03 4.548 4.548 0 003.057 8.515 5.377 5.377 0 01-2.933 1.969 5.37 5.37 0 01-2.685.015A5.424 5.424 0 0016.3 8.79a6.749 6.749 0 00-2.137-2.676A5.403 5.403 0 0118.177.505z" fill-rule="evenodd"/></svg>