<svg width="24" height="24" xmlns="http://www.w3.org/2000/svg"><path d="M10.598 19.171a.138.138 0 01.23.077v.046l-.47 3a1.201 1.201 0 01-1.372 1c-.953-.149-1.336-1.291-.713-1.984l.087-.088 2.238-2.05zM8.81 15.2l-2.562 3.6h2.487l-5.047 4.078c-.127.103-.294-.029-.252-.166l.022-.046L5.263 20H3.351l2.661-4.8H8.81zm4.066-1.385a.12.12 0 01.197.062l.001.045-.521 3.333a1.3 1.3 0 01-1.487 1.085c-1.035-.161-1.449-1.403-.769-2.154l.09-.091 2.489-2.28zM10.22 5.962A5.577 5.577 0 0115.463 9.6a4.246 4.246 0 012.258 3.743 4.24 4.24 0 01-3.908 4.22l.024-.109.522-3.332a1.42 1.42 0 00-2.24-1.365l-.118.095L10.86 13.9H5.247l-1.952 3.52a3.878 3.878 0 01-2.774-3.712c0-1.392.75-2.669 1.942-3.355a3.486 3.486 0 014.261-3.158 5.575 5.575 0 013.496-1.233zM18.297.486a5.383 5.383 0 012.621-.03 4.55 4.55 0 003.058 8.515 5.374 5.374 0 01-2.934 1.969 5.37 5.37 0 01-2.685.015 5.421 5.421 0 00-1.938-2.184 6.749 6.749 0 00-2.137-2.676A5.404 5.404 0 0118.297.486z" fill-rule="evenodd"/></svg>