<svg width="24" height="24" xmlns="http://www.w3.org/2000/svg"><path d="M13 3.5v17h-2l-4.5-4H5a3.003 3.003 0 01-2.995-2.824L2 13.5v-3a3.003 3.003 0 012.824-2.995L5 7.5h1.5l4.5-4h2zm6.7.8a10.8 10.8 0 013.19 7.7c0 2.794-1.041 5.426-2.947 7.45l-.243.25-1.06-1.06A9.322 9.322 0 0021.39 12c0-2.4-.892-4.66-2.523-6.405l-.227-.235L19.7 4.3zm-8.2.76L7.07 9H5c-.776 0-1.42.598-1.493 1.356L3.5 10.5v3c0 .776.598 1.42 1.356 1.493L5 15h2.07l4.43 3.94V5.06zm5.535 1.905A7.068 7.068 0 0119.12 12a7.063 7.063 0 01-1.878 4.819l-.207.216-1.06-1.06A5.59 5.59 0 0017.62 12c0-1.41-.514-2.738-1.452-3.772l-.193-.203 1.06-1.06z" fill-rule="evenodd"/></svg>