<svg xmlns="http://www.w3.org/2000/svg" width="24" height="24">
    <path fill="#262626" fill-rule="evenodd" d="M13 3.5v17h-2l-4.5-4H5c-1.655 0-3-1.345-3-3v-3c0-1.655 1.345-3 3-3h1.5l4.5-4h2zm6.7.8a10.8 10.8 0 013.19 7.7 10.8 10.8 0 01-3.19 7.7l-1.06-1.06A9.322 9.322 0 0021.39 12c0-2.51-.975-4.865-2.75-6.64zm-8.2.76L7.07 9H5c-.825 0-1.5.675-1.5 1.5v3c0 .825.675 1.5 1.5 1.5h2.07l4.43 3.94V5.06zm5.535 1.905A7.068 7.068 0 0119.12 12c0 1.905-.74 3.69-2.085 5.035l-1.06-1.06A5.59 5.59 0 0017.62 12a5.582 5.582 0 00-1.645-3.975z"/>
</svg>
