<svg xmlns="http://www.w3.org/2000/svg" width="24" height="24">
    <path fill="#262626" fill-rule="evenodd" d="M19 4.05l2.8.25-1.55 16.95a2.98 2.98 0 01-3.25 2.7L7 23c-1.05-.05-1.9-.65-2.35-1.5H7c.05.05.1.05.15.05l9.95.9c.85.1 1.6-.55 1.65-1.35l1.4-15.45-1.15-.1v-1.5zM17.5 0v17c0 1.65-1.35 3-3 3h-10c-1.65 0-3-1.35-3-3V5l5-5h11zM16 1.5H7.5v3C7.5 5.35 6.85 6 6 6H3v11c0 .85.65 1.5 1.5 1.5h10c.85 0 1.5-.65 1.5-1.5V1.5zM8.6 7.9c1-.75 2.6-.75 3.7-.3l-.4 1.1c-.6-.25-1.75-.35-2.45.15-.3.25-.55.6-.7 1.1h2.85l-.3 1H8.55v.65h2.5l-.3 1H8.7c.15.5.4.85.7 1.1.6.45 1.75.55 2.7 0l.3 1.1c-.85.6-2.8.65-3.95-.2-.55-.45-.9-1.1-1.1-2.05h-1l.35-1h.55v-.65h-.9l.35-1h.7c.2-.8.55-1.5 1.2-2z"/>
</svg>
