<svg xmlns="http://www.w3.org/2000/svg" width="24" height="24">
    <path fill="#262626" fill-rule="evenodd" d="M19.25 4.03v1.5l1.145.105-1.4 15.435a1.5 1.5 0 01-1.5 1.365h-.14L7.4 21.53l-.15-.03H4.92A3 3 0 007.265 23l9.985.925c.092.005.183.005.275 0a3 3 0 003-2.73L22.02 4.28l-2.77-.25zM7.25 4V0l-5.5 5.5h4A1.5 1.5 0 007.25 4zm10.5 13V0h-9.5v4a2.5 2.5 0 01-2.5 2.5h-4V17a3 3 0 003 3h10a3 3 0 003-3zm-5.535-2.135c-.162.064-.33.114-.5.15-.17.035-.34.06-.5.08-.16.02-.345 0-.5 0A3.235 3.235 0 018.68 14.5a3.3 3.3 0 01-1.115-2.045h-1l.355-1h.535v-.64h-.9l.355-1h.68c.096-.43.265-.842.5-1.215a2.92 2.92 0 01.73-.805 2.71 2.71 0 01.915-.455 3.775 3.775 0 011.015-.205 5.14 5.14 0 011.74.29l-.385 1.115a2.625 2.625 0 00-.555-.15 5.44 5.44 0 00-.75-.045c-.4-.011-.794.104-1.125.33a2.05 2.05 0 00-.715 1.08h2.84l-.285 1h-2.72a1.03 1.03 0 000 .17v.47h2.5l-.285 1H8.96c.109.433.352.82.695 1.105a2 2 0 001.265.375c.268.005.536-.03.795-.1.21-.06.41-.143.6-.25l.295 1.09c-.12.1-.253.185-.395.25z"/>
</svg>
