<svg width="24" height="24" xmlns="http://www.w3.org/2000/svg"><path d="M21 17.5L15.5 23v-4a1.5 1.5 0 011.355-1.493L17 17.5h4zM21 1v15.5h-4a2.5 2.5 0 00-2.495 2.335L14.5 19v4H6a3 3 0 01-2.995-2.824L3 20V1h18zm-7.228 5.316c-.428 0-.856.098-1.254.306-1.151.602-1.693 1.933-1.427 3.239l.043.186-3.43 3.429A1.567 1.567 0 009.8 15.798l.119-.107 3.331-3.331c.304.104.62.158.937.158.427 0 .855-.1 1.252-.306 1.103-.577 1.638-1.824 1.448-3.075l-.034-.188-2.081 1.088-.785-.623-.063-1.001 2.086-1.09c-.603-.643-1.419-1.007-2.238-1.007z" fill="#000" fill-rule="evenodd"/></svg>