<svg width="24" height="24" xmlns="http://www.w3.org/2000/svg"><path d="M11.262 13.5H7.765l-3.326 5.995h2.393l-2.26 3.338c-.128.189.111.408.288.265L11.168 18H8.057l3.205-4.5zm4.588-.223l1.3.75-.851 1.474H18v1.495h-1.704l.854 1.478-1.3.75L15 17.75l-.85 1.474-1.3-.75.854-1.479H12V15.5h1.701l-.85-1.473 1.298-.75.851 1.474.85-1.473zM13.512.566a7.596 7.596 0 017.149 5.019 5.804 5.804 0 013.089 5.127 5.789 5.789 0 01-4.023 5.515l-.227.067V14.72a4.292 4.292 0 002.75-4.008 4.3 4.3 0 00-2.314-3.813l-.195-.095-.303-.138-.101-.317c-.816-2.563-3.157-4.284-5.825-4.284-1.42 0-2.79.5-3.888 1.415l-.216.188-.328.301-.422-.146a3.178 3.178 0 00-1.036-.176 3.22 3.22 0 00-3.007 2.1 3.327 3.327 0 00-.2 1.37l.027.435-.466.209a3.791 3.791 0 00-2.226 3.456 3.775 3.775 0 003.283 3.75l.193.02-.78 1.407A5.285 5.285 0 01.25 11.215a5.299 5.299 0 012.667-4.598c.14-2.489 2.197-4.471 4.705-4.471.369 0 .736.045 1.1.134a7.558 7.558 0 014.79-1.715z" fill-rule="evenodd"/></svg>