<svg width="24" height="24" xmlns="http://www.w3.org/2000/svg"><path d="M11.262 13.5L8.057 18h3.112L4.86 23.098c-.16.13-.373-.04-.314-.213l.026-.052 2.26-3.337H4.44L7.766 13.5h3.496zm4.589-.223l1.299.75-.85 1.474H18v1.495h-1.703l.853 1.478-1.299.75-.85-1.474-.851 1.474-1.299-.75.853-1.479H12V15.5h1.701l-.85-1.473 1.299-.75.85 1.474.851-1.473zM13.514.566a7.596 7.596 0 017.15 5.019 5.805 5.805 0 013.089 5.127c0 2.66-1.792 4.9-4.223 5.576l-.23.059v-2.002a1 1 0 00-.404-.804l-.1-.064-3.303-1.887a1 1 0 00-.868-.06l-.118.057-1.007.566-.085.049H7l-2.343 4.221a5.275 5.275 0 01-4.404-5.207A5.299 5.299 0 012.92 6.618c.14-2.489 2.197-4.471 4.705-4.471.369 0 .736.045 1.1.134a7.558 7.558 0 014.79-1.715z" fill="#000" fill-rule="evenodd"/></svg>