<svg width="24" height="24" xmlns="http://www.w3.org/2000/svg"><path d="M9.8 2.7c-1.55 0-2.9.5-4 1.5-2.1 1.9-2.2 5.35-.45 8.3v-.3c0-.6.1-1.2.25-1.8.65-2.4 2.5-4.65 5.05-6.1.7-.4 1.45-.7 2.15-.95l-.3-.1c-.5-.2-1.05-.35-1.6-.45l-.35-.05c-.25 0-.5-.05-.75-.05m2.15 5.9c1.9 0 3.4 1.55 3.4 3.4 0 1.85-1.55 3.4-3.4 3.4-1.9 0-3.4-1.55-3.4-3.4 0-1.85 1.5-3.4 3.4-3.4m4.15-4.25c-1.5 0-3.15.45-4.7 1.3C9.25 6.9 7.6 8.8 7.05 10.8c-.35 1.3-.25 2.55.35 3.55 1.55 2.7 5.85 3.2 9.55 1.1 3.7-2.05 5.5-6 3.95-8.75-.9-1.55-2.7-2.35-4.8-2.35m-12.35 8.4c-.15.3-.25.6-.35.95-.45 1.5-.35 2.95.25 4 .6 1.1 1.7 1.85 3.05 2.25 1.8.45 3.8.1 5.45-.95.4-.25.8-.55 1.15-.8-.35.05-.7.05-1 .05-1.35 0-2.65-.3-3.75-.85-1.2-.5-2.3-1.3-3.25-2.4-.6-.7-1.1-1.45-1.55-2.25M20 15.1l-.3.25c-.6.5-1.25 1-2 1.4-.55.3-1.05.55-1.6.75-.8 1-1.85 1.95-3.15 2.75-.3.2-.65.35-1 .5 1.7.6 3.4.65 4.7.1C18.8 20 19.95 17.9 20 15.1M4.8 3.1C6.35 1.65 8.5 1 10.75 1.25c1.5.15 2.95.75 4.2 1.65 3.1-.35 5.95.75 7.3 3.1 1.25 2.25.8 5.1-.85 7.5.55 4.15-.95 7.45-4.15 8.8-.8.35-1.7.5-2.65.5-1.25 0-2.6-.3-3.9-.85-.3-.15-.6-.3-.85-.45-.5.1-1 .15-1.5.15-.65 0-1.35-.1-1.95-.25-1.8-.45-3.2-1.5-4-2.95-.85-1.45-.95-3.3-.4-5.2.25-.85.6-1.6 1.05-2.35C2.2 8 2.75 5 4.8 3.1" fill-rule="evenodd"/></svg>