<svg width="24" height="24" xmlns="http://www.w3.org/2000/svg"><path d="M21.15 15.6c0 3.25-1.35 5.6-3.8 6.65-1.5.65-3.5.55-5.4-.1.4-.2.8-.35 1.15-.6 1.5-.9 2.7-2 3.6-3.15.65-.25 1.25-.55 1.85-.9.95-.55 1.85-1.2 2.6-1.9zM2.7 13c.45.9 1.05 1.8 1.75 2.6 1.05 1.25 2.3 2.1 3.6 2.7 1.25.6 2.8 1.05 4.4 1.05.4 0 .75-.05 1.15-.1-.4.35-.85.65-1.3.95-1.9 1.2-4.15 1.6-6.2 1.05-1.55-.4-2.8-1.3-3.5-2.55-.85-1.55-.8-3.7.1-5.7zm14-9.7c2.4 0 4.5.95 5.55 2.75 1.714 3.086-.218 7.419-4.293 9.85l-.257.15C13.45 18.5 8.55 17.9 6.75 14.8c-.65-1.2-.8-2.6-.4-4.1.65-2.3 2.5-4.55 4.95-5.9 1.8-1 3.65-1.5 5.4-1.5zm-4.75 5.3c-1.85 0-3.4 1.55-3.4 3.4 0 1.85 1.5 3.4 3.4 3.4 1.85 0 3.4-1.55 3.4-3.4 0-1.85-1.5-3.4-3.4-3.4zM4.8 3.15c2.1-1.9 5.2-2.2 8-.95-.85.3-1.65.65-2.45 1.1-2.9 1.65-5 4.2-5.75 6.95-.2.8-.3 1.6-.3 2.45-2-3.45-1.9-7.35.5-9.55z" fill-rule="evenodd"/></svg>