<svg width="24" height="24" xmlns="http://www.w3.org/2000/svg"><path d="M17.25 11.5c3.45 0 6.25 2.8 6.25 6.25S20.7 24 17.25 24 11 21.2 11 17.75s2.8-6.25 6.25-6.25zm3.1 4.05a.722.722 0 00-.965-.074l-.085.074-2.8 2.8-1.4-1.4c-.3-.3-.75-.3-1.05 0a.722.722 0 00-.074.965l.074.085 2.45 2.5 3.9-3.9c.3-.3.25-.75-.05-1.05zM16.5 1.5l3 3.5v5.35a8.086 8.086 0 00-1.125-.253L18 10.05V6.5h-7.5v3H9v-3H1.5v11c0 .8.576 1.423 1.352 1.493L3 19h6.6c.08.4.16.8.291 1.2l.109.3H3a3.01 3.01 0 01-2.995-2.824L0 17.5V5l3-3.5h13.5zM15.8 3h-5.3v2h7.05L15.8 3zM9 3H3.7L2 5h7V3z" fill-rule="evenodd"/></svg>