<svg height="24" width="24" xmlns="http://www.w3.org/2000/svg" xmlns:xlink="http://www.w3.org/1999/xlink"><filter id="a"><feColorMatrix in="SourceGraphic" values="0 0 0 0 0.149020 0 0 0 0 0.149020 0 0 0 0 0.149020 0 0 0 1.000000 0"/></filter><g fill="none" fill-rule="evenodd" filter="url(#a)"><path d="m0 0h24v24h-24z"/><g fill="#000" fill-rule="nonzero"><path d="m.5 5h9v-3.5h-6zm16.5-3.5h-6v3.5h9zm-16.5 16a3 3 0 0 0 3 3h6v-14h-9zm17.25-7.5c.762 0 1.52.113 2.25.335v-3.835h-9v7.45a7.745 7.745 0 0 1 6.75-3.95z"/><path d="m17.75 11.5a6.25 6.25 0 1 0 0 12.5 6.25 6.25 0 0 0 0-12.5zm3.145 5.095-3.895 3.905-2.455-2.5a.75.75 0 0 1 1.06-1.06l1.395 1.415 2.82-2.82a.745.745 0 0 1 1.06 0c.294.29.3.762.015 1.06z"/></g></g></svg>