<svg width="24" height="24" xmlns="http://www.w3.org/2000/svg"><path d="M12 3c6.35 0 11.5 4.05 11.5 9s-5.15 9-11.5 9S.5 16.95.5 12 5.65 3 12 3zm0 1.5C6.5 4.5 2 7.85 2 12s4.5 7.5 10 7.5 10-3.35 10-7.5-4.5-7.5-10-7.5zm1.35 4.2v4.05c0 1.05.35 1.5 1.15 1.5.8 0 1.15-.45 1.15-1.5l-.007-2.476-.016-1.164-.014-.329a.54.54 0 00-.008-.072L15.6 8.7h1.35v4.25c0 1.7-.85 2.6-2.45 2.6-1.536 0-2.427-.83-2.496-2.4l-.004-.2V8.7h1.35zm-2.55 0v1.25H8.2v1.4h2.5v1.25H8.2v1.5h2.6v1.25H6.85V8.7h3.95z" fill-rule="evenodd"/></svg>