<svg xmlns="http://www.w3.org/2000/svg" width="24" height="24">
    <path fill="#262626" fill-rule="evenodd" d="M12.1 9.95c1.1 0 2.25.4 3.3 1.15.35.25.65.55.9.85.35.4.7.8 1.35 1.2.85.6 1.95 1 3.25 1.35.45.15.65.55.55.95-.1.4-.5.65-.9.55-1.5-.4-2.7-.9-3.7-1.55-.8-.55-1.25-1.05-1.65-1.45-.25-.25-.45-.5-.7-.65-.75-.55-1.6-.85-2.4-.85-.85 0-1.65.3-2.3.85-1.55 1.3-1.75 3.5-.5 5.25.55.75 1.5 1.7 2.45 2.45.7.55 1.5 1.05 2.35 1.5.35.2.5.65.3 1s-.65.5-1 .3c-.95-.45-1.8-1-2.6-1.65-1.1-.8-2.1-1.85-2.75-2.75C6.3 16 6.6 13 8.8 11.15c.95-.75 2.1-1.2 3.3-1.2zm0-2.95c1.45 0 2.9.4 4.25 1.15.95.55 1.5 1.15 2 1.65.75.75 1.3 1.35 3 1.7.4.1.65.5.65.85-.1.4-.5.7-.9.6-2.15-.45-3-1.3-3.8-2.15-.5-.5-.95-.95-1.7-1.4-1.1-.6-2.35-.95-3.5-.95-1.55 0-3.05.55-4.25 1.55-2.75 2.35-3.15 6.25-1 9.3.45.7 1.1 1.4 1.85 2.1.3.25.35.75.05 1.05-.3.3-.75.35-1.05.05-.8-.75-1.5-1.55-2.05-2.3C3 16.55 3.5 11.75 6.9 8.9 8.35 7.7 10.2 7 12.1 7zm-1.35 6.5c.95-.85 2.3-.65 3.25.45.45.55.8.95 1.4 1.4 1.35 1 2.8 1.55 4.35 2 .4.15.65.55.55.95-.15.4-.55.6-.95.5-1.1-.35-2.85-.8-4.75-2.2-.35-.3-.65-.55-1.05-.95-.3-.35-.65-.75-.75-.9-.25-.3-.75-.4-1.1-.1-.3.3-.35.75-.1 1.05.6.75 1.2 1.4 2 2 1.55 1.25 3.35 1.9 4.05 2.15.35.15.6.55.45.95-.15.35-.55.6-.95.45-.75-.25-2.75-1-4.5-2.35-.85-.65-1.65-1.5-2.15-2.15-.85-1.15-.75-2.4.25-3.25zM12.1 4c3.35 0 6.55 1.5 8.85 4.15.25.3.2.8-.1 1.05-.3.25-.8.2-1.05-.1-2-2.3-4.75-3.6-7.65-3.6-2.25 0-4.45.85-6.2 2.3-.6.45-1.1 1-1.55 1.6-.25.3-.75.4-1.05.1-.35-.25-.4-.7-.15-1.05.5-.65 1.1-1.3 1.75-1.85C6.95 4.9 9.5 4 12.1 4zm0-3c2.3 0 4.55.55 6.65 1.65.35.2.5.65.3 1s-.65.5-1 .3C16.2 3 14.2 2.5 12.15 2.5 10.05 2.5 8 3 6.2 4c-.4.15-.85.05-1.05-.35-.2-.35-.05-.8.3-1C7.5 1.55 9.8 1 12.1 1z"/>
</svg>
