<svg xmlns="http://www.w3.org/2000/svg" width="24" height="24">
    <path fill="#262626" fill-rule="evenodd" d="M12.225 9.77c2.22 0 3.89.93 4.89 2.685a5.365 5.365 0 003.725 2.465l-.012-.002.092.031a.75.75 0 01.458.726l-.012.106a.75.75 0 01-.826.604 6.885 6.885 0 01-4.76-3.205c-.705-1.27-1.91-1.915-3.575-1.915a4.065 4.065 0 00-4.06 4.06c0 1.375.635 2.24 1.675 3.5a9.365 9.365 0 004.065 2.96.75.75 0 01-.445 1.43 10.885 10.885 0 01-4.775-3.435c-.925-1.145-2-2.45-2-4.45a5.565 5.565 0 015.56-5.56zm.025-3.01a8.245 8.245 0 015.86 2.18 9.41 9.41 0 011.5 1.88 2.5 2.5 0 001.63 1.215v-.01a.755.755 0 01-.17 1.5 4 4 0 01-2.73-1.905 7.935 7.935 0 00-1.285-1.59 6.71 6.71 0 00-4.83-1.77 7.075 7.075 0 00-7.04 7.07 7.155 7.155 0 003.405 6 .75.75 0 11-.805 1.265A8.54 8.54 0 0112.25 6.76zm-.75 6.12a2.58 2.58 0 012.76.92l.335.47c.29.443.625.856 1 1.23a6.97 6.97 0 004.035 2 .76.76 0 11-.235 1.5 8.42 8.42 0 01-4.83-2.42 9.265 9.265 0 01-1.19-1.46c-.11-.155-.21-.3-.305-.425a1.07 1.07 0 00-1.17-.375 1 1 0 00-.68.68c-.11.385-.025.67.475 1.28l.05.06a10.105 10.105 0 005.785 3.705.75.75 0 01-.365 1.455c-4.405-1.115-6.415-3.94-6.665-4.315a2.805 2.805 0 01-.71-2.595 2.5 2.5 0 011.71-1.71zm.48-9.113a11.57 11.57 0 019.175 4.198A.75.75 0 1120 8.92a10.075 10.075 0 00-15.82.35.74.74 0 01-1.035.145A.75.75 0 013 8.365a11.57 11.57 0 018.98-4.598zM12.26.75c2.311 0 4.58.62 6.57 1.795a.75.75 0 11-.75 1.3 11.42 11.42 0 00-11.825.11.73.73 0 01-.385.11.76.76 0 01-.625-.36.75.75 0 01.255-1.03A13.105 13.105 0 0112.26.75z"/>
</svg>
