<svg width="24" height="24" xmlns="http://www.w3.org/2000/svg"><path d="M12.225 9.77c2.22 0 3.89.93 4.89 2.685a5.365 5.365 0 003.47 2.419l.243.044.092.031a.75.75 0 01.458.726l-.012.106a.75.75 0 01-.826.604 6.885 6.885 0 01-4.76-3.205c-.705-1.27-1.91-1.915-3.575-1.915a4.065 4.065 0 00-4.06 4.06c0 1.203.486 2.016 1.304 3.044l.371.456a9.365 9.365 0 003.748 2.835l.317.125a.75.75 0 01-.445 1.43 10.885 10.885 0 01-4.775-3.435l-.422-.528c-.801-1.024-1.578-2.222-1.578-3.922a5.565 5.565 0 015.56-5.56zm-.242-3.007l.267-.003a8.245 8.245 0 015.86 2.18 9.41 9.41 0 011.5 1.88 2.5 2.5 0 001.444 1.166l.186.049v-.01a.755.755 0 01-.17 1.5 4 4 0 01-2.73-1.905 7.935 7.935 0 00-1.285-1.59 6.71 6.71 0 00-4.534-1.776l-.296.006a7.075 7.075 0 00-7.04 7.07 7.155 7.155 0 003.405 6 .75.75 0 11-.805 1.265 8.54 8.54 0 014.198-15.832zM11.5 12.88a2.58 2.58 0 012.642.776l.118.144.335.47c.29.443.625.856 1 1.23a6.97 6.97 0 004.035 2 .76.76 0 11-.235 1.5 8.42 8.42 0 01-4.83-2.42 9.265 9.265 0 01-1.19-1.46l-.208-.294a6.45 6.45 0 00-.097-.131 1.07 1.07 0 00-1.17-.375 1 1 0 00-.68.68c-.102.355-.037.626.367 1.145l.158.195a10.105 10.105 0 005.785 3.705.75.75 0 01-.365 1.455c-2.259-.572-3.888-1.593-4.973-2.503l-.31-.27-.276-.259a10.581 10.581 0 01-.127-.124l-.23-.238a9.77 9.77 0 01-.103-.112l-.265-.305-.197-.248-.184-.256a2.805 2.805 0 01-.71-2.595 2.5 2.5 0 011.71-1.71zm.48-9.113a11.57 11.57 0 019.175 4.198.75.75 0 01-1.088 1.032L20 8.92a10.075 10.075 0 00-15.82.35.74.74 0 01-1.035.145A.75.75 0 013 8.365a11.57 11.57 0 018.98-4.598zM12.26.75c2.311 0 4.58.62 6.57 1.795a.75.75 0 11-.75 1.3 11.42 11.42 0 00-11.825.11.73.73 0 01-.385.11.76.76 0 01-.625-.36.75.75 0 01.255-1.03A13.105 13.105 0 0112.26.75z" fill="#000" fill-rule="evenodd"/></svg>