<svg width="24" height="24" xmlns="http://www.w3.org/2000/svg"><path d="M11.95 1.8c.938 0 1.875.44 2.483 1.318l.117.182 8.5 14.7c1.17 1.951-.18 4.378-2.383 4.496l-.167.004H3.55c-2.243 0-3.677-2.377-2.681-4.35L.95 18l8.4-14.7c.6-1 1.6-1.5 2.6-1.5zm.105 1.5h-.11a1.431 1.431 0 00-1.155.61l-.09.14-8.5 14.7c-.343.6-.208 1.09-.068 1.375l.068.125.077.12c.167.24.48.57 1.058.623L3.5 21h17c.75 0 1.15-.5 1.25-.75l.068-.125a1.47 1.47 0 00.048-1.227l-.066-.148-8.5-14.7c-.32-.56-.8-.704-1.107-.74l-.138-.01zM12 16.5a1.25 1.25 0 110 2.5 1.25 1.25 0 010-2.5zm1-8V15h-2V8.5h2z" fill="#000" fill-rule="evenodd"/></svg>