<svg width="24" height="24" xmlns="http://www.w3.org/2000/svg"><path d="M18.795 12.5l.245 1.425a.5.5 0 00.735.385l.075-.05 1.205-.835 1.5 1.5-.835 1.205a.5.5 0 00.247.792l.088.018 1.445.265v2.09l-1.445.265a.5.5 0 00-.367.702l.052.088.835 1.205-1.5 1.5-1.205-.835a.5.5 0 00-.792.247L18.795 24h-2.09l-.245-1.425a.5.5 0 00-.735-.385l-.075.05-1.205.835-1.5-1.5.835-1.205a.5.5 0 00-.247-.792L12 19.295v-2.09l1.425-.245a.5.5 0 00.385-.735l-.05-.075-.835-1.205 1.5-1.5 1.205.835a.5.5 0 00.792-.247l.018-.088.265-1.445h2.09zM7.405 15l3.095 3.085v.165a7.2 7.2 0 00.142 1.405l.078.345H.28l.175-1.03a4.73 4.73 0 014.468-3.966L5.14 15h2.265zm11.012 1.599a1.77 1.77 0 10-1.373 3.263 1.77 1.77 0 001.373-3.263zM10.5 1.25a5.08 5.08 0 015.252 4.987l-.002.263c0 3.175-2.21 6.25-5.25 6.25-2.97 0-5.147-2.934-5.246-6.029L5.25 6.5a5.08 5.08 0 015.25-5.25z" fill="#000" fill-rule="evenodd"/></svg>