<svg xmlns="http://www.w3.org/2000/svg" width="24" height="24">
    <path fill="#262626" fill-rule="evenodd" d="M12,2.75 C10.5934725,2.702088 9.23009491,3.23981047 8.23495293,4.23495293 C7.23981047,5.23009491 6.70208788,6.593472 6.75,8 C6.75,11.1750002 8.96000004,14.25 12,14.25 C15.04,14.25 17.25,11.1750002 17.25,8 C17.2979126,6.593472 16.7601891,5.23009491 15.7650471,4.23495293 C14.7699051,3.23981047 13.4065275,2.702088 12,2.75 L12,2.75 Z M8.90499973,16.5 C8.90499973,16.5 6.63999987,16.5 6.63999987,16.5 C4.31481647,16.4919128 2.32859063,18.1750107 1.95500004,20.4699993 C1.95500004,20.4699993 1.77999997,21.5 1.77999997,21.5 C1.77999997,21.5 22.2199993,21.5 22.2199993,21.5 C22.2199993,21.5 22.0450001,20.4699993 22.0450001,20.4699993 C21.6714096,18.1750107 19.6851826,16.4919128 17.3600006,16.5 C17.3600006,16.5 15.0950003,16.5 15.0950003,16.5 C15.0950003,16.5 12,19.5949993 12,19.5949993 C12,19.5949993 8.90499973,16.5 8.90499973,16.5 L8.90499973,16.5 Z"/>
</svg>
