<svg xmlns="http://www.w3.org/2000/svg" width="24" height="24">
    <path fill="#262626" fill-rule="evenodd" d="M22.153 12.678l.102.007c.41.06.695.44.645.845-.44 3.155-2.275 5.975-4.92 7.695l1.15 1.76-5.31-.01 2.13-4.86 1.21 1.855c2.285-1.485 3.87-3.92 4.25-6.645a.75.75 0 01.845-.64zM15.255 1.5c.77 0 1.54.295 2.12.875L21.62 6.62a3.003 3.003 0 010 4.25L10.865 21.625a2.996 2.996 0 01-4.24 0L2.38 17.38a3.006 3.006 0 010-4.245L13.135 2.38a2.987 2.987 0 012.12-.88zm0 1.5c-.4 0-.775.155-1.06.44L3.44 14.195a1.5 1.5 0 000 2.12l4.245 4.245c.285.285.66.44 1.06.44s.775-.155 1.06-.44L20.56 9.805a1.5 1.5 0 000-2.12L16.315 3.44a1.486 1.486 0 00-1.06-.44zM4.875 1.01l5.305.015-2.13 4.86L6.84 4.03c-2.285 1.485-3.87 3.92-4.25 6.645a.744.744 0 01-.74.645c-.035 0-.07 0-.105-.01a.75.75 0 01-.64-.845C1.545 7.31 3.38 4.49 6.025 2.77l-1.15-1.76z"/>
</svg>
