<svg width="24" height="24" xmlns="http://www.w3.org/2000/svg"><path d="M22.153 12.678l.102.007c.41.06.695.44.645.845-.425 3.046-2.15 5.78-4.65 7.513l-.27.182 1.15 1.76-5.31-.01 2.13-4.86 1.21 1.855c2.285-1.485 3.87-3.92 4.25-6.645a.75.75 0 01.743-.647zM15.255 1.5c.7 0 1.4.244 1.957.724l.163.151L21.62 6.62a3.002 3.002 0 01.135 4.105l-.135.145-10.755 10.755a2.996 2.996 0 01-4.076.152l-.164-.152L2.38 17.38a3.006 3.006 0 01-.135-4.101l.135-.144L13.135 2.38a2.987 2.987 0 012.12-.88zm0 1.5c-.35 0-.68.119-.949.34l-.111.1L3.44 14.195a1.5 1.5 0 00-.103 2.006l.103.114 4.245 4.245c.285.285.66.44 1.06.44.35 0 .68-.119.949-.34l.111-.1L20.56 9.805a1.501 1.501 0 00.103-2.007l-.103-.113-4.245-4.245a1.486 1.486 0 00-1.06-.44zM4.875 1.01l5.305.015-2.13 4.86L6.84 4.03c-2.285 1.485-3.87 3.92-4.25 6.645a.744.744 0 01-.74.645l-.053-.001-.052-.009a.75.75 0 01-.64-.845c.425-3.046 2.15-5.78 4.65-7.513l.27-.182-1.15-1.76z" fill="#000" fill-rule="evenodd"/></svg>