<svg width="24" height="24" xmlns="http://www.w3.org/2000/svg"><path d="M22.153 12.678l.102.007a.76.76 0 01.665.85 11.075 11.075 0 01-4.637 7.505l-.283.19L19.125 23h-5.31l2.13-4.855L17.155 20a9.575 9.575 0 004.255-6.675.75.75 0 01.743-.647zM15.258 1.5a3 3 0 011.977.744l.145.136 4.24 4.24a3 3 0 01.136 4.1l-.136.145L10.865 21.62a3 3 0 01-4.1.136l-.145-.136-4.24-4.24a3 3 0 01-.136-4.1l.136-.145L13.135 2.38a3 3 0 012.123-.88zM8.12 15.85a1.255 1.255 0 00-1.77 0 1.26 1.26 0 000 1.77 1.255 1.255 0 001.668.09l.102-.09.015.015a1.26 1.26 0 00-.015-1.785zm-.87.15a.75.75 0 11-.001 1.5.75.75 0 01.001-1.5zm2.935-15l-2.13 4.88-1.21-1.855a9.575 9.575 0 00-4.255 6.65.745.745 0 01-.64.639l-.1.006-.105-.005a.76.76 0 01-.64-.85A11.075 11.075 0 015.742 2.95l.283-.19L4.875 1h5.31z" fill="#000" fill-rule="evenodd"/></svg>