<svg xmlns="http://www.w3.org/2000/svg" width="24" height="24">
    <path fill="#262626" fill-rule="evenodd" d="M22.153 12.678l.102.007a.76.76 0 01.665.85A11.075 11.075 0 0118 21.23L19.125 23h-5.31l2.13-4.855L17.155 20a9.575 9.575 0 004.255-6.675.75.75 0 01.845-.64zM15.258 1.5a3 3 0 012.122.88l4.24 4.24a3 3 0 010 4.245L10.865 21.62a3 3 0 01-4.245 0l-4.24-4.24a3 3 0 010-4.245L13.135 2.38a3 3 0 012.123-.88zM8.12 15.85a1.255 1.255 0 00-1.77 0 1.26 1.26 0 000 1.77c.49.487 1.28.487 1.77 0l.015.015a1.26 1.26 0 00-.015-1.785zm-.87.15a.75.75 0 11-.001 1.5.75.75 0 01.001-1.5zm2.935-15l-2.13 4.88-1.21-1.855a9.575 9.575 0 00-4.255 6.65.745.745 0 01-.74.645l-.105-.005a.76.76 0 01-.64-.85 11.075 11.075 0 014.92-7.705L4.875 1h5.31z"/>
</svg>
