<svg width="24" height="24" xmlns="http://www.w3.org/2000/svg"><path d="M4.71 17.48l-1.414 1.413a.75.75 0 101.06 1.061l1.415-1.415a.749.749 0 10-1.061-1.06zm6.54 2.27a.75.75 0 00-.75.75v2a.75.75 0 001.5 0v-2a.75.75 0 00-.75-.75zm.195-3.01c-.065.002-.13.01-.195.01A4.756 4.756 0 016.5 12a4.756 4.756 0 014.75-4.75c.189 0 .374.013.556.035a7.833 7.833 0 011.327-1.246 6.25 6.25 0 10-1.883 12.21c.487 0 .959-.06 1.414-.167a7.815 7.815 0 01-1.22-1.343zM3.5 12a.75.75 0 00-.75-.75h-2a.75.75 0 000 1.5h2A.75.75 0 003.5 12zm7.749-7.75A.75.75 0 0012 3.5v-2a.75.75 0 00-1.5 0v2c0 .413.336.75.75.75zM17.75 6a6.25 6.25 0 100 12.499 6.25 6.25 0 000-12.5zm-13.04.52a.746.746 0 001.06 0 .749.749 0 000-1.06L4.357 4.043a.749.749 0 10-1.06 1.061L4.71 6.52z" fill-rule="evenodd"/></svg>