<svg width="24" height="24" xmlns="http://www.w3.org/2000/svg" xmlns:xlink="http://www.w3.org/1999/xlink"><defs><path id="a" d="M0 0h23.995v22.496H0z"/></defs><g transform="translate(.005 .75)" fill="none" fill-rule="evenodd"><mask id="b" fill="#fff"><use xlink:href="#a"/></mask><path d="M12.671 17.339a6.241 6.241 0 01-1.423.169A6.248 6.248 0 1113.12 5.297a7.732 7.732 0 00-3.122 6.201 7.726 7.726 0 002.673 5.841zm5.075-12.09a6.248 6.248 0 00-6.248 6.249 6.248 6.248 0 1012.497 0 6.249 6.249 0 00-6.249-6.249zM4.708 16.727l-1.414 1.414a.749.749 0 101.061 1.06l1.414-1.414a.749.749 0 10-1.061-1.06zm6.54 2.269a.75.75 0 00-.75.75v2a.75.75 0 001.499 0v-2a.75.75 0 00-.749-.75zm-7.749-7.748a.75.75 0 00-.75-.75H.75a.75.75 0 000 1.5h1.999a.75.75 0 00.75-.75zM11.248 3.5a.75.75 0 00.749-.75v-2a.75.75 0 00-1.499 0v2c0 .414.336.75.75.75zm-6.54 2.269a.748.748 0 001.061 0 .749.749 0 000-1.06L4.355 3.295a.75.75 0 00-1.061 1.06l1.414 1.414z" fill="#000" mask="url(#b)"/></g></svg>