<svg xmlns="http://www.w3.org/2000/svg" width="24" height="24">
    <path fill="#262626" fill-rule="evenodd" d="M12 1c6.05 0 11 4.95 11 11s-4.95 11-11 11S1 18.05 1 12 5.95 1 12 1zm0 1.5c-5.25 0-9.5 4.25-9.5 9.5s4.25 9.5 9.5 9.5 9.5-4.25 9.5-9.5-4.25-9.5-9.5-9.5zM6.45 6.45c.3-.3.75-.3 1.05 0l4.1 4.1c.15-.05.25-.05.4-.05.85 0 1.5.65 1.5 1.5s-.65 1.5-1.5 1.5-1.5-.65-1.5-1.5c0-.15 0-.25.05-.4l-4.1-4.1c-.3-.3-.3-.75 0-1.05zm-1.1 2.1l2.3 2.3c-.1.35-.15.75-.15 1.15h-3c0-1.25.3-2.45.85-3.45zM12 4.5c4.15 0 7.5 3.35 7.5 7.5h-3c0-2.5-2-4.5-4.5-4.5-.4 0-.8.05-1.15.15l-2.3-2.3c1-.55 2.2-.85 3.45-.85z"/>
</svg>
