<svg xmlns="http://www.w3.org/2000/svg" width="24" height="24">
    <path fill="#262626" fill-rule="evenodd" d="M12 1.75C6.34 1.75 1.75 6.34 1.75 12S6.34 22.25 12 22.25 22.25 17.66 22.25 12A10.25 10.25 0 0012 1.75zM7.5 12h-3c0-1.21.295-2.4.86-3.47l.05.06 2.245 2.25A4.67 4.67 0 007.5 12zm4.5 1.5a1.5 1.5 0 01-1.5-1.5c.003-.13.021-.26.055-.385L6.47 7.53a.75.75 0 011.06-1.06l4.085 4.085c.126-.034.255-.052.385-.055a1.5 1.5 0 010 3zm4.5-1.5A4.5 4.5 0 0012 7.5a4.67 4.67 0 00-1.16.155L8.59 5.41l-.06-.05A7.43 7.43 0 0112 4.5a7.5 7.5 0 017.5 7.5h-3z"/>
</svg>
