<svg xmlns="http://www.w3.org/2000/svg" width="24" height="24">
    <path fill="#262626" fill-rule="evenodd" d="M17.75 11.5c3.45 0 6.25 2.8 6.25 6.25S21.2 24 17.75 24s-6.25-2.8-6.25-6.25 2.8-6.25 6.25-6.25zM21 1v9.72a7.586 7.586 0 00-1.5-.515V2.5h-15V20c0 .825.675 1.5 1.5 1.5h4.97c.3.545.67 1.045 1.09 1.5H6c-1.655 0-3-1.345-3-3V1h18zm-.105 14.535a.745.745 0 00-1.06 0l-2.82 2.82-1.41-1.41a.745.745 0 00-1.06 0 .745.745 0 000 1.06l2.47 2.47 3.88-3.88a.754.754 0 000-1.06zM12.06 12.5a7.67 7.67 0 00-1.09 1.5H8a.749.749 0 110-1.5zm3.94-3a.74.74 0 01.725.575c-.995.13-1.935.45-2.775.925H8a.749.749 0 110-1.5zm0-3A.749.749 0 1116 8H8a.749.749 0 110-1.5z"/>
</svg>
