<svg width="24" height="24" xmlns="http://www.w3.org/2000/svg"><path d="M17.75 11.5c3.45 0 6.25 2.8 6.25 6.25S21.2 24 17.75 24s-6.25-2.8-6.25-6.25 2.8-6.25 6.25-6.25zM21 1v9.72a7.65 7.65 0 00-1.188-.436l-.312-.079V2.5h-15V20c0 .776.598 1.42 1.356 1.493L6 21.5h4.97c.24.436.525.843.844 1.222l.246.278H6a3.003 3.003 0 01-2.995-2.824L3 20V1h18zm-.105 14.535a.744.744 0 00-.975-.073l-.085.073-2.82 2.82-1.41-1.41a.745.745 0 00-1.06 0 .744.744 0 00-.073.975l.073.085 2.47 2.47 3.88-3.88a.754.754 0 000-1.06zM12.06 12.5c-.336.364-.64.757-.902 1.178L10.97 14H8a.749.749 0 01-.102-1.493L8 12.5h4.06zm3.94-3a.74.74 0 01.725.575 7.655 7.655 0 00-2.491.772L13.95 11H8a.749.749 0 01-.102-1.493L8 9.5h8zm0-3a.749.749 0 01.102 1.493L16 8H8a.749.749 0 01-.102-1.493L8 6.5h8z" fill-rule="evenodd"/></svg>