<svg xmlns="http://www.w3.org/2000/svg" width="24" height="24">
    <path fill="#262626" fill-rule="evenodd" d="M10.97 14H8a.75.75 0 110-1.5h4.06a7.865 7.865 0 011.89-1.5H8a.75.75 0 110-1.5h8a.74.74 0 01.725.575A7.535 7.535 0 0121 10.72V1H3v19a3 3 0 003 3h6.06a7.725 7.725 0 01-1.09-9zM8 6.5h8A.75.75 0 1116 8H8a.75.75 0 010-1.5zm12.895 9.035a.745.745 0 00-1.06 0L17 18.355l-1.41-1.41A.75.75 0 0014.545 18L17 20.5l3.88-3.88a.755.755 0 00.015-1.085zM17.75 11.5a6.25 6.25 0 100 12.5 6.25 6.25 0 000-12.5zm0 11a4.75 4.75 0 110-9.5 4.75 4.75 0 010 9.5z"/>
</svg>
