<svg width="24" height="24" xmlns="http://www.w3.org/2000/svg"><path d="M23.66 12c0-1.187-1.476-2.126-1.823-3.197-.361-1.109.268-2.734-.404-3.658-.678-.932-2.422-.832-3.355-1.511-.924-.673-1.364-2.366-2.474-2.726a1.455 1.455 0 00-.453-.069c-.982 0-2.127.82-3.152.82-1.024 0-2.168-.82-3.15-.82-.156 0-.307.021-.454.069-1.109.36-1.55 2.053-2.473 2.725-.933.68-2.677.58-3.356 1.513-.672.923-.043 2.548-.403 3.657C1.816 9.874.34 10.813.34 12c0 1.187 1.475 2.126 1.823 3.197.361 1.109-.268 2.733.404 3.658.678.933 2.422.832 3.356 1.511.923.672 1.364 2.366 2.473 2.727.146.047.297.067.453.067.982 0 2.127-.82 3.152-.82 1.024 0 2.168.82 3.151.82.155 0 .307-.02.453-.067 1.11-.361 1.55-2.054 2.473-2.727.934-.678 2.678-.578 3.357-1.511.672-.924.043-2.549.402-3.659.348-1.07 1.823-2.009 1.823-3.196zm-2.134.93c-.413.508-.882 1.083-1.116 1.803-.241.743-.203 1.5-.169 2.168.017.337.045.893-.023 1.071-.148.123-.694.269-1.023.357-.643.173-1.373.369-2 .825-.62.451-1.027 1.081-1.386 1.637-.193.299-.517.799-.657.87-.21 0-.652-.17-1.008-.306-.633-.241-1.35-.515-2.144-.515s-1.511.274-2.143.515c-.348.133-.778.297-1.005.305-.166-.105-.474-.582-.66-.87-.36-.555-.766-1.185-1.387-1.636-.627-.456-1.356-.652-2-.825-.33-.088-.875-.235-1.022-.358-.069-.178-.041-.733-.024-1.07.034-.668.072-1.425-.169-2.168-.234-.72-.702-1.296-1.116-1.804-.23-.283-.615-.755-.635-.925.02-.179.405-.652.635-.934.413-.508.882-1.084 1.116-1.804.241-.742.203-1.5.169-2.168-.017-.336-.045-.892.024-1.07.147-.123.693-.27 1.022-.358.644-.173 1.373-.368 2-.824.62-.452 1.027-1.082 1.386-1.637.188-.289.496-.767.661-.87.211.002.651.17 1.005.305.632.242 1.349.516 2.143.516.794 0 1.511-.274 2.143-.515.348-.132.778-.297 1.005-.304.166.105.474.581.66.87.36.555.767 1.185 1.387 1.636.627.456 1.357.652 2 .824.33.089.875.235 1.023.358.068.178.04.734.023 1.07-.034.668-.072 1.426.169 2.168.234.721.703 1.296 1.116 1.805.23.282.614.755.634.925-.02.178-.404.65-.634.933zm-7.961-4.492c-.941.389-1.207 1.08-1.565 1.788-.376-.743-.652-1.456-1.659-1.824a2.461 2.461 0 00-2.896.928 2.466 2.466 0 00.165 2.99l3.741 4.375a.854.854 0 001.298 0l3.741-4.376c.723-.845.79-2.07.165-2.99a2.464 2.464 0 00-2.99-.89z" fill="#000" fill-rule="evenodd"/></svg>