<svg width="24" height="24" xmlns="http://www.w3.org/2000/svg"><path d="M15.153.84c.156 0 .307.02.454.068.554.18.942.693 1.306 1.246l.271.416c.271.416.55.811.896 1.064.35.254.814.4 1.293.53l.48.13c.638.177 1.243.385 1.583.852.336.462.347 1.099.318 1.759l-.024.497c-.022.497-.026.985.109 1.401.13.402.42.785.73 1.17l.312.385c.413.517.782 1.049.782 1.642 0 .594-.37 1.125-.782 1.642l-.312.386c-.31.384-.599.767-.729 1.168-.135.417-.13.905-.109 1.402l.024.497c.029.66.018 1.298-.318 1.76-.34.466-.945.674-1.583.85l-.48.13c-.48.132-.943.277-1.293.531-.289.21-.53.52-.76.858l-.407.622c-.364.553-.752 1.066-1.307 1.247a1.457 1.457 0 01-.452.067c-.394 0-.813-.13-1.24-.288l-.643-.243c-.43-.157-.859-.289-1.269-.289-.41 0-.839.132-1.27.29l-.643.242c-.427.157-.845.288-1.239.288-.155 0-.307-.02-.453-.067-.554-.18-.942-.694-1.306-1.247l-.408-.622c-.229-.338-.47-.648-.759-.858-.35-.254-.814-.4-1.293-.53l-.48-.13c-.638-.177-1.244-.385-1.583-.851-.336-.463-.347-1.1-.318-1.76l.024-.497c.022-.497.026-.985-.109-1.401-.13-.402-.42-.785-.73-1.17l-.312-.385C.71 13.125.342 12.593.342 12s.37-1.125.782-1.642l.465-.578c.25-.32.468-.642.577-.976.135-.417.13-.905.108-1.402l-.024-.497c-.028-.66-.018-1.298.318-1.76.34-.466.946-.674 1.583-.85l.48-.13c.48-.132.944-.277 1.293-.531.347-.253.625-.648.896-1.064l.271-.416c.365-.553.752-1.066 1.307-1.246.146-.048.297-.069.453-.069.393 0 .812.132 1.238.29l.644.242c.43.157.859.288 1.269.288.41 0 .839-.13 1.27-.288l.643-.243c.427-.157.846-.288 1.239-.288zm-4.81 7.562a2.461 2.461 0 00-2.896.928 2.467 2.467 0 00.045 2.836l.12.153 3.742 4.376a.854.854 0 001.214.084l.084-.084 3.74-4.376c.724-.845.791-2.07.166-2.99a2.464 2.464 0 00-2.991-.89c-.672.277-1 .709-1.262 1.191l-.152.295-.15.301-.22-.44c-.296-.574-.634-1.09-1.44-1.384z" fill="#000" fill-rule="evenodd"/></svg>