<svg height="24" width="24" xmlns="http://www.w3.org/2000/svg"><path d="m19 1.5v1.5h3.5v5.5c0 2.45-1.8 4.5-4.15 4.9-.9 1.95-2.7 3.45-4.85 3.9a2.756 2.756 0 0 0 2.75 2.65h.75v2.5h-10v-2.5h.75c1.5 0 2.7-1.15 2.75-2.65-2.15-.45-3.95-1.95-4.85-3.9-2.35-.4-4.15-2.45-4.15-4.9v-5.5h3.5v-1.5zm-1.5 1.5h-11v7.5c0 3.05 2.45 5.5 5.5 5.5s5.5-2.45 5.5-5.5zm-5.5 2.5.9 2.25 2.45.2-1.85 1.6.6 2.35-2.1-1.3-2.1 1.3.6-2.35-1.85-1.6 2.45-.2zm-7-1h-2v4c0 1.45.85 2.65 2.1 3.2-.05-.4-.1-.8-.1-1.2zm16 0h-2v6c0 .4-.05.8-.1 1.2 1.25-.55 2.1-1.75 2.1-3.2z" fill="#262626" fill-rule="evenodd"/></svg>