<svg width="24" height="24" xmlns="http://www.w3.org/2000/svg"><path d="M19 1.5V3h3.5v5.5c0 2.45-1.8 4.5-4.15 4.9-.9 1.95-2.7 3.45-4.85 3.9a2.756 2.756 0 002.578 2.645l.172.005H17v2.5H7v-2.5h.75c1.5 0 2.7-1.15 2.75-2.65-2.15-.45-3.95-1.95-4.85-3.9-2.277-.388-4.037-2.323-4.145-4.672L1.5 8.5V3H5V1.5h14zM17.5 3h-11v7.5c0 3.05 2.45 5.5 5.5 5.5a5.483 5.483 0 005.496-5.278l.004-.222V3zM12 5.5l.9 2.25 2.45.2-1.85 1.6.6 2.35-2.1-1.3-2.1 1.3.6-2.35-1.85-1.6 2.45-.2.9-2.25zm-7-1v6l.009.3c.016.3.053.6.091.9C3.85 11.15 3 9.95 3 8.5v-4h2zm16 0v4l-.006.216c-.08 1.352-.907 2.462-2.094 2.984.05-.4.1-.8.1-1.2v-6h2z" fill="#000" fill-rule="evenodd"/></svg>