<svg xmlns="http://www.w3.org/2000/svg" width="24" height="24">
    <path fill="#262626" fill-rule="evenodd" d="M19 3V1.5H5V3H1.5v5.5a5 5 0 004.145 4.92 7 7 0 004.855 3.915A2.75 2.75 0 017.75 20H7v2.5h10V20h-.75a2.75 2.75 0 01-2.75-2.665 7 7 0 004.85-3.915A5 5 0 0022.5 8.5V3H19zM3 8.5v-4h2v6c.003.406.04.81.11 1.21A3.5 3.5 0 013 8.5zm11.08 3.405L12 10.615l-2.08 1.29.58-2.38-1.87-1.58 2.44-.18L12 5.5l.925 2.265 2.44.18-1.865 1.58.58 2.38zM21 8.5a3.5 3.5 0 01-2.11 3.21c.07-.4.107-.804.11-1.21v-6h2v4z"/>
</svg>
