<svg xmlns="http://www.w3.org/2000/svg" width="24" height="24">
    <path fill="#262626" fill-rule="evenodd" d="M12.25 16.5a2.75 2.75 0 110 5.5 2.75 2.75 0 010-5.5zm-4.18 2c-.045.245-.07.495-.07.75s.025.505.07.75H2v-1.5zm13.93 0V20h-5.57c.045-.245.07-.495.07-.75s-.025-.505-.07-.75H22zm-17.25-9a2.75 2.75 0 110 5.5 2.75 2.75 0 010-5.5zm17.25 2V13H8.93c.045-.245.07-.495.07-.75s-.025-.505-.07-.75H22zm-7.25-9a2.75 2.75 0 110 5.5 2.75 2.75 0 010-5.5zm-4.18 2c-.045.245-.07.495-.07.75s.025.505.07.75H2V4.5zM22 4.5V6h-3.07c.045-.245.07-.495.07-.75s-.025-.505-.07-.75H22z"/>
</svg>
