<svg width="24" height="24" xmlns="http://www.w3.org/2000/svg"><path d="M12.25 16.5a2.75 2.75 0 110 5.5 2.75 2.75 0 010-5.5zm-4.18 2a4.144 4.144 0 00-.038 1.253L8.07 20H2v-1.5h6.07zm13.93 0V20h-5.57a4.144 4.144 0 00.038-1.253l-.038-.247H22zm-17.25-9a2.75 2.75 0 110 5.5 2.75 2.75 0 010-5.5zm17.25 2V13H8.93a4.144 4.144 0 00.038-1.253L8.93 11.5H22zm-7.25-9a2.75 2.75 0 110 5.5 2.75 2.75 0 010-5.5zm-4.18 2a4.144 4.144 0 00-.038 1.253L10.57 6H2V4.5h8.57zM22 4.5V6h-3.07a4.144 4.144 0 00.038-1.253L18.93 4.5H22z" fill-rule="evenodd"/></svg>