<svg width="24" height="24" xmlns="http://www.w3.org/2000/svg"><path d="M12.25 16.5a2.75 2.75 0 110 5.5 2.75 2.75 0 010-5.5zM8.19 18a4.205 4.205 0 00-.068 2.254l.068.246H2V18h6.19zM22 18v2.5h-5.685a4.295 4.295 0 00.066-2.255L16.315 18H22zM4.75 9.5a2.75 2.75 0 110 5.5 2.75 2.75 0 010-5.5zM22 11v2.5H8.815a4.295 4.295 0 00.066-2.255L8.815 11H22zm-7.25-8.5a2.75 2.75 0 110 5.5 2.75 2.75 0 010-5.5zM10.69 4a4.135 4.135 0 00-.19 1.25c0 .34.04.677.121 1.005l.069.245H2V4h8.69zM22 4v2.5h-3.185c.22-.725.244-1.492.073-2.226L18.815 4H22z" fill="#000" fill-rule="evenodd"/></svg>