<svg width="24" height="24" xmlns="http://www.w3.org/2000/svg"><path d="M8 6a3.01 3.01 0 012.995 2.824L11 9v3.25a7.284 7.284 0 00-1.378 2.187l-.122.313V9c0-.8-.576-1.423-1.352-1.493L8 7.5H7V9H4V7.5H3c-.8 0-1.423.576-1.493 1.352L1.5 9v12c0 .8.576 1.423 1.352 1.493L3 22.5h5c.8 0 1.423-.576 1.493-1.352L9.5 21v-.75c.25.75.65 1.45 1.15 2.1a2.949 2.949 0 01-2.449 1.643L8 24H3a3.01 3.01 0 01-2.995-2.824L0 21V9a3.01 3.01 0 012.824-2.995L3 6h5zm9 5c3.6 0 6.5 2.9 6.5 6.5S20.6 24 17 24s-6.5-2.9-6.5-6.5S13.4 11 17 11zM5.5 19.75a1 1 0 110 2 1 1 0 010-2zm11.5-5.5a.772.772 0 00-.743.651L16.25 15v1.75H14.5c-.4 0-.75.35-.75.75 0 .367.294.691.651.743l.099.007h1.75V20c0 .4.35.75.75.75a.772.772 0 00.743-.651L17.75 20v-1.75h1.75c.4 0 .75-.35.75-.75a.772.772 0 00-.651-.743l-.099-.007h-1.75V15c0-.4-.35-.75-.75-.75zM17 1a3.01 3.01 0 012.995 2.824L20 4v6.1a8.728 8.728 0 00-1.125-.366L18.5 9.65V4c0-.8-.576-1.423-1.352-1.493L17 2.5H6.5c-.8 0-1.423.576-1.493 1.352L5 4v.5H3.5V4a3.01 3.01 0 012.824-2.995L6.5 1H17z" fill-rule="evenodd"/></svg>