<svg height="24" width="24" xmlns="http://www.w3.org/2000/svg"><path d="m8 6c1.65 0 3 1.35 3 3v3.25c-.65.7-1.15 1.55-1.5 2.5v-5.75c0-.85-.65-1.5-1.5-1.5h-1v1.5h-3v-1.5h-1c-.85 0-1.5.65-1.5 1.5v12c0 .85.65 1.5 1.5 1.5h5c.85 0 1.5-.65 1.5-1.5v-.75c.25.75.65 1.45 1.15 2.1-.5 1-1.5 1.65-2.65 1.65h-5c-1.65 0-3-1.35-3-3v-12c0-1.65 1.35-3 3-3zm9 5c3.6 0 6.5 2.9 6.5 6.5s-2.9 6.5-6.5 6.5-6.5-2.9-6.5-6.5 2.9-6.5 6.5-6.5zm-11.5 8.75a1 1 0 1 1 0 2 1 1 0 0 1 0-2zm11.5-5.5c-.4 0-.75.35-.75.75v1.75h-1.75c-.4 0-.75.35-.75.75s.35.75.75.75h1.75v1.75c0 .4.35.75.75.75s.75-.35.75-.75v-1.75h1.75c.4 0 .75-.35.75-.75s-.35-.75-.75-.75h-1.75v-1.75c0-.4-.35-.75-.75-.75zm0-13.25c1.65 0 3 1.35 3 3v6.1c-.5-.2-1-.35-1.5-.45v-5.65c0-.85-.65-1.5-1.5-1.5h-10.5c-.85 0-1.5.65-1.5 1.5v.5h-1.5v-.5c0-1.65 1.35-3 3-3z" fill="#262626" fill-rule="evenodd"/></svg>