<svg xmlns="http://www.w3.org/2000/svg" width="24" height="24">
    <path fill="#262626" fill-rule="evenodd" d="M8.5 6a3 3 0 013 3v3.22a7.97 7.97 0 00-.335 10.155A3 3 0 018.5 24h-5a3 3 0 01-3-3V9a3 3 0 013-3zm9 5a6.5 6.5 0 110 13 6.5 6.5 0 010-13zm0 1.5a5 5 0 100 10 5 5 0 000-10zM6 19.75a1 1 0 100 2 1 1 0 000-2zm11.5-5.5a.75.75 0 01.75.75v1.75H20a.75.75 0 010 1.5h-1.75V20a.75.75 0 11-1.5 0v-1.75H15a.75.75 0 110-1.5h1.75V15a.75.75 0 01.75-.75zM17.5 1a3 3 0 013 3v6.085a8 8 0 00-7.5.8V9a4.5 4.5 0 00-4.5-4.5H3.97V4a3 3 0 013-3zm-10 6.5h-3V9h3V7.5z"/>
</svg>
