<svg width="24" height="24" xmlns="http://www.w3.org/2000/svg"><path d="M8 6a3 3 0 012.995 2.824L11 9v3.22a7.97 7.97 0 00-.335 10.155 3 3 0 01-2.468 1.618L8 24H3a3 3 0 01-2.995-2.824L0 21V9a3 3 0 012.824-2.995L3 6h5zm9 5a6.5 6.5 0 110 13 6.5 6.5 0 010-13zm0 1.5a5 5 0 100 10 5 5 0 000-10zM5.5 19.75a1 1 0 100 2 1 1 0 000-2zm11.5-5.5a.75.75 0 01.743.648l.007.102v1.75h1.75a.75.75 0 01.102 1.493l-.102.007h-1.75V20a.75.75 0 01-1.493.102L16.25 20v-1.75H14.5a.75.75 0 01-.102-1.493l.102-.007h1.75V15a.75.75 0 01.75-.75zM17 1a3 3 0 012.995 2.824L20 4v6.085a8 8 0 00-7.252.638l-.248.162V9a4.5 4.5 0 00-4.288-4.495L8 4.5H3.47V4a3 3 0 012.824-2.995L6.47 1H17zM7 7.5H4V9h3V7.5z" fill="#000" fill-rule="evenodd"/></svg>