<svg width="24" height="24" xmlns="http://www.w3.org/2000/svg"><path d="M13 3.5v17h-2l-4.5-4H5a3.003 3.003 0 01-2.995-2.824L2 13.5v-3a3.003 3.003 0 012.824-2.995L5 7.5h1.5l4.5-4h2zm-1.5 1.56L7.07 9H5c-.776 0-1.42.598-1.493 1.356L3.5 10.5v3c0 .776.598 1.42 1.356 1.493L5 15h2.07l4.43 3.94V5.06zM19 8.25c.38 0 .694.281.743.648L19.75 9v2.25H22a.749.749 0 01.102 1.493L22 12.75h-2.25V15a.749.749 0 01-1.493.102L18.25 15v-2.25H16a.749.749 0 01-.102-1.493L16 11.25h2.25V9c0-.415.335-.75.75-.75z" fill="#000" fill-rule="evenodd"/></svg>