<svg width="24" height="24" xmlns="http://www.w3.org/2000/svg"><path d="M11.828 19.294l-.47 3a1.201 1.201 0 01-1.25 1.013l-.122-.013c-.995-.155-1.368-1.392-.626-2.072l2.238-2.05a.138.138 0 01.23.122zM6.52 15.821l.68 1.18.681-1.179 1.04.6L8.24 17.6H9.6v1.2H8.239l.68 1.178-1.039.6L7.2 19.4l-.68 1.18-1.04-.601.681-1.179H4.8v-1.2h1.361l-.68-1.179 1.039-.6zm7.554-1.899l-.522 3.334a1.302 1.302 0 01-1.354 1.098l-.132-.014c-1.078-.168-1.483-1.508-.678-2.245l2.487-2.28a.12.12 0 01.199.107zM10.5 5.982a5.577 5.577 0 015.242 3.638A4.246 4.246 0 0118 13.364c0 2.004-1.4 3.683-3.273 4.121l.011-.044.2-1.278a3.04 3.04 0 001.862-2.8 3.044 3.044 0 00-1.613-2.68l-.178-.087-.243-.11-.082-.253A4.381 4.381 0 0010.5 7.18a4.377 4.377 0 00-2.757.978l-.191.165-.262.238-.335-.115a2.286 2.286 0 00-.738-.125c-1.206 0-2.196.94-2.277 2.126l-.005.156.024.517-.373.166A2.677 2.677 0 002 13.727c0 1.028.584 1.921 1.437 2.368l.163.079v1.272a3.877 3.877 0 01-2.8-3.719c0-1.391.75-2.669 1.942-3.355a3.486 3.486 0 014.262-3.158A5.574 5.574 0 0110.5 5.981zm10.012 4.495l.083.07.849.848a.6.6 0 01-.774.912l-.075-.063-.849-.849a.6.6 0 01.766-.918zM16.6 4.4c1.654 0 3 1.346 3 3 0 1.132-.63 2.118-1.558 2.63a5.44 5.44 0 00-1.344-1.24 6.765 6.765 0 00-2.628-2.996A2.998 2.998 0 0116.6 4.4zm6.25 2.4a.6.6 0 01.097 1.192L22.85 8h-1.2a.6.6 0 01-.097-1.192l.097-.008h1.2zm-1.406-4.244a.6.6 0 01.07.766l-.07.083-.849.849a.598.598 0 01-.848 0 .6.6 0 01-.07-.766l.07-.083.849-.849a.6.6 0 01.848 0zm-8.922-.069l.083.07.849.848a.6.6 0 01-.774.912l-.075-.063-.848-.849a.6.6 0 01.765-.918zM16.6.55a.6.6 0 01.592.503l.008.097v1.2a.6.6 0 01-1.192.097L16 2.35v-1.2a.6.6 0 01.6-.6z" fill="#000" fill-rule="evenodd"/></svg>