<svg width="24" height="24" xmlns="http://www.w3.org/2000/svg"><path d="M11.599 19.171a.138.138 0 01.23.077v.046l-.47 3a1.2 1.2 0 01-1.372 1c-.954-.149-1.337-1.29-.713-1.985l.087-.088 2.238-2.05zm-5.079-3.35L7.201 17l.68-1.179 1.04.6-.68 1.178H9.6v1.2H8.24l.68 1.178-1.04.6L7.2 19.4l-.68 1.179-1.04-.6.681-1.18h-1.36V17.6h1.36l-.68-1.18 1.04-.6zm7.356-2.006a.12.12 0 01.197.062l.002.045-.522 3.333a1.302 1.302 0 11-2.256-1.068l.091-.092 2.488-2.28zM10.507 5.95a5.56 5.56 0 015.233 3.674 4.25 4.25 0 012.261 3.753 4.236 4.236 0 01-3.168 4.1l.004-.02.522-3.334a1.42 1.42 0 00-2.243-1.363l-.117.096-2.49 2.281a2.626 2.626 0 00-.283.303l-.12.165L7.7 14.21a1 1 0 00-.881-.06l-.12.058-2.698 1.552a.999.999 0 00-.494.748l-.007.118v.802a3.861 3.861 0 01-2.7-3.683c0-1.4.755-2.684 1.952-3.366.102-1.822 1.608-3.273 3.443-3.273.27 0 .54.033.806.098a5.53 5.53 0 013.505-1.255zm9.24 4.596a.6.6 0 01.765-.069l.083.07.85.848a.6.6 0 01-.775.912l-.074-.064-.849-.848a.6.6 0 010-.849zM16.601 4.4c1.654 0 3 1.345 3 3 0 1.132-.63 2.118-1.558 2.63a5.43 5.43 0 00-1.344-1.24 6.768 6.768 0 00-2.628-2.996 2.997 2.997 0 012.53-1.394zm6.25 2.4a.6.6 0 01.097 1.192L22.85 8h-1.2a.6.6 0 01-.098-1.192l.098-.008h1.2zM11.757 2.556a.6.6 0 01.765-.069l.084.07.849.848a.6.6 0 01-.775.912l-.074-.064-.849-.848a.6.6 0 010-.849zm8.84 0a.6.6 0 01.917.766l-.07.083-.848.848a.596.596 0 01-.849 0 .6.6 0 01-.07-.765l.07-.083.85-.849zM16.6.55a.6.6 0 01.592.503l.008.097v1.2a.6.6 0 01-1.193.097L16 2.35v-1.2a.6.6 0 01.6-.6z" fill-rule="evenodd"/></svg>