<svg height="24" width="24" xmlns="http://www.w3.org/2000/svg"><path d="m21 1v17l-5 5h-10c-1.655 0-3-1.345-3-3v-19zm-1.5 1.5h-15v17.5c0 .825.675 1.5 1.5 1.5h9v-3c0-.83.67-1.5 1.5-1.5h3zm-11.185 4.55c.94 0 1.6.58 1.6 1.61s-.66 1.6-1.6 1.6h-.815v1.63h-.98v-4.84zm3.885 0c1.26 0 2.05.845 2.05 2.42 0 1.57-.79 2.42-2.05 2.42h-1.68v-4.84zm5.59-.005v.91h-1.795v1.09h1.73v.91h-1.73v1.935h-.98v-4.845zm-5.665.91h-.63v3.03h.63c.675 0 1.11-.45 1.11-1.515s-.435-1.515-1.11-1.515zm-3.875 0h-.755v1.4h.755c.365 0 .65-.245.65-.695 0-.46-.28-.705-.65-.705z" fill="#262626" fill-rule="evenodd"/></svg>