<svg xmlns="http://www.w3.org/2000/svg" width="24" height="24">
    <path fill="#262626" fill-rule="evenodd" d="M21 17.5L15.5 23v-4a1.5 1.5 0 011.5-1.5h4zM21 1v15.5h-4a2.5 2.5 0 00-2.5 2.5v4H6a3 3 0 01-3-3V1h18zM8.545 6.877L8.4 6.88H6.605v4.845h.975v-1.63h.82A1.5 1.5 0 0010 8.5a1.5 1.5 0 00-1.6-1.62zm3.83.003H10.69v4.845h1.685c1.26 0 2.05-.845 2.05-2.42s-.79-2.425-2.05-2.425zm5.625 0h-2.805v4.845h1V9.79h1.73v-.91h-1.73V7.79H18v-.91zm-5.7.91c.7 0 1.11.48 1.11 1.53s-.435 1.5-1.11 1.5h-.63V7.79zm-3.965 0A.635.635 0 019 8.5a.635.635 0 01-.665.685H7.58V7.79z"/>
</svg>
