<svg width="24" height="24" xmlns="http://www.w3.org/2000/svg"><path d="M21 1v19a3.01 3.01 0 01-2.824 2.995L18 23H6a3.01 3.01 0 01-2.995-2.824L3 20V7.5L9.5 1H21zm-1.5 1.5h-9.4L4.5 8.1V20c0 .8.576 1.423 1.352 1.493L6 21.5h12c.8 0 1.423-.576 1.493-1.352L19.5 20V2.5zm-5 6.5a2.473 2.473 0 012.495 2.333L17 11.5v5a2.473 2.473 0 01-2.333 2.495L14.5 19h-5a2.473 2.473 0 01-2.495-2.333L7 16.5v-5a2.473 2.473 0 012.333-2.495L9.5 9h5zm0 1.5h-5c-.51 0-.935.388-.993.884L8.5 11.5v5c0 .51.388.935.884.993l.116.007h5c.51 0 .935-.388.993-.884l.007-.116v-5c0-.51-.388-.935-.884-.993L14.5 10.5z" fill-rule="evenodd"/></svg>