<svg width="24" height="24" xmlns="http://www.w3.org/2000/svg"><path d="M21 1.5V5h.75c.902 0 1.67.722 1.744 1.609l.006.141V9H22v13.5H2V9H.5V6.75c0-.903.722-1.67 1.609-1.744L2.25 5H3V1.5h18zM15.12 11v2.55h-.446v-.075c0-1.2-.67-1.95-1.935-1.95h-.074v5.4c0 .75.297 1.05 1.041 1.05h.224v.525h-3.87v-.525h.224c.744 0 1.041-.3 1.041-1.05v-5.4h-.074c-1.265 0-1.935.75-1.935 1.95v.075H8.87V11h6.25zm0 3.333V16h-1.667v-1.667h1.667zm-4.583 0V16H8.87v-1.667h1.667zM19.5 3v2h-15V3h15z" fill="#000" fill-rule="evenodd"/></svg>