<svg width="24" height="24" xmlns="http://www.w3.org/2000/svg"><path d="M8.924 10.475h1.536V8.952H8.924v1.523zM9.933 6.48c.355-.395.845-.601 1.473-.619v5.532c0 .286-.02.498-.058.64-.074.27-.255.437-.542.497a3.67 3.67 0 01-.657.043v.422h3.699v-.422a6.71 6.71 0 01-.438-.01c-.288-.03-.495-.105-.615-.228-.143-.145-.214-.46-.214-.942V5.86c.63.018 1.123.224 1.48.619.338.378.545.957.62 1.737l.4-.068-.075-2.649H8.992L8.917 8.15l.4.068c.074-.78.28-1.358.616-1.737zm3.626 3.997h1.536V8.953h-1.536v1.524zM8.5 19.5h7a.75.75 0 000-1.501h-7a.75.75 0 000 1.5zm0-3h7a.75.75 0 000-1.501h-7a.75.75 0 000 1.5zm10.5 4c0 .826-.672 1.499-1.5 1.499h-11c-.827 0-1.5-.673-1.5-1.5V2h14v18.5zM3.5.5v20a3 3 0 003 3h11a3 3 0 003-3V.5h-17z" fill="#000" fill-rule="evenodd"/></svg>