<svg width="24" height="24" xmlns="http://www.w3.org/2000/svg"><path d="M15.5 16.5h-7a.75.75 0 010-1.5h7a.75.75 0 110 1.5zm0 1.5a.75.75 0 110 1.5h-7a.75.75 0 010-1.5h7zm-.385-12.5v2.556h-.447v-.075c0-1.146-.609-1.882-1.762-1.95l-.177-.005h-.075v5.414c0 .705.262 1.013.91 1.049l.134.003h.224v.527h-3.879v-.527h.224c.7 0 1.005-.264 1.04-.917l.004-.135V6.026h-.074c-1.208 0-1.874.682-1.935 1.786l-.004.17v.074H8.85V5.5h6.265zm0 3.342v1.67h-1.67v-1.67h1.67zm-4.594 0v1.67H8.85v-1.67h1.67zM3.5.5v20a3 3 0 003 3h11a3 3 0 003-3V.5h-17z" fill-rule="evenodd"/></svg>