<svg width="24" height="24" xmlns="http://www.w3.org/2000/svg"><path d="M15.5 16.5h-7a.75.75 0 010-1.5h7a.75.75 0 110 1.5zm0 3h-7a.75.75 0 010-1.5h7a.75.75 0 110 1.5zm-6.576-9.024h1.536V8.952H8.922v1.524zm4.636 0h1.534V8.952H13.56v1.524zM8.99 5.5h6.016l.075 2.648-.402.069c-.074-.78-.281-1.359-.62-1.737-.355-.395-.848-.602-1.479-.619v5.531c0 .484.072.798.214.943.12.123.327.199.615.227.085.007.232.01.439.01v.424h-3.7v-.424c.297 0 .516-.013.658-.042.285-.06.466-.226.541-.497.038-.142.058-.355.058-.641V5.861c-.628.017-1.119.224-1.474.619-.335.378-.54.957-.615 1.737l-.4-.069.075-2.648zm-5.49-5v20a3 3 0 003 3h11a3 3 0 003-3V.5h-17z" fill="#000" fill-rule="evenodd"/></svg>