<svg width="24" height="24" xmlns="http://www.w3.org/2000/svg"><path d="M8.41 15.2l-2.562 3.6h2.487l-5.047 4.078c-.127.103-.295-.029-.253-.166l.022-.046L4.863 20H2.95l2.661-4.8H8.41zm3.47-.178l1.04.6-.68 1.178h1.36V18h-1.36l.68 1.178-1.04.6-.68-1.178-.68 1.178-1.04-.6.68-1.178H8.8v-1.2h1.36l-.68-1.178 1.04-.6.68 1.178.68-1.178zm-1.78-9.04a5.577 5.577 0 015.242 3.638 4.245 4.245 0 012.258 3.744 4.238 4.238 0 01-2.607 3.905l-.193.075v-1.306a3.039 3.039 0 001.6-2.674 3.044 3.044 0 00-1.613-2.68l-.178-.088-.243-.11-.082-.253A4.381 4.381 0 0010.1 7.18a4.377 4.377 0 00-2.757.978l-.191.165-.262.238-.335-.115a2.286 2.286 0 00-.738-.125c-1.206 0-2.196.94-2.277 2.126l-.005.156.024.517-.373.166a2.677 2.677 0 00-1.585 2.44c0 1.19.781 2.197 1.857 2.542l.164.047-.595 1.074A3.876 3.876 0 01.4 13.727c0-1.391.75-2.669 1.942-3.355a3.486 3.486 0 014.262-3.158A5.574 5.574 0 0110.1 5.981zM18.176.504a5.38 5.38 0 012.622-.03 4.548 4.548 0 003.057 8.515 5.376 5.376 0 01-2.934 1.969c-.912.24-1.83.23-2.685.015a5.42 5.42 0 00-1.938-2.184 6.748 6.748 0 00-2.137-2.676A5.403 5.403 0 0118.176.505z" fill="#000" fill-rule="evenodd"/></svg>