<svg width="24" height="24" xmlns="http://www.w3.org/2000/svg"><path d="M8.41 15.2l-2.562 3.6h2.487L3.29 22.878c-.128.103-.296-.029-.254-.166l.023-.046L4.863 20H2.951l2.662-4.8H8.41zm3.471-.178l1.04.6-.681 1.178h1.36V18h-1.36l.68 1.179-1.039.6-.68-1.179-.68 1.179-1.04-.6.68-1.179h-1.36v-1.2h1.36l-.68-1.178 1.04-.6.68 1.178.68-1.178zM10.107 5.98a5.56 5.56 0 015.233 3.674 4.25 4.25 0 012.26 3.753 4.239 4.239 0 01-2.606 3.913l-.193.075V15.9a.998.998 0 00-.401-.801l-.099-.065-2.6-1.504a1 1 0 00-.882-.059l-.12.06-.779.45L4.906 14l-1.902 3.431A3.864 3.864 0 01.4 13.777c0-1.4.755-2.683 1.952-3.365.102-1.822 1.607-3.273 3.443-3.273.27 0 .54.033.805.098a5.53 5.53 0 013.506-1.256zm8.07-5.476a5.377 5.377 0 012.621-.03 4.548 4.548 0 003.057 8.515 5.377 5.377 0 01-2.933 1.969 5.37 5.37 0 01-2.685.015A5.421 5.421 0 0016.3 8.79a6.749 6.749 0 00-2.137-2.676A5.404 5.404 0 0118.177.505z" fill-rule="evenodd"/></svg>