<svg width="24" height="24" xmlns="http://www.w3.org/2000/svg"><path d="M12 1c6.075 0 11 4.925 11 11s-4.925 11-11 11S1 18.075 1 12 5.925 1 12 1zm0 1.5c-5.239 0-9.5 4.261-9.5 9.5 0 5.238 4.261 9.5 9.5 9.5 5.238 0 9.5-4.262 9.5-9.5 0-5.239-4.262-9.5-9.5-9.5zM12 15a1.25 1.25 0 110 2.5 1.25 1.25 0 010-2.5zm.101-7.98c1.695 0 2.926 1.123 2.926 2.67 0 .876-.381 1.437-.824 1.89l-.225.217-.462.42c-.346.323-.636.655-.69 1.095l-.01.152v.332H11.07v-.603c0-.89.46-1.383.968-1.811l.475-.391c.388-.33.707-.676.707-1.196 0-.7-.428-1.134-1.118-1.134-.612 0-1.02.366-1.146 1.015l-.022.143H9.12c.085-1.412 1.027-2.799 2.981-2.799z" fill-rule="evenodd"/></svg>