<svg width="24" height="24" xmlns="http://www.w3.org/2000/svg"><path d="M1.75 11C6.3 11 10 14.7 10 19.25c0 .337-.028.647-.063.95l-.037.3H8.4c.05-.4.1-.8.1-1.25 0-3.7-3.05-6.75-6.75-6.75-.338 0-.647.028-.95.063l-.3.037v-1.5c.4-.05.8-.1 1.25-.1zm0 3.5c2.6 0 4.75 2.15 4.75 4.75a5.1 5.1 0 01-.096 1.01l-.054.24h-1.6c.15-.4.25-.8.25-1.25C5 17.45 3.55 16 1.75 16c-.375 0-.715.07-1.05.18l-.2.07v-1.6c.4-.1.8-.15 1.25-.15zm0 3.5a1.25 1.25 0 110 2.5 1.25 1.25 0 010-2.5zM20.5 3.5a3.01 3.01 0 012.995 2.824l.005.176v11a3.01 3.01 0 01-2.824 2.995l-.176.005h-9.1c.075-.425.1-.712.106-.938l.001-.206L11.5 19h9c.8 0 1.423-.576 1.493-1.352L22 17.5v-11c0-.8-.576-1.423-1.352-1.493L20.5 5h-17c-.753 0-1.417.576-1.493 1.352L2 6.5v3l-.136-.007-.232.001-.24.011-.306.024-.178.019L.5 9.6V6.5a3.01 3.01 0 012.824-2.995L3.5 3.5h17z" fill="#000" fill-rule="evenodd"/></svg>