<svg height="24" width="24" xmlns="http://www.w3.org/2000/svg"><path d="m1.75 11c4.55 0 8.25 3.7 8.25 8.25 0 .45-.05.85-.1 1.25h-1.5c.05-.4.1-.8.1-1.25 0-3.7-3.05-6.75-6.75-6.75-.45 0-.85.05-1.25.1v-1.5c.4-.05.8-.1 1.25-.1zm0 3.5c2.6 0 4.75 2.15 4.75 4.75 0 .45-.05.85-.15 1.25h-1.6c.15-.4.25-.8.25-1.25 0-1.8-1.45-3.25-3.25-3.25-.45 0-.85.1-1.25.25v-1.6c.4-.1.8-.15 1.25-.15zm0 3.5a1.25 1.25 0 1 1 0 2.5 1.25 1.25 0 0 1 0-2.5zm18.75-14.5c1.65 0 3 1.35 3 3v11c0 1.65-1.35 3-3 3h-9.1c.15-.85.1-1.15.1-1.5h9c.85 0 1.5-.65 1.5-1.5v-11c0-.85-.65-1.5-1.5-1.5h-17c-.8 0-1.5.65-1.5 1.5v3s-.45-.05-1.5.1v-3.1c0-1.65 1.35-3 3-3z" fill="#262626" fill-rule="evenodd"/></svg>