<svg xmlns="http://www.w3.org/2000/svg" width="24" height="24">
    <path fill="#262626" fill-rule="evenodd" d="M1.75 18a1.25 1.25 0 110 2.5 1.25 1.25 0 010-2.5zm0-3.5a4.755 4.755 0 014.75 4.75c-.003.422-.06.842-.17 1.25H4.75A3.25 3.25 0 00.5 16.25v-1.58c.408-.11.828-.167 1.25-.17zm0-3.5A8.26 8.26 0 0110 19.25c-.007.42-.047.837-.12 1.25h-1.5c.078-.412.118-.83.12-1.25a6.76 6.76 0 00-6.75-6.75 6.88 6.88 0 00-1.25.105v-1.5c.414-.065.831-.1 1.25-.105zM20.5 3.5a3 3 0 013 3v11a3 3 0 01-3 3h-9.09a9.37 9.37 0 00.09-1.25A9.75 9.75 0 001.75 9.5a9.37 9.37 0 00-1.25.09V6.5a3 3 0 013-3z"/>
</svg>
