<svg width="24" height="24" xmlns="http://www.w3.org/2000/svg"><path d="M1.75 18a1.25 1.25 0 110 2.5 1.25 1.25 0 010-2.5zm0-3.5a4.755 4.755 0 014.75 4.75 4.895 4.895 0 01-.11 1.004l-.06.246H4.75a3.25 3.25 0 00-4.057-4.323L.5 16.25v-1.58c.408-.11.828-.167 1.25-.17zm0-3.5A8.26 8.26 0 0110 19.25c-.005.314-.03.628-.071.94l-.049.31h-1.5c.078-.412.118-.83.12-1.25a6.76 6.76 0 00-6.75-6.75 6.88 6.88 0 00-.94.057l-.31.048v-1.5c.414-.065.831-.1 1.25-.105zM20.5 3.5a3 3 0 012.995 2.824l.005.176v11a3 3 0 01-2.824 2.995l-.176.005h-9.09a9.37 9.37 0 00.09-1.25c0-5.385-4.365-9.75-9.75-9.75a9.37 9.37 0 00-.835.041L.5 9.59V6.5a3 3 0 012.824-2.995L3.5 3.5h17z" fill="#000" fill-rule="evenodd"/></svg>