<svg width="24" height="24" xmlns="http://www.w3.org/2000/svg"><path d="M18.75 9.5c.367 0 .691.294.743.651l.007.099V12c0 3.817-2.826 6.964-6.509 7.424l-.241.026v4.05h-1.5v-4.05c-3.72-.343-6.624-3.415-6.746-7.202L4.5 12v-1.75c0-.4.35-.75.75-.75.367 0 .691.294.743.651L6 10.25V12c0 3.3 2.7 6 6 6 3.225 0 5.877-2.579 5.996-5.776L18 12v-1.75c0-.4.35-.75.75-.75zM12 .5a4.48 4.48 0 014.495 4.287L16.5 5v7c0 2.5-2 4.5-4.5 4.5a4.48 4.48 0 01-4.495-4.287L7.5 12V5c0-2.5 2-4.5 4.5-4.5zM12 2a3.01 3.01 0 00-2.995 2.824L9 5v7c0 1.65 1.35 3 3 3a3.01 3.01 0 002.995-2.824L15 12V5c0-1.65-1.35-3-3-3z" fill="#000" fill-rule="evenodd"/></svg>