<svg width="24" height="24" xmlns="http://www.w3.org/2000/svg"><path d="M6.681 18.621l1.04.6L7.04 20.4H8.4v1.2H7.04l.68 1.178-1.039.6-.68-1.178-.68 1.178-1.04-.6.68-1.178h-1.36v-1.2h1.36l-.68-1.179 1.04-.6L6 19.8l.68-1.179zm5.2-3.6l1.04.6-.681 1.179h1.36V18h-1.36l.68 1.178-1.039.6-.68-1.178-.68 1.178-1.04-.6.68-1.178h-1.36v-1.2h1.36l-.68-1.179 1.04-.6.68 1.179.68-1.179zM10.108 5.95a5.56 5.56 0 015.233 3.674 4.25 4.25 0 012.261 3.753 4.24 4.24 0 01-2.514 3.873l-.187.078v-1.482a1 1 0 00-.4-.8l-.1-.065-2.7-1.565a1 1 0 00-.882-.06l-.119.06-2.699 1.554a1 1 0 00-.493.748l-.007.118v1.757l-.996-.581a1 1 0 00-.889-.06l-.12.06-1.012.591H4.04a3.858 3.858 0 01-3.639-3.857c0-1.4.755-2.684 1.952-3.366.102-1.822 1.608-3.273 3.443-3.273.27 0 .54.033.806.098a5.53 5.53 0 013.505-1.255zm8.07-5.445a5.37 5.37 0 012.62-.03 4.548 4.548 0 003.057 8.515 5.377 5.377 0 01-2.933 1.969 5.37 5.37 0 01-2.685.015A5.424 5.424 0 0016.3 8.79a6.749 6.749 0 00-2.137-2.676A5.403 5.403 0 0118.177.505z" fill-rule="evenodd"/></svg>