<svg width="24" height="24" xmlns="http://www.w3.org/2000/svg"><path d="M12.795 14.335c-.143-.146-.214-.459-.214-.943V7.86c.631.018 1.124.225 1.48.62.338.377.545.956.619 1.736l.401-.068-.074-2.647H8.992l-.075 2.647.4.069c.074-.78.28-1.36.617-1.738.354-.394.845-.6 1.474-.617v5.53c0 .287-.021.5-.059.64-.074.271-.255.438-.542.497-.141.03-.36.043-.657.043v.424h3.7v-.424a6.12 6.12 0 01-.439-.01c-.289-.028-.495-.104-.616-.227zm-3.87-1.859h1.535v-1.524H8.925v1.524zm4.634 0h1.536V10.95h-1.536v1.524zm-1.558 6.023a1.25 1.25 0 100 2.5 1.25 1.25 0 000-2.5zm5.5 2c0 .828-.673 1.5-1.5 1.5h-8c-.827 0-1.5-.672-1.5-1.5v-17c0-.826.673-1.5 1.5-1.5h2v1.5h4V2h2c.827 0 1.5.674 1.5 1.5v17zm-1.5-20h-8a3 3 0 00-3 3v17a3 3 0 003 3h8a3 3 0 003-3v-17a3 3 0 00-3-3z" fill="#000" fill-rule="evenodd"/></svg>