<svg width="24" height="24" xmlns="http://www.w3.org/2000/svg"><path d="M12.001 21a1.25 1.25 0 110-2.5 1.25 1.25 0 010 2.5zm3.114-13.5v2.556h-.447v-.075c0-1.203-.671-1.955-1.94-1.955h-.074v5.414c0 .751.298 1.052 1.044 1.052h.224v.527h-3.879v-.527h.224c.746 0 1.044-.3 1.044-1.052V8.026h-.074c-1.268 0-1.94.752-1.94 1.955v.075H8.85V7.5h6.265zm0 3.342v1.67h-1.67v-1.67h1.67zm-4.594 0v1.67H8.85v-1.67h1.67zM14 2v1.5h-4V2h4zm2-1.5h-8a3 3 0 00-3 3v17a3 3 0 003 3h8a3 3 0 003-3v-17a3 3 0 00-3-3z" fill="#000" fill-rule="evenodd"/></svg>