<svg width="24" height="24" xmlns="http://www.w3.org/2000/svg"><path d="M13.559 12.476h1.535v-1.524h-1.535v1.524zm-4.635 0h1.536v-1.524H8.924v1.524zm4.926 2.52h-3.701v-.423c.298 0 .517-.014.659-.043.286-.06.467-.226.541-.497.038-.142.059-.355.059-.641V7.861c-.629.017-1.12.224-1.474.619-.337.378-.543.957-.617 1.737l-.4-.069.075-2.648h6.015l.074 2.648-.401.069c-.074-.78-.281-1.359-.619-1.737-.356-.395-.849-.602-1.48-.619v5.531c0 .484.072.798.214.943.121.122.327.198.616.227.085.007.232.011.439.011v.423zM12.001 21a1.25 1.25 0 110-2.5 1.25 1.25 0 010 2.5zm-2-17.5h4V2h-4v1.5zm6-3h-8a3 3 0 00-3 3v17a3 3 0 003 3h8a3 3 0 003-3v-17a3 3 0 00-3-3z" fill="#000" fill-rule="evenodd"/></svg>