<svg height="24" width="24" xmlns="http://www.w3.org/2000/svg"><path d="m11.755 10.04c1.078 0 1.96.882 1.96 1.96 0 .833-.49 1.518-1.225 1.812v7.984a.753.753 0 0 1 -.735.735.753.753 0 0 1 -.735-.735v-7.984a1.922 1.922 0 0 1 -1.224-1.812c0-1.078.882-1.96 1.96-1.96zm-7.984-6.023 1.079 1.077c-3.82 3.82-3.82 9.992-.049 13.812l-1.029 1.029c-4.408-4.36-4.408-11.51 0-15.919zm15.968 0c4.359 4.408 4.359 11.56 0 15.919l-1.029-1.029c3.82-3.82 3.82-10.04 0-13.861zm-13.176 2.791 1.029 1.029a5.813 5.813 0 0 0 -1.714 4.163c0 1.567.636 3.037 1.714 4.163l-1.029 1.029a7.34 7.34 0 0 1 -2.155-5.192c0-1.96.784-3.82 2.155-5.192zm10.384 0a7.34 7.34 0 0 1 2.155 5.192 7.34 7.34 0 0 1 -2.155 5.192l-1.029-1.029a5.813 5.813 0 0 0 1.715-4.163 5.813 5.813 0 0 0 -1.715-4.163z" fill="#262626" fill-rule="evenodd"/></svg>