<svg width="24" height="24" xmlns="http://www.w3.org/2000/svg"><path d="M12.04 10.024c1.077 0 1.959.882 1.959 1.96 0 .777-.427 1.426-1.08 1.748l-.145.064v7.984a.753.753 0 01-.734.734.757.757 0 01-.728-.638l-.007-.096v-7.984a1.922 1.922 0 01-1.224-1.812c0-1.078.881-1.96 1.959-1.96zM4.056 4l1.078 1.078c-3.75 3.75-3.82 9.764-.255 13.597l.206.215-1.029 1.028C-.276 15.634-.35 8.654 3.832 4.23L4.056 4zm15.967 0c4.284 4.332 4.358 11.313.222 15.69l-.222.228-1.028-1.028c3.75-3.75 3.819-9.811.208-13.647l-.208-.214L20.023 4zM6.848 6.792L7.877 7.82a5.813 5.813 0 00-1.715 4.164c0 1.475.564 2.863 1.529 3.96l.186.203-1.029 1.029a7.34 7.34 0 01-2.155-5.192c0-1.856.703-3.625 1.943-4.972l.212-.22zm10.384 0a7.34 7.34 0 012.155 5.192 7.337 7.337 0 01-1.944 4.971l-.211.22-1.029-1.028a5.813 5.813 0 001.714-4.163c0-1.475-.52-2.864-1.52-3.961l-.194-.203 1.029-1.028z" fill="#000" fill-rule="evenodd"/></svg>