<svg width="24" height="24" xmlns="http://www.w3.org/2000/svg"><path d="M11.755 10.04c1.078 0 1.96.882 1.96 1.96 0 .777-.427 1.426-1.082 1.748l-.143.064v7.984a.753.753 0 01-.735.735.757.757 0 01-.728-.638l-.007-.097v-7.984A1.922 1.922 0 019.796 12c0-1.078.882-1.96 1.96-1.96zM3.771 4.017L4.85 5.094c-3.75 3.75-3.82 9.764-.255 13.597l.206.215-1.029 1.029C-.56 15.65-.635 8.67 3.547 4.247l.224-.23zm15.968 0c4.284 4.332 4.358 11.314.221 15.69l-.221.229-1.029-1.029c3.75-3.75 3.82-9.811.209-13.646l-.209-.215 1.029-1.029zM6.563 6.808l1.029 1.029A5.813 5.813 0 005.878 12c0 1.475.564 2.864 1.528 3.961l.186.202-1.029 1.029A7.34 7.34 0 014.408 12c0-1.856.704-3.624 1.944-4.971l.211-.22zm10.384 0A7.34 7.34 0 0119.102 12a7.337 7.337 0 01-1.943 4.971l-.212.22-1.029-1.028A5.813 5.813 0 0017.633 12c0-1.475-.521-2.864-1.521-3.961l-.194-.202 1.029-1.029z" fill="#000" fill-rule="evenodd"/></svg>