<svg width="24" height="24" xmlns="http://www.w3.org/2000/svg"><path d="M12 10a2 2 0 01.902 3.78l-.152.07V22a.75.75 0 01-1.493.102L11.25 22v-8.15A2 2 0 0112 10zM3.65 3.65l1.5 1.5v.01a9.694 9.694 0 00-.206 13.487l.206.213-1.5 1.5C-.876 15.82-.952 8.521 3.42 3.887l.23-.237zm16.705-.005c4.52 4.54 4.596 11.83.23 16.463l-.23.237-1.5-1.5a9.694 9.694 0 00.206-13.487l-.206-.213 1.5-1.5zM6.5 6.5L8 8a5.685 5.685 0 00-.195 7.846L8 16.05l-1.5 1.5a7.825 7.825 0 01-.19-10.853L6.5 6.5zm11.025 0a7.825 7.825 0 01.168 10.8l-.193.2L16 16a5.685 5.685 0 00.202-7.812L16.025 8l1.5-1.5z" fill-rule="evenodd"/></svg>