<svg width="24" height="24" xmlns="http://www.w3.org/2000/svg"><path d="M17.962 8.282c1.229-1.108 5.662-5.636 4.468-6.818-.964-.96-3.385 1.341-6.881 4.522-2.346-.654-10.296-2.564-12.246-3.032a.8.8 0 00-.622 1.453l8.978 5.81-4.054 4.434-5.47-.633a.67.67 0 00-.379 1.265l4.547 2.295 2.343 4.571a.67.67 0 001.07.17l.003-.004a.667.667 0 00.19-.554l-.662-5.478 4.46-4.093 5.81 9.068a.802.802 0 001.2.173l.04-.036a.797.797 0 00.259-.779c-.451-2.035-2.4-10.005-3.054-12.334" fill="#000" fill-rule="evenodd"/></svg>