<svg width="24" height="24" xmlns="http://www.w3.org/2000/svg"><path d="M9.239 23.262a1.428 1.428 0 01-1.262-.773l-2.231-4.353-4.327-2.185a1.422 1.422 0 01.805-2.679l5.085.59 3.197-3.498-8.233-5.328a1.546 1.546 0 01-.25-2.403 1.536 1.536 0 011.455-.409c1.546.371 9.064 2.176 11.869 2.93l.207-.188c3.729-3.4 5.981-5.449 7.403-4.035.199.198.435.553.422 1.117-.045 1.966-3.469 5.408-4.576 6.47.759 2.802 2.538 10.11 2.943 11.933a1.548 1.548 0 01-.5 1.51l-.039.034a1.544 1.544 0 01-1.239.363 1.55 1.55 0 01-1.085-.698l-5.327-8.315-3.519 3.228.617 5.095c.053.437-.096.866-.407 1.177a1.43 1.43 0 01-1.008.417z" fill-rule="evenodd"/></svg>