<?xml version="1.0" encoding="UTF-8"?>
<svg width="24px" height="24px" viewBox="0 0 24 24" version="1.1" xmlns="http://www.w3.org/2000/svg" xmlns:xlink="http://www.w3.org/1999/xlink">
    <title>/svg/icon/home/network-secure/default</title>
    <g id="icon/home/network-secure/default" stroke="none" stroke-width="1" fill="none" fill-rule="evenodd">
        <path d="M11.9997,0.5 C14.4107857,0.5 16.3840069,2.40433306 16.4947942,4.78842971 L16.4997,5 L16.4997,6.5 L17.9997,6.5 L17.9997,12.5 C17.9997,14.0978214 16.7509156,15.4036709 15.1759873,15.4949078 L14.9997,15.5 L12.7497,15.5 L12.7497,17.5 L21.9997,17.5 L21.9997,20.675 C22.5897,20.956 22.9997,21.554 22.9997,22.25 C22.9997,23.217 22.2167,24 21.2497,24 C20.2837,24 19.4997,23.217 19.4997,22.25 C19.4997,21.6075385 19.8499012,21.049432 20.3670427,20.7455703 L20.4997,20.675 L20.4997,19 L12.7497,19 L12.7497,20.675 C13.3397,20.956 13.7497,21.554 13.7497,22.25 C13.7497,23.217 12.9667,24 11.9997,24 C11.0337,24 10.2497,23.217 10.2497,22.25 C10.2497,21.6075385 10.5999012,21.049432 11.1170427,20.7455703 L11.2497,20.675 L11.2497,19 L3.4997,19 L3.4997,20.675 C4.0897,20.956 4.4997,21.554 4.4997,22.25 C4.4997,23.217 3.7167,24 2.7497,24 C1.7837,24 0.9997,23.217 0.9997,22.25 C0.9997,21.6075385 1.34990118,21.049432 1.86704274,20.7455703 L1.9997,20.675 L1.9997,17.5 L11.2497,17.5 L11.2497,15.5 L8.9997,15.5 C7.40187857,15.5 6.09602908,14.2512156 6.00479216,12.6762873 L5.9997,12.5 L5.9997,6.5 L7.4997,6.5 L7.4997,5 C7.4997,2.518 9.5187,0.5 11.9997,0.5 Z M16.4997,8 L7.4997,8 L7.4997,12.5 C7.4997,13.2783529 8.09585225,13.9202907 8.85546308,13.9931195 L8.9997,14 L14.9997,14 C15.7780529,14 16.4199907,13.4038478 16.4928195,12.6442369 L16.4997,12.5 L16.4997,8 Z M12.0007,9.449 C12.6237,9.449 13.1297,9.955 13.1297,10.578 C13.1297,10.8651429 13.0209653,11.125102 12.8444289,11.3238717 L12.7507,11.418 L12.7507,12.5 L11.2507,12.5 L11.2507,11.418 L11.1566009,11.3238717 C10.9794347,11.125102 10.8707,10.8651429 10.8707,10.578 C10.8707,9.955 11.3767,9.449 12.0007,9.449 Z M11.9997,2 C10.4047714,2 9.09623571,3.25157398 9.00480323,4.82401157 L8.9997,5 L8.9997,6.5 L14.9997,6.5 L14.9997,5 C14.9997,3.346 13.6537,2 11.9997,2 Z" id="Icon" fill="#000000"></path>
    </g>
</svg>