<svg width="24" height="24" xmlns="http://www.w3.org/2000/svg"><path d="M12 .5a4.505 4.505 0 014.495 4.288L16.5 5v1.5H18v6a3 3 0 01-2.824 2.995L15 15.5h-2.25v2H22v3.175A1.745 1.745 0 0121.25 24a1.744 1.744 0 01-.883-3.254l.133-.071V19h-7.75v1.675A1.745 1.745 0 0112 24a1.744 1.744 0 01-.883-3.254l.133-.071V19H3.5v1.675A1.745 1.745 0 012.75 24a1.744 1.744 0 01-.883-3.254L2 20.675V17.5h9.25v-2H9a3 3 0 01-2.995-2.824L6 12.5v-6h1.5V5C7.5 2.518 9.519.5 12 .5zM16.5 8h-9v4.5c0 .778.596 1.42 1.355 1.493L9 14h6c.778 0 1.42-.596 1.493-1.356l.007-.144V8zM12 9.449a1.13 1.13 0 011.13 1.129c0 .287-.109.547-.286.746l-.093.094V12.5h-1.5v-1.082l-.094-.094a1.116 1.116 0 01-.286-.746A1.13 1.13 0 0112 9.449zM12 2a3.004 3.004 0 00-2.995 2.824L9 5v1.5h6V5c0-1.654-1.346-3-3-3z" fill-rule="evenodd"/></svg>