<svg width="24" height="24" xmlns="http://www.w3.org/2000/svg"><path d="M12 .5a4.505 4.505 0 014.495 4.288L16.5 5v1.5H18v6a3 3 0 01-2.824 2.995L15 15.5h-2.25v2H22v3.175A1.745 1.745 0 0121.25 24a1.75 1.75 0 01-1.75-1.75c0-.643.35-1.2.867-1.504l.133-.071V19h-7.75v1.675A1.745 1.745 0 0112 24a1.75 1.75 0 01-1.75-1.75c0-.643.35-1.2.867-1.504l.133-.071V19H3.5v1.675A1.745 1.745 0 012.75 24 1.75 1.75 0 011 22.25c0-.643.35-1.2.867-1.504L2 20.675V17.5h9.25v-2H9a3 3 0 01-2.995-2.824L6 12.5v-6h1.5V5C7.5 2.518 9.52.5 12 .5zm0 8.949a1.13 1.13 0 00-1.13 1.13c0 .286.11.546.286.745l.094.094V12.5h1.5v-1.082A1.125 1.125 0 0012 9.449zM12 2a3.003 3.003 0 00-2.995 2.824L9 5v1.5h6V5c0-1.655-1.346-3-3-3z" fill-rule="evenodd"/></svg>