<?xml version="1.0" encoding="UTF-8"?>
<svg width="24px" height="24px" viewBox="0 0 24 24" version="1.1" xmlns="http://www.w3.org/2000/svg" xmlns:xlink="http://www.w3.org/1999/xlink">
    <title>/svg/icon/home/network-secure/selected</title>
    <g id="icon/home/network-secure/selected" stroke="none" stroke-width="1" fill="none" fill-rule="evenodd">
        <path d="M11.9996,0.5 C14.4097143,0.5 16.3838514,2.40433306 16.4946918,4.78842971 L16.4996,5 L16.4996,6.5 L17.9996,6.5 L17.9996,12.5 C17.9996,14.0978214 16.7508156,15.4036709 15.1758873,15.4949078 L14.9996,15.5 L12.7496,15.5 L12.7496,17.5 L21.9996,17.5 L21.9996,20.675 C22.5896,20.957 22.9996,21.553 22.9996,22.25 C22.9996,23.217 22.2166,24 21.2496,24 C20.2836,24 19.4996,23.217 19.4996,22.25 C19.4996,21.6066154 19.8498012,21.0492899 20.3669427,20.7455539 L20.4996,20.675 L20.4996,19 L12.7496,19 L12.7496,20.675 C13.3396,20.957 13.7496,21.553 13.7496,22.25 C13.7496,23.217 12.9666,24 11.9996,24 C11.0336,24 10.2496,23.217 10.2496,22.25 C10.2496,21.6066154 10.5998012,21.0492899 11.1169427,20.7455539 L11.2496,20.675 L11.2496,19 L3.4996,19 L3.4996,20.675 C4.0896,20.957 4.4996,21.553 4.4996,22.25 C4.4996,23.217 3.7166,24 2.7496,24 C1.7836,24 0.9996,23.217 0.9996,22.25 C0.9996,21.6066154 1.34980118,21.0492899 1.86694274,20.7455539 L1.9996,20.675 L1.9996,17.5 L11.2496,17.5 L11.2496,15.5 L8.9996,15.5 C7.40274286,15.5 6.09599796,14.2512156 6.00469585,12.6762873 L5.9996,12.5 L5.9996,6.5 L7.4996,6.5 L7.4996,5 C7.4996,2.518 9.5196,0.5 11.9996,0.5 Z M11.9996,9.449 C11.3756,9.449 10.8706,9.955 10.8706,10.579 C10.8706,10.8652857 10.9800694,11.1251224 11.156186,11.3238746 L11.2496,11.418 L11.2496,12.5 L12.7496,12.5 L12.7496,11.418 C12.9806,11.211 13.1296,10.913 13.1296,10.579 C13.1296,9.955 12.6236,9.449 11.9996,9.449 Z M11.9996,2 C10.4046714,2 9.09613571,3.25064413 9.00470323,4.82391194 L8.9996,5 L8.9996,6.5 L14.9996,6.5 L14.9996,5 C14.9996,3.345 13.6536,2 11.9996,2 Z" id="Icon" fill="#000000"></path>
    </g>
</svg>