<svg width="24" height="24" xmlns="http://www.w3.org/2000/svg"><path d="M11.5.5a3 3 0 012.995 2.824l.005.176V6H13V3.5c0-.778-.596-1.42-1.356-1.493L11.5 2h-2v1.5h-4V2h-2c-.778 0-1.42.596-1.493 1.356L2 3.5v17c0 .778.596 1.42 1.356 1.493L3.5 22h8c.778 0 1.42-.596 1.493-1.356L13 20.48l1.37.896a3.002 3.002 0 01-2.678 2.119l-.192.006h-8a3 3 0 01-2.995-2.824L.5 20.5v-17A3 3 0 013.324.505L3.5.5h8zm-4 18a1.25 1.25 0 110 2.5 1.25 1.25 0 010-2.5zm7-7.668V14.5h6.25a.75.75 0 01.102 1.493L20.75 16H14.5v3.668L7.75 15.25l6.75-4.418zm1.5-7l6.75 4.418L16 12.668V9H9.75a.75.75 0 01-.102-1.493L9.75 7.5H16V3.832z" fill="#000" fill-rule="evenodd"/></svg>