<svg width="24" height="24" xmlns="http://www.w3.org/2000/svg"><path d="M11.5.5a3 3 0 012.995 2.824l.005.176v3.001l-4.906.006-.17.024A1.75 1.75 0 009.75 10h4.194l-8.02 5.25 8.556 5.6a3 3 0 01-2.804 2.645l-.176.005h-8a3 3 0 01-2.995-2.824L.5 20.5v-17A3 3 0 013.324.505L3.5.5h8zm-4 17.75a1.5 1.5 0 100 3 1.5 1.5 0 000-3zm0 .5a1 1 0 110 2 1 1 0 010-2zm7-7.918V14.5h6.25a.75.75 0 01.102 1.493L20.75 16H14.5v3.668L7.75 15.25l6.75-4.418zm1.5-7l6.75 4.418L16 12.668V9H9.75a.75.75 0 01-.102-1.493L9.75 7.5H16V3.832zM9.5 2.25v1h-4v-1h4z" fill="#000" fill-rule="evenodd"/></svg>