<svg width="24" height="24" xmlns="http://www.w3.org/2000/svg"><path d="M11.5.5a3 3 0 012.995 2.824l.005.176v2.26h-4a2.25 2.25 0 00-.154 4.495l.154.005h3.055l-4.84 3.165a1.5 1.5 0 00-.12 2.411l.12.089 4.965 3.25c.202.134.434.216.675.239l.145.006v1.08a3 3 0 01-2.824 2.995l-.176.005h-8a3 3 0 01-2.995-2.824L.5 20.5v-17A3 3 0 013.324.505L3.5.5h8zm-4 17.75a1.5 1.5 0 100 3 1.5 1.5 0 000-3zm0 .5a1 1 0 110 2 1 1 0 010-2zm7-7.33v2.5H20a.75.75 0 01.102 1.493L20 15.42h-5.5v2.5l-4.965-3.25 4.965-3.25zM16 4.75L20.97 8 16 11.25v-2.5h-5.5a.75.75 0 01-.102-1.493l.102-.007H16v-2.5zm-6.5-2.5h-4v1h4v-1z" fill="#000" fill-rule="evenodd"/></svg>