<svg width="24" height="24" xmlns="http://www.w3.org/2000/svg"><path d="M8.5 13a2.473 2.473 0 012.495 2.333L11 15.5v4a2.473 2.473 0 01-2.333 2.495L8.5 22h-4a2.473 2.473 0 01-2.495-2.333L2 19.5v-4a2.473 2.473 0 012.333-2.495L4.5 13h4zm11 0a2.473 2.473 0 012.495 2.333L22 15.5v4a2.473 2.473 0 01-2.333 2.495L19.5 22h-4a2.473 2.473 0 01-2.495-2.333L13 19.5v-4a2.473 2.473 0 012.333-2.495L15.5 13h4zm-11 1.5h-4c-.51 0-.935.388-.993.884L3.5 15.5v4c0 .51.388.935.884.993l.116.007h4c.51 0 .935-.388.993-.884L9.5 19.5v-4c0-.51-.388-.935-.884-.993L8.5 14.5zm11 0h-4c-.51 0-.935.388-.993.884l-.007.116v4c0 .51.388.935.884.993l.116.007h4c.51 0 .935-.388.993-.884l.007-.116v-4c0-.51-.388-.935-.884-.993L19.5 14.5zM8.5 2a2.473 2.473 0 012.495 2.333L11 4.5v4a2.473 2.473 0 01-2.333 2.495L8.5 11h-4a2.473 2.473 0 01-2.495-2.333L2 8.5v-4a2.473 2.473 0 012.333-2.495L4.5 2h4zm11 0a2.473 2.473 0 012.495 2.333L22 4.5v4a2.473 2.473 0 01-2.333 2.495L19.5 11h-4a2.473 2.473 0 01-2.495-2.333L13 8.5v-4a2.473 2.473 0 012.333-2.495L15.5 2h4zm-11 1.5h-4c-.51 0-.935.388-.993.884L3.5 4.5v4c0 .51.388.935.884.993L4.5 9.5h4c.51 0 .935-.388.993-.884L9.5 8.5v-4c0-.51-.388-.935-.884-.993L8.5 3.5zm11 0h-4c-.51 0-.935.388-.993.884L14.5 4.5v4c0 .51.388.935.884.993l.116.007h4c.51 0 .935-.388.993-.884L20.5 8.5v-4c0-.51-.388-.935-.884-.993L19.5 3.5z" fill-rule="evenodd"/></svg>