<svg width="24" height="24" xmlns="http://www.w3.org/2000/svg"><path d="M8 13a2.473 2.473 0 012.495 2.333l.005.167v4a2.473 2.473 0 01-2.333 2.495L8 22H4a2.473 2.473 0 01-2.495-2.333L1.5 19.5v-4a2.473 2.473 0 012.333-2.495L4 13h4zm11 0a2.473 2.473 0 012.495 2.333l.005.167v4a2.473 2.473 0 01-2.333 2.495L19 22h-4a2.473 2.473 0 01-2.495-2.333L12.5 19.5v-4a2.473 2.473 0 012.333-2.495L15 13h4zM8 14.5H4c-.51 0-.935.388-.993.884L3 15.5v4c0 .51.388.935.884.993L4 20.5h4c.51 0 .935-.388.993-.884L9 19.5v-4c0-.51-.388-.935-.884-.993L8 14.5zm11 0h-4c-.51 0-.935.388-.993.884L14 15.5v4c0 .51.388.935.884.993L15 20.5h4c.51 0 .935-.388.993-.884L20 19.5v-4c0-.51-.388-.935-.884-.993L19 14.5zM8 2a2.473 2.473 0 012.495 2.333l.005.167v4a2.473 2.473 0 01-2.333 2.495L8 11H4a2.473 2.473 0 01-2.495-2.333L1.5 8.5v-4a2.473 2.473 0 012.333-2.495L4 2h4zm11 0a2.473 2.473 0 012.495 2.333l.005.167v4a2.473 2.473 0 01-2.333 2.495L19 11h-4a2.473 2.473 0 01-2.495-2.333L12.5 8.5v-4a2.473 2.473 0 012.333-2.495L15 2h4zM8 3.5H4c-.51 0-.935.388-.993.884L3 4.5v4c0 .51.388.935.884.993L4 9.5h4c.51 0 .935-.388.993-.884L9 8.5v-4c0-.51-.388-.935-.884-.993L8 3.5zm11 0h-4c-.51 0-.935.388-.993.884L14 4.5v4c0 .51.388.935.884.993L15 9.5h4c.51 0 .935-.388.993-.884L20 8.5v-4c0-.51-.388-.935-.884-.993L19 3.5z" fill="#000" fill-rule="evenodd"/></svg>