<svg height="24" width="24" xmlns="http://www.w3.org/2000/svg"><path d="m8 13c1.4 0 2.5 1.1 2.5 2.5v4c0 1.4-1.1 2.5-2.5 2.5h-4c-1.4 0-2.5-1.1-2.5-2.5v-4c0-1.4 1.1-2.5 2.5-2.5zm11 0c1.4 0 2.5 1.1 2.5 2.5v4c0 1.4-1.1 2.5-2.5 2.5h-4c-1.4 0-2.5-1.1-2.5-2.5v-4c0-1.4 1.1-2.5 2.5-2.5zm-11 1.5h-4c-.55 0-1 .45-1 1v4c0 .55.45 1 1 1h4c.55 0 1-.45 1-1v-4c0-.55-.45-1-1-1zm11 0h-4c-.55 0-1 .45-1 1v4c0 .55.45 1 1 1h4c.55 0 1-.45 1-1v-4c0-.55-.45-1-1-1zm-11-12.5c1.4 0 2.5 1.1 2.5 2.5v4c0 1.4-1.1 2.5-2.5 2.5h-4c-1.4 0-2.5-1.1-2.5-2.5v-4c0-1.4 1.1-2.5 2.5-2.5zm11 0c1.4 0 2.5 1.1 2.5 2.5v4c0 1.4-1.1 2.5-2.5 2.5h-4c-1.4 0-2.5-1.1-2.5-2.5v-4c0-1.4 1.1-2.5 2.5-2.5zm-11 1.5h-4c-.55 0-1 .45-1 1v4c0 .55.45 1 1 1h4c.55 0 1-.45 1-1v-4c0-.55-.45-1-1-1zm11 0h-4c-.55 0-1 .45-1 1v4c0 .55.45 1 1 1h4c.55 0 1-.45 1-1v-4c0-.55-.45-1-1-1z" fill="#262626" fill-rule="evenodd"/></svg>