<svg width="24" height="24" xmlns="http://www.w3.org/2000/svg"><path d="M12 .55c2.1 0 4.15.8 5.75 2.4a8.171 8.171 0 011.441 9.596l-.141.254-5.55 9.55c-.3.55-.9.85-1.5.85-.504 0-1.05-.21-1.407-.707l-.093-.143-5.55-9.55a8.17 8.17 0 011.3-9.85C7.85 1.35 9.9.55 12 .55zm0 1.5c-1.8 0-3.45.7-4.7 1.95a6.661 6.661 0 00-1.181 7.812l.131.238 5.55 9.55c.05.05.1.1.2.1.08 0 .128 0 .17-.051l.03-.049 5.55-9.55c1.5-2.6 1.1-5.9-1.05-8.05A6.577 6.577 0 0012 2.05zm0 3.45a3 3 0 110 6 3 3 0 010-6z" fill-rule="evenodd"/></svg>