<svg width="24" height="24" xmlns="http://www.w3.org/2000/svg"><path d="M12 1.75c5.65 0 10.25 4.6 10.3 10.3 0 4.657-3.268 8.833-7.778 9.937l-.272.063h-.15c-.35 0-.65-.25-.75-.6-.1-.4.15-.8.55-.9 3.95-.85 6.85-4.45 6.85-8.55 0-4.8-3.95-8.75-8.75-8.75S3.25 7.2 3.25 12c0 2.548 1.156 4.957 3.023 6.606l.227.194 1.55-2.4 2.7 6.1H4.1l1.6-2.45C3.25 18.15 1.75 15.2 1.75 12 1.75 6.35 6.35 1.75 12 1.75zm0 3.5c.367 0 .691.294.743.651L12.75 6v5.55l3.85 2.05c.35.2.5.65.3 1-.1.25-.4.4-.65.4a.814.814 0 01-.267-.063L15.9 14.9l-4.65-2.45V6c0-.4.35-.75.75-.75z" fill-rule="evenodd"/></svg>