<svg width="24" height="24" xmlns="http://www.w3.org/2000/svg"><path d="M8.81 15.2l-2.562 3.6h2.487l-5.047 4.078c-.127.103-.295-.029-.253-.166l.022-.046L5.263 20H3.35l2.661-4.8H8.81zm3.47-.178l1.04.6-.68 1.178H14V18h-1.36l.68 1.178-1.04.6-.68-1.178-.68 1.178-1.04-.6.68-1.178H9.2v-1.2h1.36l-.68-1.178 1.04-.6.68 1.178.68-1.178zm-1.78-9.04a5.577 5.577 0 015.242 3.638A4.246 4.246 0 0118 13.364a4.238 4.238 0 01-2.607 3.905l-.193.075v-1.306a3.039 3.039 0 001.6-2.674 3.044 3.044 0 00-1.613-2.68l-.178-.088-.243-.11-.082-.253A4.381 4.381 0 0010.5 7.18a4.377 4.377 0 00-2.757.978l-.191.165-.262.238-.335-.115a2.286 2.286 0 00-.738-.125c-1.206 0-2.196.94-2.277 2.126l-.005.156.024.517-.373.166A2.677 2.677 0 002 13.727c0 1.19.781 2.197 1.857 2.542l.164.047-.595 1.074A3.876 3.876 0 01.8 13.727c0-1.391.75-2.669 1.942-3.355a3.486 3.486 0 014.262-3.158A5.574 5.574 0 0110.5 5.981zm9.246 4.564a.6.6 0 01.766-.069l.083.07.849.848a.6.6 0 01-.774.912l-.075-.063-.849-.849a.6.6 0 010-.849zM16.6 4.4c1.654 0 3 1.346 3 3 0 1.132-.63 2.118-1.558 2.63a5.44 5.44 0 00-1.344-1.24 6.765 6.765 0 00-2.628-2.996A2.998 2.998 0 0116.6 4.4zm6.25 2.4a.6.6 0 01.097 1.192L22.85 8h-1.2a.6.6 0 01-.097-1.192l.097-.008h1.2zm-2.254-4.244a.6.6 0 01.917.766l-.069.083-.849.849a.598.598 0 01-.848 0 .6.6 0 01-.07-.766l.07-.083.849-.849zm-8.84 0a.6.6 0 01.766-.069l.083.07.849.848a.6.6 0 01-.774.912l-.075-.063-.848-.849a.6.6 0 010-.849zM16.6.55a.6.6 0 01.592.503l.008.097v1.2a.6.6 0 01-1.192.097L16 2.35v-1.2a.6.6 0 01.6-.6z" fill="#000" fill-rule="evenodd"/></svg>