<svg width="24" height="24" xmlns="http://www.w3.org/2000/svg"><path d="M8.81 15.2l-2.562 3.6h2.487L3.69 22.878c-.128.103-.296-.029-.253-.166l.022-.046L5.263 20H3.351l2.662-4.8H8.81zm3.471-.179l1.04.6-.681 1.179H14V18h-1.36l.68 1.178-1.039.6-.68-1.178-.68 1.178-1.04-.6.68-1.178h-1.36v-1.2h1.36l-.68-1.179 1.04-.6.68 1.179.68-1.179zM10.51 5.95a5.56 5.56 0 015.233 3.674 4.25 4.25 0 012.26 3.753 4.24 4.24 0 01-2.515 3.874l-.187.077v-1.486a1 1 0 00-.403-.802l-.1-.065-2.7-1.55a1 1 0 00-.877-.058l-.118.058-.828.475H5.247l-1.924 3.47a3.865 3.865 0 01-2.52-3.624c0-1.4.756-2.684 1.953-3.366.102-1.822 1.607-3.273 3.443-3.273.27 0 .54.033.805.098A5.53 5.53 0 0110.51 5.95zm9.237 4.596a.6.6 0 01.765-.069l.083.07.85.848a.6.6 0 01-.775.912l-.074-.064-.849-.848a.6.6 0 010-.849zM16.601 4.4c1.654 0 3 1.345 3 3 0 1.132-.63 2.118-1.558 2.63a5.43 5.43 0 00-1.344-1.24 6.768 6.768 0 00-2.628-2.996 2.997 2.997 0 012.53-1.394zm6.25 2.4a.6.6 0 01.097 1.192L22.85 8h-1.2a.6.6 0 01-.098-1.192l.098-.008h1.2zM11.757 2.556a.6.6 0 01.766-.069l.083.07.849.848a.6.6 0 01-.775.912l-.074-.064-.849-.848a.6.6 0 010-.849zm8.84 0a.6.6 0 01.917.766l-.07.083-.848.848a.596.596 0 01-.849 0 .6.6 0 01-.07-.765l.07-.083.85-.849zM16.6.55a.6.6 0 01.592.503l.008.097v1.2a.6.6 0 01-1.193.097l-.007-.097v-1.2a.6.6 0 01.6-.6z" fill="#000" fill-rule="evenodd"/></svg>