<svg xmlns="http://www.w3.org/2000/svg" width="24" height="24">
    <path fill="#262626" fill-rule="evenodd" d="M6.6 14.25c.95-.4 2-.5 3.05-.35l4.6.75c.6.1 1.1.4 1.45.9.15.25.3.5.35.8 1.25-.2 3.55-.7 4.9-.95.95-.2 1.85.25 2.3 1.1.25.5.35 1.15.15 1.7-.2.55-.6 1-1.15 1.25l-6.55 3.1c-1.05.5-2.15.75-3.3.75-.6 0-1.2-.05-1.8-.2l-3.05-.75c-.9-.2-1.9-.35-2.85-.4L.5 21.7v-5zm2.8 1.15c-.75-.1-1.55-.05-2.25.25L2 17.7v2.55l2.75.2c1.05.05 2.1.2 3.15.45l3.05.75c1.35.3 2.85.15 4.1-.45l6.55-3.1c.35-.15.5-.6.3-.95-.1-.2-.4-.35-.65-.3-1.55.35-4.55.9-5.45 1.1-.4.65-1.1 1.05-1.9 1.05H8.55v-1.5h5.35c.35 0 .6-.25.65-.55.1-.35-.15-.75-.55-.8zM13.2 0l.3 1.6c.05.45.55.65.9.4l1.35-.9 1.65 1.65-.95 1.35c-.2.35 0 .8.4.9l1.7.35V7.7L16.9 8c-.45.05-.65.55-.4.9l.8 1.35-1.65 1.65-1.35-.95c-.35-.2-.8 0-.9.4L13.1 13h-2.35l-.3-1.65a.567.567 0 00-.9-.4l-1.35.95-1.65-1.65.95-1.35c.25-.35.05-.85-.35-.95l-1.65-.3V5.3L7.1 5c.45-.05.65-.55.4-.9l-.9-1.35L8.25 1.1l1.35.95c.35.2.8 0 .9-.4L10.85 0h2.35zM12 4.5c-1.1 0-2 .9-2 2s.9 2 2 2 2-.9 2-2-.9-2-2-2z"/>
</svg>
