<svg width="24" height="24" xmlns="http://www.w3.org/2000/svg"><path d="M6.6 14.25c.864-.364 1.81-.48 2.764-.385l.286.035 4.6.75c.6.1 1.1.4 1.45.9.15.25.3.5.35.8l.644-.112.75-.142 3.179-.634.327-.062c.95-.2 1.85.25 2.3 1.1.25.5.35 1.15.15 1.7a2.176 2.176 0 01-.972 1.16l-.178.09-6.55 3.1c-1.05.5-2.15.75-3.3.75-.48 0-.96-.032-1.44-.122l-.36-.078-3.05-.75c-.75-.167-1.57-.299-2.372-.367L4.7 21.95.5 21.7v-5l6.1-2.45zM10.85 0h2.35l.3 1.6c.046.418.48.62.823.447L14.4 2l1.35-.9 1.65 1.65-.95 1.35a.617.617 0 00.311.87l.089.03 1.7.35V7.7L16.9 8a.566.566 0 00-.447.823l.847 1.427-1.65 1.65-1.35-.95a.617.617 0 00-.87.311l-.03.089-.3 1.65h-2.35l-.3-1.65a.566.566 0 00-.823-.447l-.077.047-1.35.95-1.65-1.65.95-1.35c.23-.323.078-.774-.261-.92l-.089-.03-1.65-.3V5.3L7.1 5a.566.566 0 00.447-.823L7.5 4.1l-.9-1.35L8.25 1.1l1.35.95a.617.617 0 00.87-.311l.03-.089.35-1.65zM12 4.5c-1.1 0-2 .9-2 2s.9 2 2 2 2-.9 2-2-.9-2-2-2z" fill="#000" fill-rule="evenodd"/></svg>