<svg xmlns="http://www.w3.org/2000/svg" width="24" height="24">
    <path fill="#262626" fill-rule="evenodd" d="M6.84 14.95a5.04 5.04 0 012.66-.295l4.625.735a1.435 1.435 0 011.185 1.685 1 1 0 01-.05.175h.1l5.71-1.135a1.36 1.36 0 011.5.71 1.42 1.42 0 01-.65 1.945l-6.53 3.095a7 7 0 01-4.6.5l-3.06-.735a16.9 16.9 0 00-3-.44L1.285 21v-3.815zM13.18 0l.32 1.635a.59.59 0 00.895.365l1.365-.93 1.685 1.67-.945 1.365a.59.59 0 00.37.895l1.63.32V7.7l-1.635.3a.59.59 0 00-.365.895l.93 1.38-1.67 1.67L14.395 11a.59.59 0 00-.915.385l-.3 1.63h-2.36l-.3-1.63A.59.59 0 009.605 11l-1.38.93-1.67-1.67.945-1.365a.59.59 0 00-.37-.935l-1.63-.3V5.3L7.13 5a.59.59 0 00.37-.895L6.57 2.74l1.67-1.67L9.605 2a.59.59 0 00.895-.37L10.82 0h2.36zM12 4.5a2 2 0 100 4 2 2 0 000-4z"/>
</svg>
