<svg width="24" height="24" xmlns="http://www.w3.org/2000/svg"><path d="M6.84 14.95a5.04 5.04 0 012.36-.334l.3.039 4.625.735a1.435 1.435 0 011.185 1.685l-.021.089-.029.086h.1l5.71-1.135a1.36 1.36 0 011.5.71 1.42 1.42 0 01-.523 1.877l-.127.068-6.53 3.095a7 7 0 01-4.29.565l-.31-.065-3.06-.735a16.9 16.9 0 00-2.495-.404l-.505-.036L1.285 21v-3.815L6.84 14.95zM13.18 0l.32 1.635a.59.59 0 00.811.41L14.395 2l1.365-.93 1.685 1.67-.945 1.365a.59.59 0 00.279.867L16.87 5l1.63.32V7.7l-1.635.3a.59.59 0 00-.41.811l.045.084.93 1.38-1.67 1.67L14.395 11a.59.59 0 00-.89.289l-.025.096-.3 1.63h-2.36l-.3-1.63a.59.59 0 00-.829-.434L9.605 11l-1.38.93-1.67-1.67.945-1.365a.59.59 0 00-.272-.909L7.13 7.96l-1.63-.3V5.3L7.13 5a.59.59 0 00.415-.81L7.5 4.104 6.57 2.74l1.67-1.67L9.605 2a.59.59 0 00.867-.279l.028-.091.32-1.63h2.36zM12 4.5a2 2 0 100 4 2 2 0 000-4z" fill="#000" fill-rule="evenodd"/></svg>