<svg width="24" height="24" xmlns="http://www.w3.org/2000/svg"><path d="M14.865 16.419a5.757 5.757 0 00-.51 1.081H9.666a5.591 5.591 0 00-.506-1.066c-.638-1.038-1.177-1.145-1.739-2.417a4.988 4.988 0 01-.421-2.091c.037-2.614 2.192-4.823 4.803-4.922a4.928 4.928 0 013.663 1.394A4.959 4.959 0 0117 12c0 .653-.125 1.29-.364 1.88-.544 1.341-1.13 1.484-1.771 2.538M11.748 5.506c-3.396.129-6.198 3-6.247 6.4a6.502 6.502 0 00.462 2.515c.476 1.186 1.11 1.788 1.625 2.42.516.633.912 1.296.912 2.605v1.83l1.534.558c.159.945.975 1.667 1.966 1.667.99 0 1.807-.722 1.966-1.667l1.534-.557v-1.687c0-1.344.373-2.048.866-2.683.492-.635 1.103-1.2 1.577-2.266A6.486 6.486 0 0018.5 12a6.447 6.447 0 00-1.992-4.684 6.456 6.456 0 00-4.76-1.811M22.75 11.25h-2a.75.75 0 100 1.5h2a.75.75 0 100-1.5m-2.618-7.381a.75.75 0 00-1.06 0l-1.415 1.413a.75.75 0 101.061 1.061l1.415-1.413a.75.75 0 00-.001-1.061M12 4a.75.75 0 00.75-.75v-2a.75.75 0 10-1.5 0v2c0 .414.336.75.75.75m-8.75 7.25h-2a.75.75 0 100 1.5h2a.75.75 0 100-1.5m3.093-4.907a.75.75 0 000-1.061L4.928 3.868a.75.75 0 00-1.06 1.061l1.414 1.414a.75.75 0 001.061 0" fill="#000" fill-rule="evenodd"/></svg>