<svg width="24" height="24" xmlns="http://www.w3.org/2000/svg"><path d="M15.5 19.006v2.27l-1.534.557A1.995 1.995 0 0112 23.5a1.994 1.994 0 01-1.933-1.512l-.033-.155-1.534-.557v-2.27h7zM11.748 5.505a6.46 6.46 0 014.76 1.811A6.448 6.448 0 0118.5 12a6.47 6.47 0 01-.558 2.639c-.301.679-.658 1.155-1.004 1.575l-.435.52a4.737 4.737 0 00-.402.55l-.12.202H8.037a4.914 4.914 0 00-.447-.646l-.502-.593c-.39-.465-.795-1.006-1.123-1.828a6.503 6.503 0 01-.464-2.515c.05-3.399 2.851-6.27 6.248-6.399zM3.25 11.25a.75.75 0 01.102 1.493l-.102.007h-2a.75.75 0 01-.102-1.493l.102-.007h2zm19.5 0a.75.75 0 01.102 1.493l-.102.007h-2a.75.75 0 01-.102-1.493l.102-.007h2zM3.869 3.868a.751.751 0 01.975-.072l.084.072 1.415 1.414a.75.75 0 01-.967 1.14l-.094-.079L3.87 4.929a.75.75 0 010-1.061zm15.203 0a.749.749 0 011.133.977l-.072.085-1.415 1.413a.751.751 0 01-1.134-.977l.073-.083 1.415-1.415zM12 .5a.75.75 0 01.743.648l.007.102v2a.75.75 0 01-1.493.102l-.007-.102v-2A.75.75 0 0112 .5z" fill-rule="evenodd"/></svg>