<svg width="24" height="24" xmlns="http://www.w3.org/2000/svg"><g fill="#000" fill-rule="evenodd"><path d="M3.25 11.25h-2a.75.75 0 100 1.5h2a.75.75 0 000-1.5M6.343 6.343a.75.75 0 000-1.061L4.928 3.868a.75.75 0 00-1.06 1.061l1.414 1.414a.75.75 0 001.061 0M12 4a.75.75 0 00.75-.75v-2a.75.75 0 10-1.5 0v2c0 .414.336.75.75.75M20.132 3.869a.749.749 0 00-1.06 0l-1.415 1.413a.75.75 0 101.061 1.061l1.415-1.413a.751.751 0 00-.001-1.061M22.75 11.25h-2a.75.75 0 100 1.5h2a.75.75 0 000-1.5M11.748 5.505c-3.396.129-6.198 3-6.247 6.399a6.503 6.503 0 00.462 2.515c.476 1.187 1.11 1.789 1.625 2.421.165.203.316.417.447.646h7.946c.116-.205.245-.399.385-.58.492-.635 1.102-1.2 1.576-2.267A6.47 6.47 0 0018.5 12a6.448 6.448 0 00-1.992-4.684 6.46 6.46 0 00-4.76-1.811M8.5 19.006v2.27l1.534.557A1.995 1.995 0 0012 23.5c.991 0 1.807-.722 1.966-1.667l1.534-.557v-2.27h-7z"/></g></svg>