<?xml version="1.0" encoding="UTF-8"?>
<svg width="24px" height="24px" viewBox="0 0 24 24" version="1.1" xmlns="http://www.w3.org/2000/svg" xmlns:xlink="http://www.w3.org/1999/xlink">
    <title>/svg/icon/home/wifi/default</title>
    <g id="icon/home/wifi/default" stroke="none" stroke-width="1" fill="none" fill-rule="evenodd">
        <path d="M12,17 C13.1045695,17 14,17.8954305 14,19 C14,20.1045695 13.1045695,21 12,21 C10.8954305,21 9.99999999,20.1045695 9.99999999,19 C9.99999999,17.8954305 10.8954305,17 12,17 Z M12,12.5 C14.16,12.5 16.0896,13.55984 17.2579584,15.1929152 L17.4,15.4 L15.95,16.9 C15.2,15.45 13.7,14.5 12,14.5 C10.373913,14.5 8.93081284,15.4149338 8.15203417,16.7197091 L8.04999998,16.9 L6.59999998,15.4 C7.74999998,13.65 9.74999999,12.5 12,12.5 Z M12,7.99999998 C15.335,7.99999998 18.3429445,9.4951111 20.3463611,11.8530259 L20.55,12.1 L19.15,13.55 C17.5,11.4 14.95,9.99999998 12,9.99999998 C9.15535713,9.99999998 6.68265304,11.3017857 5.03020679,13.3225424 L4.84999997,13.55 L3.44999996,12.1 C5.44999996,9.59999999 8.54999999,7.99999998 12,7.99999998 Z M12,3.49999996 C16.5617647,3.49999996 20.6054066,5.47828717 23.4451748,8.56624388 L23.7,8.84999999 L22.3,10.3 C19.85,7.34999998 16.15,5.49999996 12,5.49999996 C7.97575756,5.49999996 4.37465562,7.23957757 1.9261485,10.0348693 L1.69999996,10.3 L0.299999951,8.84999999 C3.14999996,5.59999997 7.29999995,3.49999996 12,3.49999996 Z" id="Icon" fill="#000000"></path>
    </g>
</svg>