<svg xmlns="http://www.w3.org/2000/svg" width="24" height="24">
    <path fill="#262626" fill-rule="evenodd" d="M12 17a2 2 0 110 4 2 2 0 010-4zm0-4.5c2.25 0 4.25 1.15 5.4 2.9l-1.45 1.5A4.435 4.435 0 0012 14.5c-1.7 0-3.2 1-3.95 2.4L6.6 15.4a6.458 6.458 0 015.4-2.9zM12 8c3.45 0 6.55 1.6 8.55 4.1l-1.4 1.45C17.5 11.4 14.95 10 12 10s-5.5 1.4-7.15 3.55l-1.4-1.45C5.45 9.6 8.55 8 12 8zm0-4.5c4.7 0 8.85 2.1 11.7 5.35l-1.4 1.45C19.85 7.35 16.15 5.5 12 5.5S4.15 7.35 1.7 10.3L.3 8.85C3.15 5.6 7.3 3.5 12 3.5z"/>
</svg>
