<svg width="24" height="24" xmlns="http://www.w3.org/2000/svg"><path d="M12 17a2 2 0 110 4 2 2 0 010-4zm-1.08-4.4c.15.683.394 1.33.723 1.925a4.495 4.495 0 00-3.503 2.163l-.11.195-1.437-1.49A6.495 6.495 0 0110.92 12.6zm7.018-7.225a5.694 5.694 0 015.687 5.688 5.694 5.694 0 01-5.688 5.687 5.694 5.694 0 01-5.687-5.688 5.694 5.694 0 015.688-5.687zm0 1.5a4.192 4.192 0 00-4.188 4.188 4.192 4.192 0 004.188 4.187 4.192 4.192 0 004.187-4.188 4.192 4.192 0 00-4.188-4.187zm-6.501 1.141a7.124 7.124 0 00-.611 2.063 8.985 8.985 0 00-5.802 3.25l-.19.241-1.407-1.459a10.976 10.976 0 018.01-4.095zm7 .244v2.703h2.17v1h-3.17V8.26h1zM12 3.5c1.469 0 2.89.205 4.235.587a7.17 7.17 0 00-2.921 1.48 13.463 13.463 0 00-11.405 4.469l-.229.264L.287 8.855A15.459 15.459 0 0112 3.5z" fill-rule="evenodd"/></svg>