<svg width="24" height="24" xmlns="http://www.w3.org/2000/svg"><path d="M13.591 5.29a7.503 7.503 0 013.052-1.565A16.174 16.174 0 000 8.718l1.456 1.508a14.05 14.05 0 0110.768-5.009c.457.001.913.025 1.367.073zm-2.494 7.336a6.783 6.783 0 00-4.518 2.917l1.503 1.565a4.696 4.696 0 013.767-2.463 7.216 7.216 0 01-.752-2.019zm.538-4.8c-3.264.17-6.3 1.725-8.348 4.273l1.46 1.54a9.391 9.391 0 016.262-3.653c.099-.747.31-1.475.626-2.16zm.59 9.391a2.087 2.087 0 100 4.174 2.087 2.087 0 000-4.174zM18.416 5.87a5.155 5.155 0 100 10.31 5.155 5.155 0 000-10.31zm2.786 6.093h-3.307V8.097h1.043v2.823h2.264v1.043z" fill="#000" fill-rule="evenodd"/></svg>