<?xml version="1.0" encoding="UTF-8"?>
<svg width="24px" height="24px" viewBox="0 0 24 24" version="1.1" xmlns="http://www.w3.org/2000/svg" xmlns:xlink="http://www.w3.org/1999/xlink">
    <title>/svg/icon/home/slow-wifi/selected</title>
    <g id="icon/home/slow-wifi/selected" stroke="none" stroke-width="1" fill="none" fill-rule="evenodd">
        <path d="M12,17 C13.1045695,17 14,17.8954305 14,19 C14,20.1045695 13.1045695,21 12,21 C10.8954305,21 9.99999999,20.1045695 9.99999999,19 C9.99999999,17.8954305 10.8954305,17 12,17 Z M10.92,12.6005 C11.0695,13.283 11.314,13.93 11.643,14.525 C10.1553,14.6428 8.86885749,15.4758313 8.14034048,16.6884315 L8.02999998,16.883 L6.59349998,15.3935 C7.56799998,13.935 9.11999999,12.903 10.92,12.6005 Z M17.9375,5.37499998 C21.0735,5.37499998 23.625,7.92649999 23.625,11.0625 C23.625,14.1985 21.0735,16.75 17.9375,16.75 C14.8015,16.75 12.25,14.1985 12.25,11.0625 C12.25,7.92649999 14.8015,5.37499998 17.9375,5.37499998 Z M11.437,8.01649999 C11.135,8.65849999 10.926,9.35049999 10.8255,10.079 C8.49015216,10.385087 6.44026368,11.588724 5.02370832,13.3297852 L4.83449997,13.5705 L3.42699996,12.111 C5.33349997,9.74149999 8.19999998,8.17999999 11.437,8.01649999 Z M18.4375,8.26049999 L18.4375,10.963 L20.6065,10.963 L20.6065,11.963 L17.4375,11.963 L17.4375,8.26049999 L18.4375,8.26049999 Z M12,3.49999997 C13.469,3.49999997 14.8895,3.70499997 16.2355,4.08699997 C15.1435,4.35399997 14.1475,4.86499997 13.314,5.56749998 C12.881,5.52549998 12.4435,5.49999997 12,5.49999997 C7.98545453,5.49999997 4.3818255,7.25415242 1.90899314,10.0361943 L1.68049996,10.3 L0.286999951,8.85499999 C3.12899996,5.57649998 7.32049998,3.49999997 12,3.49999997 Z" id="Icon" fill="#000000"></path>
    </g>
</svg>