<svg width="24" height="24" xmlns="http://www.w3.org/2000/svg"><path d="M19 2a3.003 3.003 0 012.995 2.824L22 5v14a3.003 3.003 0 01-2.824 2.995L19 22H5a3.003 3.003 0 01-2.995-2.824L2 19V5a3.003 3.003 0 012.824-2.995L5 2h14zm0 1.5H5c-.776 0-1.42.598-1.493 1.356L3.5 5v14c0 .776.598 1.42 1.356 1.493L5 20.5h14c.776 0 1.42-.598 1.493-1.356L20.5 19V5c0-.776-.598-1.42-1.356-1.493L19 3.5zM7.22 15.06a1.72 1.72 0 110 3.44 1.72 1.72 0 010-3.44zm-.04-4.56a6.259 6.259 0 016.178 7.194l-.053.306H11.76c.105-.4.17-.815.17-1.25 0-2.62-2.13-4.75-4.75-4.75-.328 0-.643.038-.95.102l-.23.053v-1.54c.38-.075.775-.115 1.18-.115zm0-4.5c5.93 0 10.75 4.82 10.75 10.75 0 .283-.013.562-.037.838L17.85 18h-1.515c.055-.41.095-.825.095-1.25 0-5.1-4.15-9.25-9.25-9.25a8.19 8.19 0 00-.79.04L6 7.586V6.07c.39-.045.78-.07 1.18-.07z" fill="#000" fill-rule="evenodd"/></svg>