<svg xmlns="http://www.w3.org/2000/svg" width="24" height="24">
    <path fill="#262626" fill-rule="evenodd" d="M19 2c1.655 0 3 1.345 3 3v14c0 1.655-1.345 3-3 3H5c-1.655 0-3-1.345-3-3V5c0-1.655 1.345-3 3-3zm0 1.5H5c-.825 0-1.5.675-1.5 1.5v14c0 .825.675 1.5 1.5 1.5h14c.825 0 1.5-.675 1.5-1.5V5c0-.825-.675-1.5-1.5-1.5zM7.22 15.06a1.72 1.72 0 110 3.44 1.72 1.72 0 010-3.44zm-.04-4.56a6.259 6.259 0 016.125 7.5H11.76c.105-.4.17-.815.17-1.25 0-2.62-2.13-4.75-4.75-4.75-.41 0-.8.06-1.18.155v-1.54c.38-.075.775-.115 1.18-.115zm0-4.5c5.93 0 10.75 4.82 10.75 10.75 0 .425-.03.84-.08 1.25h-1.515c.055-.41.095-.825.095-1.25 0-5.1-4.15-9.25-9.25-9.25-.4 0-.79.035-1.18.085V6.07c.39-.045.78-.07 1.18-.07z"/>
</svg>
