<svg xmlns="http://www.w3.org/2000/svg" width="24" height="24">
    <path fill="#262626" fill-rule="evenodd" d="M19 2H5a3 3 0 00-3 3v14a3 3 0 003 3h14a3 3 0 003-3V5a3 3 0 00-3-3zM7.22 18.5a1.725 1.725 0 110-3.45 1.725 1.725 0 010 3.45zm6.085-.5H11.76c.11-.408.167-.828.17-1.25A4.755 4.755 0 007.18 12a4.6 4.6 0 00-1.18.155v-1.54a6.13 6.13 0 011.18-.115 6.26 6.26 0 016.125 7.5zm4.545 0h-1.5a9.37 9.37 0 00.095-1.25A9.26 9.26 0 007.18 7.5 9.23 9.23 0 006 7.585v-1.5c.391-.051.785-.08 1.18-.085 5.935.006 10.744 4.815 10.75 10.75a10.29 10.29 0 01-.08 1.25z"/>
</svg>
