<svg width="24" height="24" xmlns="http://www.w3.org/2000/svg"><path d="M12 1a6.486 6.486 0 016.496 6.266l.004.234v2H21V19a3.01 3.01 0 01-2.824 2.995L18 22H6a3.01 3.01 0 01-2.995-2.824L3 19V9.5h2.5v-2C5.5 3.9 8.4 1 12 1zm7.5 10h-15v8c0 .8.576 1.423 1.352 1.493L6 20.5h12c.8 0 1.423-.576 1.493-1.352L19.5 19v-8zM12 13.5c.85 0 1.5.65 1.5 1.5 0 .4-.158.76-.404 1.011L13 16.1V18h-2v-1.9c-.3-.25-.5-.65-.5-1.1 0-.85.65-1.5 1.5-1.5zm0-11c-2.678 0-4.881 2.133-4.995 4.784L7 7.5v2h10v-2c0-2.75-2.25-5-5-5z" fill-rule="evenodd"/></svg>