<svg width="24" height="24" xmlns="http://www.w3.org/2000/svg"><path d="M11.94 8.8c.665.255 1.29.645 1.82 1.18a5.245 5.245 0 01.18 7.235l-.18.19-3.535 3.535a5.215 5.215 0 01-3.71 1.535c-1.34 0-2.685-.51-3.71-1.535a5.26 5.26 0 01-.17-7.247l.17-.178L6.34 9.98c.27-.275.565-.505.875-.705a6.149 6.149 0 00.049 1.52l.056.325-3.455 3.455a3.76 3.76 0 000 5.305 3.76 3.76 0 005.15.146l.155-.146 3.535-3.535a3.755 3.755 0 000-5.305 3.857 3.857 0 00-.935-.68c-.05-.18-.08-.365-.08-.555 0-.355.095-.695.25-1.005zm1.825-6.24a5.26 5.26 0 017.425 0 5.242 5.242 0 01.162 7.246l-.172.179-3.535 3.535c-.27.275-.565.505-.875.705.04-.496.022-.989-.048-1.473l-.062-.362 3.465-3.465a3.76 3.76 0 000-5.305 3.736 3.736 0 00-2.65-1.095 3.74 3.74 0 00-2.478.933l-.172.162-3.535 3.535c-.71.705-1.1 1.65-1.1 2.65s.39 1.94 1.1 2.65c.28.28.595.505.93.68.065.25.1.505.075.77-.02.22-.085.5-.23.795a5.188 5.188 0 01-1.835-1.185 5.2 5.2 0 01-1.54-3.71c0-1.313.483-2.555 1.36-3.52l.18-.19 3.535-3.535z" fill-rule="evenodd"/></svg>