<svg xmlns="http://www.w3.org/2000/svg" width="24" height="24">
    <path fill="#262626" fill-rule="evenodd" d="M11.94 8.8c.665.255 1.29.645 1.82 1.18a5.245 5.245 0 010 7.425l-3.535 3.535a5.215 5.215 0 01-3.71 1.535c-1.34 0-2.685-.51-3.71-1.535a5.26 5.26 0 010-7.425L6.34 9.98c.27-.275.565-.505.875-.705-.015.175-.025.35-.025.525 0 .45.045.89.13 1.32l-3.455 3.455a3.76 3.76 0 000 5.305 3.76 3.76 0 005.305 0l3.535-3.535a3.755 3.755 0 000-5.305 3.857 3.857 0 00-.935-.68c-.05-.18-.08-.365-.08-.555 0-.355.095-.695.25-1.005zm1.825-6.24a5.26 5.26 0 017.425 0 5.242 5.242 0 01-.01 7.425l-3.535 3.535c-.27.275-.565.505-.875.705.05-.62.01-1.235-.11-1.835l3.465-3.465a3.76 3.76 0 000-5.305 3.736 3.736 0 00-2.65-1.095c-.96 0-1.92.365-2.65 1.095L11.29 7.155c-.71.705-1.1 1.65-1.1 2.65s.39 1.94 1.1 2.65c.28.28.595.505.93.68.065.25.1.505.075.77-.02.22-.085.5-.23.795a5.188 5.188 0 01-1.835-1.185 5.2 5.2 0 01-1.54-3.71c0-1.4.55-2.72 1.54-3.71z"/>
</svg>
