<svg width="24" height="24" xmlns="http://www.w3.org/2000/svg"><path d="M12.225 8.37a5.75 5.75 0 012.068 9.21l-.173.18-3.711 3.711a5.75 5.75 0 01-8.13-8.13L5.99 9.65a5.71 5.71 0 011.31-1 6.845 6.845 0 00-.105 1.155c0 .532.064 1.06.188 1.577l.082.308-3.245 3.24a3.255 3.255 0 004.449 4.732l.151-.132 3.535-3.535a3.26 3.26 0 00.135-4.456l-.259-.277a2.23 2.23 0 01-.118-2.748l.112-.144zm1.19-6.165a5.75 5.75 0 018.13 0 5.75 5.75 0 01.174 7.89l-.174.185-3.535 3.535a5.66 5.66 0 01-1.305 1c.02-.1.044-.211.059-.326l.011-.174a6.72 6.72 0 00-.163-2.194l-.082-.306 3.25-3.245a3.255 3.255 0 10-4.453-4.749l-3.682 3.684a3.26 3.26 0 00-.135 4.456l.259.278a2.25 2.25 0 01.016 2.896A5.64 5.64 0 019.88 13.87a5.745 5.745 0 01-.197-7.924l.197-.206 3.535-3.535z" fill="#000" fill-rule="evenodd"/></svg>