<svg width="24" height="24" xmlns="http://www.w3.org/2000/svg"><path d="M22.5 1.5v15a3 3 0 01-2.824 2.995l-.176.005h-7l-3.513 3.512a1.715 1.715 0 01-1.225.517c-.854 0-1.676-.63-1.756-1.598L6 21.775V19.5H4.5a3 3 0 01-2.995-2.824L1.5 16.5v-15h21zM21 3H3v13.5c0 .778.596 1.42 1.356 1.493L4.5 18h3v3.775c0 .184.205.32.373.22l.053-.043L11.88 18h7.62c.778 0 1.42-.596 1.493-1.356L21 16.5V3zm-6.903 8c-.12 3.024-1.3 5-2.097 5-.77 0-1.901-1.85-2.082-4.71L9.903 11h4.194zm3.378 0a5.497 5.497 0 01-3.587 4.66c.638-1.025 1.081-2.556 1.191-4.307l.018-.353h2.378zm-8.572 0c.07 1.898.528 3.568 1.209 4.66a5.501 5.501 0 01-3.56-4.422L6.525 11h2.378zM12 5c.77 0 1.901 1.85 2.082 4.71l.015.29H9.903c.12-3.025 1.3-5 2.097-5zm1.888.34a5.5 5.5 0 013.56 4.422l.027.238h-2.379c-.069-1.898-.527-3.568-1.208-4.66zm-3.776 0c-.638 1.025-1.081 2.556-1.191 4.307L8.903 10H6.525a5.497 5.497 0 013.587-4.66z" fill-rule="evenodd"/></svg>