<svg width="24" height="24" xmlns="http://www.w3.org/2000/svg"><path d="M1.5 1.5v15a3 3 0 003 3H6v2.275A1.755 1.755 0 009 23l3.5-3.5h7a3 3 0 003-3v-15h-21zM12 5c.795 0 2 2 2.095 5h-4.19c.12-3 1.3-5 2.095-5zm-1.89.34A9.81 9.81 0 008.905 10h-2.38a5.5 5.5 0 013.585-4.66zM6.525 11h2.38a9.81 9.81 0 001.205 4.66A5.5 5.5 0 016.525 11zM12 16c-.795 0-1.975-1.975-2.095-5h4.19c-.095 3.025-1.3 5-2.095 5zm1.89-.34A9.81 9.81 0 0015.095 11H17.5a5.5 5.5 0 01-3.61 4.66zM15.095 10a9.81 9.81 0 00-1.205-4.66A5.5 5.5 0 0117.5 10h-2.405z" fill="#000" fill-rule="evenodd"/></svg>