<svg width="24" height="24" xmlns="http://www.w3.org/2000/svg"><path d="M22.45 3v12.55a3.01 3.01 0 01-2.824 2.995l-.176.005h-7l-3.5 3.5c-.35.35-.75.5-1.2.5-.855 0-1.665-.632-1.744-1.595L6 20.8v-2.3H4.5a3.01 3.01 0 01-2.995-2.824L1.5 15.5V3h20.95zM21 4.5H3v11c0 .8.576 1.423 1.352 1.493L4.5 17h3v3.8c0 .182.207.322.394.196l.056-.046L11.9 17h7.6c.8 0 1.423-.576 1.493-1.352L21 15.5v-11zM10.75 7c.367 0 .691.294.743.651l.007.099v6c0 .4-.35.75-.75.75a.772.772 0 01-.743-.651L10 13.75v-6c0-.4.35-.75.75-.75zm3 1c.367 0 .691.294.743.651l.007.099v4c0 .4-.35.75-.75.75a.772.772 0 01-.743-.651L13 12.75v-4c0-.4.35-.75.75-.75zm-6 1c.367 0 .691.294.743.651l.007.099v2c0 .4-.35.75-.75.75a.772.772 0 01-.743-.651L7 11.75v-2c0-.4.35-.75.75-.75zm9 0c.367 0 .691.294.743.651l.007.099v2c0 .4-.35.75-.75.75a.772.772 0 01-.743-.651L16 11.75v-2c0-.4.35-.75.75-.75z" fill-rule="evenodd"/></svg>