<svg height="24" width="24" xmlns="http://www.w3.org/2000/svg"><path d="m22.45 3v12.55c0 1.65-1.35 3-3 3h-7l-3.5 3.5c-.35.35-.75.5-1.2.5-.9 0-1.75-.7-1.75-1.75v-2.3h-1.5c-1.65 0-3-1.35-3-3v-12.5zm-1.45 1.5h-18v11c0 .85.65 1.5 1.5 1.5h3v3.8c0 .2.25.35.45.15l3.95-3.95h7.6c.85 0 1.5-.65 1.5-1.5zm-10.25 2.5c.4 0 .75.35.75.75v6c0 .4-.35.75-.75.75s-.75-.35-.75-.75v-6c0-.4.35-.75.75-.75zm3 1c.4 0 .75.35.75.75v4c0 .4-.35.75-.75.75s-.75-.35-.75-.75v-4c0-.4.35-.75.75-.75zm-6 1c.4 0 .75.35.75.75v2c0 .4-.35.75-.75.75s-.75-.35-.75-.75v-2c0-.4.35-.75.75-.75zm9 0c.4 0 .75.35.75.75v2c0 .4-.35.75-.75.75s-.75-.35-.75-.75v-2c0-.4.35-.75.75-.75z" fill="#262626" fill-rule="evenodd"/></svg>