<svg height="24" width="24" xmlns="http://www.w3.org/2000/svg"><path d="m13.794 1.141.106.009c5.15.95 9.1 5.45 9.1 10.85 0 3.45-1.6 6.55-4.1 8.6l1.6 2.4h-6.7l2.7-6.1 1.55 2.4c2.1-1.75 3.45-4.35 3.45-7.3 0-4.65-3.4-8.55-7.9-9.4-.45-.05-.75-.55-.55-1 .1-.35.5-.5.85-.45zm-3.594-.141-2.65 6.1-1.6-2.4c-2.1 1.75-3.45 4.35-3.45 7.3 0 4.65 3.4 8.55 7.9 9.35.45.05.75.55.55 1.05-.1.35-.5.5-.85.45-5.15-.95-9.1-5.45-9.1-10.85 0-3.45 1.6-6.55 4.1-8.55l-1.6-2.45zm4.3 8v1.75l1.35-1.25h.65v4.5h-.65l-1.35-1.25v.25c0 .85-.65 1.5-1.5 1.5h-3.5c-.85 0-1.5-.65-1.5-1.5v-4z" fill="#262626" fill-rule="evenodd"/></svg>