<svg width="24" height="24" xmlns="http://www.w3.org/2000/svg"><path d="M13.777 1.154l.103.011A11 11 0 0123 12a10.965 10.965 0 01-3.844 8.343l-.256.212L20.5 23h-6.685l2.685-6.13 1.57 2.44a9.5 9.5 0 00-4.46-16.645.762.762 0 01.167-1.511zM10.185 1L7.5 7.13 5.93 4.715a9.5 9.5 0 004.166 16.589l.294.056-.015-.025a.762.762 0 01-.27 1.5A11 11 0 014.863 3.651l.242-.201L3.5 1h6.685zM14.5 9v1.765L15.825 9.5h.675V14h-.675L14.5 12.735V13a1.5 1.5 0 01-1.356 1.493L13 14.5H9.5a1.5 1.5 0 01-1.493-1.356L8 13V9h6.5z" fill="#000" fill-rule="evenodd"/></svg>