<svg width="24" height="24" xmlns="http://www.w3.org/2000/svg"><path d="M15.617 9.691c-2.509 2.16-2.653 5.073-2.632 5.981L12 16.735v-4.44c0-2.173-.46-4.672-3.031-6.867C6.159 3.03 1.991 2.021.538 1.622c0 4.916.263 7.938 2.346 10.359 1.49 1.73 3.868 3.04 7.616 4.293v4.944a.75.75 0 101.5 0v-2.277l2.097-2.262c.5.06.992.099 1.463.099 1.942 0 3.621-.503 4.928-1.487 2.847-2.146 3.006-4.52 3.006-6.87-4.493-1.189-6.994.51-7.877 1.27zm-5.117 5c-3.237-1.121-5.266-2.253-6.522-3.768C2.533 9.18 2.11 6.93 2.047 3.607c2.774.855 4.638 1.87 5.891 2.918 2.562 2.144 2.562 4.428 2.562 5.77v2.396zm9.085-.598c-1.265.954-3.015 1.34-5.095 1.13.05-.964.378-2.907 2.106-4.395 1.777-1.53 4.267-1.378 5.381-1.213-.119 1.98-.837 3.306-2.392 4.479z" fill="#000" fill-rule="evenodd"/></svg>