<svg width="24" height="24" xmlns="http://www.w3.org/2000/svg"><path d="M20.805 16.857l-3.744 3.744-2.352-2.4a.696.696 0 010-1.008.696.696 0 011.008 0l1.344 1.344 2.688-2.688a.696.696 0 011.008 0c.288.288.336.72.048 1.008zm-3-4.724a5.687 5.687 0 000 11.375 5.688 5.688 0 100-11.375zM5.755 18a.75.75 0 100-1.5.75.75 0 000 1.5zm0-5.987a.75.75 0 100-1.5.75.75 0 000 1.5zM12 22.041H3.426a1.444 1.444 0 01-1.47-1.47V4.948h1.96v-.98c0-.147 0-.342.049-.49H.488v17.093a2.947 2.947 0 002.938 2.938H13.43A7.236 7.236 0 0112 22.041zm1.222-18.123c0-.832-.637-1.469-1.47-1.469h-.98v-.442c0-.734-.488-1.37-1.175-1.517-.93-.148-1.763.587-1.763 1.47v.49h-.98c-.832 0-1.468.636-1.468 1.468v1.96h7.836v-1.96zm1.47 1.03h1.959v5.787c.377-.062.76-.102 1.154-.102.106 0 .21.011.315.016V3.48h-3.478c.05.147.05.342.05.49v.98zM8.739 16.53a.754.754 0 00-.735.735c0 .392.343.735.735.735h1.888c-.002-.06-.01-.119-.01-.179 0-.442.047-.87.123-1.29H8.739zm0-6.007a.753.753 0 00-.735.734c0 .393.343.736.735.736h4.483a.754.754 0 00.735-.736.753.753 0 00-.735-.734H8.739z" fill-rule="evenodd"/></svg>