<svg width="24" height="24" xmlns="http://www.w3.org/2000/svg"><path d="M3.938 3.507a4.058 4.058 0 00-.034.29l-.006.15v3.46h10.836v-3.46c0-.1-.008-.199-.02-.295l-.02-.145h3.438v7.171c-.105-.005-.209-.016-.315-.016-3.438 0-6.314 2.428-7.017 5.66l-.047.237H8.751a.754.754 0 00-.735.735c0 .36.288.677.638.728l.097.007h1.89a7.167 7.167 0 002.587 5.338l.213.171H3.438a2.947 2.947 0 01-2.933-2.766L.5 20.6V3.507h3.438zm13.879 8.655a5.687 5.687 0 11.002 11.374 5.687 5.687 0 01-.002-11.374zm2.952 3.716a.693.693 0 00-.926-.071l-.082.071-2.688 2.688-1.344-1.344a.696.696 0 00-1.008 0 .693.693 0 00-.071.926l.071.082 2.352 2.4 3.744-3.744c.288-.288.24-.72-.048-1.008zm-15.002.651a.75.75 0 100 1.5.75.75 0 000-1.5zm0-5.987a.75.75 0 100 1.5.75.75 0 000-1.5zm7.467.01H8.751a.753.753 0 00-.735.734c0 .36.288.678.638.729l.097.007h4.483a.754.754 0 00.735-.736.757.757 0 00-.638-.727l-.097-.007zM7.846 1.988c0-.882.833-1.617 1.763-1.469.641.136 1.11.7 1.17 1.372l.006.145v.442h.98a1.44 1.44 0 011.462 1.324l.007.145v1.96H5.398v-1.96a1.44 1.44 0 011.324-1.462l.145-.007h.979v-.49z" fill="#000" fill-rule="evenodd"/></svg>