<svg width="24" height="24" xmlns="http://www.w3.org/2000/svg"><path d="M20.77 15.843a.696.696 0 00-1.008 0l-2.688 2.688-1.344-1.344a.696.696 0 00-1.008 0 .696.696 0 000 1.008l2.353 2.4 3.744-3.744c.288-.288.24-.72-.049-1.008zm-2.951 6.159a4.192 4.192 0 01-4.187-4.187 4.192 4.192 0 014.187-4.188 4.192 4.192 0 014.188 4.188 4.193 4.193 0 01-4.189 4.187zm0-9.875a5.687 5.687 0 100 11.374 5.687 5.687 0 000-11.374zm-12.064-.128a.75.75 0 11-.001-1.5.75.75 0 010 1.5zm0 6a.75.75 0 110-1.5.75.75 0 010 1.5zm4.885 0H8.752a.753.753 0 01-.734-.733c0-.393.343-.736.735-.736h2a7.195 7.195 0 012.946-4.595.705.705 0 01-.277.058h-4.67a.753.753 0 01-.734-.735c0-.392.343-.734.735-.734h4.67c.391 0 .734.342.734.734a.732.732 0 01-.232.524 7.144 7.144 0 014.58-1.121V3h-3.546c.027.165.043.332.046.5V7h-11V3.5c.002-.168.017-.335.045-.5H.502v17.5a3 3 0 003 3h9.935A7.173 7.173 0 0110.64 18zm2.864-14.5a1.5 1.5 0 00-1.5-1.5h-1v-.5a1.5 1.5 0 10-3 0V2h-1a1.5 1.5 0 00-1.5 1.5v2h8v-2z" fill="#000" fill-rule="evenodd"/></svg>