<svg width="24" height="24" xmlns="http://www.w3.org/2000/svg"><path d="M2 4.5V20c0 1.654 1.345 3 3 3h3v-1.5H5c-.827 0-1.5-.673-1.5-1.5v-1h2a.75.75 0 100-1.5h-2V15h2a.75.75 0 100-1.5h-2V11h2a.75.75 0 100-1.5h-2V7h2a.75.75 0 100-1.5h-2v-1C3.5 3.673 4.173 3 5 3h3V1.5H5c-1.655 0-3 1.345-3 3zm19.2 5.299c-.715 0-1.283.306-1.59.875h-.069c-.25-.569-.727-.875-1.465-.875-.659 0-1.181.318-1.466.851h-.068v-.67h-1.375v5.476h1.466v-3.215c0-.67.375-1.102.931-1.102.523 0 .716.341.716.875v3.442h1.466v-3.215c0-.681.375-1.102.943-1.102.523 0 .715.341.715.875v3.442h1.466v-3.624c0-1.34-.556-2.034-1.67-2.034zM9.462 9.73v1.772l1.976-1.636h.069v5.59h1.466V7.867h-1.33L9.462 9.73z" fill-rule="evenodd"/></svg>