<svg width="24" height="24" xmlns="http://www.w3.org/2000/svg"><path d="M8.002 1.482v2.5H5.183c-.646 0-1.179.493-1.243 1.123l-.007.127V5.5h1.57a.75.75 0 01.101 1.493L5.502 7H3.933v2.5h1.57a.75.75 0 01.101 1.493l-.102.006H3.933v2.5h1.57a.75.75 0 01.101 1.493L5.502 15H3.933v2.5h1.57a.75.75 0 01.101 1.493L5.502 19H3.933v.245c0 .646.493 1.179 1.123 1.243l.127.007h2.82v2.5h-2.82a3.754 3.754 0 01-3.744-3.552l-.005-.198V5.232a3.754 3.754 0 013.55-3.744l.2-.006h2.818zm13.2 8.316c1.06 0 1.616.629 1.666 1.846l.004.187v3.624h-1.466v-3.442c0-.534-.193-.875-.715-.875-.53 0-.892.367-.938.97l-.005.132v3.215h-1.466v-3.442c0-.534-.193-.875-.716-.875-.519 0-.88.376-.926.972l-.005.13v3.215h-1.466V9.98h1.375v.67h.068c.284-.534.807-.852 1.466-.852.682 0 1.14.262 1.404.749l.061.126h.068c.308-.568.875-.875 1.591-.875zm-8.228-1.931v7.588h-1.466V9.866h-.068l-1.977 1.635V9.73l2.182-1.862h1.329z" fill="#000" fill-rule="evenodd"/></svg>