<svg width="24" height="24" xmlns="http://www.w3.org/2000/svg"><path d="M12 1c6.05 0 11 4.95 11 11 0 2.6-.95 5.1-2.6 7.1-.3.35-.575.625-.819.85l-.277.248-.354.302H5l-.319-.273-.247-.222a8.717 8.717 0 01-.884-.955C1.9 17.05 1 14.6 1 12 1 5.95 5.95 1 12 1zm0 1.5c-5.25 0-9.5 4.25-9.5 9.5a9.404 9.404 0 002.864 6.78L5.6 19h12.8c2-1.8 3.1-4.35 3.1-7 0-5.25-4.25-9.5-9.5-9.5zm6.45 7c.222-.133.484-.03.645.136l.055.064.03.081a.654.654 0 01-.112.554L19 10.4l-4.5 3.7a2.487 2.487 0 01-2.5 2.4c-1.4 0-2.5-1.1-2.5-2.5s1.1-2.5 2.5-2.5c.333 0 .632.07.896.208l.154.092 5.4-2.3zM12 4.5c2.507 0 4.735 1.255 6.102 3.183l.148.217-1.4.6C15.75 7 14 6 12 6c-3.225 0-5.877 2.579-5.996 5.776L6 12H4.5c0-4.15 3.35-7.5 7.5-7.5z" fill="#000" fill-rule="evenodd"/></svg>