<svg width="24" height="24" xmlns="http://www.w3.org/2000/svg"><path d="M12 2.5c6.05 0 11 4.95 11 11 0 2.6-.95 5.1-2.6 7.1-.3.35-.575.625-.819.85l-.277.248-.354.302H5l-.319-.273-.247-.222a8.717 8.717 0 01-.884-.955C1.9 18.55 1 16.1 1 13.5c0-6.05 4.95-11 11-11zm6.45 8.5c.222-.133.484-.03.645.136l.055.064.03.081a.654.654 0 01-.112.554L19 11.9l-4.5 3.7A2.487 2.487 0 0112 18c-1.4 0-2.5-1.1-2.5-2.5S10.6 13 12 13c.333 0 .632.07.896.208l.154.092 5.4-2.3zM12 6c2.507 0 4.735 1.255 6.102 3.183l.148.217-1.4.6C15.75 8.5 14 7.5 12 7.5c-3.225 0-5.877 2.579-5.996 5.776L6 13.5H4.5C4.5 9.35 7.85 6 12 6z" fill="#000" fill-rule="evenodd"/></svg>