<svg width="24" height="24" xmlns="http://www.w3.org/2000/svg" xmlns:xlink="http://www.w3.org/1999/xlink"><defs><path d="M3 1v19c0 1.65 1.35 3 3 3h10l5-5V1H3zm1.5 19V2.5h15V17h-3c-.85 0-1.5.65-1.5 1.5v3H6c-.85 0-1.5-.65-1.5-1.5z" id="user-file-file"/><path id="c" d="M0 0h12.002v16H0z"/></defs><g fill="none" fill-rule="evenodd"><mask id="b" fill="#fff"><use xlink:href="#user-file-file"/></mask><use fill="#000" xlink:href="#user-file-file"/><g mask="url(#b)"><g transform="translate(6 4)"><mask id="d" fill="#fff"><use xlink:href="#c"/></mask><path d="M10.131 15h-8.25a.94.94 0 01-.88-.996V2a.94.94 0 01.876-1h4.124v5a.5.5 0 00.5.5h4.5V14a.94.94 0 01-.87 1zm.46-9.5h-3.59V1.58l3.59 3.92zm1.28-.09L7.061.16a.518.518 0 00-.37-.16h-4.81a1.94 1.94 0 00-1.88 1.998V14a1.94 1.94 0 001.878 2h8.252a1.94 1.94 0 001.87-2V5.75a.53.53 0 00-.13-.34z" fill="#000" mask="url(#d)"/></g></g></g></svg>