<svg width="24" height="24" xmlns="http://www.w3.org/2000/svg"><path d="M12 1c.367 0 .691.294.743.651l.007.099v1.8a8.448 8.448 0 017.674 7.44l.026.26h1.8c.4 0 .75.35.75.75a.772.772 0 01-.651.743l-.099.007h-1.8a8.448 8.448 0 01-7.44 7.674l-.26.026v1.8c0 .4-.35.75-.75.75a.772.772 0 01-.743-.651l-.007-.099v-1.8a8.448 8.448 0 01-7.674-7.44l-.026-.26h-1.8c-.4 0-.75-.35-.75-.75 0-.367.294-.691.651-.743l.099-.007h1.8a8.448 8.448 0 017.44-7.674l.26-.026v-1.8c0-.4.35-.75.75-.75zm0 4c-3.85 0-7 3.15-7 7s3.15 7 7 7 7-3.15 7-7-3.15-7-7-7zm0 5a2 2 0 110 4 2 2 0 010-4z" fill-rule="evenodd"/></svg>