<svg width="24" height="24" xmlns="http://www.w3.org/2000/svg"><path d="M18.751 20.058a3.809 3.809 0 00-2.637-1.052h-1.675L12 21.447l-2.439-2.44H7.886c-.937 0-1.802.336-2.47.902-.893.756-1.183 1.602-1.348 2.592h15.863c-.152-.91-.388-1.687-1.18-2.442zm-12.403-8.86c0 3.18 2.271 6.585 5.652 6.585 3.38 0 5.651-3.405 5.651-6.585 0-.351-.032-.69-.085-1.02.259-.024.523-.056.794-.107-.325-3.059-1.636-6.608-5.813-6.473L12.204 2.5c-2.749.345-4.17 1.434-4.413 2.956l-1.793-.324s-.558 1.439.654 2.962c-.196.791-.304 1.807-.304 3.104zM12 16.284c-2.484 0-4.152-2.63-4.152-5.085 0-.187.014-.367.035-.546.813-.302 1.526-.83 1.85-1.442 0 0 1.188 1.395 4.513 1.911 0 0-.304-.84-.612-1.722.709.387 1.51.652 2.397.758.076.33.12.677.12 1.04 0 2.457-1.668 5.086-4.151 5.086z" fill="#000" fill-rule="evenodd"/></svg>