<svg width="24" height="24" xmlns="http://www.w3.org/2000/svg"><path d="M9.45 18.895l2.55 2.55 2.55-2.55h1.565a3.805 3.805 0 013.728 3l.037.195.07.41H4.05l.07-.415A3.805 3.805 0 017.686 18.9l.199-.005H9.45zm2.93-16.66l.43 1.38c3.448.022 4.854 2.626 5.373 5.277l.07.398.06.397.047.393-.41.064c-.13.018-.255.034-.385.046.056.33.084.665.085 1 0 3.18-2.27 6.585-5.65 6.585-3.17 0-5.361-2.996-5.62-5.996l-.015-.214-.22.395v-1.435a14.06 14.06 0 01.245-2.36 3.345 3.345 0 01-.68-2.921l.055-.204.075-.19 1.755.3a2.93 2.93 0 01.5-1.055c.694-.93 1.932-1.54 3.753-1.815l.327-.045h.205zM9.735 9.2a3.5 3.5 0 01-1.644 1.37l-.206.075v.01c-.025.177-.04.356-.045.535 0 2.455 1.665 5.085 4.15 5.085 2.485 0 4.15-2.63 4.15-5.085 0-.35-.041-.699-.12-1.04a6.735 6.735 0 01-2.395-.76l.61 1.72c-1.406-.218-2.43-.595-3.141-.957L10.808 10a6.139 6.139 0 01-.464-.29l-.179-.13-.146-.115-.115-.098-.115-.11-.054-.057z" fill="#000" fill-rule="evenodd"/></svg>