<svg width="24" height="24" xmlns="http://www.w3.org/2000/svg"><path d="M9.561 19.006L12 21.447l2.44-2.44h1.674c1.017 0 1.948.395 2.637 1.052.792.755 1.028 1.532 1.18 2.442H4.068c.165-.99.455-1.835 1.347-2.591a3.811 3.811 0 012.471-.902h1.675zM12.204 2.5l.343 1.098c4.177-.135 5.488 3.414 5.813 6.473a8.354 8.354 0 01-.794.107c.053.33.085.668.085 1.02 0 3.18-2.27 6.585-5.651 6.585-3.38 0-5.652-3.405-5.652-6.585 0-1.297.108-2.313.304-3.104-1.212-1.523-.654-2.962-.654-2.962l1.793.324c.243-1.522 1.664-2.61 4.413-2.956zM9.733 9.21c-.324.611-1.037 1.14-1.85 1.442-.02.179-.035.36-.035.546 0 2.455 1.668 5.085 4.152 5.085 2.483 0 4.151-2.629 4.151-5.086 0-.363-.044-.71-.12-1.04a6.616 6.616 0 01-2.397-.758c.308.882.612 1.722.612 1.722-2.821-.437-4.104-1.508-4.428-1.822l-.055-.056-.03-.033z" fill="#000" fill-rule="evenodd"/></svg>