<svg width="24" height="24" xmlns="http://www.w3.org/2000/svg"><path d="M12 10a.75.75 0 01.743.648l.007.102V16h3.669L12 22.75 7.582 16h3.668v-5.25A.75.75 0 0112 10zm1.511-6.326a7.593 7.593 0 017.149 4.982 5.76 5.76 0 013.09 5.093c0 3.097-2.46 5.63-5.53 5.746L18 19.5h-2.08L16.9 18H18a4.255 4.255 0 004.25-4.25c0-2.023-1.227-3.112-2.06-3.626l-.216-.126a5.097 5.097 0 00-.099-.053l-.173-.087-.251-.112a.071.071 0 01-.012-.006l-.049-.15-.085-.265-.083-.23-.11-.267a6.099 6.099 0 00-5.601-3.654 6.082 6.082 0 00-3.975 1.478l-.457.411-.084-.027-.333-.117a3.205 3.205 0 00-3.41.87 3.177 3.177 0 00-.84 2.113v.213l.009.182.023.294c0 .011 0 .02-.002.027l-.087.04-.194.082-.177.082-.206.106-.227.133c-.784.486-1.801 1.44-1.801 3.189a3.754 3.754 0 003.551 3.745L5.5 18h1.598l.982 1.5H5.5a5.256 5.256 0 01-5.25-5.25c0-1.9 1.032-3.643 2.667-4.568a4.718 4.718 0 014.704-4.438c.37 0 .738.045 1.101.133a7.593 7.593 0 014.79-1.703z" fill="#000" fill-rule="evenodd"/></svg>