<svg width="24" height="24" xmlns="http://www.w3.org/2000/svg"><path d="M12 8.5a.75.75 0 01.743.648l.007.102v5.25h3.67L12 21.25l-2.25-3.44-2.17-3.31h3.67V9.25A.75.75 0 0112 8.5zM8.72 3.88a7.6 7.6 0 0111.93 3.275 5.745 5.745 0 013.1 5.095c0 2.915-2.165 5.485-5 5.695l-.359.02-.717.02-1.411.014-.343.001 1.775-2.68 1.5-2.32H14.25V9.25a2.25 2.25 0 00-4.495-.154l-.005.154V13H4.805l3.275 5-1.476-.009-1.042-.018-.648-.023a8.398 8.398 0 01-.164-.01c-2.56-.19-4.5-2.55-4.5-5.19a5.25 5.25 0 012.675-4.57 4.685 4.685 0 015.795-4.3z" fill="#000" fill-rule="evenodd"/></svg>