<svg width="24" height="24" xmlns="http://www.w3.org/2000/svg"><path d="M12 9.995a.75.75 0 01.743.648l.007.102v5.25h3.67L12 22.745l-2.25-3.44-2.17-3.31h3.67v-5.25a.75.75 0 01.75-.75zm-3.28-4.62A7.6 7.6 0 0120.65 8.65a5.745 5.745 0 013.1 5.095c0 2.915-2.165 5.485-5 5.695l-.359.02-.717.019-1.411.015h-.343l1.775-2.68 1.5-2.32H14.25v-3.75a2.25 2.25 0 00-4.495-.154l-.005.155v3.75H4.805l3.275 5-1.476-.01-1.042-.017-.648-.023a8.398 8.398 0 01-.164-.01c-2.56-.19-4.5-2.55-4.5-5.19a5.25 5.25 0 012.675-4.57 4.685 4.685 0 015.795-4.3z" fill="#000" fill-rule="evenodd"/></svg>