<svg xmlns="http://www.w3.org/2000/svg" width="24" height="24">
    <path fill="#262626" fill-rule="evenodd" d="M11.5.5c1.65 0 3 1.35 3 3v.75c-.5.15-1 .3-1.5.55V3.5c0-.85-.65-1.5-1.5-1.5h-2v1.5h-4V2h-2C2.65 2 2 2.65 2 3.5v17c0 .85.65 1.5 1.5 1.5h8c.85 0 1.5-.65 1.5-1.5v-1.3c.5.25 1 .4 1.5.55v.75c0 1.65-1.35 3-3 3h-8c-1.65 0-3-1.35-3-3v-17c0-1.65 1.35-3 3-3zm-4 18a1.25 1.25 0 110 2.5 1.25 1.25 0 010-2.5zm10.2-13l.3 1.6c.05.45.55.65.9.4l1.35-.9 1.65 1.65-.95 1.35c-.2.35 0 .8.4.9l1.65.35v2.35l-1.65.3c-.4.05-.6.55-.35.9l.85 1.3-1.65 1.65-1.35-.95c-.35-.2-.8 0-.9.4l-.3 1.65H15.3L15 16.8a.567.567 0 00-.9-.4l-1.35.95-1.65-1.65.95-1.35c.2-.35 0-.8-.4-.9l-1.65-.3V10.8l1.65-.3c.45-.05.65-.55.4-.9l-.95-1.35 1.65-1.65 1.35.95c.35.2.8 0 .9-.4l.35-1.65h2.35zM16.5 10c-1.1 0-2 .9-2 2s.9 2 2 2 2-.9 2-2-.9-2-2-2z"/>
</svg>
