<svg width="24" height="24" xmlns="http://www.w3.org/2000/svg"><path d="M11.5.5a3.01 3.01 0 012.995 2.824l.005.176v.75c-.4.12-.8.24-1.2.411L13 4.8V3.5c0-.8-.576-1.423-1.352-1.493L11.5 2h-2v1.5h-4V2h-2c-.8 0-1.423.576-1.493 1.352L2 3.5v17c0 .8.576 1.423 1.352 1.493L3.5 22h8c.8 0 1.423-.576 1.493-1.352L13 20.5v-1.3c.4.2.8.336 1.2.46l.3.09v.75a3.01 3.01 0 01-2.824 2.995l-.176.005h-8a3.01 3.01 0 01-2.995-2.824L.5 20.5v-17A3.01 3.01 0 013.324.505L3.5.5h8zm-4 18a1.25 1.25 0 110 2.5 1.25 1.25 0 010-2.5zm7.85-13h2.35l.3 1.6c.046.418.48.62.823.447L18.9 7.5l1.35-.9 1.65 1.65-.95 1.35a.617.617 0 00.311.87l.089.03 1.65.35v2.35l-1.65.3c-.371.046-.57.48-.397.823L21 14.4l.85 1.3-1.65 1.65-1.35-.95a.617.617 0 00-.87.311l-.03.089-.3 1.65H15.3L15 16.8a.566.566 0 00-.823-.447l-.077.047-1.35.95-1.65-1.65.95-1.35a.617.617 0 00-.311-.87l-.089-.03-1.65-.3V10.8l1.65-.3a.566.566 0 00.447-.823L12.05 9.6l-.95-1.35 1.65-1.65 1.35.95a.617.617 0 00.87-.311L15 7.15l.35-1.65zM16.5 10c-1.1 0-2 .9-2 2s.9 2 2 2 2-.9 2-2-.9-2-2-2z" fill-rule="evenodd"/></svg>