<svg width="24" height="24" xmlns="http://www.w3.org/2000/svg"><path d="M11.5.5a3 3 0 012.995 2.824l.005.176v1l-.165.855-.18 1-.845-.585-.685-.5-2.26 2.26-.59.595.475.685.57.855L9 10v4l.83.2 1 .185-1.055 1.53 2.85 2.85.685-.5.845-.585.18 1 .165.82v1a3 3 0 01-2.824 2.995l-.176.005h-8a3 3 0 01-2.995-2.824L.5 20.5v-17A3 3 0 013.324.505L3.5.5h8zm-4 17.75a1.5 1.5 0 100 3 1.5 1.5 0 000-3zm0 .5a1 1 0 110 2 1 1 0 010-2zM17.685 5.5L18 7.135a.595.595 0 00.816.41L18.9 7.5l1.375-.93 1.67 1.67L21 9.605a.59.59 0 00.279.867l.091.028 1.635.32v2.38l-1.635.3a.59.59 0 00-.415.81l.045.085.935 1.38-1.67 1.67L18.9 16.5a.595.595 0 00-.871.279L18 16.87l-.315 1.63H15.32l-.295-1.615a.595.595 0 00-.833-.434l-.087.049-1.38.93-1.67-1.67.945-1.365a.59.59 0 00-.268-.908l-.097-.027-1.63-.3V10.8l1.63-.3a.59.59 0 00.41-.811L12 9.605l-.93-1.365 1.67-1.67 1.365.94a.59.59 0 00.894-.284l.026-.096.295-1.63h2.365zM16.5 10a2 2 0 100 4 2 2 0 000-4zm-7-7.75h-4v1h4v-1z" fill-rule="evenodd"/></svg>