<svg xmlns="http://www.w3.org/2000/svg" width="24" height="24">
    <path fill="#262626" fill-rule="evenodd" d="M11.5.5a3 3 0 013 3v1l-.165.855-.18 1-.845-.585-.685-.5-2.26 2.26-.59.595.475.685.57.855-1 .185L9 10v4l.83.2 1 .185-.58.84-.475.69 2.85 2.85.685-.5.845-.585.18 1 .165.82v1a3 3 0 01-3 3h-8a3 3 0 01-3-3v-17a3 3 0 013-3zm-4 17.75a1.5 1.5 0 100 3 1.5 1.5 0 000-3zm0 .5a1 1 0 110 2 1 1 0 010-2zM17.685 5.5L18 7.135a.595.595 0 00.9.365l1.375-.93 1.67 1.67L21 9.605a.59.59 0 00.37.895l1.635.32v2.38l-1.635.3a.59.59 0 00-.37.895l.935 1.38-1.67 1.67L18.9 16.5a.595.595 0 00-.9.37l-.315 1.63H15.32l-.295-1.615a.595.595 0 00-.92-.385l-1.38.93-1.67-1.67.945-1.365a.59.59 0 00-.365-.935l-1.63-.3V10.8l1.63-.3A.59.59 0 0012 9.605l-.93-1.365 1.67-1.67 1.365.94a.59.59 0 00.92-.38l.295-1.63h2.365zM16.5 10a2 2 0 100 4 2 2 0 000-4zm-7-7.75h-4v1h4v-1z"/>
</svg>
