<svg xmlns="http://www.w3.org/2000/svg" width="24" height="24">
    <path fill="#262626" fill-rule="evenodd" d="M7.05 3C7 3.15 7 3.35 7 3.5v1H4.5C3.65 4.5 3 5.15 3 6v14.5c0 .85.65 1.5 1.5 1.5h2.75c.2.55.5 1.05.9 1.5H4.5c-1.65 0-3-1.35-3-3V6c0-1.65 1.35-3 3-3zM19.5.5c1.65 0 3 1.35 3 3v17c0 1.65-1.35 3-3 3h-8c-1.65 0-3-1.35-3-3V15H10v5.5c0 .85.65 1.5 1.5 1.5h8c.85 0 1.5-.65 1.5-1.5v-17c0-.85-.65-1.5-1.5-1.5h-2v1.5h-4V2h-2c-.85 0-1.5.65-1.5 1.5v7H8.5v-7c0-1.65 1.35-3 3-3zm-4 18a1.25 1.25 0 110 2.5 1.25 1.25 0 010-2.5zm-4-9.35l5.5 3.6-5.5 3.6V13.5H6.75c-.4 0-.75-.35-.75-.75s.35-.75.75-.75h4.75V9.15z"/>
</svg>
