<svg width="24" height="24" xmlns="http://www.w3.org/2000/svg"><path d="M7.05 3a1.339 1.339 0 00-.05.38V4.5H4.5c-.8 0-1.423.576-1.493 1.352L3 6v14.5c0 .8.576 1.423 1.352 1.493L4.5 22h2.75c.167.458.403.882.708 1.27l.192.23H4.5a3.01 3.01 0 01-2.995-2.824L1.5 20.5V6a3.01 3.01 0 012.824-2.995L4.5 3h2.55zM19.5.5a3.01 3.01 0 012.995 2.824l.005.176v17a3.01 3.01 0 01-2.824 2.995l-.176.005h-8a3.01 3.01 0 01-2.995-2.824L8.5 20.5V15H10v5.5c0 .8.576 1.423 1.352 1.493L11.5 22h8c.8 0 1.423-.576 1.493-1.352L21 20.5v-17c0-.8-.576-1.423-1.352-1.493L19.5 2h-2v1.5h-4V2h-2c-.8 0-1.423.576-1.493 1.352L10 3.5v7H8.5v-7A3.01 3.01 0 0111.324.505L11.5.5h8zm-4 18a1.25 1.25 0 110 2.5 1.25 1.25 0 010-2.5zm-4-9.35l5.5 3.6-5.5 3.6V13.5H6.75c-.4 0-.75-.35-.75-.75 0-.367.294-.691.651-.743L6.75 12h4.75V9.15z" fill="#000" fill-rule="evenodd"/></svg>