<svg width="24" height="24" xmlns="http://www.w3.org/2000/svg"><path d="M7.03 3l-.023.25L7 3.5v1H4.5a1.5 1.5 0 00-1.493 1.356L3 6v14.5a1.5 1.5 0 001.356 1.493L4.5 22h2.765c.166.475.413.917.727 1.309l.163.191H4.5a3 3 0 01-2.995-2.824L1.5 20.5V6a3 3 0 012.824-2.995L4.5 3h2.53zM19.5.5a3 3 0 012.995 2.824l.005.176v17a3 3 0 01-2.824 2.995l-.176.005h-8a3 3 0 01-2.995-2.824L8.5 20.5v-6.25h2.25v3.5l7.62-5-7.62-5v3.5H8.5V3.5A3 3 0 0111.324.505L11.5.5h8zm-4 17.75a1.5 1.5 0 100 3 1.5 1.5 0 000-3zm0 .5a1 1 0 110 2 1 1 0 010-2zm-4-9.6l5.5 3.6-5.5 3.6V13.5H6.75a.75.75 0 01-.102-1.493L6.75 12h4.75V9.15zm6-6.9h-4v1h4v-1z" fill-rule="evenodd"/></svg>