<svg xmlns="http://www.w3.org/2000/svg" width="24" height="24">
    <path fill="#262626" fill-rule="evenodd" d="M7.03 3a4.13 4.13 0 00-.03.5v1H4.5A1.5 1.5 0 003 6v14.5A1.5 1.5 0 004.5 22h2.765c.194.554.497 1.064.89 1.5H4.5a3 3 0 01-3-3V6a3 3 0 013-3zM19.5.5a3 3 0 013 3v17a3 3 0 01-3 3h-8a3 3 0 01-3-3v-6.25h2.25v3.5l7.62-5-7.62-5v3.5H8.5V3.5a3 3 0 013-3zm-4 17.75a1.5 1.5 0 100 3 1.5 1.5 0 000-3zm0 .5a1 1 0 110 2 1 1 0 010-2zm-4-9.6l5.5 3.6-5.5 3.6V13.5H6.75a.75.75 0 110-1.5h4.75V9.15zm6-6.9h-4v1h4v-1z"/>
</svg>
