<svg width="24" height="24" xmlns="http://www.w3.org/2000/svg"><path d="M11.31 2.815c.535-1.06 1.62-1.545 2.7-1.21 1.1.34 1.76 1.41 1.605 2.6l-.525 4a.25.25 0 00.245.295h3.625c1.265 0 2.36.725 2.87 1.895.405.935.33 1.945-.175 2.735.37 1.07.105 2.195-.72 3.055.24 1.125-.215 2.32-1.185 3.06a2.451 2.451 0 01-.555 1.535c-.63.765-1.73 1.215-2.945 1.215L13.03 22h-.015c-2.33 0-3.905-.805-4.905-1.36-.495-.275-1.045-.43-1.61-.52v1.885H2v-11.5h3.565c1.9 0 3.145-1.93 4.425-4.83a74.449 74.449 0 011.013-2.244l.099-.202.1-.202.108-.212zM5 12H3.5v8.5H5V12z" fill-rule="evenodd"/></svg>