<svg xmlns="http://www.w3.org/2000/svg" width="24" height="24">
    <path fill="#262626" fill-rule="evenodd" d="M10 2c4.42 0 8 3.58 8 8 0 1.76-.575 3.38-1.535 4.695l4.92 4.92c.485.49.485 1.28.005 1.77a1.245 1.245 0 01-.885.365c-.32 0-.64-.12-.885-.365l-4.92-4.92A7.961 7.961 0 0110 18c-4.42 0-8-3.58-8-8s3.58-8 8-8zm0 1.5A6.506 6.506 0 003.5 10c0 3.585 2.915 6.5 6.5 6.5s6.5-2.915 6.5-6.5-2.915-6.5-6.5-6.5zm0 2.75c.415 0 .75.335.75.75v2.25H13a.749.749 0 110 1.5h-2.25V13a.749.749 0 11-1.5 0v-2.25H7a.749.749 0 110-1.5h2.25V7c0-.415.335-.75.75-.75z"/>
</svg>
