<svg width="24" height="24" xmlns="http://www.w3.org/2000/svg"><path d="M10 2c4.42 0 8 3.58 8 8 0 1.65-.505 3.177-1.36 4.445l-.175.25 4.92 4.92c.485.49.485 1.28.005 1.77a1.245 1.245 0 01-.885.365c-.274 0-.549-.088-.776-.268l-.109-.097-4.92-4.92A7.961 7.961 0 0110 18c-4.42 0-8-3.58-8-8s3.58-8 8-8zm0 1.5A6.506 6.506 0 003.5 10c0 3.585 2.915 6.5 6.5 6.5s6.5-2.915 6.5-6.5-2.915-6.5-6.5-6.5zm0 2.75c.38 0 .694.281.743.648L10.75 7v2.25H13a.749.749 0 01.102 1.493L13 10.75h-2.25V13a.749.749 0 01-1.493.102L9.25 13v-2.25H7a.749.749 0 01-.102-1.493L7 9.25h2.25V7c0-.415.335-.75.75-.75z" fill-rule="evenodd"/></svg>