<svg width="24" height="24" xmlns="http://www.w3.org/2000/svg"><path d="M12 18a2 2 0 110 4 2 2 0 010-4zm-1.08-4.4a7.15 7.15 0 00.723 1.925A4.495 4.495 0 008.14 17.69l-.11.194-1.436-1.49A6.496 6.496 0 0110.92 13.6zm7.018-7.226a5.688 5.688 0 11-.002 11.376 5.688 5.688 0 01.002-11.376zm-6.5 2.642a7.08 7.08 0 00-.612 2.062 8.992 8.992 0 00-5.802 3.25l-.19.241-1.406-1.459a10.977 10.977 0 018.01-4.094zm8.395 1.031l-2.565 2.564-1.282-1.28a.683.683 0 00-.965.964l2.247 2.247 3.53-3.53a.681.681 0 10-.965-.965zM12 4.5c1.469 0 2.89.205 4.236.588a7.148 7.148 0 00-2.921 1.481A13.602 13.602 0 0012 6.5a13.463 13.463 0 00-10.091 4.537l-.228.263L.287 9.855A15.459 15.459 0 0112 4.5z" fill="#000" fill-rule="evenodd"/></svg>