<svg height="24" width="24" xmlns="http://www.w3.org/2000/svg"><path d="m7 22.75c-1.55 0-3.05-.6-4.25-1.75a6.005 6.005 0 0 1 0-8.5l11.5-11.5c.3-.3.75-.3 1.05 0s.3.75 0 1.05l-11.5 11.5a4.496 4.496 0 0 0 0 6.35 4.496 4.496 0 0 0 6.35 0l10.8-10.8c1.05-1.05 1.05-2.8 0-3.9-.5-.5-1.2-.8-1.95-.8s-1.4.3-1.95.8l-10.8 10.85c-.15.2-.25.45-.25.7s.1.5.3.7c.4.4 1.05.4 1.4 0l7.95-7.95c.3-.3.75-.3 1.05 0s.3.75 0 1.05l-7.95 8c-.45.45-1.1.75-1.75.75s-1.3-.25-1.75-.75c-.5-.5-.75-1.1-.75-1.8s.25-1.25.7-1.75l10.8-10.8a4.255 4.255 0 0 1 6 0 4.255 4.255 0 0 1 0 6l-10.8 10.8c-1.15 1.2-2.7 1.75-4.2 1.75z" fill="#262626" fill-rule="evenodd"/></svg>