<svg width="24" height="24" xmlns="http://www.w3.org/2000/svg"><path d="M19 4.05l2.8.25-1.55 16.95a2.978 2.978 0 01-3.074 2.71L17 23.95 7 23a2.777 2.777 0 01-2.261-1.344L4.65 21.5H7a.161.161 0 00.112.05h.038l9.95.9a1.49 1.49 0 001.635-1.218l.015-.132 1.4-15.45-1.15-.1v-1.5zM17.5 0v17a3.01 3.01 0 01-2.824 2.995L14.5 20h-10a3.01 3.01 0 01-2.995-2.824L1.5 17V5l5-5h11zM16 1.5H7.5v3c0 .8-.576 1.423-1.352 1.493L6 6H3v11c0 .8.576 1.423 1.352 1.493l.148.007h10c.8 0 1.423-.576 1.493-1.352L16 17V1.5zM8.6 7.9c.941-.706 2.414-.747 3.5-.375l.2.075-.4 1.1c-.6-.25-1.75-.35-2.45.15a2.152 2.152 0 00-.64.92l-.06.18h2.85l-.3 1H8.55v.65h2.5l-.3 1H8.7c.15.5.4.85.7 1.1.562.422 1.608.536 2.52.096l.18-.096.3 1.1c-.85.6-2.8.65-3.95-.2-.5-.41-.835-.983-1.042-1.798l-.058-.252h-1l.35-1h.55v-.65h-.9l.35-1h.7c.2-.8.55-1.5 1.2-2z" fill="#000" fill-rule="evenodd"/></svg>