<svg width="24" height="24" xmlns="http://www.w3.org/2000/svg"><path d="M4.2 4.2c4.3-4.25 11.3-4.25 15.6 0 4.25 4.3 4.25 11.3 0 15.6-2.15 2.15-5 3.2-7.8 3.2s-5.65-1.1-7.8-3.2C-.05 15.5-.05 8.5 4.2 4.2zm14.55 1.1C15.05 1.6 9 1.6 5.3 5.3 1.6 9 1.6 15 5.25 18.7c3.7 3.7 9.75 3.7 13.45 0 3.7-3.7 3.7-9.7.05-13.4zM12 8.4l4.05 4.35c.25.3.25.75-.05 1.05a.773.773 0 01-.956.031l-.094-.081L12 10.6l-2.95 3.15c-.25.3-.75.35-1.05.05a.729.729 0 01-.118-.971l.068-.079L12 8.4z" fill="#000" fill-rule="evenodd"/></svg>