<svg xmlns="http://www.w3.org/2000/svg" width="24" height="24">
    <path fill="#262626" fill-rule="evenodd" d="M12 7.55c2.2 0 4.4.6 5.6 1h1.1c1.05 0 1.9.75 2 1.8.15 2 .45 5.3.45 7.35 0 2.3-1.5 4.3-3.65 4.7v.1c0 .55-.45 1-1 1h-9c-.55 0-1-.45-1-1v-.05C4.35 22 2.85 20 2.85 17.7c0-2.05.25-5.3.45-7.35.1-1 .95-1.8 2-1.8h1.15c1.05-.35 3.2-1 5.55-1zM18.7 10H5.3c-.25 0-.5.2-.5.45-.15 1.85-.45 5.2-.45 7.25 0 1.85 1.3 3.3 3 3.3h9.3c1.7 0 3-1.45 3-3.3 0-2.1-.3-5.45-.45-7.25-.05-.25-.25-.45-.5-.45zM13 17.5v2h-2v-2h2zM12.25 4c1.5 0 2.9.3 4.15.8l-.7 1.35a8.86 8.86 0 00-3.45-.7c-1.4 0-2.7.35-3.9.9l-.7-1.3C9.05 4.4 10.6 4 12.25 4zm0-3.5c2.1 0 4.05.45 5.85 1.3l-.7 1.3C15.8 2.4 14.1 2 12.25 2c-2 0-3.9.45-5.6 1.3L5.95 2C7.85 1.05 10 .5 12.25.5z"/>
</svg>
