<svg width="24" height="24" xmlns="http://www.w3.org/2000/svg"><path d="M12 7.55c1.711 0 3.422.363 4.663.712l.501.148.436.14h1.1c1.05 0 1.9.75 2 1.8l.223 2.86.077 1.062.067 1.056c.05.866.083 1.689.083 2.372 0 2.226-1.405 4.17-3.444 4.656l-.206.044v.1c0 .51-.388.935-.884.993l-.116.007h-9c-.51 0-.935-.388-.993-.884L6.5 22.5v-.05C4.35 22 2.85 20 2.85 17.7c0-.732.032-1.617.082-2.546L3 14.025c.012-.19.026-.379.039-.567l.084-1.113.044-.535.09-1.003.043-.457c.095-.95.867-1.72 1.844-1.794L5.3 8.55h1.15l.347-.113.408-.125.463-.132c1.14-.312 2.687-.63 4.332-.63zm1 9.95v2h-2v-2h2zM12.25 4c1.364 0 2.645.248 3.805.669l.345.131-.7 1.35a8.86 8.86 0 00-3.45-.7c-1.273 0-2.463.29-3.57.755l-.33.145-.7-1.3C9.05 4.4 10.6 4 12.25 4zm0-3.5c1.95 0 3.77.388 5.462 1.124l.388.176-.7 1.3C15.8 2.4 14.1 2 12.25 2c-1.857 0-3.628.388-5.233 1.124L6.65 3.3 5.95 2C7.85 1.05 10 .5 12.25.5z" fill="#000" fill-rule="evenodd"/></svg>