<svg xmlns="http://www.w3.org/2000/svg" width="24" height="24">
    <path fill="#262626" fill-rule="evenodd" d="M21.224 10.231a2.087 2.087 0 00-2.087-1.883h-1.132a19.68 19.68 0 00-5.833-1.044 18.295 18.295 0 00-5.739 1.044H5.181a2.087 2.087 0 00-2.087 1.883c-.193 2.119-.485 5.53-.485 7.696a4.889 4.889 0 003.814 4.946v.084c0 .576.467 1.043 1.043 1.043h9.391c.577 0 1.044-.467 1.044-1.043v-.084c2.264-.433 3.814-2.52 3.814-4.946 0-2.165-.287-5.577-.49-7.696zm-8.019 9.595h-2.087V17.74h2.087v2.087zm-.782-18.26a13.08 13.08 0 015.353 1.142l.751-1.378a14.682 14.682 0 00-12.673.235l.751 1.357a13.12 13.12 0 015.818-1.357zM7.617 4.762l.73 1.373a9.391 9.391 0 017.655-.204l.756-1.388a11.009 11.009 0 00-9.14.22z"/>
</svg>
