<svg width="24" height="24" xmlns="http://www.w3.org/2000/svg"><path d="M14.5 13.25a1.25 1.25 0 100-2.5 1.25 1.25 0 000 2.5zm-5 0a1.25 1.25 0 100-2.5 1.25 1.25 0 000 2.5zm1.75-6.693V8.5h1.5V6.557c2.678.368 4.75 2.666 4.75 5.443 0 2.777-2.072 5.075-4.75 5.443V15.5h-1.5v1.943C8.573 17.075 6.5 14.777 6.5 12c0-2.777 2.072-5.075 4.75-5.443zM12 19a7 7 0 100-14 7 7 0 000 14zm8.5 0c0 .827-.672 1.5-1.5 1.5H5c-.827 0-1.5-.673-1.5-1.5V3.5h17V19zM2 2v17a3 3 0 003 3h14a3 3 0 003-3V2H2z" fill-rule="evenodd"/></svg>