<?xml version="1.0" encoding="UTF-8"?>
<svg width="24px" height="24px" viewBox="0 0 24 24" version="1.1" xmlns="http://www.w3.org/2000/svg" xmlns:xlink="http://www.w3.org/1999/xlink">
    <title>/svg/icon/home/power-socket/default</title>
    <g id="icon/home/power-socket/default" stroke="none" stroke-width="1" fill="none" fill-rule="evenodd">
        <path d="M14.5005,13.25 C15.1905,13.25 15.7505,12.691 15.7505,12 C15.7505,11.309 15.1905,10.75 14.5005,10.75 C13.8095,10.75 13.2505,11.309 13.2505,12 C13.2505,12.691 13.8095,13.25 14.5005,13.25 L14.5005,13.25 Z M9.5005,13.25 C10.1905,13.25 10.7505,12.691 10.7505,12 C10.7505,11.309 10.1905,10.75 9.5005,10.75 C8.8095,10.75 8.2505,11.309 8.2505,12 C8.2505,12.691 8.8095,13.25 9.5005,13.25 L9.5005,13.25 Z M11.2505,6.557 L11.2505,8.5 L12.7505,8.5 L12.7505,6.557 C15.4285,6.925 17.5005,9.223 17.5005,12 C17.5005,14.777 15.4285,17.075 12.7505,17.443 L12.7505,15.5 L11.2505,15.5 L11.2505,17.443 C8.5725,17.075 6.5005,14.777 6.5005,12 C6.5005,9.223 8.5725,6.925 11.2505,6.557 L11.2505,6.557 Z M12.0005,19 C15.8665,19 19.0005,15.866 19.0005,12 C19.0005,8.134 15.8665,5 12.0005,5 C8.1345,5 5.0005,8.134 5.0005,12 C5.0005,15.866 8.1345,19 12.0005,19 L12.0005,19 Z M20.5005,19 C20.5005,19.827 19.8275,20.5 19.0005,20.5 L5.0005,20.5 C4.1735,20.5 3.5005,19.827 3.5005,19 L3.5005,3.5 L20.5005,3.5 L20.5005,19 Z M2.0005,2 L2.0005,19 C2.0005,20.657 3.3435,22 5.0005,22 L19.0005,22 C20.6575,22 22.0005,20.657 22.0005,19 L22.0005,2 L2.0005,2 Z" id="Icon" fill="#000000"></path>
    </g>
</svg>