<?xml version="1.0" encoding="UTF-8"?>
<svg width="24px" height="24px" viewBox="0 0 24 24" version="1.1" xmlns="http://www.w3.org/2000/svg" xmlns:xlink="http://www.w3.org/1999/xlink">
    <title>/svg/icon/home/power-socket/selected</title>
    <g id="icon/home/power-socket/selected" stroke="none" stroke-width="1" fill="none" fill-rule="evenodd">
        <path d="M12.0005,19 C8.1345,19 5.0005,15.866 5.0005,12 C5.0005,8.134 8.1345,5 12.0005,5 C15.8665,5 19.0005,8.134 19.0005,12 C19.0005,15.866 15.8665,19 12.0005,19 L12.0005,19 Z M2.0005,2 L2.0005,19 C2.0005,20.657 3.3435,22 5.0005,22 L19.0005,22 C20.6575,22 22.0005,20.657 22.0005,19 L22.0005,2 L2.0005,2 Z M14.5005,13.25 C13.8105,13.25 13.2505,12.69 13.2505,12 C13.2505,11.309 13.8105,10.75 14.5005,10.75 C15.1905,10.75 15.7505,11.309 15.7505,12 C15.7505,12.69 15.1905,13.25 14.5005,13.25 L14.5005,13.25 Z M9.5005,13.25 C8.8105,13.25 8.2505,12.69 8.2505,12 C8.2505,11.309 8.8105,10.75 9.5005,10.75 C10.1905,10.75 10.7505,11.309 10.7505,12 C10.7505,12.69 10.1905,13.25 9.5005,13.25 L9.5005,13.25 Z M12.7505,6.557 L12.7505,8.5 L11.2505,8.5 L11.2505,6.557 C8.5725,6.925 6.5005,9.223 6.5005,12 C6.5005,14.777 8.5725,17.075 11.2505,17.443 L11.2505,15.5 L12.7505,15.5 L12.7505,17.443 C15.4285,17.075 17.5005,14.777 17.5005,12 C17.5005,9.223 15.4285,6.925 12.7505,6.557 L12.7505,6.557 Z" id="Icon" fill="#000000"></path>
    </g>
</svg>