<svg width="24" height="24" xmlns="http://www.w3.org/2000/svg"><path d="M7.1 5.75a9.51 9.51 0 011.647-.222l.328-.01.286.002.429.017.21.013V14h3.65l-.15-1.35 1.25-1.25c.167.667.299 1.403.367 2.15l.033.45H17a7.452 7.452 0 00-.789-2.696L16.05 11h1.65c.5 1.15.8 2.4.8 3.75 0 5.1-4.15 9.25-9.25 9.25S0 19.85 0 14.75c0-4.35 3-8 7.1-9zm6.5 9.75H10v6.85c1.794-.582 3.306-3.326 3.578-6.547l.022-.303zm-5.1 0H4.9c.194 3.248 1.657 6.074 3.433 6.79l.167.06V15.5zm-5.1 0H1.55c.2 2.4 1.6 4.5 3.55 5.75-.89-1.406-1.518-3.252-1.675-5.331L3.4 15.5zm13.55 0H15.1c-.15 2.25-.75 4.25-1.7 5.75 1.872-1.2 3.237-3.183 3.52-5.463l.03-.287zM8.5 7.15c-1.794.582-3.306 3.326-3.578 6.547L4.9 14h3.6V7.15zm-3.4 1.1c-1.872 1.2-3.237 3.183-3.52 5.463L1.55 14H3.4c.15-2.25.75-4.25 1.7-5.75zM24 0v9.5h-9.5l-3 3V0H24zm-9.9 3.2c-.7 0-1.2.45-1.2 1.15 0 .415.17.83.669 1.01l.131.04.4.1c.3.05.45.15.45.4 0 .2-.2.4-.5.4-.267 0-.454-.119-.528-.356L13.5 5.85h-.8c.1.7.55 1.1 1.3 1.1.7 0 1.25-.4 1.2-1.1 0-.458-.294-.833-.767-1.007L14.3 4.8l-.4-.1c-.2-.05-.35-.15-.35-.4s.2-.4.45-.4c.262 0 .41.115.476.311l.024.089h.8c-.05-.65-.45-1.1-1.2-1.1zm7.2 0c-.7 0-1.2.45-1.2 1.15 0 .415.17.83.669 1.01l.131.04.4.1c.3.05.45.15.45.4 0 .2-.2.4-.5.4-.267 0-.454-.119-.528-.356L20.7 5.85h-.75c.1.7.55 1.1 1.3 1.1.7 0 1.25-.4 1.2-1.1 0-.458-.294-.833-.767-1.007L21.55 4.8l-.4-.1c-.2-.05-.35-.15-.35-.4s.2-.4.45-.4c.262 0 .41.115.476.311l.024.089h.75c-.05-.65-.45-1.1-1.2-1.1zm-4.8 0h-.7v3.65h.75V4.8h.05l.9 1.6h.2l.9-1.6h.05v2.1h.8V3.2h-.7l-1.1 2.05h-.05L16.5 3.2z" fill="#000" fill-rule="evenodd"/></svg>