<svg height="24" width="24" xmlns="http://www.w3.org/2000/svg"><path d="m7.1 5.75c1.55-.35 2.75-.2 2.9-.2v8.45h3.65l-.15-1.35 1.25-1.25c.2.8.35 1.7.4 2.6h1.85c-.1-1.1-.45-2.1-.95-3h1.65c.5 1.15.8 2.4.8 3.75 0 5.1-4.15 9.25-9.25 9.25s-9.25-4.15-9.25-9.25c0-4.35 3-8 7.1-9zm6.5 9.75h-3.6v6.85c1.85-.6 3.4-3.5 3.6-6.85zm-5.1 0h-3.6c.2 3.35 1.75 6.25 3.6 6.85zm-5.1 0h-1.85c.2 2.4 1.6 4.5 3.55 5.75-.95-1.5-1.6-3.5-1.7-5.75zm13.55 0h-1.85c-.15 2.25-.75 4.25-1.7 5.75 1.95-1.25 3.35-3.35 3.55-5.75zm-8.45-8.35c-1.85.6-3.4 3.5-3.6 6.85h3.6zm-3.4 1.1c-1.95 1.25-3.35 3.35-3.55 5.75h1.85c.15-2.25.75-4.25 1.7-5.75zm18.9-8.25v9.5h-9.5l-3 3v-12.5zm-9.9 3.2c-.7 0-1.2.45-1.2 1.15 0 .45.2.9.8 1.05l.4.1c.3.05.45.15.45.4 0 .2-.2.4-.5.4s-.5-.15-.55-.45h-.8c.1.7.55 1.1 1.3 1.1.7 0 1.25-.4 1.2-1.1 0-.5-.35-.9-.9-1.05l-.4-.1c-.2-.05-.35-.15-.35-.4s.2-.4.45-.4c.3 0 .45.15.5.4h.8c-.05-.65-.45-1.1-1.2-1.1zm7.2 0c-.7 0-1.2.45-1.2 1.15 0 .45.2.9.8 1.05l.4.1c.3.05.45.15.45.4 0 .2-.2.4-.5.4s-.5-.15-.55-.45h-.75c.1.7.55 1.1 1.3 1.1.7 0 1.25-.4 1.2-1.1 0-.5-.35-.9-.9-1.05l-.4-.1c-.2-.05-.35-.15-.35-.4s.2-.4.45-.4c.3 0 .45.15.5.4h.75c-.05-.65-.45-1.1-1.2-1.1zm-4.8 0h-.7v3.65h.75v-2.05h.05l.9 1.6h.2l.9-1.6h.05v2.1h.8v-3.7h-.7l-1.1 2.05h-.05z" fill="#262626" fill-rule="evenodd"/></svg>