<svg xmlns="http://www.w3.org/2000/svg" width="24" height="24">
    <path fill="#262626" fill-rule="evenodd" d="M9.551 5.388c.245 0 .49.039.735.039v6.818c0 .417.179.814.49 1.092v.069h.088a1.41 1.41 0 00.891.309 1.47 1.47 0 00.872-.31h.176v-.127l2.116-2.116c.182.737.302 1.487.358 2.244h.798a6.573 6.573 0 00-.93-2.474l.156-.156h2.528A9.076 9.076 0 119.55 5.388zM8.327 15.492H6.284c.1 1.429.53 2.815 1.254 4.05.22.351.485.67.789.951v-5zm4.496 0h-2.047v5.001c.98-.901 1.836-2.728 2.047-5zm-8.998 0h-.798a6.563 6.563 0 001.415 3.15 12.965 12.965 0 01-.617-3.15zm12.25 0h-.798a12.965 12.965 0 01-.617 3.15 6.563 6.563 0 001.415-3.15zM4.442 10.256a6.563 6.563 0 00-1.415 3.15h.798c.075-1.072.282-2.13.617-3.15zm3.885-1.851c-.98.901-1.837 2.728-2.048 5h2.048zM24 0v9.306h-9.306l-2.939 2.939V0H24zm-9.666 3.063l-.13.003a1.102 1.102 0 00-1.122 1.117.98.98 0 00.804 1.024l.416.122c.28.073.431.176.431.411 0 .236-.176.407-.49.407a.49.49 0 01-.529-.421h-.759a1.127 1.127 0 001.25 1.102A1.107 1.107 0 0015.418 5.7a1.078 1.078 0 00-.872-1.053l-.411-.112c-.201-.054-.368-.147-.368-.397a.392.392 0 01.436-.397.44.44 0 01.49.407h.7a1.097 1.097 0 00-1.19-1.083zm6.966.02a1.19 1.19 0 00-1.17 1.1.98.98 0 00.799 1.024l.416.122c.28.073.431.176.431.411 0 .236-.176.407-.49.407a.49.49 0 01-.524-.421h-.724a1.127 1.127 0 001.249 1.102h.014a1.107 1.107 0 001.23-1.127 1.073 1.073 0 00-.892-1.053l-.416-.112c-.201-.054-.367-.147-.367-.397a.392.392 0 01.435-.397.431.431 0 01.49.407h.72a1.19 1.19 0 00-1.2-1.067zm-4.647.061h-.656v3.6h.725V4.712h.034l.877 1.587h.235l.881-1.587h.035v2.032h.705l.005-3.6h-.666L17.76 5.138h-.034l-1.073-1.994z"/>
</svg>
