<svg width="24" height="24" xmlns="http://www.w3.org/2000/svg"><path d="M9.551 5.388c.163 0 .327.017.49.029l.245.01v6.818c0 .365.137.714.38.982l.11.11v.069h.088a1.41 1.41 0 00.891.309 1.47 1.47 0 00.743-.22l.129-.09h.176v-.127l2.116-2.116c.146.59.251 1.188.317 1.79l.04.454h.8a6.573 6.573 0 00-.761-2.187l-.17-.287.156-.156h2.528A9.076 9.076 0 119.55 5.388zM8.327 15.492H6.284c.1 1.429.53 2.815 1.254 4.05.175.281.38.542.61.778l.179.173v-5zm4.496 0h-2.047v5.001c.932-.858 1.754-2.556 2.012-4.68l.035-.32zm-8.998 0h-.798a6.563 6.563 0 001.415 3.15 12.965 12.965 0 01-.577-2.692l-.04-.458zm12.25 0h-.798a12.965 12.965 0 01-.617 3.15 6.563 6.563 0 001.358-2.836l.057-.314zM4.442 10.256a6.563 6.563 0 00-1.358 2.836l-.057.314h.798c.075-1.072.282-2.13.617-3.15zm3.885-1.851c-.933.858-1.755 2.556-2.013 4.68l-.035.32h2.048v-5zM24 0v9.306h-9.306l-2.939 2.939V0H24zm-9.666 3.063l-.13.003a1.102 1.102 0 00-1.122 1.117.98.98 0 00.694.997l.11.027.416.122c.28.073.431.176.431.411 0 .236-.176.407-.49.407a.49.49 0 01-.51-.338l-.019-.083h-.759a1.127 1.127 0 001.25 1.102A1.107 1.107 0 0015.418 5.7a1.078 1.078 0 00-.758-1.024l-.114-.029-.411-.112c-.201-.054-.368-.147-.368-.397a.392.392 0 01.436-.397.44.44 0 01.475.319l.015.088h.7a1.097 1.097 0 00-1.06-1.086zm6.966.02a1.19 1.19 0 00-1.17 1.1.98.98 0 00.69.997l.109.027.416.122c.28.073.431.176.431.411 0 .236-.176.407-.49.407a.49.49 0 01-.505-.338l-.019-.083h-.724a1.127 1.127 0 001.114 1.108l.15-.006A1.107 1.107 0 0022.53 5.7a1.073 1.073 0 00-.776-1.026l-.116-.027-.416-.112c-.201-.054-.367-.147-.367-.397a.392.392 0 01.435-.397.431.431 0 01.477.318l.013.089h.72a1.19 1.19 0 00-1.2-1.067zm-4.647.061h-.656v3.6h.725V4.712h.034l.877 1.587h.235l.881-1.587h.035v2.032h.705l.005-3.6h-.666L17.76 5.138h-.034l-1.073-1.994z" fill="#000" fill-rule="evenodd"/></svg>