<svg width="24" height="24" xmlns="http://www.w3.org/2000/svg"><path d="M17.25.5c1.8 0 3.25 1.45 3.25 3.25 0 1.485-.964 2.695-2.32 3.102L18 6.9v2.75c.95.35 1.5 1.2 1.5 2.1 0 .844-.483 1.644-1.327 2.029L18 13.85v2.75c1.45.35 2.5 1.6 2.5 3.15 0 1.8-1.45 3.25-3.25 3.25S14 21.55 14 19.75c0-1.485.964-2.695 2.32-3.102l.18-.048v-2.75c-.95-.35-1.5-1.2-1.5-2.1 0-.844.483-1.644 1.327-2.029l.173-.071V6.9C15.05 6.55 14 5.3 14 3.75 14 1.95 15.45.5 17.25.5zm0 17.5c-.95 0-1.75.8-1.75 1.75s.8 1.75 1.75 1.75S19 20.7 19 19.75 18.2 18 17.25 18zM7.5 8.15l5.5 3.6-5.5 3.6V12.5H2c-.4 0-.75-.35-.75-.75 0-.367.294-.691.651-.743L2 11h5.5V8.15z" fill="#000" fill-rule="evenodd"/></svg>