<svg height="24" width="24" xmlns="http://www.w3.org/2000/svg"><path d="m17.25.5c1.8 0 3.25 1.45 3.25 3.25 0 1.55-1.05 2.8-2.5 3.15v2.75c.95.35 1.5 1.2 1.5 2.1s-.55 1.75-1.5 2.1v2.75c1.45.35 2.5 1.6 2.5 3.15 0 1.8-1.45 3.25-3.25 3.25s-3.25-1.45-3.25-3.25c0-1.55 1.05-2.8 2.5-3.15v-2.75c-.95-.35-1.5-1.2-1.5-2.1s.55-1.75 1.5-2.1v-2.75c-1.45-.35-2.5-1.6-2.5-3.15 0-1.8 1.45-3.25 3.25-3.25zm0 17.5c-.95 0-1.75.8-1.75 1.75s.8 1.75 1.75 1.75 1.75-.8 1.75-1.75-.8-1.75-1.75-1.75zm-9.75-9.85 5.5 3.6-5.5 3.6v-2.85h-5.5c-.4 0-.75-.35-.75-.75s.35-.75.75-.75h5.5z" fill="#262626" fill-rule="evenodd"/></svg>