<svg width="24" height="24" xmlns="http://www.w3.org/2000/svg"><path d="M18 18.65v1.85h2.75c.4 0 .75.35.75.75a.772.772 0 01-.651.743L20.75 22H18v1.85l-4-2.6 4-2.6zM7.1 15.5l2.9 2.9 2.85-2.9h2c-.3.45-.45 1.05-.3 1.7.089.489.375.899.719 1.23l.131.12L13.15 20H.6l.15-.8a4.402 4.402 0 014.136-3.695L5.1 15.5h2zm12.4-1.35l4 2.6-4 2.6V17.5h-2.75c-.4 0-.75-.35-.75-.75 0-.367.294-.691.651-.743L16.75 16h2.75v-1.85zM10 2.25c3.2 0 5.55 2.35 5.55 5.55 0 3.1-2.25 6.45-5.55 6.45S4.45 10.9 4.45 7.8c0-3.2 2.35-5.55 5.55-5.55z" fill="#000" fill-rule="evenodd"/></svg>