<svg width="24" height="24" xmlns="http://www.w3.org/2000/svg"><path d="M18.136 17.62v1.945h2.874a.783.783 0 01.107 1.558l-.107.007h-2.874v1.941l-4.174-2.728 4.174-2.724zM6.783 14.347l2.99 3.02 3.02-3.02h2.087c-.257.386-.393.84-.391 1.304.004.674.296 1.31.797 1.752l.142.116-2.327 1.523H0l.157-.85a4.586 4.586 0 014.322-3.84l.217-.005h2.087zm12.928-1.425l4.174 2.724-4.174 2.729v-1.941h-2.874a.783.783 0 01-.107-1.558l.107-.007h2.874v-1.947zM9.793 1.304a4.847 4.847 0 015.015 4.738l-.001.25c0 3.031-2.113 5.969-5.014 5.969-2.83 0-4.905-2.776-5.005-5.726l-.004-.222a4.847 4.847 0 015.009-5.009z" fill="#000" fill-rule="evenodd"/></svg>