<svg width="24" height="24" xmlns="http://www.w3.org/2000/svg"><path d="M12 15.333c.243 0 .473.1.638.274l.077.093.975 1.34a2.355 2.355 0 01-.802.728l-.163.082.545 1.81 2.875-4.16h1.215a4.73 4.73 0 014.645 3.757l.04.213.175 1.03H1.78l.175-1.03a4.73 4.73 0 014.468-3.966l.217-.004h1.215l2.875 4.16.545-1.81a2.355 2.355 0 01-.856-.663l-.109-.147.975-1.34a.88.88 0 01.715-.367zM12 1.75a5.08 5.08 0 015.252 4.987L17.25 7c0 3.175-2.21 6.25-5.25 6.25-2.97 0-5.147-2.934-5.246-6.029L6.75 7A5.08 5.08 0 0112 1.75z" fill="#000" fill-rule="evenodd"/></svg>