<svg width="24" height="24" xmlns="http://www.w3.org/2000/svg"><path d="M20 11.5a3.01 3.01 0 012.995 2.824L23 14.5V24H1.5v-9.5a3.01 3.01 0 012.824-2.995L4.5 11.5V13c-.8 0-1.423.576-1.493 1.352L3 14.5v8h18.5v-8c0-.8-.576-1.423-1.352-1.493L20 13v-1.5zM15.5 0a3.01 3.01 0 012.995 2.824L18.5 3v15a3.01 3.01 0 01-2.824 2.995L15.5 21H9a3.01 3.01 0 01-2.995-2.824L6 18V3A3.01 3.01 0 018.824.005L9 0h6.5zm0 1.5H9c-.8 0-1.423.576-1.493 1.352L7.5 3v15c0 .8.576 1.423 1.352 1.493L9 19.5h6.5c.8 0 1.423-.576 1.493-1.352L17 18V3c0-.8-.576-1.423-1.352-1.493L15.5 1.5zM14.75 15a.75.75 0 110 1.5.75.75 0 010-1.5zm-5 0a.75.75 0 110 1.5.75.75 0 010-1.5zm2.5 0a.75.75 0 110 1.5.75.75 0 010-1.5zm2.5-2.5a.75.75 0 110 1.5.75.75 0 010-1.5zm-5 0a.75.75 0 110 1.5.75.75 0 010-1.5zm2.5 0a.75.75 0 110 1.5.75.75 0 010-1.5zM9.75 10a.75.75 0 110 1.5.75.75 0 010-1.5zm2.5 0a.75.75 0 110 1.5.75.75 0 010-1.5zm2.5 0a.75.75 0 110 1.5.75.75 0 010-1.5zm.75-5v3.5H9V5h6.5z" fill="#000" fill-rule="evenodd"/></svg>