<svg xmlns="http://www.w3.org/2000/svg" width="24" height="24">
    <path fill="#262626" fill-rule="evenodd" d="M20 11.5c1.65 0 3 1.35 3 3V24H1.5v-9.5c0-1.65 1.35-3 3-3V13c-.85 0-1.5.65-1.5 1.5v8h18.5v-8c0-.85-.65-1.5-1.5-1.5zM15.5 0c1.65 0 3 1.35 3 3v15c0 1.65-1.35 3-3 3H9c-1.65 0-3-1.35-3-3V3c0-1.65 1.35-3 3-3zm0 1.5H9c-.85 0-1.5.65-1.5 1.5v15c0 .85.65 1.5 1.5 1.5h6.5c.85 0 1.5-.65 1.5-1.5V3c0-.85-.65-1.5-1.5-1.5zM14.75 15a.75.75 0 110 1.5.75.75 0 010-1.5zm-5 0a.75.75 0 110 1.5.75.75 0 010-1.5zm2.5 0a.75.75 0 110 1.5.75.75 0 010-1.5zm2.5-2.5a.75.75 0 110 1.5.75.75 0 010-1.5zm-5 0a.75.75 0 110 1.5.75.75 0 010-1.5zm2.5 0a.75.75 0 110 1.5.75.75 0 010-1.5zM9.75 10a.75.75 0 110 1.5.75.75 0 010-1.5zm2.5 0a.75.75 0 110 1.5.75.75 0 010-1.5zm2.5 0a.75.75 0 110 1.5.75.75 0 010-1.5zm.75-5v3.5H9V5h6.5z"/>
</svg>
