<svg width="24" height="24" xmlns="http://www.w3.org/2000/svg"><path d="M20 11.5a3 3 0 012.995 2.824L23 14.5V24H1.5v-9.5a3 3 0 012.824-2.995L4.5 11.5V13a1.5 1.5 0 00-1.493 1.356L3 14.5v8h18.5v-8a1.5 1.5 0 00-1.356-1.493L20 13v-1.5zM15.5 0a3 3 0 012.995 2.824L18.5 3v15a3 3 0 01-2.824 2.995L15.5 21H9a3 3 0 01-2.995-2.824L6 18V3A3 3 0 018.824.005L9 0h6.5zm-3.25 15a.75.75 0 100 1.5.75.75 0 000-1.5zm2.5 0a.75.75 0 100 1.5.75.75 0 000-1.5zm-5 0a.75.75 0 100 1.5.75.75 0 000-1.5zm2.5-2.5a.75.75 0 100 1.5.75.75 0 000-1.5zm2.5 0a.75.75 0 100 1.5.75.75 0 000-1.5zm-5 0a.75.75 0 100 1.5.75.75 0 000-1.5zm2.5-2.5a.75.75 0 100 1.5.75.75 0 000-1.5zm2.5 0a.75.75 0 100 1.5.75.75 0 000-1.5zm-5 0a.75.75 0 100 1.5.75.75 0 000-1.5zm5.75-5H9v3.5h6.5V5z" fill-rule="evenodd"/></svg>