<svg xmlns="http://www.w3.org/2000/svg" width="24" height="24">
    <path fill="#262626" fill-rule="evenodd" d="M19.75 11.5a3 3 0 013 3V24H1.25v-9.5a3 3 0 013-3V13a1.5 1.5 0 00-1.5 1.5v8h18.5v-8a1.5 1.5 0 00-1.5-1.5zM15.25 0a3 3 0 013 3v15a3 3 0 01-3 3h-6.5a3 3 0 01-3-3V3a3 3 0 013-3zM12 15a.75.75 0 100 1.5.75.75 0 000-1.5zm2.5 0a.75.75 0 100 1.5.75.75 0 000-1.5zm-5 0a.75.75 0 100 1.5.75.75 0 000-1.5zm2.5-2.5a.75.75 0 100 1.5.75.75 0 000-1.5zm2.5 0a.75.75 0 100 1.5.75.75 0 000-1.5zm-5 0a.75.75 0 100 1.5.75.75 0 000-1.5zM12 10a.75.75 0 100 1.5.75.75 0 000-1.5zm2.5 0a.75.75 0 100 1.5.75.75 0 000-1.5zm-5 0a.75.75 0 100 1.5.75.75 0 000-1.5zm5.75-5h-6.5v3.5h6.5V5z"/>
</svg>
