<svg width="24" height="24" xmlns="http://www.w3.org/2000/svg"><path d="M19 12.1l1.5 1.5V19a3.01 3.01 0 01-2.824 2.995L17.5 22h-11a3.01 3.01 0 01-2.995-2.824L3.5 19v-5.4L5 12.1V19c0 .8.576 1.423 1.352 1.493l.148.007h11c.8 0 1.423-.576 1.493-1.352L19 19v-6.9zm-4.38 2.681l.08-.181c.09-.273.43-.463.716-.382l.084.032c.3.1.5.5.35.8-.75 1.8-2.5 3-4.45 3-.7 0-1.35-.15-1.95-.4-.3-.1-.45-.5-.3-.8.09-.273.43-.421.716-.334l.084.034c.5.2.95.35 1.45.3 1.432 0 2.636-.82 3.22-2.069zM12 .85l11.55 11.6-1.05 1.05L12 3 1.5 13.5.45 12.45 12 .85zM9.3 10.5c.608 0 1.1.604 1.1 1.35 0 .746-.492 1.35-1.1 1.35-.608 0-1.1-.604-1.1-1.35 0-.746.492-1.35 1.1-1.35zm5.75.75c.3 0 .6.3.6.6 0 .27-.203.54-.498.591l-.102.009H13.3c-.3 0-.6-.3-.6-.6 0-.27.203-.54.498-.591l.102-.009h1.75z" fill-rule="evenodd"/></svg>