<?xml version="1.0" encoding="UTF-8"?>
<svg width="24px" height="24px" viewBox="0 0 24 24" version="1.1" xmlns="http://www.w3.org/2000/svg" xmlns:xlink="http://www.w3.org/1999/xlink">
    <title>/svg/icon/home/smarthome/default</title>
    <g id="icon/home/smarthome/default" stroke="none" stroke-width="1" fill="none" fill-rule="evenodd">
        <path d="M19,12.1 L20.5,13.6 L20.5,19 C20.5,20.5910715 19.2447067,21.9031888 17.6755899,21.9948821 L17.5,22 L6.49999996,22 C4.90892854,22 3.59681119,20.7447067 3.50511795,19.17559 L3.49999996,19 L3.49999996,13.6 L4.99999996,12.1 L4.99999996,19 C4.99999996,19.8 5.57577852,20.4228374 6.35216768,20.4933442 L6.49999996,20.5 L17.5,20.5 C18.3,20.5 18.9228373,19.9242215 18.9933442,19.1478323 L19,19 L19,12.1 Z M14.6207034,14.7812594 L14.7,14.6 C14.7909091,14.3272727 15.1297521,14.1371901 15.416003,14.2175808 L15.5,14.25 C15.8,14.35 16,14.75 15.85,15.05 C15.1,16.85 13.35,18.05 11.4,18.05 C10.7,18.05 10.05,17.9 9.44999999,17.65 C9.14999999,17.55 8.99999999,17.15 9.14999999,16.85 C9.24090908,16.5772727 9.57975206,16.4285124 9.866003,16.5164162 L9.94999999,16.55 C10.45,16.75 10.9,16.9 11.4,16.85 C12.8318182,16.85 14.0358471,16.0299587 14.6207034,14.7812594 L14.6207034,14.7812594 Z M12,0.849999954 L23.55,12.45 L22.5,13.5 L12,2.99999996 L1.49999996,13.5 L0.449999952,12.45 L12,0.849999954 Z M9.29999999,10.5 C9.90751322,10.5 10.4,11.1044156 10.4,11.85 C10.4,12.5955844 9.90751322,13.2 9.29999999,13.2 C8.69248676,13.2 8.19999998,12.5955844 8.19999998,11.85 C8.19999998,11.1044156 8.69248676,10.5 9.29999999,10.5 Z M15.05,11.25 C15.35,11.25 15.65,11.55 15.65,11.85 C15.65,12.12 15.4475,12.39 15.15185,12.4413 L15.05,12.45 L13.3,12.45 C13,12.45 12.7,12.15 12.7,11.85 C12.7,11.58 12.9025,11.31 13.19815,11.2587 L13.3,11.25 L15.05,11.25 Z" id="Icon" fill="#000000"></path>
    </g>
</svg>