<svg height="24" width="24" xmlns="http://www.w3.org/2000/svg"><path d="m19 12.1 1.5 1.5v5.4c0 1.65-1.35 3-3 3h-11c-1.65 0-3-1.35-3-3v-5.4l1.5-1.5v6.9c0 .85.65 1.5 1.5 1.5h11c.85 0 1.5-.65 1.5-1.5zm-4.3 2.5c.1-.3.5-.5.8-.35.3.1.5.5.35.8-.75 1.8-2.5 3-4.45 3-.7 0-1.35-.15-1.95-.4-.3-.1-.45-.5-.3-.8.1-.3.5-.45.8-.3.5.2.95.35 1.45.3 1.5 0 2.75-.9 3.3-2.25zm-2.7-13.75 11.55 11.6-1.05 1.05-10.5-10.5-10.5 10.5-1.05-1.05zm-2.7 9.65c.608 0 1.1.604 1.1 1.35s-.492 1.35-1.1 1.35-1.1-.604-1.1-1.35.492-1.35 1.1-1.35zm5.75.75c.3 0 .6.3.6.6s-.25.6-.6.6h-1.75c-.3 0-.6-.3-.6-.6s.25-.6.6-.6z" fill="#262626" fill-rule="evenodd"/></svg>