<?xml version="1.0" encoding="UTF-8"?>
<svg width="24px" height="24px" viewBox="0 0 24 24" version="1.1" xmlns="http://www.w3.org/2000/svg" xmlns:xlink="http://www.w3.org/1999/xlink">
    <title>/svg/icon/home/smarthome/selected</title>
    <defs>
        <path d="M0.45,12.45 L1.5,13.5 L12,3 L22.5,13.5 L23.55,12.45 L12,0.85 L0.45,12.45 Z M3.5,13.6 L3.5,19 L3.505,19.175 C3.597,20.745 4.909,22 6.5,22 L6.5,22 L17.5,22 L17.675,21.995 C19.245,21.903 20.5,20.591 20.5,19 L20.5,19 L20.5,13.6 L12,5.1 L3.5,13.6 Z M8.2,11.85 C8.2,11.104 8.693,10.5 9.3,10.5 L9.3,10.5 C9.908,10.5 10.4,11.104 10.4,11.85 L10.4,11.85 C10.4,12.596 9.908,13.2 9.3,13.2 L9.3,13.2 C8.693,13.2 8.2,12.596 8.2,11.85 L8.2,11.85 Z M12.7,11.85 C12.7,11.58 12.903,11.31 13.198,11.259 L13.198,11.259 L13.3,11.25 L15.05,11.25 C15.35,11.25 15.65,11.55 15.65,11.85 L15.65,11.85 C15.65,12.12 15.447,12.39 15.152,12.442 L15.152,12.442 L15.05,12.45 L13.3,12.45 C13,12.45 12.7,12.15 12.7,11.85 L12.7,11.85 Z M11.4,16.85 C12.832,16.85 14.036,16.03 14.621,14.782 L14.621,14.782 L14.7,14.6 C14.791,14.327 15.129,14.137 15.416,14.217 L15.416,14.217 L15.5,14.25 C15.8,14.35 16,14.75 15.85,15.05 L15.85,15.05 C15.1,16.85 13.35,18.05 11.4,18.05 L11.4,18.05 C10.7,18.05 10.05,17.9 9.45,17.65 L9.45,17.65 C9.15,17.55 9,17.15 9.15,16.85 L9.15,16.85 C9.241,16.577 9.58,16.429 9.866,16.517 L9.866,16.517 L9.95,16.55 C10.384,16.723 10.78,16.86 11.204,16.86 L11.204,16.86 C11.269,16.86 11.334,16.856 11.4,16.85 L11.4,16.85 Z" id="path-1"></path>
    </defs>
    <g id="icon/home/smarthome/selected" stroke="none" stroke-width="1" fill="none" fill-rule="evenodd">
        <mask id="mask-2" fill="white">
            <use xlink:href="#path-1"></use>
        </mask>
        <use id="Icon" fill="#000000" xlink:href="#path-1"></use>
    </g>
</svg>