<svg xmlns="http://www.w3.org/2000/svg" width="24" height="24">
    <path fill="#262626" fill-rule="evenodd" d="M12 5.11l7.75 7.75V19a2.245 2.245 0 01-2.25 2.25h-11A2.245 2.245 0 014.25 19v-6.13L12 5.11zm3.477 9.233a.625.625 0 00-.797.317 3.535 3.535 0 01-4.71 1.925.625.625 0 10-.5 1.14 4.775 4.775 0 006.375-2.605.632.632 0 00-.368-.777zM22.5 13.5L12 3 1.5 13.5.435 12.435 12 .87l11.565 11.565L22.5 13.5zM9.715 10.55c-.69 0-1.25.56-1.25 1.25l.007.132a1.25 1.25 0 101.243-1.382zm5.82.625H13.76a.625.625 0 100 1.25h1.775a.625.625 0 100-1.25z"/>
</svg>
