<svg width="24" height="24" xmlns="http://www.w3.org/2000/svg" xmlns:xlink="http://www.w3.org/1999/xlink"><defs><path d="M.45 12.45L1.5 13.5 12 3l10.5 10.5 1.05-1.05L12 .85.45 12.45zM3.5 13.6V19l.005.175A3.01 3.01 0 006.5 22h11l.175-.005A3.01 3.01 0 0020.5 19v-5.4L12 5.1l-8.5 8.5zm4.7-1.75c0-.746.493-1.35 1.1-1.35.608 0 1.1.604 1.1 1.35 0 .746-.492 1.35-1.1 1.35-.607 0-1.1-.604-1.1-1.35zm4.5 0c0-.27.203-.54.498-.591l.102-.009h1.75c.3 0 .6.3.6.6 0 .27-.203.54-.498.592l-.102.008H13.3c-.3 0-.6-.3-.6-.6zm-1.3 5c1.432 0 2.636-.82 3.221-2.068l.079-.182c.091-.273.429-.463.716-.383l.084.033c.3.1.5.5.35.8-.75 1.8-2.5 3-4.45 3-.7 0-1.35-.15-1.95-.4-.3-.1-.45-.5-.3-.8.091-.273.43-.421.716-.333l.084.033c.434.173.83.31 1.254.31.065 0 .13-.004.196-.01z" id="a"/></defs><use fill="#000" xlink:href="#a" fill-rule="evenodd"/></svg>