<svg width="24" height="24" xmlns="http://www.w3.org/2000/svg" xmlns:xlink="http://www.w3.org/1999/xlink"><defs><path d="M0 11.6l1.05 1.05 10.5-10.5 10.5 10.5 1.05-1.05L11.55 0 0 11.6zm3.05 1.15v5.4l.005.175A3.01 3.01 0 006.05 21.15h11l.175-.005a3.01 3.01 0 002.825-2.995v-5.4l-8.5-8.5-8.5 8.5zM7.75 11c0-.746.493-1.35 1.1-1.35.608 0 1.1.604 1.1 1.35 0 .746-.492 1.35-1.1 1.35-.607 0-1.1-.604-1.1-1.35zm4.5 0c0-.27.203-.54.498-.591l.102-.009h1.75c.3 0 .6.3.6.6 0 .27-.203.54-.498.592l-.102.008h-1.75c-.3 0-.6-.3-.6-.6zm-1.3 5c1.432 0 2.636-.82 3.221-2.068l.079-.182c.091-.273.429-.463.716-.383l.084.033c.3.1.5.5.35.8-.75 1.8-2.5 3-4.45 3-.7 0-1.35-.15-1.95-.4-.3-.1-.45-.5-.3-.8.091-.273.43-.421.716-.333l.084.033c.434.173.83.31 1.254.31.065 0 .13-.004.196-.01z" id="a"/></defs><g transform="translate(.45 .85)" fill="none" fill-rule="evenodd"><mask id="b" fill="#fff"><use xlink:href="#a"/></mask><path fill="#040405" mask="url(#b)" d="M-5 26.15h33.1V-5H-5z"/></g></svg>