<svg height="24" width="24" xmlns="http://www.w3.org/2000/svg"><path d="m23.5 3.5v14c0 1.65-1.35 3-3 3h-17c-1.65 0-3-1.35-3-3v-14zm-1.5 1.5h-20v12.5c0 .85.65 1.5 1.5 1.5h17c.85 0 1.5-.65 1.5-1.5zm-14.85 8.5 1.15 1.1 1.1-1.1h.75c.75 0 1.4.55 1.55 1.3l.1.7h-7.1l.15-.7c.15-.75.8-1.3 1.55-1.3zm12.1-1c.4 0 .75.35.75.75s-.35.75-.75.75h-5c-.4 0-.75-.35-.75-.75s.35-.75.75-.75zm-11-4.45c1.15 0 2.1.85 2.1 2.1s-.9 2.5-2.1 2.5-2.1-1.25-2.1-2.5.95-2.1 2.1-2.1zm11 1.45c.4 0 .75.35.75.75s-.35.75-.75.75h-5c-.4 0-.75-.35-.75-.75s.35-.75.75-.75z" fill="#262626" fill-rule="evenodd"/></svg>