<svg width="24" height="24" xmlns="http://www.w3.org/2000/svg"><path d="M9.001 10.5h2v-2h-2v2zm-1 1h4v-4h-4v4zm3 2.5h1.5v-1.5h-3V14h-1.5v1.5h3V14zm3.5 0h-1.5v1.5h3v-3h-1.5V14zm-1.5-2h1.5v-1.5h-1.5V12zm0-4.5V9h1.5v1.5h1.5v-3h-3zm-3.5 2.5h1V9h-1v1zm2.5 8.5a1.25 1.25 0 10-.002 2.498 1.25 1.25 0 00.002-2.498zm5.5 2c0 .827-.674 1.5-1.5 1.5h-8c-.827 0-1.5-.673-1.5-1.5v-17c0-.827.673-1.5 1.5-1.5h2v1.5h4V2h2c.826 0 1.5.673 1.5 1.5v17zm-1.5-20h-8a3 3 0 00-3 3v17a3 3 0 003 3h8a3 3 0 003-3v-17a3 3 0 00-3-3z" fill="#000" fill-rule="evenodd"/></svg>