<svg width="24" height="24" xmlns="http://www.w3.org/2000/svg" xmlns:xlink="http://www.w3.org/1999/xlink"><defs><path d="M23.424 7.2c0-.366-.48-.624-.864-.528l-2.4.672c-.48.096-1.008 0-1.44-.336l-1.344-1.056a4.26 4.26 0 00-2.592-.912c-.912 0-1.776.288-2.544.864-1.2-1.008-3.024-1.104-4.32-.24L6.336 6.72c-.768.48-1.68.672-2.592.48l-2.4-.48a.79.79 0 00-.864.576.79.79 0 00.576.864l2.4.48c.336.048.624.096.96.096.96 0 1.92-.288 2.736-.816l1.536-1.056c.72-.48 1.68-.48 2.352 0L8.304 9.168c-.912.816-1.008 2.208-.192 3.072a2.12 2.12 0 002.736.384L14.4 10.56c.336-.192.72-.096.96.192 0 0 2.496 3.264 3.072 4.032.528.72.288 1.536-.144 1.776-.288.192-1.008.144-1.008.144s-.096.864-.528 1.104c-.384.24-1.248 0-1.248 0s-.24.672-.528.864c-.48.336-1.344-.048-1.344-.048s-.336.576-.528.72c-.24.144-.576.192-.912.048.528-1.104.384-2.352-.432-3.024a1.826 1.826 0 00-.816-.384c-.144-.24-.288-.384-.48-.576-.24-.192-.48-.288-.768-.384-.144-.24-.288-.48-.528-.672-.192-.144-.384-.24-.576-.336-.144-.288-.336-.576-.576-.768-1.008-.816-2.496-.48-3.552.672l-3.024-.912c-.384-.144-.768.096-.912.48-.144.384.096.768.48.912l2.784.912c-.336 1.008-.096 2.016.624 2.592.192.144.384.24.576.336.144.288.336.576.576.768.24.192.48.288.768.384.144.24.288.48.528.672.24.192.528.336.816.384.144.24.288.384.48.576.384.288.816.432 1.296.432.624 0 1.344-.288 1.92-.768.432.24.864.336 1.296.336.432 0 .912-.144 1.296-.384.144-.096.24-.192.384-.288.528.048 1.056-.048 1.536-.384.192-.144.384-.288.528-.48a2.38 2.38 0 001.248-.384c.384-.24.624-.576.816-.96.24-.048.48-.144.672-.288.576-.384.96-1.008 1.056-1.776.048-.24 0-.48 0-.72l2.684-.803c.384-.096.532-.449.532-.98V7.2z" id="a"/></defs><use xlink:href="#a" fill-rule="evenodd"/></svg>