<svg xmlns="http://www.w3.org/2000/svg" width="24" height="24">
    <path fill="#262626" fill-rule="evenodd" d="M12 18a2 2 0 110 4 2 2 0 010-4zM1.57 1.97a.745.745 0 011.06 0l18 18a.745.745 0 010 1.06.754.754 0 01-.53.22.754.754 0 01-.53-.22l-18-18a.75.75 0 010-1.06zm8.615 11.795l1.74 1.735a4.5 4.5 0 00-3.895 2.38l-1.435-1.49a6.495 6.495 0 013.59-2.625zM12 9c3.465 0 6.555 1.605 8.57 4.11l-1.405 1.46a9.006 9.006 0 00-5.15-3.34L11.79 9.005c.07 0 .14-.005.21-.005zm-5.245 1.335l1.49 1.49a9.045 9.045 0 00-3.41 2.745L3.43 13.11c.91-1.13 2.04-2.075 3.325-2.775zM3.48 7.06l1.445 1.445c-1.22.755-2.315 1.7-3.24 2.795L.29 9.855c.93-1.07 2.005-2.01 3.19-2.795zM12 4.5c4.68 0 8.87 2.075 11.715 5.355L22.32 11.3A13.465 13.465 0 009.515 6.735l-1.67-1.67A15.608 15.608 0 0112 4.5z"/>
</svg>
