<svg xmlns="http://www.w3.org/2000/svg" width="24" height="24">
    <path fill="#262626" fill-rule="evenodd" d="M11.964 18.128a2.043 2.043 0 110 4.085 2.043 2.043 0 010-4.085zM1.331 1.775a.766.766 0 011.064-.018L20.778 20.14a.77.77 0 010 1.082.76.76 0 01-1.083 0L1.312 2.84a.766.766 0 01.02-1.064zm8.78 12.012l1.772 1.787a4.596 4.596 0 00-3.973 2.431l-1.47-1.532a6.68 6.68 0 013.67-2.686zm1.853-4.85a11.234 11.234 0 018.753 4.197l-1.435 1.49a9.191 9.191 0 00-5.265-3.39l-2.272-2.298zM6.603 10.3l1.526 1.521a9.237 9.237 0 00-3.482 2.804l-1.44-1.491A11.306 11.306 0 016.603 10.3zm5.361-5.96c4.595 0 8.962 2.003 11.96 5.485L22.498 11.3A13.731 13.731 0 009.426 6.638l-1.705-1.72a15.911 15.911 0 014.243-.578zM3.258 6.955L4.734 8.43a13.736 13.736 0 00-3.31 2.854L0 9.81a16.085 16.085 0 013.258-2.854z"/>
</svg>
