<svg width="24" height="24" xmlns="http://www.w3.org/2000/svg"><path d="M11.964 18.128a2.043 2.043 0 110 4.085 2.043 2.043 0 010-4.085zM2.31 1.688l.086.069L20.778 20.14c.296.3.296.782 0 1.082a.76.76 0 01-.99.079l-.093-.079L1.312 2.84a.766.766 0 01.997-1.152zm7.802 12.1l1.772 1.786a4.596 4.596 0 00-3.973 2.431l-1.47-1.532a6.68 6.68 0 013.67-2.686zM6.603 10.3l1.526 1.521a9.237 9.237 0 00-3.266 2.53l-.216.274-1.44-1.491A11.306 11.306 0 016.603 10.3zm5.361-1.364a11.234 11.234 0 018.536 3.936l.217.262-1.435 1.49a9.192 9.192 0 00-4.936-3.308l-.329-.082-2.272-2.298h.22zm0-4.596c4.46 0 8.705 1.886 11.691 5.181l.268.304L22.5 11.3A13.731 13.731 0 009.767 6.578l-.34.06-1.706-1.72a15.911 15.911 0 014.243-.578zM3.258 6.955L4.734 8.43a13.736 13.736 0 00-2.988 2.486l-.321.368L0 9.81a16.085 16.085 0 013.258-2.854z" fill="#000" fill-rule="evenodd"/></svg>