<svg height="24" width="24" xmlns="http://www.w3.org/2000/svg"><path d="m22.1 6.7-4.5 2.35-1.3-1-.1-1.65 4.5-2.35c-1.35-1.7-3.35-2.65-5.35-2.65-.95 0-1.9.2-2.8.7-1.6.85-2.65 2.3-3.1 3.95-.3 1.15-.3 2.45 0 3.7l-7.1 7.1c-1.35 1.35-1.35 3.6 0 4.95s3.6 1.35 4.95 0l6.9-6.9c1.6.55 3.35.5 4.9-.35 2.7-1.45 3.9-4.75 3-7.85zm-3.75 6.55c-2.05 1.1-3.9.15-4.6-.05l-7.55 7.5c-.8.8-2.05.8-2.85 0s-.8-2.05 0-2.85l7.7-7.7c-.2-.75-.65-1.95-.3-3.5.3-1.4 1.15-2.6 2.4-3.25.65-.35 1.35-.5 2.1-.5.95 0 1.95.3 2.8.85l-3.45 1.8.2 3.3 2.55 2.05 3.45-1.8c0 1.7-.9 3.35-2.45 4.15z" fill="#262626" fill-rule="evenodd"/></svg>