<svg xmlns="http://www.w3.org/2000/svg" width="24" height="24">
    <path fill="#262626" fill-rule="evenodd" d="M23.265 7.347l-3.526.597a2.449 2.449 0 01-2.077-.455l-1.386-1.092a3.57 3.57 0 00-3.615-.49l-.2-.167a3.737 3.737 0 00-4.409-.23L6.48 6.612a3.531 3.531 0 01-2.674.534l-2.45-.49a.735.735 0 00-.278 1.426l2.449.49a5.016 5.016 0 003.781-.754l1.577-1.069a2.238 2.238 0 012.508.044L8.043 9.67a1.47 1.47 0 001.714 2.375l3.565-2.155a1.47 1.47 0 011.93.362l3.473 4.546h.049c.43.676.367 1.518-.142 1.851a.891.891 0 01-.456.137h-.563l-.127.544a.882.882 0 01-1.088.715l-.553-.098-.24.49a.887.887 0 01-.309.367 1.009 1.009 0 01-.842.088l-.539-.161-.294.49a.877.877 0 01-.26.274 1.259 1.259 0 01-1.528-.333c.348-.813.265-1.665-.289-2.111a1.367 1.367 0 00-.9-.28 1.35 1.35 0 00-.432-.69 1.37 1.37 0 00-.872-.28 1.313 1.313 0 00-.455-.778c-.2-.156-.442-.25-.696-.27a1.352 1.352 0 00-.49-.832c-.641-.514-1.69-.304-2.448.456l-3.782-1.333a.744.744 0 00-.49 1.406l3.512 1.224a1.646 1.646 0 00.407 1.749c.2.156.442.25.695.27.089.662.67 1.145 1.338 1.111.11.651.698 1.11 1.356 1.058.07.27.22.51.431.69.573.456 1.47.339 2.185-.22a2.939 2.939 0 001.959.789 2.37 2.37 0 001.69-.7 2.376 2.376 0 001.557-.368c.21-.13.395-.296.549-.49a2.297 2.297 0 001.254-.377 2.39 2.39 0 00.842-.98c.245-.068.475-.18.681-.327a2.728 2.728 0 00.813-3.429l3.017-.7V7.347z"/>
</svg>
