<svg xmlns="http://www.w3.org/2000/svg" width="24" height="24">
    <path fill="#262626" fill-rule="evenodd" d="M5.5 20a2 2 0 110 4 2 2 0 010-4zm15 0a2 2 0 110 4 2 2 0 010-4zM.06.455A.755.755 0 011.045.06l2.27.975c.68.29 1.21.82 1.52 1.465h18.24l-.895 9.41a2.987 2.987 0 01-2.795 2.71l-13.145.85.065.67c.075.775.715 1.36 1.495 1.36h13.45a.749.749 0 110 1.5H7.8a2.98 2.98 0 01-2.985-2.715L3.63 3.655a1.505 1.505 0 00-.905-1.24L.455 1.44A.75.75 0 01.06.455zM21.43 4H5.17l.935 9.975 13.185-.85c.74-.05 1.325-.62 1.395-1.355L21.43 4z"/>
</svg>
