<svg width="24" height="24" xmlns="http://www.w3.org/2000/svg"><path d="M5.5 20a2 2 0 110 4 2 2 0 010-4zm15 0a2 2 0 110 4 2 2 0 010-4zM.06.455A.755.755 0 01.949.027l.096.033 2.27.975a2.984 2.984 0 011.42 1.275l.1.19h18.24l-.895 9.41a2.986 2.986 0 01-2.612 2.693l-.183.017-13.145.85.065.67c.07.727.637 1.286 1.35 1.353l.145.007h13.45a.749.749 0 01.102 1.493L21.25 19H7.8a2.98 2.98 0 01-2.964-2.538l-.021-.177L3.63 3.655c-.05-.5-.34-.938-.771-1.175l-.134-.065-2.27-.975A.75.75 0 01.06.455z" fill="#000" fill-rule="evenodd"/></svg>