<svg width="24" height="24" xmlns="http://www.w3.org/2000/svg"><path d="M5.878 20.082a1.96 1.96 0 110 3.918 1.96 1.96 0 010-3.918zm14.693 0a1.96 1.96 0 110 3.918 1.96 1.96 0 010-3.918zM.943.537a.74.74 0 01.46-.027l.11.039 2.224.955a2.939 2.939 0 011.687 1.978l.042.191h16.82l-.808 8.415a2.21 2.21 0 01-1.892 1.977l-.16.017-12.892.832.127 1.386a1.47 1.47 0 001.329 1.327l.14.006h13.176a.735.735 0 01.1 1.462l-.1.007H8.14a2.939 2.939 0 01-2.917-2.491l-.021-.173L4.046 4.065a1.47 1.47 0 00-.772-1.11l-.13-.06-2.223-.98a.74.74 0 01-.387-.98.74.74 0 01.409-.398z" fill="#000" fill-rule="evenodd"/></svg>