<svg xmlns="http://www.w3.org/2000/svg" width="24" height="24">
    <path fill="#262626" fill-rule="evenodd" d="M5.878 20.082a1.96 1.96 0 110 3.918 1.96 1.96 0 010-3.918zm14.693 0a1.96 1.96 0 110 3.918 1.96 1.96 0 010-3.918zM.943.537a.74.74 0 01.57.012l2.224.955a2.939 2.939 0 011.73 2.17h16.819l-.808 8.414a2.209 2.209 0 01-2.053 1.994l-12.891.832.127 1.386a1.47 1.47 0 001.47 1.333h13.175a.735.735 0 110 1.47H8.14a2.939 2.939 0 01-2.938-2.665L4.046 4.065a1.47 1.47 0 00-.902-1.17l-2.223-.98a.74.74 0 01-.387-.98.74.74 0 01.409-.398z"/>
</svg>
