<svg width="24" height="24" xmlns="http://www.w3.org/2000/svg"><path d="M19.408 16.361c-.855-.619-1.996-1.829-1.996-3.879 0-1.272.45-2.216.953-2.877.144-.188.293-.354.438-.497.504-.502.952-.731.952-.731s-.566-1.024-1.91-1.664c-.61-.291-1.382-.503-2.333-.503-1.769 0-3.129 1.006-3.86 1.006-.854 0-2.128-.946-3.769-.946-.158 0-.316.009-.474.027a4.64 4.64 0 00-1.854.629 5.198 5.198 0 00-.84.624c-.665.606-1.223 1.423-1.587 2.445-.292.818-.46 1.767-.46 2.844 0 4.379 3.18 9.828 5.696 9.828.88 0 2.228-.885 3.587-.885.5 0 .951.12 1.386.27.58.2 1.132.453 1.735.546.15.024.304.037.463.037 2.756 0 4.796-5.744 4.796-5.744s-.41-.158-.923-.53M11.53 5.988l.016.002.041.003.051.004.05.001.068.001h.002c.061 0 .131-.003.206-.008l.058-.005c.078-.007.16-.018.25-.033l.02-.002a3.364 3.364 0 00.375-.09 3.855 3.855 0 00.342-.118 3.799 3.799 0 00.447-.221 4.04 4.04 0 00.373-.237l.008-.006c.126-.092.253-.199.38-.315l.095-.089a5.02 5.02 0 001.157-1.669 4.735 4.735 0 00.366-1.558c.024-.4-.017-.648-.017-.648s-.626.003-1.428.34a4.79 4.79 0 00-1.975 1.546c-.712.938-.922 1.8-.969 2.375-.036.447.025.72.025.72s.023.004.06.007" fill="#000" fill-rule="evenodd"/></svg>