<svg height="24" width="24" xmlns="http://www.w3.org/2000/svg"><path d="m16.1 11.2c1.5 0 2.95.7 4 1.95.7.8 1.35 1.45 3.25 2.15.35.15.55.6.5.9-.15.4-.55.6-.95.45-2.15-.8-3.1-1.65-3.85-2.6-.8-.9-1.85-1.4-2.9-1.4-.8 0-1.55.3-2.15.8-1.45 1.25-1.65 3.3-.45 4.95.55.75 1.45 1.65 2.4 2.4.75.6 1.65 1.15 2.55 1.6.4.2.55.65.35 1-.2.4-.65.55-1 .35-1.05-.5-2-1.1-2.85-1.75-1.05-.8-2.05-1.8-2.7-2.7-1.7-2.35-1.4-5.2.7-6.95.85-.75 1.95-1.15 3.1-1.15zm-.1-2.65c1.65 0 3.2.5 4.55 1.45 1.05.75 1.8 1.7 2.15 2.05.3.3.3.75 0 1.05s-.75.3-1.05 0c-.35-.4-1-1.25-1.95-1.9-1.05-.8-2.35-1.2-3.65-1.2-1.4 0-2.8.5-3.9 1.45-2.6 2.15-2.95 5.8-.95 8.6.45.6 1.05 1.25 1.7 1.9.3.25.35.75.05 1.05s-.75.35-1.05.05c-.75-.7-1.4-1.45-1.9-2.15-2.5-3.45-2-7.95 1.1-10.55 1.35-1.15 3.1-1.8 4.9-1.8zm-1.25 5.9c.95-.85 2.3-.65 3.25.45.45.55.8.95 1.4 1.4s1.6 1.1 3.5 1.75c.4.15.65.7.5 1.05s-.55.6-.95.45c-1.55-.5-2.8-1.1-3.85-1.9-.65-.5-1.25-1.1-1.85-1.85-.25-.35-.75-.45-1.1-.1-.3.25-.35.7-.1 1 .6.75 1.2 1.35 2 2 .85.65 1.9 1.25 2.9 1.65.35.15.55.2.9.35.35.1.5.45.4.85-.15.4-.55.6-.95.5-1.35-.4-2.9-1.25-4.15-2.2-.85-.65-1.65-1.5-2.15-2.15-.85-1.15-.75-2.4.25-3.25zm3.25-12.45c1.65 0 3 1.35 3 3v.25c-.5-.2-1.05-.4-1.55-.55-.1-.65-.7-1.2-1.45-1.2h-14c-.85 0-1.5.65-1.5 1.5v1h7.35c-.5.35-1 .65-1.45 1.05-.5.4-1 .9-1.45 1.45l.005-.006.014-.013-.019.019h-4.45v4c0 .85.65 1.5 1.5 1.5h3.2c-.15.5-.2 1-.25 1.5h-2.95c-1.65 0-3-1.35-3-3v-7.5c0-1.65 1.35-3 3-3zm-1.95 3.7c1.75 0 3.5.45 5.05 1.3.35.2.5.65.3 1s-.65.5-1 .3c-1.35-.7-2.85-1.1-4.35-1.1-2.1 0-4.1.75-5.7 2.1-.4.35-.75.7-1.1 1.1-.25.3-.7.35-1 .05-.35-.25-.35-.75-.1-1.05.35-.45.8-.85 1.25-1.25 1.85-1.6 4.2-2.45 6.65-2.45z" fill="#262626" fill-rule="evenodd"/></svg>