<svg width="24" height="24" xmlns="http://www.w3.org/2000/svg"><path d="M16.1 11.2c1.417 0 2.789.624 3.821 1.747l.389.439.214.228c.586.598 1.306 1.126 2.826 1.686.35.15.55.6.5.9-.15.4-.55.6-.95.45-2.15-.8-3.1-1.65-3.85-2.6-.8-.9-1.85-1.4-2.9-1.4-.8 0-1.55.3-2.15.8-1.45 1.25-1.65 3.3-.45 4.95.55.75 1.45 1.65 2.4 2.4.75.6 1.65 1.15 2.55 1.6.4.2.55.65.35 1-.2.4-.65.55-1 .35-1.05-.5-2-1.1-2.85-1.75-1.05-.8-2.05-1.8-2.7-2.7-1.7-2.35-1.4-5.2.7-6.95.85-.75 1.95-1.15 3.1-1.15zM16 8.55c1.65 0 3.2.5 4.55 1.45.49.35.915.744 1.264 1.1l.28.293.53.58.076.077c.3.3.3.75 0 1.05-.3.3-.75.3-1.05 0l-.408-.478a8.647 8.647 0 00-1.328-1.269L19.7 11.2c-1.05-.8-2.35-1.2-3.65-1.2-1.4 0-2.8.5-3.9 1.45-2.6 2.15-2.95 5.8-.95 8.6.45.6 1.05 1.25 1.7 1.9.3.25.35.75.05 1.05-.3.3-.75.35-1.05.05-.75-.7-1.4-1.45-1.9-2.15-2.5-3.45-2-7.95 1.1-10.55 1.35-1.15 3.1-1.8 4.9-1.8zm-1.25 5.9c.95-.85 2.3-.65 3.25.45.45.55.8.95 1.4 1.4l.216.157.249.17c.223.147.485.306.798.473l.4.203c.495.241 1.098.494 1.837.747.4.15.65.7.5 1.05-.15.35-.55.6-.95.45-1.55-.5-2.8-1.1-3.85-1.9a10.39 10.39 0 01-1.593-1.538l-.257-.312c-.25-.35-.75-.45-1.1-.1-.3.25-.35.7-.1 1 .6.75 1.2 1.35 2 2 .85.65 1.9 1.25 2.9 1.65l.194.08.512.19c.06.024.124.05.194.08.35.1.5.45.4.85-.15.4-.55.6-.95.5-1.35-.4-2.9-1.25-4.15-2.2-.85-.65-1.65-1.5-2.15-2.15-.85-1.15-.75-2.4.25-3.25zM18 2a3.01 3.01 0 012.995 2.824L21 5v.25c-.5-.2-1.05-.4-1.55-.55-.093-.607-.622-1.126-1.302-1.193L18 3.5H4c-.8 0-1.423.576-1.493 1.352L2.5 5v1h7.35c-.4.28-.8.528-1.174.82l-.276.23a9.698 9.698 0 00-1.221 1.18l-.229.27H2.5v4c0 .8.576 1.423 1.352 1.493L4 14h3.2c-.12.4-.176.8-.22 1.2l-.03.3H4a3.01 3.01 0 01-2.995-2.824L1 12.5V5a3.01 3.01 0 012.824-2.995L4 2h14zm-1.95 3.7c1.75 0 3.5.45 5.05 1.3.35.2.5.65.3 1-.183.32-.577.474-.91.343L20.4 8.3c-1.35-.7-2.85-1.1-4.35-1.1-2.1 0-4.1.75-5.7 2.1-.4.35-.75.7-1.1 1.1a.668.668 0 01-.922.118l-.078-.068c-.35-.25-.35-.75-.1-1.05.35-.45.8-.85 1.25-1.25 1.85-1.6 4.2-2.45 6.65-2.45z" fill-rule="evenodd"/></svg>