<svg width="24" height="24" xmlns="http://www.w3.org/2000/svg"><path d="M6.98 8.555l.045-.055H1v4a3 3 0 003 3h3.04a9.08 9.08 0 011-3.46 2.195 2.195 0 01-.62-.335 2.245 2.245 0 01-.44-3.15zm7.11-4.23A11 11 0 0121 5.36V5a3 3 0 00-3-3H4a3 3 0 00-3 3v1h8.75a11.525 11.525 0 014.34-1.675zm9.23 10.945a8 8 0 01-3.25-2.115c-1-.945-2.055-1.925-3.81-1.955a4.86 4.86 0 00-3.55 1.425 5.06 5.06 0 00-1.5 3.63c0 3.735 5 6.69 6.77 7.435a.75.75 0 00.58-1.385c-1.83-.775-5.85-3.37-5.85-6.05a3.57 3.57 0 011.04-2.56 3.34 3.34 0 012.475-1c1.175 0 1.86.66 2.81 1.55a9.31 9.31 0 003.83 2.45.75.75 0 10.445-1.43l.01.005zm-.455 2.88c-2.755-.935-3.805-2.055-4.565-2.87-.59-.625-1.14-1.215-2.135-1.28a2.1 2.1 0 00-2.16 1.545c-.755 2.645 4.04 5.56 6.825 6.38a.76.76 0 00.21.03.75.75 0 00.21-1.455c-2.935-.865-6.14-3.36-5.805-4.5a.61.61 0 01.62-.5c.37.025.585.22 1.14.81.82.875 2.045 2.19 5.18 3.26a.75.75 0 00.48-1.42zm-13.5-7.78a8.185 8.185 0 015.215-3.085 8 8 0 015.71 1.13.751.751 0 10.81-1.265 9.455 9.455 0 00-6.765-1.345 9.7 9.7 0 00-6.16 3.655.755.755 0 00.14 1.04.775.775 0 001.055-.13h-.005zm3.675 11.395c-1.135-.89-3.045-2.79-3.045-5.5a6.29 6.29 0 016.255-6.33c2.185 0 3.77 1.25 5.5 3.125a.75.75 0 101.11-1c-1.715-1.88-3.7-3.615-6.595-3.615a7.79 7.79 0 00-7.765 7.81c0 2.5 1.285 4.865 3.625 6.69.13.105.293.161.46.16a.75.75 0 00.46-1.34h-.005z" fill="#000" fill-rule="evenodd"/></svg>