<svg height="24" width="24" xmlns="http://www.w3.org/2000/svg"><path d="m23.55 9.4c-.25-.7-.85-1.2-1.6-1.25l-6-.45-2.25-5.55c-.3-.7-.95-1.15-1.7-1.15s-1.4.45-1.7 1.15l-2.3 5.6-6 .45c-.75.05-1.35.55-1.6 1.25s0 1.45.55 1.95l4.6 3.9-1.4 5.8c-.15.7.1 1.45.7 1.9.3.25.7.35 1.05.35s.65-.1.95-.25l5.15-3.2 5.1 3.2c.65.4 1.4.35 2-.05.6-.45.85-1.2.7-1.9l-1.45-5.85 4.6-3.9c.6-.55.85-1.3.6-2zm-1.5.8-5.3 4.5 1.65 6.75c.05.2-.05.3-.1.35s-.2.1-.35 0l-5.95-3.7-5.9 3.65c-.15.1-.3.05-.35 0s-.15-.15-.1-.35l1.65-6.75-5.3-4.5c-.15-.1-.1-.25-.1-.35 0-.05.1-.2.25-.2l6.95-.5 2.65-6.45c.05-.15.15-.15.25-.15s.2.05.3.2l2.65 6.45 6.95.5c.2 0 .25.15.25.2 0 .1 0 .25-.1.35z" fill="#262626" fill-rule="evenodd"/></svg>