<svg xmlns="http://www.w3.org/2000/svg" width="24" height="24">
    <path fill="#262626" fill-rule="evenodd" d="M21.655 10.87c.37-1.07.105-2.195-.72-3.055.245-1.125-.215-2.315-1.185-3.06a2.427 2.427 0 00-.555-1.53c-.625-.765-1.725-1.22-2.94-1.22L13.03 2h-.015c-2.46 0-4.135.93-4.845 1.33-.185.05-.745.67-3.615.67H2v11.5h4.5v-1.825c1.395.53 2.43 2.26 3.485 4.655.765 1.725.95 2.125 1.32 2.86.425.835 1.19 1.31 2.025 1.31.225 0 .45-.035.675-.105 1.1-.34 1.76-1.41 1.605-2.6l-.525-4.01a.251.251 0 01.25-.285h3.625a3.088 3.088 0 002.87-1.895c.405-.935.33-1.945-.175-2.735zm-1.205 2.14c-.205.48-.705.99-1.49.99h-3.625c-.51 0-.99.22-1.32.605-.335.385-.48.89-.41 1.385l.525 4c.075.57-.255.88-.56.975-.14.04-.62.14-.92-.455-.36-.71-.53-1.075-1.285-2.79-1.095-2.46-2.455-5.07-4.865-5.61V5.4c1.555-.2 2.325-.73 2.4-.76.665-.37 2.045-1.145 4.115-1.145h.01l3.225.005c.76 0 1.445.26 1.785.675.325.395.215.705.085 1.35.555.305.945.475 1.215 1.02.335.67.095 1.1-.18 1.735.54.425.97.715 1.12 1.31.135.525-.045.84-.4 1.515.22.225 1.04.835.575 1.905z"/>
</svg>
