<svg width="24" height="24" xmlns="http://www.w3.org/2000/svg"><path d="M13.03 2l3.225.005c1.215 0 2.315.455 2.94 1.22.36.44.55.97.555 1.53.97.745 1.43 1.935 1.185 3.06.825.86 1.09 1.985.72 3.055.505.79.58 1.8.175 2.735a3.088 3.088 0 01-2.87 1.895h-3.625a.251.251 0 00-.25.285l.525 4.01c.155 1.19-.505 2.26-1.605 2.6-.225.07-.45.105-.675.105-.835 0-1.6-.475-2.025-1.31-.37-.735-.555-1.135-1.32-2.86-1.055-2.395-2.09-4.125-3.485-4.655V15.5H2V4h2.555c2.87 0 3.43-.62 3.615-.67.71-.4 2.385-1.33 4.845-1.33h.015zM5 5.5H3.5V14H5V5.5z" fill="#000" fill-rule="evenodd"/></svg>