<svg width="24" height="24" xmlns="http://www.w3.org/2000/svg"><path d="M12 .98L2.5 3.153v7.998c0 5.691 3.822 10.758 9.294 12.321l.206.059.206-.059c5.472-1.564 9.294-6.63 9.294-12.321V3.152L12 .981zm8 10.17c0 4.953-3.279 9.37-8 10.818-4.721-1.448-8-5.865-8-10.818V4.348l8-1.829 8 1.829v6.802zM7.504 12.383h-.045L6.389 9H5.348l1.631 5H7.99l1.631-5h-1.04l-1.077 3.383zm8.056-1.511h.045L17.402 14h1.018V9h-1.003v3.144h-.045L15.576 9H14.55v5h1.01v-3.129zM10.244 14h1.01v-1.684h.846c.973 0 1.654-.591 1.654-1.654S13.073 9 12.1 9h-1.856v5zm1.01-4.065h.779c.381 0 .673.255.673.726 0 .465-.292.719-.673.719h-.779V9.935z" fill-rule="evenodd"/></svg>