<svg width="24" height="24" xmlns="http://www.w3.org/2000/svg"><path d="M12.002.98l9.5 2.172v7.998c0 5.588-3.684 10.573-8.997 12.232l-.503.148-.206-.059c-5.372-1.535-9.154-6.447-9.29-12.011l-.004-.31V3.152l9.5-2.171zM15.58 9h-1.026v5h1.01v-3.129h.045L17.405 14h1.018V9H17.42v3.144h-.045L15.579 9zm-3.476 0h-1.856v5h1.01v-1.684h.846c.972 0 1.654-.591 1.654-1.654S13.075 9 12.103 9zM6.391 9h-1.04l1.631 5h1.011l1.631-5h-1.04l-1.077 3.383h-.045L6.392 9zm5.644.935c.382 0 .674.255.674.726 0 .426-.245.675-.58.714l-.094.005h-.778V9.935h.778z" fill="#000" fill-rule="evenodd"/></svg>