<svg width="24" height="24" xmlns="http://www.w3.org/2000/svg"><path d="M12.441 1.533l8.781 1.302 1.303 8.782L12.22 21.922a3.048 3.048 0 01-2.162.895c-.71 0-1.422-.246-1.993-.74l-.168-.155-5.762-5.762a3.056 3.056 0 01-.132-4.18l.132-.142L12.441 1.534zm.526 1.594L3.196 12.9A1.546 1.546 0 002.74 14c0 .363.124.707.352.985l.104.115 5.762 5.762c.294.294.685.456 1.1.456.364 0 .708-.124.986-.352l.114-.104 9.772-9.772-1.028-6.935-6.935-1.028zm.1 11.23c.755.755.762 1.948.008 2.701a1.906 1.906 0 01-2.71 0 1.915 1.915 0 01-.008-2.717 1.905 1.905 0 012.71.016zm-1.899.795c-.333.333-.348.82-.032 1.136.316.317.795.292 1.128-.04.332-.333.356-.812.04-1.128-.317-.316-.803-.3-1.136.032zm4.17-4.121l.982.981-8.804 2.037-.981-.982 8.803-2.037zM12.492 8.02a1.91 1.91 0 01.007 2.718c-.755.755-1.947.746-2.71-.016a1.895 1.895 0 01-.008-2.702 1.906 1.906 0 012.71 0zm-1.9.811c-.333.333-.349.82-.04 1.128.324.325.803.3 1.136-.032.332-.333.356-.811.031-1.136-.308-.309-.794-.292-1.127.04zm7.029-3.413a1.018 1.018 0 11.002 2.038 1.018 1.018 0 01-.002-2.038z" fill="#000" fill-rule="evenodd"/></svg>