<svg width="24" height="24" xmlns="http://www.w3.org/2000/svg"><path d="M12.44 1.535l8.785 1.3 1.3 8.78-10.305 10.31a3.065 3.065 0 01-4.184.132l-.141-.132-5.76-5.765a3.05 3.05 0 01-.138-4.173l.138-.147L12.44 1.535zm-1.466 12.372a1.925 1.925 0 101.98 3.246l.121-.113v.02a1.905 1.905 0 000-2.725 1.925 1.925 0 00-2.1-.428zm.757.985a.785.785 0 01.574.228.83.83 0 01-1.17 1.17.79.79 0 01.035-1.14.785.785 0 01.561-.258zm3.574-3.877L6.5 13.05l1 1 8.805-2.035-1-1zM9.78 8a1.905 1.905 0 000 2.7 1.925 1.925 0 100-2.7zm.815.835a.83.83 0 011.125-.045.775.775 0 01-.035 1.135.775.775 0 01-1.135.035.83.83 0 01.045-1.125zm6.305-3.12a1 1 0 000 1.44 1 1 0 001.44 0 1.018 1.018 0 00-1.44-1.44z" fill="#000" fill-rule="evenodd"/></svg>