<svg width="24" height="24" xmlns="http://www.w3.org/2000/svg"><path d="M12.44 1.535l8.785 1.3 1.3 8.78-10.305 10.31a3.065 3.065 0 01-4.325 0l-5.76-5.765a3.05 3.05 0 010-4.32L12.44 1.535zm.635 12.8a1.925 1.925 0 100 2.705v.02a1.905 1.905 0 000-2.725zm-1.344.557a.785.785 0 01.574.228.83.83 0 01-1.17 1.17.79.79 0 01.035-1.14.785.785 0 01.561-.258zm3.574-3.877L6.5 13.05l1 1 8.805-2.035-1-1zm-3.423-3.446A1.925 1.925 0 009.78 8a1.905 1.905 0 000 2.7 1.925 1.925 0 102.102-3.131zm-1.287 1.266a.83.83 0 011.125-.045.775.775 0 01-.035 1.135.775.775 0 01-1.135.035.83.83 0 01.045-1.125zm7.745-3.12a1.018 1.018 0 00-1.44 0 1 1 0 000 1.44 1 1 0 001.44 0 1.018 1.018 0 000-1.44z" fill="#000" fill-rule="evenodd"/></svg>