<svg width="24" height="24" xmlns="http://www.w3.org/2000/svg"><path d="M21.11 1.812h.26l.485.014.295.019.02.295.011.344.002.4-.008.373-.019.414-.015.222-.042.47C21.9 6.218 21.284 8.72 19.5 10.5a40.635 40.635 0 01-2.41 2.233l-.63.527.375 2.395a5.22 5.22 0 01-1.54 4.585l-.18.165-3.025 2.665a.76.76 0 01-.7.16.76.76 0 01-.461-.401l-.039-.099-1.595-5-.885.38-2.5-2.475.38-.885-5-1.595a.75.75 0 01-.4-1.124l.065-.086L3.63 8.92a5.22 5.22 0 014.508-1.753l.242.033 2.395.375A39.565 39.565 0 0113.5 4.5c1.93-1.94 4.718-2.501 6.602-2.644l.434-.027.394-.014a17.2 17.2 0 01.18-.003zM4.86 16.55a6.09 6.09 0 00.54 2.05 6.08 6.08 0 002.045.54l-.053.12-.124.241-.092.157a4.674 4.674 0 01-.054.085l-.124.184-.146.195c-.712.9-2.135 2.04-4.647 1.673-.395-2.711.95-4.151 1.868-4.801l.184-.124.166-.101.21-.115.227-.104zm10.48-.69l-.265-1.56-.854.654-.796.595-.546.4-1.169.836-.67.465-.175-.175-.205.085 1.29 4 2.165-1.905a3.735 3.735 0 001.254-3.171l-.029-.224zm-7.2-7.175a3.74 3.74 0 00-3.241 1.06l-.154.165-1.905 2.165 4.02 1.305.09-.205L6.775 13l.482-.719.505-.729.65-.911.452-.614.49-.652.346-.45-1.56-.24zM16.5 6a1.5 1.5 0 100 3 1.5 1.5 0 000-3z" fill="#000" fill-rule="evenodd"/></svg>