<svg width="24" height="24" xmlns="http://www.w3.org/2000/svg"><path d="M12.96 3.968c2.485-2.485 6.36-3.125 9.88-2.808.317 3.517-.322 7.393-2.808 9.879-.882.882-1.915 1.785-2.953 2.632l-.52.42.241 1.538a5.225 5.225 0 01-1.538 4.585l-.18.166-3.026 2.663a.75.75 0 01-1.17-.235l-.04-.1-1.596-4.977-.886.379-2.475-2.475.38-.886-4.978-1.596a.75.75 0 01-.398-1.123l.064-.086L3.62 8.919a5.224 5.224 0 014.508-1.75l.243.032 1.538.24c.965-1.209 2.022-2.443 3.051-3.473zM4.814 16.571l.044-.019.009.12.03.234.037.218.057.262c.08.331.207.745.409 1.214.469.202.883.329 1.213.408l.263.057.217.038.286.034.068.004-.076.17-.1.19-.09.157-.113.176-.134.189-.158.2c-.733.88-2.14 1.924-4.569 1.57-.395-2.71.949-4.148 1.866-4.797l.183-.124.166-.101.146-.081.246-.12zm10.502-.71l-.111-.715-.75.563-.702.515-.842.605-1.08.752-.399.27-.469.313.962 2.996 2.164-1.905a3.731 3.731 0 001.256-3.17l-.029-.225zM8.14 8.683A3.731 3.731 0 004.9 9.745l-.155.165-1.905 2.165 2.996.962.689-1.022.769-1.098.791-1.092.451-.608.319-.422-.716-.112zM16.5 6a1.5 1.5 0 110 3 1.5 1.5 0 010-3z" fill="#000" fill-rule="evenodd"/></svg>