<svg width="24" height="24" xmlns="http://www.w3.org/2000/svg"><path d="M12 1c6.1 0 11 4.9 11 11s-4.9 11-11 11S1 18.1 1 12 5.9 1 12 1zm0 1.5c-5.25 0-9.5 4.25-9.5 9.5s4.25 9.5 9.5 9.5 9.5-4.25 9.5-9.5-4.25-9.5-9.5-9.5zm0 3.75c.367 0 .691.294.743.651L12.75 7v4.25H17c.4 0 .75.35.75.75a.772.772 0 01-.651.743L17 12.75h-4.25V17c0 .4-.35.75-.75.75a.772.772 0 01-.743-.651L11.25 17v-4.25H7c-.4 0-.75-.35-.75-.75 0-.367.294-.691.651-.743L7 11.25h4.25V7c0-.4.35-.75.75-.75z" fill="#000" fill-rule="evenodd"/></svg>