<svg width="24" height="24" xmlns="http://www.w3.org/2000/svg"><path d="M22 2v17a3 3 0 01-2.824 2.995L19 22H5a3 3 0 01-2.995-2.824L2 19V2h20zm-1.5 1.5h-17V19c0 .778.596 1.42 1.356 1.493L5 20.5h14c.778 0 1.42-.596 1.493-1.356L20.5 19V3.5zM12 15a1.25 1.25 0 110 2.5 1.25 1.25 0 010-2.5zm.1-7.98c1.696 0 2.927 1.123 2.927 2.67 0 1.023-.519 1.616-1.049 2.108l-.462.42c-.346.323-.636.654-.69 1.095l-.01.151v.332H11.07v-.602c0-.823.392-1.305.852-1.711l.234-.198.357-.294c.388-.33.707-.675.707-1.196 0-.699-.428-1.134-1.118-1.134-.612 0-1.02.367-1.146 1.015l-.023.143H9.12c.084-1.412 1.026-2.799 2.98-2.799z" fill-rule="evenodd"/></svg>