<svg height="24" width="24" xmlns="http://www.w3.org/2000/svg"><path d="m18 18.65v1.85h2.75c.4 0 .75.35.75.75s-.35.75-.75.75h-2.75v1.85l-4-2.6zm-10.9-3.15 2.9 2.9 2.85-2.9h2c-.3.45-.45 1.05-.3 1.7.1.55.45 1 .85 1.35l-2.25 1.45h-12.55l.15-.8c.35-2.15 2.2-3.7 4.35-3.7zm12.4-1.35 4 2.6-4 2.6v-1.85h-2.75c-.4 0-.75-.35-.75-.75s.35-.75.75-.75h2.75zm-9.5-11.9c3.2 0 5.55 2.35 5.55 5.55 0 3.1-2.25 6.45-5.55 6.45s-5.55-3.35-5.55-6.45c0-3.2 2.35-5.55 5.55-5.55zm0 1.5c-2.35 0-4.05 1.7-4.05 4.05 0 2.4 1.65 4.95 4.05 4.95s4.05-2.55 4.05-4.95c0-2.35-1.7-4.05-4.05-4.05z" fill="#262626" fill-rule="evenodd"/></svg>