<svg xmlns="http://www.w3.org/2000/svg" width="24" height="24">
    <path fill="#262626" fill-rule="evenodd" d="M18.136 17.62v1.945h2.874a.783.783 0 010 1.565h-2.874v1.941l-4.174-2.728 4.174-2.724zM6.783 14.347l2.99 3.02 3.02-3.02h2.087c-.257.386-.393.84-.391 1.304.005.735.352 1.426.939 1.868L13.1 19.043H0l.157-.85a4.586 4.586 0 014.539-3.845h2.087zm12.928-1.425l4.174 2.724-4.174 2.729v-1.941h-2.874a.783.783 0 110-1.565h2.874v-1.947zM9.793 1.304a4.847 4.847 0 015.014 4.988c0 3.031-2.113 5.969-5.014 5.969-2.9 0-5.009-2.917-5.009-5.948a4.847 4.847 0 015.009-5.009z"/>
</svg>
