<svg xmlns="http://www.w3.org/2000/svg" width="24" height="24">
    <path fill="#262626" fill-rule="evenodd" d="M12 1c6.05 0 11 4.95 11 11 0 2.6-.95 5.1-2.6 7.1-.6.7-1.1 1.1-1.45 1.4H5c-.35-.3-.85-.7-1.45-1.45C1.9 17.05 1 14.6 1 12 1 5.95 5.95 1 12 1zm0 1.5c-5.25 0-9.5 4.25-9.5 9.5 0 2.65 1.1 5.2 3.1 7h12.8c2-1.8 3.1-4.35 3.1-7 0-5.25-4.25-9.5-9.5-9.5zm6.45 7c.25-.15.55 0 .7.2l.03.081c.055.203-.005.488-.18.619l-4.5 3.7a2.487 2.487 0 01-2.5 2.4c-1.4 0-2.5-1.1-2.5-2.5s1.1-2.5 2.5-2.5c.4 0 .75.1 1.05.3zM12 4.5c2.6 0 4.9 1.35 6.25 3.4l-1.4.6C15.75 7 14 6 12 6c-3.3 0-6 2.7-6 6H4.5c0-4.15 3.35-7.5 7.5-7.5z"/>
</svg>
