<svg width="24" height="24" xmlns="http://www.w3.org/2000/svg"><path d="M23.5 12.5V19a3 3 0 01-2.824 2.995L20.5 22H14a3 3 0 01-2.995-2.824L11 19v-6.5h1.5v-1.736a4.756 4.756 0 014.75-4.75c1.775 0 3.327.979 4.142 2.426l-1.344.671a3.252 3.252 0 00-2.798-1.598 3.254 3.254 0 00-3.25 3.25V12.5h9.5zM22 14h-9.5v5c0 .778.596 1.42 1.356 1.493L14 20.5h6.5c.778 0 1.42-.596 1.493-1.356L22 19v-5zm-4.75 1.5a1.25 1.25 0 01.751 2.25L18 19h-1.5v-1.25a1.25 1.25 0 01.75-2.25zM22 2v4.707a6.298 6.298 0 00-1.5-1.28V3.5H2v4C2 8.327 2.673 9 3.5 9h7.753a6.22 6.22 0 00-.248 1.5H3.5c-1.655 0-3-1.345-3-3V2H22zM4.75 5a1.25 1.25 0 110 2.5 1.25 1.25 0 010-2.5zm3.5 0a1.25 1.25 0 110 2.5 1.25 1.25 0 010-2.5zm3.5 0c.67 0 1.216.526 1.248 1.188a6.249 6.249 0 00-1.067 1.297A1.25 1.25 0 1111.75 5z" fill="#000" fill-rule="evenodd"/></svg>