<svg width="24" height="24" xmlns="http://www.w3.org/2000/svg"><path d="M17.25 6.013a4.75 4.75 0 014.03 2.241l.11.186-1.345.673a3.248 3.248 0 00-2.795-1.6c-1.73 0-3.149 1.36-3.244 3.066l-.005.184V12.5h9.5V19a3 3 0 01-2.824 2.995L20.5 22H14a3 3 0 01-2.994-2.824L11 19v-6.5h1.5v-1.737a4.756 4.756 0 014.75-4.75zm0 9.487c-.69 0-1.25.56-1.25 1.25 0 .363.157.686.404.914l.096.08V19H18v-1.256c.302-.228.5-.586.5-.994 0-.69-.559-1.25-1.25-1.25zM22 2v4.712a6.221 6.221 0 00-9.005-.514 1.248 1.248 0 00-2.494.052c0 .69.559 1.25 1.25 1.25.065 0 .128-.01.191-.02a6.19 6.19 0 00-.908 2.72l-.02.3H3.501A3.003 3.003 0 01.506 7.676L.5 7.5V2H22zM8.25 5a1.25 1.25 0 100 2.5 1.25 1.25 0 000-2.5zm-3.5 0a1.25 1.25 0 100 2.5 1.25 1.25 0 000-2.5z" fill="#000" fill-rule="evenodd"/></svg>