<svg height="24" width="24" xmlns="http://www.w3.org/2000/svg"><path d="m12 1c-6.05 0-11 4.95-11 11s4.95 11 11 11 11-4.95 11-11-4.95-11-11-11zm2.4 1.8c3.3.85 5.95 3.5 6.8 6.8l-2.95.5c-.65-2.1-2.3-3.75-4.35-4.35zm-4.8 0 .5 2.95c-2.1.65-3.75 2.3-4.35 4.35l-2.95-.5c.9-3.3 3.5-5.9 6.8-6.8zm0 18.4c-3.3-.85-5.95-3.5-6.8-6.8l2.95-.5c.65 2.1 2.3 3.75 4.35 4.35zm-2.6-9.2c0-2.75 2.25-5 5-5s5 2.25 5 5-2.25 5-5 5-5-2.25-5-5zm7.4 9.2-.5-2.95c2.1-.65 3.75-2.3 4.35-4.35l2.95.5c-.9 3.3-3.5 5.9-6.8 6.8z" fill="#262626" fill-rule="evenodd"/></svg>