<svg xmlns="http://www.w3.org/2000/svg" width="24" height="24">
    <path fill="#262626" fill-rule="evenodd" d="M12 1.75C6.34 1.75 1.75 6.34 1.75 12S6.34 22.25 12 22.25 22.25 17.66 22.25 12A10.25 10.25 0 0012 1.75zM12 2a10.03 10.03 0 012.245.265L13.34 5.9A6.255 6.255 0 0012 5.75a6.17 6.17 0 00-1.335.15l-.91-3.635A10.03 10.03 0 0112 2zM5.9 13.34l-3.635.905a9.64 9.64 0 010-4.5l3.635.905a6.06 6.06 0 000 2.68v.01zM12 22a10.03 10.03 0 01-2.245-.265l.91-3.635a6.17 6.17 0 001.335.15c.45-.002.9-.052 1.34-.15l.905 3.635A10.03 10.03 0 0112 22zm0-4.25a5.75 5.75 0 11.01-11.5 5.75 5.75 0 01-.01 11.5zm6.1-4.41c.2-.882.2-1.798 0-2.68l3.635-.905a9.64 9.64 0 010 4.5L18.1 13.34z"/>
</svg>
