<svg width="24" height="24" xmlns="http://www.w3.org/2000/svg"><path d="M3.5 8.5V10c-.8 0-1.423.576-1.493 1.352L2 11.5v5c0 .8.576 1.423 1.352 1.493L3.5 18H5v2.3L7.3 18h5c.394 0 .71-.153.985-.392l.115-.108 1.05 1.05a3.027 3.027 0 01-1.94.893l-.21.007H7.95l-2.4 2.4c-.25.25-.55.35-.85.35-.563 0-1.125-.396-1.193-1.063L3.5 21v-1.5a3.01 3.01 0 01-2.995-2.824L.5 16.5v-5a3.01 3.01 0 012.824-2.995L3.5 8.5zm19.5-6V13a3.01 3.01 0 01-2.824 2.995L20 16h-.5v1.9c0 .9-.75 1.5-1.5 1.5-.306 0-.65-.115-.933-.345l-.117-.105L14 16H8a3.01 3.01 0 01-2.995-2.824L5 13V2.5h18zM21.5 4h-15v9c0 .8.576 1.423 1.352 1.493L8 14.5h6.65L18 17.85V14.5h2c.8 0 1.423-.576 1.493-1.352L21.5 13V4z" fill-rule="evenodd"/></svg>