<svg height="24" width="24" xmlns="http://www.w3.org/2000/svg"><path d="m3.5 8.5v1.5c-.85 0-1.5.65-1.5 1.5v5c0 .85.65 1.5 1.5 1.5h1.5v2.3l2.3-2.3h5c.45 0 .8-.2 1.1-.5l1.05 1.05c-.55.55-1.3.9-2.15.9h-4.35l-2.4 2.4c-.25.25-.55.35-.85.35-.6 0-1.2-.45-1.2-1.2v-1.5c-1.65 0-3-1.35-3-3v-5c0-1.65 1.35-3 3-3zm19.5-6v10.5c0 1.65-1.35 3-3 3h-.5v1.9c0 .9-.75 1.5-1.5 1.5-.35 0-.75-.15-1.05-.45l-2.95-2.95h-6c-1.65 0-3-1.35-3-3v-10.5zm-1.5 1.5h-15v9c0 .85.65 1.5 1.5 1.5h6.65l3.35 3.35v-3.35h2c.85 0 1.5-.65 1.5-1.5z" fill="#262626" fill-rule="evenodd"/></svg>