<svg width="24" height="24" xmlns="http://www.w3.org/2000/svg"><path d="M3.5 8.5V10a1.5 1.5 0 00-1.493 1.356L2 11.5v5a1.5 1.5 0 001.356 1.493L3.5 18H5v2.32L7.32 18H12a1.5 1.5 0 00.999-.388l.111-.112h.275l.92.92a3 3 0 01-2.1 1.073L12 19.5H7.94l-2.375 2.355a1.21 1.21 0 01-2.058-.723L3.5 21v-1.5a3 3 0 01-2.995-2.824L.5 16.5v-5a3 3 0 012.824-2.995L3.5 8.5zm19.5-6V13a3 3 0 01-2.824 2.995L20 16h-.5v1.875a1.5 1.5 0 01-2.453 1.162l-.112-.102L14 16H8a3 3 0 01-2.995-2.824L5 13V2.5h18z" fill="#000" fill-rule="evenodd"/></svg>