<svg width="24" height="24" xmlns="http://www.w3.org/2000/svg"><path d="M10.999 19.171a.138.138 0 01.23.077v.046l-.47 3a1.201 1.201 0 01-1.372 1c-.954-.149-1.337-1.29-.713-1.985l.087-.088 2.238-2.05zM9.21 15.2l-2.562 3.6h2.487L4.09 22.878c-.128.103-.296-.029-.254-.166l.023-.046L5.663 20H3.751l2.662-4.8H9.21zm4.066-1.385a.12.12 0 01.197.062l.002.044-.522 3.334a1.301 1.301 0 01-1.487 1.085c-1.034-.162-1.448-1.403-.769-2.154l.091-.091 2.488-2.28zM10.507 5.95a5.56 5.56 0 015.233 3.674 4.25 4.25 0 012.261 3.753c0 2.195-1.668 4.005-3.795 4.215l.032-.137.52-3.333a1.421 1.421 0 00-2.24-1.365l-.117.096L11.26 13.9H5.647l-1.984 3.579A3.863 3.863 0 01.8 13.746c0-1.4.755-2.684 1.952-3.366.102-1.822 1.608-3.273 3.443-3.273.27 0 .54.033.806.098a5.53 5.53 0 013.505-1.255zm9.24 4.596a.6.6 0 01.765-.069l.083.07.85.848a.6.6 0 01-.775.912l-.074-.064-.849-.848a.6.6 0 010-.849zM16.601 4.4c1.654 0 3 1.345 3 3 0 1.132-.63 2.118-1.558 2.63a5.43 5.43 0 00-1.344-1.24 6.768 6.768 0 00-2.628-2.996 2.997 2.997 0 012.53-1.394zm6.25 2.4a.6.6 0 01.097 1.192L22.85 8h-1.2a.6.6 0 01-.098-1.192l.098-.008h1.2zM11.757 2.556a.6.6 0 01.765-.069l.084.07.849.848a.6.6 0 01-.775.912l-.074-.064-.849-.848a.6.6 0 010-.849zm8.84 0a.6.6 0 01.917.766l-.07.083-.848.848a.596.596 0 01-.849 0 .6.6 0 01-.07-.765l.07-.083.85-.849zM16.6.55a.6.6 0 01.592.503l.008.097v1.2a.6.6 0 01-1.193.097L16 2.35v-1.2a.6.6 0 01.6-.6z" fill-rule="evenodd"/></svg>