<svg width="24" height="24" xmlns="http://www.w3.org/2000/svg"><path d="M19.5 3v8.357l-1.5.982V4.5H2v10.143c0 .704.54 1.285 1.227 1.35l.13.007H6v3.596c0 .07.045.131.105.157.055.023.122.017.18-.04L9.998 16H12.5v1.5h-1.881l-3.274 3.274c-.34.34-.757.491-1.167.491-.81 0-1.591-.597-1.671-1.514l-.007-.155V17.5H3.357a2.857 2.857 0 01-2.852-2.69L.5 14.644V3h19zm0 10.15V16h3.75a.75.75 0 01.102 1.493l-.102.007H19.5v2.85l-5.5-3.6 5.5-3.6zm-4.576-4.905c.783 0 1.23.424 1.348 1.104l.02.14h-.818c-.056-.31-.229-.465-.55-.465-.285 0-.502.161-.502.452 0 .259.152.37.347.436l.075.022.476.13c.612.161.996.613.996 1.207 0 .829-.612 1.292-1.392 1.292-.8 0-1.296-.391-1.416-1.113l-.02-.148h.83c.075.346.303.482.606.482.359 0 .539-.198.539-.464 0-.228-.133-.355-.382-.442l-.114-.034-.476-.136c-.662-.18-.922-.656-.922-1.176 0-.792.588-1.287 1.355-1.287zm-5.41.093l1.232 2.289h.037l1.225-2.29h.767v4.133h-.829v-2.332h-.037l-1.015 1.819h-.266L9.62 10.138h-.037v2.332h-.836V8.337h.768zm-5.012 0l1.231 2.289h.038l1.224-2.29h.768v4.133h-.829v-2.332h-.037l-1.016 1.819h-.265l-1.009-1.819H4.57v2.332h-.836V8.337h.768z" fill="#000" fill-rule="evenodd"/></svg>