<svg width="24" height="24" xmlns="http://www.w3.org/2000/svg"><path d="M19.5 3v8.406l-6.32 4.088a1.5 1.5 0 00-.68 1.255c0 .215.05.422.136.611l.071.139H10.62l-3.274 3.274c-.34.34-.757.491-1.166.491-.812 0-1.592-.597-1.672-1.514l-.007-.156V17.5H3.358A2.857 2.857 0 01.506 14.81l-.005-.168V3h19zm0 10.15v2.849h3.75a.75.75 0 01.102 1.493l-.102.007H19.5v2.85l-5.5-3.6 5.5-3.6zm-4.575-4.906c-.767 0-1.355.495-1.355 1.287 0 .48.221.923.776 1.13l.146.046.476.136c.322.086.495.216.495.476 0 .266-.18.464-.538.464-.27 0-.48-.107-.576-.374l-.03-.108h-.83c.075.816.582 1.262 1.436 1.262.779 0 1.391-.464 1.391-1.293 0-.548-.327-.975-.859-1.164l-.137-.043-.476-.13c-.229-.062-.42-.167-.42-.458 0-.29.216-.451.5-.451.286 0 .455.122.528.366l.023.098h.817c-.08-.761-.532-1.244-1.367-1.244zm-5.41.093h-.767v4.133h.835v-2.333h.037l1.009 1.82h.266l1.015-1.82h.037v2.333h.829V8.337h-.768l-1.225 2.29h-.037l-1.23-2.29zm-5.012 0h-.767v4.133h.835v-2.333h.037l1.01 1.82h.265l1.015-1.82h.037v2.333h.829V8.337h-.767l-1.225 2.29h-.038l-1.23-2.29z" fill="#000" fill-rule="evenodd"/></svg>