<svg height="24" width="24" xmlns="http://www.w3.org/2000/svg"><path d="m18.4 1.25 2.5 2.45c1.15 1.15 1.15 3.05 0 4.25l-.55.55h-1.8v2h-2v1.8l-1.15 1.15c.75 2.5.1 5.2-1.75 7.05a7.006 7.006 0 0 1 -4.95 2.05c-2.3 0-4.65-1.2-6.05-3.5-.35-.55-.6-1.15-.75-1.8-.6-2.5.1-4.95 1.8-6.65 1.85-1.85 4.6-2.5 7.05-1.75zm0 2.1-7.25 7.3-.45-.2c-.65-.3-1.3-.4-2-.4-1.45 0-2.85.55-3.9 1.6s-1.6 2.4-1.6 3.9.55 2.85 1.6 3.9c2.35 2.35 6.3 2.1 8.35-.7 1.1-1.5 1.3-3.55.6-5.3l-.15-.35 1.4-1.4v-2.7h2v-2h2.65l.15-.15c.6-.6.6-1.5 0-2.1zm-11.3 12.75c.55 0 1 .45 1 1s-.45 1-1 1-1-.45-1-1 .45-1 1-1z" fill="#262626" fill-rule="evenodd"/></svg>