<svg height="24" width="24" xmlns="http://www.w3.org/2000/svg"><path d="m12 1c-6.05 0-11 4.9-11 11s4.9 11 11 11 11-4.9 11-11-4.9-11-11-11zm9.45 10.25h-2.5c-.15-3-1.05-5.7-2.4-7.55 2.75 1.5 4.65 4.3 4.9 7.55zm-10.2-8.65v8.65h-4.75c.25-4.4 2.25-8.05 4.75-8.65zm0 10.15v8.65c-2.5-.6-4.5-4.25-4.75-8.65zm1.5 8.65v-8.65h4.75c-.25 4.4-2.25 8.05-4.75 8.65zm0-10.15v-8.65c2.5.6 4.5 4.25 4.75 8.65zm-5.3-7.55c-1.35 1.85-2.3 4.55-2.4 7.55h-2.5a9.426 9.426 0 0 1 4.9-7.55zm-4.9 9.05h2.5c.15 3 1.05 5.7 2.4 7.55a9.426 9.426 0 0 1 -4.9-7.55zm14.05 7.55c1.35-1.85 2.3-4.55 2.4-7.55h2.5a9.66 9.66 0 0 1 -4.9 7.55z" fill="#262626" fill-rule="evenodd"/></svg>