<svg width="24" height="24" xmlns="http://www.w3.org/2000/svg" xmlns:xlink="http://www.w3.org/1999/xlink"><defs><path d="M12 1C5.95 1 1 5.9 1 12s4.9 11 11 11 11-4.9 11-11S18.1 1 12 1zm9.45 10.25h-2.5c-.15-3-1.05-5.7-2.4-7.55 2.75 1.5 4.65 4.3 4.9 7.55zM11.25 2.6v8.65H6.5c.25-4.4 2.25-8.05 4.75-8.65zm0 10.15v8.65c-2.5-.6-4.5-4.25-4.75-8.65h4.75zm1.5 8.65v-8.65h4.75c-.25 4.4-2.25 8.05-4.75 8.65zm0-10.15V2.6c2.5.6 4.5 4.25 4.75 8.65h-4.75zM7.45 3.7c-1.35 1.85-2.3 4.55-2.4 7.55h-2.5a9.426 9.426 0 014.9-7.55zm-4.9 9.05h2.5c.15 3 1.05 5.7 2.4 7.55a9.426 9.426 0 01-4.9-7.55zM16.6 20.3c1.35-1.85 2.3-4.55 2.4-7.55h2.5a9.66 9.66 0 01-4.9 7.55z" id="a"/></defs><use xlink:href="#a" fill-rule="evenodd"/></svg>