<svg width="24" height="24" xmlns="http://www.w3.org/2000/svg"><path d="M12 1C5.925 1 1 5.925 1 12s4.925 11 11 11 11-4.925 11-11A11 11 0 0012 1zm8.4 9.75h-1.445a15.205 15.205 0 00-1.185-4.97 8.465 8.465 0 012.63 4.97zM10.75 3.9v6.85H7.56a11.67 11.67 0 011.6-5.185A5.16 5.16 0 0110.75 3.9zm0 9.35v6.85a5.16 5.16 0 01-1.59-1.665 11.67 11.67 0 01-1.6-5.185h3.19zm2.5 6.85v-6.85h3.19a11.67 11.67 0 01-1.6 5.185 5.16 5.16 0 01-1.59 1.665zm0-9.35V3.9a5.16 5.16 0 011.59 1.665 11.67 11.67 0 011.6 5.185h-3.19zm-7-4.97a15.205 15.205 0 00-1.185 4.97h-1.46A8.43 8.43 0 016.23 5.78h.02zm-2.645 7.47h1.44a15.205 15.205 0 001.185 4.97 8.43 8.43 0 01-2.625-4.97zm14.165 4.97a15.205 15.205 0 001.185-4.97H20.4a8.465 8.465 0 01-2.63 4.97z" fill-rule="evenodd"/></svg>