<svg height="24" width="24" xmlns="http://www.w3.org/2000/svg" xmlns:xlink="http://www.w3.org/1999/xlink"><filter id="a"><feColorMatrix in="SourceGraphic" values="0 0 0 0 0.149020 0 0 0 0 0.149020 0 0 0 0 0.149020 0 0 0 1.000000 0"/></filter><g fill="none" fill-rule="evenodd" filter="url(#a)"><path d="m0 0h24v24h-24z"/><path d="m12 1c-6.075 0-11 4.925-11 11s4.925 11 11 11 11-4.925 11-11a11 11 0 0 0 -11-11zm8.4 9.75h-1.445a15.205 15.205 0 0 0 -1.185-4.97 8.465 8.465 0 0 1 2.63 4.97zm-9.65-6.85v6.85h-3.19a11.67 11.67 0 0 1 1.6-5.185 5.16 5.16 0 0 1 1.59-1.665zm0 9.35v6.85a5.16 5.16 0 0 1 -1.59-1.665 11.67 11.67 0 0 1 -1.6-5.185zm2.5 6.85v-6.85h3.19a11.67 11.67 0 0 1 -1.6 5.185 5.16 5.16 0 0 1 -1.59 1.665zm0-9.35v-6.85a5.16 5.16 0 0 1 1.59 1.665 11.67 11.67 0 0 1 1.6 5.185zm-7-4.97a15.205 15.205 0 0 0 -1.185 4.97h-1.46a8.43 8.43 0 0 1 2.625-4.97zm-2.645 7.47h1.44a15.205 15.205 0 0 0 1.185 4.97 8.43 8.43 0 0 1 -2.625-4.97zm14.165 4.97a15.205 15.205 0 0 0 1.185-4.97h1.445a8.465 8.465 0 0 1 -2.63 4.97z" fill="#000" fill-rule="nonzero"/></g></svg>