<svg width="24" height="24" xmlns="http://www.w3.org/2000/svg"><path d="M12.678 20.095c-.343.401-1.016.4-1.355.001l-.06-.07-1.142.972.061.072a2.39 2.39 0 003.637 0l.035-.04-1.14-.976-.036.041zm1.976-2.31l1.14.974 1.94-2.268-1.14-.975-1.94 2.268zm-8.52-14.1l.277 1.474a4.086 4.086 0 012.466.311l.621-1.365a5.581 5.581 0 00-3.364-.42zm13.74 7.994l-1.34 1.567 1.14.975 1.34-1.567c.23-.27.437-.565.612-.874l-1.307-.737a4.055 4.055 0 01-.445.636zM14.721 4.01a6.213 6.213 0 00-.182.08l.62 1.365.136-.059a4.066 4.066 0 012.326-.23l.287-1.473a5.586 5.586 0 00-3.187.317zM3.665 11.016l-1.313.726c.18.324.394.631.635.914l1.315 1.536 1.14-.975-1.315-1.537a4.044 4.044 0 01-.462-.664zm17.14-2.396l1.49-.173a5.496 5.496 0 00-1.418-3.089l-1.106 1.014a3.998 3.998 0 011.034 2.248zM12 9.805h.001c.41-1.524 1.174-2.404 1.174-2.404L12 6.745l-1.176.656s.767.88 1.176 2.403v.001zM3.861 6.838a3.93 3.93 0 01.39-.49L3.152 5.326A5.519 5.519 0 001.71 8.402l1.49.188a3.988 3.988 0 01.662-1.75zm2.38 9.624l1.94 2.268 1.14-.975-1.94-2.269-1.14.976z" fill-rule="evenodd"/></svg>