<svg width="24" height="24" xmlns="http://www.w3.org/2000/svg"><path d="M7.436 14.782l-1.898 1.625 2.589 3.029 1.899-1.626-2.59-3.028zm4.9 4.946l-.036.042a.391.391 0 01-.3.126.383.383 0 01-.294-.121l-.384-.456-1.905 1.623.386.454a2.888 2.888 0 004.396 0l.362-.422-1.9-1.621-.325.375zm7.548-8.928c-.11.195-.241.383-.39.557l-1.664 1.946 1.898 1.625 1.666-1.947c.252-.295.477-.616.667-.953l.247-.435-2.18-1.23-.244.437zm-15.377.556a3.547 3.547 0 01-.404-.581l-.242-.438-2.188 1.21.243.439c.197.354.43.689.692.995l1.639 1.917 1.9-1.625-1.64-1.917zm9.443 6.485l1.9 1.624 2.589-3.028-1.9-1.625-2.59 3.029zM10.447 7.728c.007.009.7.827 1.07 2.208l.484 1.796.483-1.797c.37-1.381 1.064-2.198 1.07-2.205l.403-.465L12 6.174l-1.952 1.09.398.464zm9.28-.607c.317.464.518 1.003.583 1.558l.057.497 2.484-.29-.06-.497a5.988 5.988 0 00-.997-2.674 6.151 6.151 0 00-.548-.694l-.338-.368-1.843 1.69.339.369c.115.125.224.263.324.409zm-4.24-1.261a3.6 3.6 0 012.04-.203l.49.096.479-2.453-.491-.096a6.03 6.03 0 00-3.474.347h-.001l-.196.084-.457.206 1.029 2.27.58-.251zm-8.983-.207a3.565 3.565 0 012.165.273l.456.21L10.16 3.86l-.454-.208a6.059 6.059 0 00-.467-.191 6.037 6.037 0 00-3.198-.265l-.49.092.46 2.457.492-.092zM3.696 8.65a3.509 3.509 0 01.579-1.531v-.001c.102-.15.217-.295.342-.43l.34-.365-1.83-1.704-.34.366A6.008 6.008 0 001.215 8.34l-.061.496 2.482.31.06-.496z" fill="#000" fill-rule="evenodd"/></svg>