<svg width="24" height="24" xmlns="http://www.w3.org/2000/svg"><path d="M7.986 14.652a3.976 3.976 0 000-5.304l-1.125 1c.393.44.639 1.016.639 1.652a2.48 2.48 0 01-.639 1.653l1.125 1zm2.239 1.99a6.959 6.959 0 000-9.284l-1.119.994A5.475 5.475 0 0110.5 12c0 1.4-.53 2.675-1.394 3.647l1.119.995zM5 13a1 1 0 100-2 1 1 0 000 2zm14 1.5h1.5V13H19v1.5zm0-3.5h1.5V9.5H19V11zm-1.5 4.5H22v-7h-4.5v7zm-1.5 2H3.5c-.827 0-1.5-.674-1.5-1.5V8c0-.827.673-1.5 1.5-1.5H16v11zM17.5 7V5h-14a3 3 0 00-3 3v8a3 3 0 003 3h14v-2h6V7h-6z" fill="#000" fill-rule="evenodd"/></svg>