<svg width="24" height="24" xmlns="http://www.w3.org/2000/svg"><g fill-rule="evenodd"><path d="M17.501 15.5h4.5v-7h-4.5v7zm-7.275 1.142l-1.12-.995a5.466 5.466 0 000-7.295l1.12-.994A6.964 6.964 0 0112.001 12a6.964 6.964 0 01-1.775 4.642zm-2.24-1.99l-1.125-.999A2.48 2.48 0 007.501 12c0-.636-.247-1.212-.64-1.653l1.125-.999A3.977 3.977 0 019.001 12a3.977 3.977 0 01-1.015 2.652zM5.001 13a1 1 0 110-2 1 1 0 010 2zm12.5-6V5h-14a3 3 0 00-3 3v8a3 3 0 003 3h14v-2h6V7h-6z"/><path d="M19.001 11h1.5V9.5h-1.5zm0 3.5h1.5V13h-1.5z"/></g></svg>