<svg xmlns="http://www.w3.org/2000/svg" width="16" height="16" viewBox="0 0 310 310">
  <path d="M1186,1560.99V1526h35v34.99h-35Zm106.01,0V1526h35v34.99h-35Zm33.28-112H1187.73l-1.73,59.29,9.13,1.54q2.55-26.205,14.08-38.89c8.08-8.85,19.22-13.48,33.54-13.87v124.02c0,10.83-1.55,17.87-4.79,21.11q-4.11,4.155-13.95,5.1-2.91.24-9.95,0.24v9.48h84.89v-9.48c-4.69,0-8-.08-9.95-0.24q-9.825-.945-13.95-5.1c-3.24-3.24-4.8-10.28-4.8-21.11V1457.06c14.32,0.39,25.47,5.02,33.56,13.87q11.52,12.69,14.07,38.89l9.13-1.54Z" transform="translate(-1101 -1378)"/>
</svg>
