<svg width="24" height="24" xmlns="http://www.w3.org/2000/svg"><path d="M6.8 7l1.75 1.5H4.5c-.8 0-1.423.576-1.493 1.352L3 10v10c0 .8.576 1.423 1.352 1.493l.148.007h15c.8 0 1.423-.576 1.493-1.352L21 20V10c0-.8-.576-1.423-1.352-1.493L19.5 8.5h-4.05L17.2 7h2.3a3.01 3.01 0 012.995 2.824L22.5 10v10a3.01 3.01 0 01-2.824 2.995L19.5 23h-15a3.01 3.01 0 01-2.995-2.824L1.5 20V10a3.01 3.01 0 012.824-2.995L4.5 7h2.3zM13 17v2h-2v-2h2zm-1-9.5a1 1 0 110 2 1 1 0 010-2zm0-3c1.374 0 2.613.718 3.335 1.814l.115.186-1.15 1C13.9 6.65 13.05 6 12 6c-.984 0-1.793.527-2.22 1.335L9.7 7.5l-1.15-1c.65-1.2 2-2 3.45-2zm0-3a6.985 6.985 0 015.596 2.787l.154.213-1.15 1C15.65 4 13.95 3 12 3a5.357 5.357 0 00-4.472 2.351L7.4 5.55l-1.15-1A6.904 6.904 0 0112 1.5z" fill="#000" fill-rule="evenodd"/></svg>