<svg height="24" width="24" xmlns="http://www.w3.org/2000/svg"><path d="m6.8 7 1.75 1.5h-4.05c-.85 0-1.5.65-1.5 1.5v10c0 .85.65 1.5 1.5 1.5h15c.85 0 1.5-.65 1.5-1.5v-10c0-.85-.65-1.5-1.5-1.5h-4.05l1.75-1.5h2.3c1.65 0 3 1.35 3 3v10c0 1.65-1.35 3-3 3h-15c-1.65 0-3-1.35-3-3v-10c0-1.65 1.35-3 3-3zm6.2 10v2h-2v-2zm-1-9.5a1 1 0 1 1 0 2 1 1 0 0 1 0-2zm0-3c1.45 0 2.75.8 3.45 2l-1.15 1c-.4-.85-1.25-1.5-2.3-1.5s-1.9.6-2.3 1.5l-1.15-1c.65-1.2 2-2 3.45-2zm0-3c2.4 0 4.5 1.2 5.75 3l-1.15 1c-.95-1.5-2.65-2.5-4.6-2.5s-3.65 1-4.6 2.55l-1.15-1a6.904 6.904 0 0 1 5.75-3.05z" fill="#262626" fill-rule="evenodd"/></svg>