<svg width="24" height="24" xmlns="http://www.w3.org/2000/svg"><path d="M9.561 19.006L12 21.447l2.44-2.44h1.674c1.017 0 1.948.395 2.636 1.052.732.697.99 1.413 1.144 2.234l.037.208H4.068c.165-.99.455-1.835 1.347-2.591a3.807 3.807 0 012.239-.896l.232-.007h1.675zM20.576 4.5c.962 2.544-1.409 4.275-3.567 3.954.413.8.643 1.729.643 2.745 0 3.18-2.27 6.585-5.651 6.585-3.38 0-5.652-3.405-5.652-6.585 0-1.016.23-1.946.644-2.745-2.16.321-4.53-1.409-3.569-3.954l.065.06.112.09a2.2 2.2 0 001.238.451c.215.007.41-.028.598-.076l.414-.117c.412-.115.83-.185 1.39.119.64.347.935 1.217 1.065 1.795.97-.805 2.244-1.274 3.695-1.274 1.45 0 2.724.469 3.694 1.274.13-.578.424-1.448 1.064-1.795.498-.27.884-.245 1.253-.156l.552.154c.188.048.383.083.598.076a2.2 2.2 0 001.238-.45l.112-.09.064-.06zM12 8.804l-.106.221c-.508.993-1.658 2.415-4.027 2.61.183 2.321 1.796 4.648 4.133 4.648 2.336 0 3.95-2.327 4.133-4.648-2.551-.21-3.688-1.843-4.133-2.83z" fill="#000" fill-rule="evenodd"/></svg>