<svg width="24" height="24" xmlns="http://www.w3.org/2000/svg"><path d="M18.83 6.5c.681 0 1.284.422 1.52 1.048l.045.137.29 1.03a2.918 2.918 0 011.808 2.498l.007.202V13.5h1V16h-1v2.585a2.92 2.92 0 01-1.636 2.622l-.174.078-.29 1.03a1.633 1.633 0 01-1.421 1.179l-.144.006H14.67a1.624 1.624 0 01-1.52-1.048l-.045-.137-.29-1.03a2.918 2.918 0 01-1.808-2.498L11 18.585v-7.17a2.92 2.92 0 011.636-2.622l.174-.078.29-1.03a1.633 1.633 0 011.421-1.179l.144-.006h4.165zM10.9.5a3.103 3.103 0 013.095 2.924L14 3.6v1.485c-.499.11-.955.337-1.34.66l-.16.145V3.6c0-.831-.642-1.52-1.455-1.593L10.9 2H9.5v1.5H6V2H4.6c-.831 0-1.52.642-1.593 1.455L3 3.6v14.3c0 .831.642 1.52 1.455 1.593l.145.007h5c.096.454.261.88.484 1.27l.141.23H4.6a3.103 3.103 0 01-3.095-2.924L1.5 17.9V3.6A3.103 3.103 0 014.424.505L4.6.5h6.3zm8.685 9.5h-5.67c-.734 0-1.34.562-1.409 1.279l-.006.136v7.17c0 .734.562 1.34 1.279 1.409l.136.006h5.67c.734 0 1.34-.562 1.409-1.279l.006-.136v-7.17c0-.734-.562-1.34-1.279-1.409L19.585 10zM7.75 16a1.25 1.25 0 110 2.5 1.25 1.25 0 010-2.5z" fill="#000" fill-rule="evenodd"/></svg>