<svg xmlns="http://www.w3.org/2000/svg" width="24" height="24">
    <path fill="#262626" fill-rule="evenodd" d="M18.83 6.5c.73 0 1.37.485 1.565 1.185l.29 1.03a2.917 2.917 0 011.815 2.7V13.5h1V16h-1v2.585a2.92 2.92 0 01-1.81 2.7l-.29 1.03c-.2.7-.84 1.185-1.565 1.185H14.67c-.73 0-1.37-.485-1.565-1.185l-.29-1.03a2.917 2.917 0 01-1.815-2.7v-7.17c0-1.22.75-2.265 1.81-2.7l.29-1.03c.2-.7.84-1.185 1.565-1.185zM10.9.5C12.61.5 14 1.89 14 3.6v1.485a3.12 3.12 0 00-1.5.805V3.6c0-.88-.72-1.6-1.6-1.6H9.5v1.5H6V2H4.6C3.72 2 3 2.72 3 3.6v14.3c0 .88.72 1.6 1.6 1.6h5c.115.545.33 1.05.625 1.5H4.6c-1.71 0-3.1-1.39-3.1-3.1V3.6C1.5 1.89 2.89.5 4.6.5zm8.685 9.5h-5.67c-.78 0-1.415.635-1.415 1.415v7.17c0 .78.635 1.415 1.415 1.415h5.67c.78 0 1.415-.635 1.415-1.415v-7.17c0-.78-.635-1.415-1.415-1.415zM7.75 16a1.25 1.25 0 110 2.5 1.25 1.25 0 010-2.5z"/>
</svg>
