<svg xmlns="http://www.w3.org/2000/svg" width="24" height="24">
    <path fill="#262626" fill-rule="evenodd" d="M18.83 6.5c.728 0 1.368.484 1.565 1.185l.29 1.03a2.915 2.915 0 011.815 2.7V13.5h1V16h-1v2.585a2.915 2.915 0 01-1.815 2.7l-.29 1.03A1.625 1.625 0 0118.83 23.5h-4.16a1.625 1.625 0 01-1.565-1.185l-.29-1.03a2.915 2.915 0 01-1.815-2.7v-7.17c0-1.185.717-2.253 1.815-2.7l.29-1.03A1.625 1.625 0 0114.67 6.5zM10.9.5A3.105 3.105 0 0114 3.58v1.5a3.13 3.13 0 00-2.34 2.2l-.115.415a4.41 4.41 0 00-2.045 3.72v7.17A4.36 4.36 0 0010.225 21H4.6a3.105 3.105 0 01-3.1-3.1V3.6A3.105 3.105 0 014.6.5zm8.685 9.5h-5.67c-.781 0-1.415.634-1.415 1.415v7.17c0 .781.634 1.415 1.415 1.415h5.67c.781 0 1.415-.634 1.415-1.415v-7.17c0-.781-.634-1.415-1.415-1.415zM7.75 16a1.25 1.25 0 100 2.5 1.25 1.25 0 000-2.5zm0 .5a.75.75 0 110 1.5.75.75 0 010-1.5zM9.5 2.25H6v1h3.5v-1z"/>
</svg>
