<svg width="24" height="24" xmlns="http://www.w3.org/2000/svg"><path d="M18.83 6.5c.728 0 1.368.484 1.565 1.185l.29 1.03a2.915 2.915 0 011.815 2.7V13.5h1V16h-1v2.585a2.915 2.915 0 01-1.815 2.7l-.29 1.03A1.625 1.625 0 0118.83 23.5h-4.16a1.625 1.625 0 01-1.565-1.185l-.29-1.03a2.915 2.915 0 01-1.815-2.7v-7.17c0-1.185.717-2.253 1.815-2.7l.29-1.03A1.625 1.625 0 0114.67 6.5zM10.9.5a3.105 3.105 0 013.093 2.899L14 3.58v1.5a3.13 3.13 0 00-2.278 2.007l-.062.193-.115.415a4.41 4.41 0 00-2.039 3.483l-.006.237v7.17a4.36 4.36 0 00.59 2.197l.135.218H4.6a3.105 3.105 0 01-3.095-2.924L1.5 17.9V3.6A3.105 3.105 0 014.424.505L4.6.5h6.3zm8.685 9.5h-5.67c-.781 0-1.415.634-1.415 1.415v7.17c0 .781.634 1.415 1.415 1.415h5.67c.781 0 1.415-.634 1.415-1.415v-7.17c0-.781-.634-1.415-1.415-1.415zM7.75 16a1.25 1.25 0 100 2.5 1.25 1.25 0 000-2.5zm0 .5a.75.75 0 110 1.5.75.75 0 010-1.5zM9.5 2.25H6v1h3.5v-1z" fill="#000" fill-rule="evenodd"/></svg>