<svg width="24" height="24" xmlns="http://www.w3.org/2000/svg"><path d="M12 .5a3 3 0 012.98 2.65l.015.174V6h-1.5V3.375a1.501 1.501 0 00-1.359-1.369L12 2l-2 .002V3.5H6V2.004l-2.125.001a1.5 1.5 0 00-1.369 1.358L2.5 3.5l.005 17.125a1.5 1.5 0 001.358 1.369L4 22l8.125-.005a1.5 1.5 0 001.369-1.358l.006-.137-.001-3.5h1.5v3.5a3 3 0 01-2.65 2.98l-.173.015L4 23.5a3 3 0 01-2.98-2.65l-.015-.174L1 3.5A3.002 3.002 0 013.65.52l.174-.015L12 .5zm-4 18A1.25 1.25 0 118 21a1.25 1.25 0 010-2.5zm13.5-11v5l-.005.176a3.005 3.005 0 01-2.82 2.819l-.175.005h-14l2-2v-6h15zm-4.02 1.711c-.917 0-1.526.706-1.526 1.476 0 .712.506 1.38 1.287 1.456l.15.007h.045l.013.012-1.111 1.438h1.008l1.129-1.469.1-.14c.254-.375.427-.774.427-1.304 0-.77-.61-1.476-1.521-1.476zm-2.454.103h-.782l-1.912 2.451v.981h1.867v.854h.827v-.854h.456v-.77h-.456V9.314zm-4.46.674h-.705v1.116H8.745v.706H9.86v1.116h.706V11.81h1.116v-.706h-1.116V9.988zm3.633.686v1.302h-1.072v-.031l1.033-1.271h.039zM17.48 10c.404 0 .68.308.68.687 0 .378-.276.667-.68.667a.645.645 0 01-.674-.667c0-.379.263-.687.674-.687z" fill="#000" fill-rule="evenodd"/></svg>