<svg width="24" height="24" xmlns="http://www.w3.org/2000/svg"><path d="M12.48 1.44a2.88 2.88 0 012.875 2.71l.005.17v2.4h-1.44v-2.4c0-.747-.572-1.363-1.302-1.433l-.138-.007h-1.92v1.44H6.72V2.88H4.8c-.747 0-1.363.572-1.433 1.302l-.007.138v16.32c0 .747.572 1.363 1.302 1.433l.138.007h7.68c.747 0 1.363-.572 1.433-1.302l.007-.138v-3.36h1.44v3.36a2.88 2.88 0 01-2.71 2.875l-.17.005H4.8a2.88 2.88 0 01-2.875-2.71l-.005-.17V4.32a2.88 2.88 0 012.71-2.875l.17-.005h7.68zM8.64 18.72a1.2 1.2 0 110 2.4 1.2 1.2 0 010-2.4zM22.56 8.16v4.8a2.883 2.883 0 01-2.88 2.88H5.28l1.92-1.922V8.16h15.36zm-7.176 1.741h-.75l-1.836 2.353v.942h1.792v.82h.794v-.82h.438v-.739h-.438V9.901zm2.357-.098c-.881 0-1.466.677-1.466 1.416 0 .727.548 1.405 1.38 1.405h.043l.012.012-1.066 1.38h.967l1.085-1.41c.295-.401.505-.814.505-1.387 0-.74-.586-1.416-1.46-1.416zm-6.638.745h-.677v1.071H9.354v.678h1.072v1.071h.677v-1.07h1.072v-.679h-1.072v-1.071zm3.487.659v1.25h-1.029v-.03l.992-1.22h.037zm3.15-.647a.64.64 0 01.654.659c0 .363-.265.64-.653.64a.62.62 0 01-.647-.64c0-.363.253-.659.647-.659z" fill="#000" fill-rule="evenodd"/></svg>