<svg width="24" height="24" xmlns="http://www.w3.org/2000/svg"><path d="M12.001.5a3 3 0 012.995 2.824l.005.176V6H23v6.5a4.5 4.5 0 01-4.288 4.495L18.5 17h-3.499v3.5a3 3 0 01-2.823 2.994L12 23.5h-8a3 3 0 01-2.994-2.824L1 20.5v-17A3 3 0 013.825.505L4.001.5h8zm-4 18a1.25 1.25 0 100 2.5 1.25 1.25 0 000-2.5zm13.5-11H6.502v6l-2 2h14a3.003 3.003 0 002.994-2.824l.005-.176v-5zm-4.019 1.71c.911 0 1.521.706 1.521 1.476 0 .53-.173.93-.427 1.305l-.1.14-1.129 1.468H16.34l1.11-1.437-.013-.013h-.045c-.866 0-1.437-.705-1.437-1.463 0-.77.61-1.475 1.527-1.475zm-2.454.103v2.663h.455v.77h-.455v.853H14.2v-.853h-1.867v-.982l1.912-2.45h.783zm-4.46.674v1.116h1.116v.706h-1.116v1.116h-.706V11.81H8.746v-.706h1.116V9.987h.706zm3.632.687h-.038l-1.033 1.27v.032H14.2v-1.302zM17.482 10c-.41 0-.673.308-.673.686 0 .372.263.668.673.668.405 0 .68-.29.68-.668a.666.666 0 00-.68-.686zm-7.48-8h-4v1.5h4V2z" fill="#000" fill-rule="evenodd"/></svg>