<svg xmlns="http://www.w3.org/2000/svg" width="24" height="24">
    <path fill="#262626" fill-rule="evenodd" d="M21 1.5V5h.75c.95 0 1.75.8 1.75 1.75V9H22v13.5H2V9H.5V6.75C.5 5.8 1.3 5 2.25 5H3V1.5h18zM20.5 9h-17v12h17V9zM15 11l.1 2.65-.4.05c-.05-.8-.25-1.35-.6-1.75-.4-.4-.85-.6-1.5-.6v5.55c0 .5.05.8.2.95.1.15.3.2.6.25h.45v.4h-3.7v-.35c.3 0 .5 0 .65-.05.3-.05.5-.25.55-.5.05-.15.05-.35.05-.65V11.4c-.6 0-1.1.2-1.45.6-.35.35-.55.95-.6 1.7l-.4-.05L9 11h6zm.1 3.45v1.5h-1.55v-1.5h1.55zm-4.65 0v1.5H8.9v-1.5h1.55zM19.5 3h-15v2h15V3z"/>
</svg>
