<svg xmlns="http://www.w3.org/2000/svg" width="24" height="24">
    <path fill="#262626" fill-rule="evenodd" d="M22.884 5.302h-.837V.558H1.953v4.744h-.837C.5 5.302 0 5.802 0 6.42v3.348h1.674v13.396h20.652V9.767H24V6.42c0-.617-.5-1.117-1.116-1.117zM3.628 2.232h16.744v3.07H3.628v-3.07zm10.437 18.42h-4.13v-.475c.244.008.49-.007.731-.045a.72.72 0 00.603-.558 2.79 2.79 0 00.067-.714v-6.18a2.182 2.182 0 00-1.641.715 3.349 3.349 0 00-.692 1.937l-.447-.072.084-2.959h6.698l.083 2.959-.446.072a3.349 3.349 0 00-.675-1.937 2.233 2.233 0 00-1.675-.692v6.151c-.047.369.038.743.24 1.055.192.162.435.251.687.251h.49l.023.491zM8.567 17.86v-1.73h1.714v1.73H8.567zm6.888 0H13.74v-1.73h1.714v1.73z"/>
</svg>
