<svg width="24" height="24" xmlns="http://www.w3.org/2000/svg"><path d="M5.355 11.5c.204.424.44.832.705 1.216l.205.284H2v6.145c0 .17.122.314.284.348l.071.007h7.815L12 21.33V16.4c.41.06.825.1 1.255.105l.25-.015v5.85a1.081 1.081 0 01-1.753.852l-.097-.087L9.55 21H2.355a1.854 1.854 0 01-1.85-1.71L.5 19.145V11.5h4.855zM19.5 10.06l4 2.345v1.83l-2.51-.635v6.255c0 1.955-1.378 2.367-2.27 2.358l-.19-.008c-1.345-.11-2.425-1.055-2.41-2.155.02-1.1 1.12-1.92 2.47-1.83.24.019.474.066.695.134l.215.076v-8.37zM13.25.5a7.249 7.249 0 017.25 7.25c0 .281-.023.56-.057.833l-.038.272-1.42-.835c.005-.09.015-.18.015-.27C19 4.58 16.42 2 13.25 2S7.5 4.58 7.5 7.75s2.58 5.75 5.75 5.75a5.75 5.75 0 004.611-2.32l.139-.195v2.235A7.224 7.224 0 0113.25 15 7.249 7.249 0 016 7.75 7.249 7.249 0 0113.25.5zM11.5 5.17l4.615 2.665L11.5 10.5V5.17z" fill-rule="evenodd"/></svg>