<svg xmlns="http://www.w3.org/2000/svg" width="24" height="24">
    <path fill="#262626" fill-rule="evenodd" d="M5.355 11.5c.255.53.56 1.035.91 1.5H2v6.145c0 .195.16.355.355.355h7.815L12 21.33V16.4c.41.06.825.1 1.255.105.085 0 .165-.015.25-.015v5.85a1.081 1.081 0 01-1.85.765L9.55 21H2.355A1.854 1.854 0 01.5 19.145V11.5zM19.5 10.06l4 2.345v1.83l-2.51-.635v6.255c0 2.1-1.59 2.42-2.46 2.35-1.345-.11-2.425-1.055-2.41-2.155.02-1.1 1.12-1.92 2.47-1.83.32.025.63.1.91.21v-8.37zM13.25.5a7.249 7.249 0 017.25 7.25c0 .375-.04.745-.095 1.105l-1.42-.835c.005-.09.015-.18.015-.27C19 4.58 16.42 2 13.25 2S7.5 4.58 7.5 7.75s2.58 5.75 5.75 5.75c1.97 0 3.715-1 4.75-2.515v2.235A7.224 7.224 0 0113.25 15 7.249 7.249 0 016 7.75 7.249 7.249 0 0113.25.5zM11.5 5.17l4.615 2.665L11.5 10.5V5.17z"/>
</svg>
