<svg height="24" width="24" xmlns="http://www.w3.org/2000/svg"><path d="m5.355 11.5a8.76 8.76 0 0 0 7.895 5h.25v5.835a1.085 1.085 0 0 1 -1.85.77l-2.1-2.105h-7.195a1.855 1.855 0 0 1 -1.855-1.855v-7.645zm14.145-1.44 3.995 2.345v1.83l-2.5-.625v6.255c0 2.095-1.59 2.415-2.46 2.345-1.35-.11-2.43-1.055-2.415-2.155s1.12-1.92 2.47-1.83c.313.02.62.091.91.21zm-10.976-7.801a7.245 7.245 0 0 1 11.881 6.596l-.145-.085-2.26-1.325v5.775a7.245 7.245 0 1 1 -9.476-10.961zm2.976 2.911v5.33l4.615-2.665z" fill="#262626" fill-rule="evenodd"/></svg>