<svg xmlns="http://www.w3.org/2000/svg" width="24" height="24">
    <path fill="#262626" fill-rule="evenodd" d="M12 1c5.8 0 10.5 4.7 10.45 10.55 0 5.8-4.7 10.5-10.5 10.5-1.05 0-2.1-.15-3.05-.45l-1.45 1.45c-.35.35-.75.5-1.2.5-.9 0-1.75-.7-1.75-1.75v-2.95c-1.85-1.9-3-4.5-3-7.35C1.5 5.7 6.2 1 12 1zm0 1.5c-4.95 0-9 4.05-9 9 0 2.35.9 4.6 2.6 6.3l.45.45v3.55c0 .25.25.25.25.25.05 0 .1-.05.15-.1l2.1-2.1.85.25c.85.25 1.7.4 2.6.4 4.95 0 9-4.05 9-9s-4.05-9-9-9zm4.25 10c.45 0 .75.35.75.75s-.35.75-.75.75h-8.7c-.4 0-.75-.35-.75-.75s.35-.75.75-.75zm0-3.5c.45 0 .75.35.75.75s-.35.75-.75.75h-8.7c-.4 0-.75-.35-.75-.75S7.15 9 7.55 9z"/>
</svg>
