<svg width="24" height="24" xmlns="http://www.w3.org/2000/svg"><path d="M12 1c5.8 0 10.5 4.7 10.45 10.55 0 5.8-4.7 10.5-10.5 10.5a10.41 10.41 0 01-2.69-.345L8.9 21.6l-1.45 1.45c-.35.35-.75.5-1.2.5-.855 0-1.665-.632-1.744-1.595L4.5 21.8v-2.95c-1.85-1.9-3-4.5-3-7.35C1.5 5.7 6.2 1 12 1zm0 1.5c-4.95 0-9 4.05-9 9 0 2.243.82 4.395 2.373 6.065l.227.235.45.45v3.55c0 .188.14.234.21.246l.04.004c.037 0 .075-.028.112-.063L8.55 19.85l.85.25c.85.25 1.7.4 2.6.4 4.95 0 9-4.05 9-9s-4.05-9-9-9zm4.25 10c.45 0 .75.35.75.75a.772.772 0 01-.651.743L16.25 14h-8.7c-.4 0-.75-.35-.75-.75 0-.367.294-.691.651-.743l.099-.007h8.7zm0-3.5c.45 0 .75.35.75.75a.772.772 0 01-.651.743l-.099.007h-8.7c-.4 0-.75-.35-.75-.75 0-.367.294-.691.651-.743L7.55 9h8.7z" fill="#000" fill-rule="evenodd"/></svg>