<svg width="24" height="24" xmlns="http://www.w3.org/2000/svg"><path d="M17.75 11.5a6.25 6.25 0 110 12.5 6.25 6.25 0 010-12.5zm0 3a.75.75 0 00-.743.649L17 15.25v2.25h-1.833l2.583 3.945 2.582-3.945H18.5v-2.25a.75.75 0 00-.75-.75zM19 3v7.11a7.808 7.808 0 00-1.25-.11l-.25.013V7.152l-5.81 4.963a3.36 3.36 0 01-4.185.154l-.195-.154L1.5 7.152v7.378c0 .496.378.908.864.964l.114.007h7.856a7.71 7.71 0 00-.25 1.115l-.046.385h-7.56a2.475 2.475 0 01-2.473-2.309L0 14.53V3h19zm-1.5 1.5h-16v.679l6.784 5.795c.661.564 1.6.6 2.296.106l.135-.106L17.5 5.179V4.5z" fill-rule="evenodd"/></svg>