<svg width="24" height="24" xmlns="http://www.w3.org/2000/svg"><path d="M17.75 11.5a6.25 6.25 0 110 12.5 6.25 6.25 0 010-12.5zm0 1.5A4.756 4.756 0 0013 17.75a4.756 4.756 0 004.75 4.75 4.756 4.756 0 004.75-4.75A4.756 4.756 0 0017.75 13zm0 1.5a.75.75 0 01.743.648l.007.102v2.25h1.833l-2.583 3.945-2.582-3.945H17v-2.25a.75.75 0 01.75-.75zM19 5.87v4.24a7.798 7.798 0 00-1.25-.11c-3.935 0-7.192 2.947-7.684 6.75l-.028.25h-7.56a2.475 2.475 0 01-2.473-2.308L0 14.529V5.87l7.31 6.244a3.366 3.366 0 004.21.136l.17-.136L19 5.87zM19 3v.896l-8.284 7.078c-.677.579-1.754.579-2.431 0L0 3.896V3h19z" fill="#000" fill-rule="evenodd"/></svg>