<svg width="24" height="24" xmlns="http://www.w3.org/2000/svg"><path d="M17.75 11.5a6.25 6.25 0 110 12.499 6.25 6.25 0 010-12.5zm-3.53 4.274a4.006 4.006 0 00-.52 1.976 4.054 4.054 0 004.05 4.05c.628 0 1.221-.145 1.752-.401l.224-.117-5.507-5.508zm3.53-2.073c-.628 0-1.222.144-1.752.4l-.224.117 5.508 5.509a4.034 4.034 0 00.518-1.977 4.054 4.054 0 00-4.05-4.05zM19 2.998v7.111a7.685 7.685 0 00-1.25-.11l-.125.005-.125.007v-2.86l-5.81 4.962a3.357 3.357 0 01-4.185.154l-.195-.153L1.5 7.151v7.378c0 .496.378.907.864.963l.114.006h7.856c-.11.363-.193.735-.249 1.116l-.047.385h-7.56a2.475 2.475 0 01-2.473-2.308L0 14.53V3h19zm-1.5 1.5h-16v.68l6.785 5.794c.66.565 1.6.601 2.295.106l.136-.106L17.5 5.178V4.5z" fill="#000" fill-rule="evenodd"/></svg>