<svg width="24" height="24" xmlns="http://www.w3.org/2000/svg"><path d="M17.75 11.498a6.25 6.25 0 110 12.498 6.25 6.25 0 010-12.498zm-3.53 4.274a4.016 4.016 0 00-.518 1.975 4.054 4.054 0 004.049 4.05c.628 0 1.221-.145 1.752-.401l.224-.117-5.507-5.507zm3.53-2.073c-.627 0-1.221.145-1.752.4l-.223.117 5.507 5.507a4.018 4.018 0 00.519-1.976 4.054 4.054 0 00-4.05-4.048zm1.248-7.83v4.239a7.76 7.76 0 00-1.247-.11 7.749 7.749 0 00-7.683 6.75l-.028.249H2.478A2.474 2.474 0 01.005 14.69L0 14.528v-8.66l7.309 6.245a3.376 3.376 0 004.208.136l.17-.136 7.31-6.244zm0-2.87v.898l-8.283 7.076c-.636.542-1.621.576-2.3.102l-.131-.102L0 3.897v-.898h18.998z" fill="#000" fill-rule="evenodd"/></svg>