<svg width="24" height="24" xmlns="http://www.w3.org/2000/svg"><path d="M16 .5a3.01 3.01 0 012.995 2.824L19 3.5v17a3.01 3.01 0 01-2.824 2.995L16 23.5H8a3.01 3.01 0 01-2.995-2.824L5 20.5v-17A3.01 3.01 0 017.824.505L8 .5h8zM10 2H8c-.8 0-1.423.576-1.493 1.352L6.5 3.5v17c0 .8.576 1.423 1.352 1.493L8 22h8c.8 0 1.423-.576 1.493-1.352l.007-.148V7.9L12.2 11l3.95 2.1-6.05 3.7-.8-1.3 3.8-2.35L9.05 11l8.45-4.8V3.5c0-.8-.576-1.423-1.352-1.493L16 2h-2v1.5h-4V2zm2 16.5a1.25 1.25 0 110 2.5 1.25 1.25 0 010-2.5z" fill-rule="evenodd"/></svg>