<svg width="24" height="24" xmlns="http://www.w3.org/2000/svg"><path d="M12.003 12.597c1.2 0 2.1-1.25 2.1-2.5s-.95-2.1-2.1-2.1c-1.15 0-2.1.85-2.1 2.1s.9 2.5 2.1 2.5zm-7.498 8.398V2.999h13.497c.849 0 1.499.65 1.499 1.5v9.469c.524.072 1.028.22 1.5.436V4.499a3.008 3.008 0 00-2.999-3H3.005v20.995h7.854a4.137 4.137 0 01-.346-1.5H4.505zm3.849-6.2l-.1.7h5.176a3.883 3.883 0 012.153-.77c-.175-.763-.806-1.328-1.58-1.328h-.8l-1.2 1.2-1.15-1.15h-.85c-.799 0-1.499.549-1.649 1.349zm14.068 3.163a3.876 3.876 0 00-3.648-2.543c-.893 0-1.753.308-2.445.87a2.409 2.409 0 00-2.964 2.198 2.68 2.68 0 00-1.362 2.33 2.683 2.683 0 002.68 2.68h6.382A2.938 2.938 0 0024 20.56a2.942 2.942 0 00-1.578-2.601z" fill-rule="evenodd"/></svg>