<svg width="24" height="24" xmlns="http://www.w3.org/2000/svg"><path d="M12.25 16.5l2.85 2.75 2.75-2.75h1.6c1.883 0 3.532 1.305 3.914 3.15l.036.2.1.65H6.6l.1-.65c.29-1.883 1.884-3.253 3.75-3.345l.2-.005h1.6zm-5.4 0c-.375.375-.68.785-.946 1.23L5.75 18H4.5c-.897 0-1.66.58-1.87 1.445l-.03.155-.15.9H.95l.2-1.15c.24-1.589 1.594-2.76 3.168-2.845L4.5 16.5h2.35zm8.2-11.75C18 4.75 20.1 6.9 20.1 9.8c0 2.8-2.05 5.85-5.05 5.85C12 15.65 10 12.6 10 9.8c0-2.95 2.1-5.05 5.05-5.05zm-7 1.15c.55 0 1.05.1 1.5.25-.25.4-.5.85-.65 1.35-.25-.05-.55-.1-.85-.1-1.7 0-2.85 1.2-2.85 2.85 0 1.7 1.15 3.5 2.85 3.5.5 0 .9-.15 1.3-.4.25.45.5.85.8 1.25-.6.4-1.3.65-2.1.65-2.6 0-4.35-2.6-4.35-5 0-2.5 1.9-4.35 4.35-4.35z" fill-rule="evenodd"/></svg>