<svg width="24" height="24" xmlns="http://www.w3.org/2000/svg"><path d="M12 4.75c3.257 0 5 2.25 8.499 2.25.162 0 .318-.004.466-.004.954 0 1.805.026 2.407.62.563.556.628 1.368.628 1.968 0 6.48-5.093 6.224-5.21 6.28-.925 1.348-2.31 2.325-4.376 3.111a6.791 6.791 0 01-4.828 0c-2.067-.786-3.451-1.763-4.377-3.112C5.11 15.816 0 16.093 0 9.585c0-.6.065-1.412.628-1.968.602-.594 1.423-.62 2.407-.62.148 0 .304.004.466.004C7.001 7 8.743 4.75 12 4.75zm0 1.5c-1.284 0-2.305.448-3.486.968-1.016.446-2.132.937-3.499 1.16.14 5.841 1.276 7.739 5.105 9.195a5.27 5.27 0 001.88.345c.647 0 1.28-.116 1.88-.345 3.829-1.456 4.965-3.354 5.104-9.195-1.366-.223-2.483-.714-3.498-1.16-1.181-.52-2.202-.968-3.486-.968zm-3.671 6.915a.751.751 0 011.006-.336c.008.004 1.084.521 2.665.521s2.657-.517 2.668-.522a.749.749 0 01.668 1.343c-.056.027-1.382.679-3.336.679-1.71 0-2.939-.499-3.256-.642l-.066-.03-.014-.008a.75.75 0 01-.335-1.005zM3.514 8.5c-.989 0-1.56-.028-1.811.192-.17.148-.203.392-.203.892 0 2.645.966 4.204 2.87 4.651-.555-1.494-.794-3.36-.856-5.735zm17.566 0h-.594c-.063 2.374-.302 4.241-.856 5.735 1.904-.447 2.87-2.006 2.87-4.651 0-.542-.033-.789-.239-.928-.204-.138-.586-.156-1.181-.157zM12 9.25c1.12 0 2.319.19 3.095.34l.27.055c.33.069.54.12.567.127a.75.75 0 01-.181 1.477c-.234 0-1.97-.5-3.751-.5-1.633 0-3.55.473-3.569.478a.75.75 0 01-.363-1.455c.085-.021 2.11-.522 3.932-.522z" fill="#000" fill-rule="evenodd"/></svg>