<svg width="24" height="24" xmlns="http://www.w3.org/2000/svg"><path d="M12 4.75c3.257 0 5 2.25 8.499 2.25.162 0 .318-.004.466-.004.954 0 1.805.026 2.407.62.563.556.628 1.368.628 1.968 0 6.48-5.093 6.224-5.21 6.28-.925 1.348-2.31 2.325-4.376 3.111a6.791 6.791 0 01-4.828 0c-2.066-.786-3.451-1.763-4.376-3.112-.101-.048-5.21.229-5.21-6.279 0-.6.065-1.412.629-1.968.602-.594 1.422-.62 2.407-.62.148 0 .303.004.465.004C7.001 7 8.744 4.75 12 4.75zm-3.671 8.415a.75.75 0 00.336 1.006l.013.006.066.03c.317.144 1.546.643 3.256.643 1.954 0 3.28-.652 3.336-.679a.749.749 0 00.335-1.002.752.752 0 00-1.003-.341c-.011.005-1.087.522-2.668.522-1.581 0-2.656-.517-2.664-.521a.751.751 0 00-1.007.335zM3.514 8.5c-.989 0-1.56-.028-1.811.192-.17.148-.203.392-.203.892 0 2.645.966 4.204 2.87 4.651-.554-1.494-.793-3.36-.856-5.735zm17.566 0h-.594c-.062 2.374-.301 4.241-.856 5.735 1.904-.447 2.87-2.006 2.87-4.651 0-.542-.033-.789-.239-.928-.204-.138-.586-.156-1.181-.157zM12 9.25c-1.822 0-3.846.501-3.932.522a.75.75 0 00.364 1.455c.019-.005 1.934-.478 3.568-.478 1.78 0 3.517.5 3.75.5a.75.75 0 00.182-1.477c-.026-.006-.236-.058-.567-.127l-.27-.054C14.319 9.44 13.12 9.25 12 9.25z" fill="#000" fill-rule="evenodd"/></svg>