<svg width="24" height="24" xmlns="http://www.w3.org/2000/svg"><path d="M23.383 7.656c-.588-.554-1.41-.554-2.356-.554h-.456c-3.428 0-5.138-2.204-8.326-2.204-3.189 0-4.898 2.204-8.327 2.204h-.455c-.95 0-1.768 0-2.356.558A2.743 2.743 0 00.49 9.62c0 3.717 1.748 5.877 4.922 6.137h.181c.907 1.347 2.244 2.307 4.286 3.1a6.671 6.671 0 004.732 0c2.022-.769 3.38-1.729 4.285-3.046h.182c3.173-.24 4.898-2.42 4.898-6.138a2.743 2.743 0 00-.593-2.017zM1.959 9.634c0-.68.123-.876.177-.93.151-.133.74-.133 1.293-.133h.49c.063 2.327.288 4.154.832 5.618-1.847-.436-2.792-1.964-2.792-4.555zm13.553 4.492a7.807 7.807 0 01-3.267.666 7.807 7.807 0 01-3.267-.666.735.735 0 11.656-1.313c.828.34 1.716.507 2.61.49a6.534 6.534 0 002.612-.49.735.735 0 01.656 1.313zm1.121-3.429a.74.74 0 01-.715.568.72.72 0 01-.176 0 17.143 17.143 0 00-3.497-.49c-1.18.043-2.351.207-3.497.49a.737.737 0 11-.353-1.43 18.612 18.612 0 013.85-.49c1.297.029 2.587.193 3.85.49a.74.74 0 01.558.872l-.02-.01zm3.086 3.483c.544-1.47.77-3.292.833-5.618h.49c.568 0 1.156 0 1.307.137.054.054.177.25.177.93.005 2.596-.94 4.124-2.807 4.56v-.01z" fill="#000" fill-rule="evenodd"/></svg>