<svg width="24" height="24" xmlns="http://www.w3.org/2000/svg"><path d="M3.5 20a2 2 0 110 4 2 2 0 010-4zM23.94.456a.75.75 0 01-.304.939l-.09.046-2.271.973a1.5 1.5 0 00-.882 1.092l-.021.147-.62 6.61a7.753 7.753 0 00-9.251 4.741l-5.886-.38a2.986 2.986 0 01-2.77-2.527l-.023-.183-.897-9.412h18.24a2.998 2.998 0 011.32-1.372l.198-.094L22.954.06a.75.75 0 01.985.394zm-6.19 11.046a6.25 6.25 0 110 12.499 6.25 6.25 0 010-12.5zm3.143 4.035a.75.75 0 00-.976-.073l-.085.073-2.819 2.819-1.408-1.409a.75.75 0 00-1.133.976l.072.085 2.47 2.469 3.879-3.88a.75.75 0 000-1.06zM2.75 17.5h7.262l-.007.286.002.226c0 .04.003.083.005.128l.023.295c.01.108.025.227.043.358l.032.207H2.75a.75.75 0 01-.102-1.494l.102-.006z" fill-rule="evenodd"/></svg>