<svg width="24" height="24" xmlns="http://www.w3.org/2000/svg"><path d="M3.5 20a2 2 0 110 4 2 2 0 010-4zm14.25-8.5a6.25 6.25 0 110 12.5 6.25 6.25 0 010-12.5zm0 1.5a4.75 4.75 0 100 9.5 4.75 4.75 0 000-9.5zm2.085 2.535a.745.745 0 011.045.025.755.755 0 01.072.976l-.072.084L17 20.5 14.545 18a.75.75 0 01.952-1.114l.093.059 1.41 1.41 2.835-2.82zM10 17.5v.25c.003.314.024.628.064.94l.046.31H2.75a.75.75 0 01-.102-1.493l.102-.007H10zM22.955.06a.75.75 0 01.68 1.334l-.09.046-2.27.975a1.5 1.5 0 00-.883 1.088l-.022.147-.62 6.595a7.955 7.955 0 00-1.12-.21L18.25 10h-.5l-.183.001c-.12.002-.235.009-.35.029l-.172.04h-.2l-.272.039-.268.046-.16.03-.321.074-.314.086-.205.07-.43.155-.235.1-.237.109-.233.116-.31.175-.3.185-.147.094-.143.101-.21.155c-.148.112-.291.23-.43.352l-.205.188-.035.03-.162.16-.158.165-.07.09a7.955 7.955 0 00-.711.876l-.209.314v.04l-.129.225-.121.225-6.165-.395a2.255 2.255 0 01-2.073-1.872l-.022-.163-.82-8.59h17.17a3 3 0 011.584-2.13l.181-.085 2.27-.975z" fill="#000" fill-rule="evenodd"/></svg>