<svg width="24" height="24" xmlns="http://www.w3.org/2000/svg"><path d="M8.965 18.196a.141.141 0 01.235.078v.047l-.48 3.063a1.227 1.227 0 01-1.401 1.023c-.974-.152-1.365-1.319-.728-2.027l.089-.09 2.285-2.094zm-1.25-4.16a.142.142 0 01.235.079v.047l-.53 3.386-.045.181a1.339 1.339 0 01-1.488.937c-.812-.127-1.251-.899-1.105-1.602l.032-.123.046-.127a1.32 1.32 0 01.224-.356l.104-.106 2.527-2.316zm4.934-1.304a.141.141 0 01.235.079v.047l-.616 3.935a1.536 1.536 0 01-1.755 1.28c-1.227-.191-1.715-1.669-.897-2.554l.096-.096 2.937-2.691zm-2.55-6.75a5.577 5.577 0 015.243 3.638 4.245 4.245 0 012.258 3.744 4.242 4.242 0 01-4.025 4.23l-.211.006h-.085a2.88 2.88 0 00.132-.407l.043-.215.092-.587a3.038 3.038 0 002.854-3.027 3.044 3.044 0 00-1.613-2.68l-.178-.088-.243-.11-.082-.253A4.381 4.381 0 0010.1 7.18a4.377 4.377 0 00-2.757.978l-.191.165-.262.238-.335-.115a2.286 2.286 0 00-.738-.125c-1.206 0-2.196.94-2.277 2.126l-.005.156.024.517-.373.166a2.677 2.677 0 00-1.585 2.44c0 1.296.927 2.379 2.152 2.621-.158.37-.22.776-.187 1.184A3.877 3.877 0 01.4 13.727c0-1.391.75-2.669 1.942-3.355a3.486 3.486 0 014.262-3.158A5.574 5.574 0 0110.1 5.981zM18.177.504a5.38 5.38 0 012.622-.03 4.548 4.548 0 003.057 8.515 5.376 5.376 0 01-2.934 1.969c-.912.24-1.83.23-2.685.015a5.42 5.42 0 00-1.938-2.184 6.748 6.748 0 00-2.137-2.676A5.403 5.403 0 0118.176.505z" fill="#000" fill-rule="evenodd"/></svg>