<svg width="24" height="24" xmlns="http://www.w3.org/2000/svg"><path d="M8.966 18.196a.142.142 0 01.234.078v.047l-.479 3.064a1.226 1.226 0 01-1.402 1.022c-.974-.152-1.364-1.319-.728-2.027l.09-.09 2.285-2.094zm-1.25-4.16a.142.142 0 01.234.08v.046l-.529 3.387-.014.051a1.34 1.34 0 11-2.593-.66c.053-.17.141-.335.27-.482l.105-.106 2.527-2.316zm4.934-1.304a.142.142 0 01.234.079v.047l-.615 3.935a1.537 1.537 0 01-1.756 1.28c-1.226-.191-1.714-1.67-.896-2.555l.096-.095 2.937-2.691zm-2.543-6.769a5.56 5.56 0 015.233 3.674 4.25 4.25 0 012.26 3.753c0 2.265-1.775 4.121-3.998 4.231l-.21.006h-.132a3.03 3.03 0 00.161-.48l.034-.168.615-3.936a1.34 1.34 0 00-2.122-1.286l-.11.091L9.14 14.32a1.342 1.342 0 00-2.124-1.26l-.11.09-2.528 2.317c-.331.304-.577.69-.71 1.118-.099.318-.13.648-.1.973A3.859 3.859 0 01.4 13.759c0-1.4.755-2.683 1.952-3.365C2.455 8.572 3.96 7.12 5.796 7.12c.27 0 .54.033.805.098a5.53 5.53 0 013.506-1.256zm8.07-5.458a5.383 5.383 0 012.621-.03 4.548 4.548 0 003.057 8.515 5.373 5.373 0 01-2.933 1.969c-.912.24-1.83.23-2.685.015A5.421 5.421 0 0016.3 8.79a6.749 6.749 0 00-2.137-2.676A5.404 5.404 0 0118.177.505z" fill="#000" fill-rule="evenodd"/></svg>