<svg width="24" height="24" xmlns="http://www.w3.org/2000/svg"><path d="M12 18a2 2 0 110 4 2 2 0 010-4zm5.5-14.5a.75.75 0 01.744.648l.006.102V13h3.177L17.5 19l-3.927-6h3.177V4.25a.75.75 0 01.75-.75zm-5.388 10.007l1.508 2.303a4.478 4.478 0 00-5.486 1.888l-.105.185-1.436-1.49a6.465 6.465 0 015.241-2.885l.278-.001zM12 9c.99 0 1.95.133 2.862.38l.389.112v2.12a8.97 8.97 0 00-10.236 2.73l-.18.228-1.408-1.459A10.977 10.977 0 0112 9zm0-4.5c.956 0 1.891.09 2.799.256l.452.09v2.053a13.463 13.463 0 00-13.342 4.137l-.229.264L.287 9.855A15.459 15.459 0 0112 4.5zm7.75 2.082a15.625 15.625 0 013.65 2.923l.313.35-1.393 1.444a13.588 13.588 0 00-2.216-2.091l-.354-.258V6.582z" fill-rule="evenodd"/></svg>