<svg width="24" height="24" xmlns="http://www.w3.org/2000/svg"><path d="M18.25 4.25a.75.75 0 10-1.5 0V13h-3.175l3.925 6 3.925-6H18.25V4.25zm-3.3 7.25h.3v-2a11 11 0 00-11.825 3.61l1.41 1.46A8.97 8.97 0 0114.95 11.5zm.3-4.6V4.845a15.5 15.5 0 00-14.965 5L1.68 11.3a13.475 13.475 0 0113.57-4.4zM12 18a2 2 0 100 4 2 2 0 000-4zm1.62-2.19l-1.3-2-.21-.31H12a6.5 6.5 0 00-5.405 2.895l1.435 1.5a4.47 4.47 0 015.59-2.075v-.01zm6.13-9.225V8.95a13.5 13.5 0 012.57 2.35l1.395-1.445a15.61 15.61 0 00-3.965-3.27z" fill-rule="evenodd"/></svg>