<?xml version="1.0" encoding="UTF-8"?>
<svg width="24px" height="24px" viewBox="0 0 24 24" version="1.1" xmlns="http://www.w3.org/2000/svg" xmlns:xlink="http://www.w3.org/1999/xlink">
    <title>/svg/icon/home/reduced-wifi/selected</title>
    <g id="icon/home/reduced-wifi/selected" stroke="none" stroke-width="1" fill="none" fill-rule="evenodd">
        <path d="M18.25,4.24999997 C18.25,3.8357864 17.9142136,3.49999996 17.5,3.49999996 C17.0857865,3.49999996 16.75,3.8357864 16.75,4.24999997 L16.75,13 L13.575,13 L17.5,19 L21.425,13 L18.25,13 L18.25,4.24999997 Z M14.95,11.5 L15.25,11.5 L15.25,9.49999999 C10.9409939,8.16475319 6.25353071,9.59576733 3.42499996,13.11 L4.83499997,14.57 C7.18154346,11.4576933 11.2694324,10.2169796 14.95,11.5 Z M15.25,6.89999998 L15.25,4.84499997 C9.72312232,3.65808567 3.98836539,5.57414212 0.284999951,9.84499999 L1.67999996,11.3 C4.99235955,7.36290768 10.2575961,5.65568286 15.25,6.89999998 Z M12,18 C10.8954305,18 9.99999999,18.8954305 9.99999999,20 C9.99999999,21.1045695 10.8954305,22 12,22 C13.1045695,22 14,21.1045695 14,20 C14,18.8954305 13.1045695,18 12,18 Z M13.62,15.81 L12.32,13.81 L12.11,13.5 L12,13.5 C9.82777856,13.5012349 7.79974725,14.5874792 6.59499998,16.395 L8.02999998,17.895 C9.0924398,15.880045 11.5001464,14.9863078 13.62,15.82 L13.62,15.81 Z M19.75,6.58499998 L19.75,8.94999999 C20.7045315,9.61909245 21.5683836,10.4089962 22.32,11.3 L23.715,9.85499999 C22.5830804,8.55341808 21.2432583,7.44844495 19.75,6.58499998 L19.75,6.58499998 Z" id="Icon" fill="#000000"></path>
    </g>
</svg>