<svg height="24" width="24" xmlns="http://www.w3.org/2000/svg"><path d="m12.45 1.55 8.75 1.3 1.3 8.75-10.3 10.3c-.6.6-1.4.9-2.15.9s-1.55-.3-2.15-.9l-5.75-5.75c-1.2-1.15-1.2-3.1 0-4.3l10.3-10.3zm.5 1.6-9.75 9.75c-.6.6-.6 1.6 0 2.2l5.75 5.75c.3.3.7.45 1.1.45s.8-.15 1.1-.45l9.8-9.7-1.05-6.95zm-2.2 6.75c1.4-.95 2.75-.95 3.8.15 1 .95 1.1 2.35.2 3.55l-1.1-1.1c.35-.55.3-1.05-.1-1.45-.45-.5-1-.5-1.75-.05l1.15 1.15-.8.8-1.2-1.2-.4.4 1.2 1.2-.8.8-1.15-1.15c-.45.7-.4 1.3.05 1.75.4.4.9.45 1.45.1l1.1 1.1c-1.2.85-2.6.75-3.55-.2-1-1.05-1.05-2.45-.1-3.85l-.5-.5.8-.8.4.4.4-.4-.4-.4.8-.8zm6.85-4.5c.3 0 .55.1.7.3.4.4.4 1.05 0 1.45-.2.2-.45.3-.7.3s-.5-.1-.7-.3c-.4-.4-.4-1.05 0-1.45.2-.2.45-.3.7-.3z" fill="#262626" fill-rule="evenodd"/></svg>