<svg width="24" height="24" xmlns="http://www.w3.org/2000/svg"><path d="M12.45 1.55l8.75 1.3 1.3 8.75-10.3 10.3c-.6.6-1.4.9-2.15.9a3.071 3.071 0 01-1.982-.744L7.9 21.9l-5.75-5.75c-1.154-1.106-1.198-2.951-.133-4.158l.133-.142 10.3-10.3zm.5 1.6L3.2 12.9a1.572 1.572 0 00-.105 2.083l.105.117 5.75 5.75c.3.3.7.45 1.1.45.35 0 .7-.115.983-.345l.117-.105 9.8-9.7L19.9 4.2l-6.95-1.05zm-2.2 6.75c1.342-.91 2.637-.948 3.667.018l.133.132c.957.909 1.09 2.23.312 3.392l-.112.158-1.1-1.1c.35-.55.3-1.05-.1-1.45-.42-.467-.927-.498-1.603-.134L11.8 11l1.15 1.15-.8.8-1.2-1.2-.4.4 1.2 1.2-.8.8L9.8 13c-.45.7-.4 1.3.05 1.75.37.37.824.44 1.324.174l.126-.074 1.1 1.1c-1.2.85-2.6.75-3.55-.2-.957-1.004-1.044-2.329-.218-3.667l.118-.183-.5-.5.8-.8.4.4.4-.4-.4-.4.8-.8.5.5zm6.85-4.5c.257 0 .478.073.63.22l.07.08c.4.4.4 1.05 0 1.45-.2.2-.45.3-.7.3-.25 0-.5-.1-.7-.3-.4-.4-.4-1.05 0-1.45.2-.2.45-.3.7-.3z" fill-rule="evenodd"/></svg>