<svg height="24" width="24" xmlns="http://www.w3.org/2000/svg"><path d="m21.061 2.836-8.62-1.274-10.095 10.095a2.988 2.988 0 0 0 0 4.232l5.643 5.662a2.993 2.993 0 0 0 4.256 0l10.075-10.11zm-6.343 10.52-1.087-1.087a1.043 1.043 0 0 0 -.078-1.43c-.46-.46-1.01-.49-1.734-.034l1.112 1.112-.764.764-1.2-1.2-.191.19-.196.202 1.2 1.2-.764.759-1.112-1.097c-.446.715-.422 1.263.039 1.724.38.4 1.006.436 1.43.083l1.087 1.087a2.586 2.586 0 0 1 -3.497-.19c-1.023-1.024-1.033-2.386-.117-3.762l-.49-.466.764-.764.382.382.196-.2.191-.191-.377-.382.774-.75.49.465c1.38-.92 2.733-.92 3.766.113a2.581 2.581 0 0 1 .176 3.473zm3.502-6.283a.98.98 0 1 1 -1.36-1.411.98.98 0 0 1 1.36 1.41z" fill="#262626" fill-rule="evenodd"/></svg>