<svg width="24" height="24" xmlns="http://www.w3.org/2000/svg"><path d="M12 1c6.1 0 11 4.9 11 11s-4.9 11-11 11S1 18.1 1 12 5.9 1 12 1zm0 1.5c-5.25 0-9.5 4.25-9.5 9.5s4.25 9.5 9.5 9.5 9.5-4.25 9.5-9.5-4.25-9.5-9.5-9.5zM7.95 7.95a.722.722 0 01.965-.074L9 7.95l3 3 3-3c.3-.3.75-.3 1.05 0 .273.273.298.67.074.965L16.05 9l-3 3 3 3c.3.3.3.75 0 1.05a.722.722 0 01-.965.074L15 16.05l-3-3-3 3c-.3.3-.75.3-1.05 0a.722.722 0 01-.074-.965L7.95 15l3-3-3-3c-.3-.3-.3-.75 0-1.05z" fill="#000" fill-rule="evenodd"/></svg>