<svg width="24" height="24" xmlns="http://www.w3.org/2000/svg"><path d="M12 14a1 1 0 100 2 1 1 0 000-2zm9.449 6.642l-2.155-1.099A10.462 10.462 0 0022.5 12c0-5.799-4.701-10.5-10.5-10.5S1.5 6.201 1.5 12c0 2.963 1.232 5.634 3.205 7.543l-2.154 1.099a.75.75 0 10.682 1.335l2.732-1.393A10.437 10.437 0 0012 22.5a10.44 10.44 0 006.035-1.916l2.732 1.393a.75.75 0 10.682-1.335zM12 21c-4.963 0-9-4.038-9-9 0-4.963 4.037-9 9-9 4.962 0 9 4.037 9 9 0 4.962-4.038 9-9 9zm0-10a3.999 3.999 0 00-3.466 2.013L9.7 14.02A2.502 2.502 0 0112 12.5c1.03 0 1.916.627 2.299 1.52l1.168-1.007A3.999 3.999 0 0012 11zm0-3a6.996 6.996 0 00-5.763 3.035l1.146.987A5.496 5.496 0 0112 9.5a5.496 5.496 0 014.617 2.522l1.145-.987A6.995 6.995 0 0012 8z" fill-rule="evenodd"/></svg>