<svg height="24" width="24" xmlns="http://www.w3.org/2000/svg"><path d="m9.7 3.9 9.75 9.75c1.1 1.1 1.1 2.95 0 4.05l-5.4 5.4c-.6.55-1.3.85-2.05.85s-1.5-.3-2.05-.85l-9.7-9.7 1.2-8.25zm-.5 1.6-6.4 1-.95 6.4 9.2 9.15c.25.25.6.4.95.4s.7-.15.95-.4l5.4-5.45c.55-.5.55-1.4 0-1.95zm3.4 5.55-.25 2.7 2.3 1.35-2.6.65-.6 2.6-1.4-2.3-2.65.2 1.75-2-1.05-2.45 2.45 1zm-3.1-10.9 12.05 5.4c1.15.5 1.7 1.9 1.2 3.15l-1.9 4.3c-.1-.15-.25-.3-.35-.4l-.8-.8 1.65-3.75c.2-.45 0-.95-.45-1.15l-11.35-5.05-1.4.8-4.15.6zm-5.35 7.7c.4-.35 1-.35 1.35 0s.35 1 0 1.35-1 .35-1.35 0-.35-1 0-1.35z" fill="#262626" fill-rule="evenodd"/></svg>