<svg width="24" height="24" xmlns="http://www.w3.org/2000/svg"><path d="M9.7 3.9l9.75 9.75c1.054 1.054 1.098 2.797.132 3.909l-.132.141-5.4 5.4c-.6.55-1.3.85-2.05.85a2.92 2.92 0 01-1.895-.706L9.95 23.1l-9.7-9.7 1.2-8.25L9.7 3.9zm-.5 1.6l-6.4 1-.95 6.4 9.2 9.15c.25.25.6.4.95.4.3 0 .6-.11.837-.3l.113-.1 5.4-5.45c.516-.469.548-1.29.097-1.843l-.097-.107L9.2 5.5zm3.4 5.55l-.25 2.7 2.3 1.35-2.6.65-.6 2.6-1.4-2.3-2.65.2 1.75-2L8.1 11.8l2.45 1 2.05-1.75zM9.5.15l12.05 5.4c1.1.478 1.651 1.78 1.26 2.986l-.06.164-1.9 4.3a2.352 2.352 0 00-.267-.316L19.7 11.8l1.65-3.75A.857.857 0 0021 6.951l-.1-.051L9.55 1.85l-1.4.8-4.15.6L9.5.15zm-5.35 7.7c.4-.35 1-.35 1.35 0 .35.35.35 1 0 1.35-.35.35-1 .35-1.35 0-.35-.35-.35-1 0-1.35z" fill="#000" fill-rule="evenodd"/></svg>