<svg height="24" width="24" xmlns="http://www.w3.org/2000/svg"><path d="m9.725 3.925 9.695 9.695a2.88 2.88 0 0 1 0 4.065l-5.42 5.42a2.885 2.885 0 0 1 -4.07 0l-9.695-9.695 1.22-8.26 2.66-.395-1.215.18 1.6-.24zm2.835 7.17-2 1.745-2.465-1.035 1.035 2.46-1.745 2 2.665-.22 1.365 2.275.61-2.605 2.595-.575-2.285-1.385zm-3.06-10.935 12.035 5.375a2.365 2.365 0 0 1 1.215 3.12l-1.915 4.28a5.878 5.878 0 0 0 -.335-.38l-.81-.785 1.67-3.725a.865.865 0 0 0 -.435-1.14l-11.345-5.065-1.425.795-4.155.62zm-3.975 7.7a.96.96 0 1 0 -1.36 1.355.96.96 0 0 0 1.36-1.355z" fill="#262626" fill-rule="evenodd"/></svg>