<svg width="24" height="24" xmlns="http://www.w3.org/2000/svg"><path d="M9.725 3.925l9.695 9.695a2.88 2.88 0 01.129 3.927l-.129.138-5.42 5.42a2.885 2.885 0 01-3.932.129l-.138-.129L.235 13.41l1.22-8.26L4.5 4.695l5.225-.77zm2.835 7.17l-2 1.745-2.465-1.035 1.035 2.46-1.745 2 2.665-.22 1.365 2.275.61-2.605 2.595-.575-2.285-1.385.225-2.66zM9.5.16l12.035 5.375a2.365 2.365 0 011.29 2.926l-.075.194-1.915 4.28-.162-.192-.173-.188-.81-.785 1.67-3.725a.865.865 0 00-.34-1.09l-.095-.05L9.58 1.84l-1.425.795L4 3.255 9.5.16zm-3.975 7.7a.96.96 0 10-1.36 1.355.96.96 0 001.36-1.355z" fill-rule="evenodd"/></svg>