<svg width="24" height="24" xmlns="http://www.w3.org/2000/svg"><path d="M9.315 15.5l.204.428A2.762 2.762 0 0012 17.5c.992 0 1.912-.547 2.396-1.407l.085-.165.205-.428H21v4a3.004 3.004 0 01-2.824 2.995L18 22.5H6a3.004 3.004 0 01-2.995-2.824L3 19.5v-4h6.315zM8.399 17H4.5v2.5c0 .778.596 1.42 1.356 1.493L6 21h12c.778 0 1.42-.596 1.493-1.356l.007-.144V17h-3.898A4.272 4.272 0 0112 19a4.27 4.27 0 01-3.601-2zM12 1a.75.75 0 01.743.648l.007.102V7.5h3.832L12 14.5l-4.582-7h3.832V1.75A.75.75 0 0112 1z" fill-rule="evenodd"/></svg>