<svg width="24" height="24" xmlns="http://www.w3.org/2000/svg"><path d="M7.08 18.622l1.04.6-.681 1.178h1.36v1.2H7.44l.68 1.178-1.04.6L6.4 22.2l-.68 1.178-1.04-.6.681-1.178H4v-1.2h1.36l-.68-1.178 1.04-.6.68 1.178.68-1.178zm5.2-3.6l1.04.6-.681 1.178h1.36V18h-1.36l.68 1.178-1.04.6-.68-1.178-.68 1.178-1.04-.6L10.56 18H9.2v-1.2h1.36l-.68-1.178 1.04-.6.68 1.178.68-1.178zm-1.785-9.077a5.56 5.56 0 015.233 3.674 4.25 4.25 0 012.261 3.753 4.24 4.24 0 01-2.698 3.952l-.191.069v-1.438a1 1 0 00-.402-.8l-.099-.066-2.5-1.443a1 1 0 00-.88-.059l-.12.059-2.498 1.438a1 1 0 00-.494.75l-.007.117v1.651h-.586l-.614-.355a1.002 1.002 0 00-.882-.059l-.119.059-.61.352h-.861A3.858 3.858 0 01.789 13.74c0-1.4.755-2.683 1.952-3.365.102-1.822 1.608-3.273 3.443-3.273.27 0 .54.033.806.098a5.53 5.53 0 013.505-1.256zm9.251 4.601a.6.6 0 01.766-.069l.083.07.85.848a.601.601 0 01-.776.912l-.074-.063-.849-.849a.601.601 0 010-.849zM16.6 4.4c1.654 0 3 1.346 3 3 0 1.132-.63 2.118-1.558 2.63a5.45 5.45 0 00-1.344-1.24 6.769 6.769 0 00-2.628-2.996A3 3 0 0116.6 4.4zm6.25 2.4a.6.6 0 01.097 1.192L22.85 8h-1.2a.6.6 0 01-.097-1.192l.097-.008h1.2zM11.757 2.556a.6.6 0 01.765-.069l.083.07.85.848a.601.601 0 01-.776.912l-.074-.063-.848-.849a.6.6 0 010-.849zm8.839 0a.6.6 0 01.917.766l-.069.083-.849.849a.599.599 0 01-.848 0 .6.6 0 01-.07-.766l.07-.083.849-.849zM16.6.55a.6.6 0 01.592.502l.008.098v1.2a.6.6 0 01-1.192.097L16 2.35v-1.2a.6.6 0 01.6-.6z" fill-rule="evenodd"/></svg>