<svg width="24" height="24" xmlns="http://www.w3.org/2000/svg"><path d="M4.23 3.57a.744.744 0 01.975-.073l.085.073 15.74 15.74a.745.745 0 010 1.06.754.754 0 01-.53.22.755.755 0 01-.437-.141l-.093-.079L4.23 4.63a.75.75 0 010-1.06zm1.64 4.82l1.06 1.06c-.232.236-.387.55-.422.898L6.5 10.5v3c0 .776.598 1.42 1.356 1.493L8 15h2.07l4.43 3.94v-1.92l1.5 1.5v1.98h-2l-4.5-4H8a3.003 3.003 0 01-2.995-2.824L5 13.5v-3c0-.756.277-1.445.74-1.97l.13-.14zM16 3.5v8.655l-1.5-1.5V5.06l-2.96 2.635-1.065-1.06L14 3.5h2z" fill-rule="evenodd"/></svg>