<svg width="24" height="24" xmlns="http://www.w3.org/2000/svg"><path d="M15.288 11.384c1.133 0 2.226.375 3.12 1.066.213-.045.421-.067.628-.067a3.276 3.276 0 013.255 2.934A3.614 3.614 0 0124 18.386a3.618 3.618 0 01-3.422 3.609l-.192.005h-7.954A3.936 3.936 0 018.5 18.068c0-1.43.783-2.744 2.02-3.433a5.104 5.104 0 014.768-3.251zM11.851 1.26a6.788 6.788 0 016.389 4.485A5.188 5.188 0 0121 10.327c0 .391-.047.771-.13 1.138a4.576 4.576 0 00-2.133-.372 6.444 6.444 0 00-3.449-1.01 6.375 6.375 0 00-5.798 3.662 5.203 5.203 0 00-1.448 1.492l-.153.254-3.446-.004C1.972 15.355 0 13.297 0 10.777 0 9.07.923 7.501 2.384 6.67c.124-2.225 1.962-3.996 4.204-3.996.33 0 .658.04.983.12a6.755 6.755 0 014.28-1.533z" fill-rule="evenodd"/></svg>