<svg height="24" width="24" xmlns="http://www.w3.org/2000/svg"><path d="m17.75 11.5c3.45 0 6.25 2.8 6.25 6.25s-2.8 6.25-6.25 6.25-6.25-2.8-6.25-6.25 2.8-6.25 6.25-6.25zm3.1 4.05c-.3-.3-.75-.3-1.05 0l-2.8 2.8-1.4-1.4c-.3-.3-.75-.3-1.05 0s-.3.75 0 1.05l2.45 2.5 3.9-3.9c.3-.3.25-.75-.05-1.05zm-1.85-12.55v7.1c-.4-.05-.8-.1-1.25-.1h-.25v-2.85l-5.8 4.95c-.65.55-1.4.8-2.2.8s-1.55-.25-2.2-.8l-5.8-4.95v7.4c0 .5.45.95 1 .95h7.85c-.15.5-.25 1-.3 1.5h-7.55c-1.4 0-2.5-1.1-2.5-2.45v-11.55zm-1.5 1.5h-16v.7l6.75 5.75c.7.6 1.75.6 2.45 0l6.8-5.75z" fill="#262626" fill-rule="evenodd"/></svg>