<svg width="24" height="24" xmlns="http://www.w3.org/2000/svg"><path d="M17.75 11.5c3.45 0 6.25 2.8 6.25 6.25S21.2 24 17.75 24s-6.25-2.8-6.25-6.25 2.8-6.25 6.25-6.25zm3.1 4.05a.722.722 0 00-.965-.074l-.085.074-2.8 2.8-1.4-1.4c-.3-.3-.75-.3-1.05 0a.722.722 0 00-.074.965l.074.085L17 20.5l3.9-3.9c.3-.3.25-.75-.05-1.05zM19 3v7.1c-.3-.037-.6-.075-.921-.091L17.75 10h-.25V7.15l-5.8 4.95c-.65.55-1.4.8-2.2.8a3.317 3.317 0 01-2.02-.657L7.3 12.1 1.5 7.15v7.4c0 .464.388.885.884.943l.116.007h7.85c-.112.375-.197.75-.253 1.125L10.05 17H2.5C1.156 17 .088 15.986.005 14.71L0 14.55V3h19zm-1.5 1.5h-16v.7l6.75 5.75c.656.563 1.62.598 2.315.105l.135-.105 6.8-5.75v-.7z" fill-rule="evenodd"/></svg>