<svg width="24" height="24" xmlns="http://www.w3.org/2000/svg"><path d="M19.885 15.476l-.085.074-2.8 2.8-1.4-1.4c-.3-.3-.75-.3-1.05 0a.722.722 0 00-.075.965l.075.085L17 20.5l3.9-3.9c.3-.3.25-.75-.05-1.05a.723.723 0 00-.965-.074M17.75 22.5A4.756 4.756 0 0113 17.75 4.756 4.756 0 0117.75 13a4.756 4.756 0 014.75 4.75 4.756 4.756 0 01-4.75 4.75m0-11c-3.45 0-6.25 2.8-6.25 6.25S14.3 24 17.75 24 24 21.2 24 17.75s-2.8-6.25-6.25-6.25m0-1.5c.421 0 .831.043 1.233.108.003 0 .015-.008.017-.008V5.87l-7.3 6.23c-.65.55-1.4.8-2.2.8a3.315 3.315 0 01-2.021-.657L7.3 12.1 0 5.87v8.68l.005.16C.088 15.988 1.156 17 2.5 17h7.538c.378-3.922 3.691-7 7.712-7m-7.185 1.056l.135-.106L19 3.932V3H0v.923l8.25 7.027c.656.563 1.62.598 2.315.106" fill="#000" fill-rule="evenodd"/></svg>