<svg width="24" height="24" xmlns="http://www.w3.org/2000/svg"><path d="M17.75 11.36a5.885 5.885 0 015.89 5.89 5.89 5.89 0 11-5.89-5.89zm0 1.5a4.39 4.39 0 100 8.78 4.39 4.39 0 000-8.78zm1.88 2.345a.755.755 0 011.06 0 .745.745 0 01.072.967l-.072.083-3.62 3.625-2.32-2.32a.755.755 0 010-1.06.745.745 0 01.97-.077l.09.077 1.26 1.265 2.56-2.56zm-.465-9.445v4.38a7.25 7.25 0 00-8.661 6.87l-.004.275h-8a2.5 2.5 0 01-2.495-2.336L0 14.785V5.88l7.395 6.345a3.35 3.35 0 004.225.13l.16-.13 7.385-6.465zm0-2.645v.655L10.8 11.09a1.86 1.86 0 01-2.295.106l-.135-.106L0 3.9v-.785h19.165z" fill="#000" fill-rule="evenodd"/></svg>