<svg xmlns="http://www.w3.org/2000/svg" width="24" height="24">
    <path fill="#262626" fill-rule="evenodd" d="M15.25 10.5c.85 0 1.5.65 1.5 1.5 0 .95-.9 1.7-1.9 1.45l-3.6 3.6v3.15c.45.25.75.75.75 1.3 0 .85-.65 1.5-1.5 1.5S9 22.35 9 21.5c0-.55.3-1.05.75-1.3v-3.75l4.05-4.05c-.25-1 .5-1.9 1.45-1.9zm-.5-6.5c2.85.85 5 3.35 5.35 6.4 2.1.45 3.65 2.3 3.65 4.55 0 2.55-2.05 4.6-4.6 4.6h-6.4v-1.5h6.45c1.7 0 3.1-1.4 3.1-3.1 0-1.15-.6-2.1-1.5-2.65-.75-.45-1.35-.45-2.15-.5 0-.8 0-1.35-.25-2.2-.55-1.85-1.9-3.3-3.65-4zm-4.5 0v1.6c-1.4.55-2.5 1.55-3.2 2.9-.2.45-.3.75-.5 1.3.05 0-1.1-.15-2.15.25-1.55.6-2.65 2.1-2.65 3.85 0 2.25 1.85 4.1 4.1 4.1h2.4v1.5h-2.4c-3.1 0-5.6-2.5-5.6-5.6 0-3 2.35-5.45 5.25-5.65.9-2.05 2.65-3.6 4.75-4.25zM12.5.5c.85 0 1.5.65 1.5 1.5 0 .55-.3 1.05-.75 1.4v5l-5.5 5.5c.1.9-.65 1.65-1.5 1.65s-1.5-.65-1.5-1.5c0-1.1 1.05-1.8 2.05-1.4l4.95-4.95V3.3C11.3 3.05 11 2.55 11 2c0-.85.65-1.5 1.5-1.5z"/>
</svg>
