<svg width="24" height="24" xmlns="http://www.w3.org/2000/svg"><path d="M15.25 10.5c.85 0 1.5.65 1.5 1.5a1.51 1.51 0 01-1.764 1.478l-.136-.028-3.6 3.6v3.15c.45.25.75.75.75 1.3 0 .85-.65 1.5-1.5 1.5S9 22.35 9 21.5c0-.5.248-.959.631-1.226l.119-.074v-3.75l4.05-4.05c-.25-1 .5-1.9 1.45-1.9zm-.5-6.5c2.85.85 5 3.35 5.35 6.4 2.1.45 3.65 2.3 3.65 4.55a4.587 4.587 0 01-4.389 4.595l-.211.005h-6.4v-1.5h6.45c1.7 0 3.1-1.4 3.1-3.1 0-1.15-.6-2.1-1.5-2.65-.545-.327-1.012-.417-1.533-.46l-.617-.04-.003-.502A5.856 5.856 0 0018.4 9.6a6.192 6.192 0 00-3.414-3.9l-.236-.1V4zm-4.5 0v1.6c-1.4.55-2.5 1.55-3.2 2.9l-.08.185-.138.342-.283.772-.166-.016-.166-.008-.21-.002c-.038 0-.078 0-.12.002l-.262.014a4.463 4.463 0 00-1.225.261c-1.55.6-2.65 2.1-2.65 3.85 0 2.182 1.74 3.988 3.897 4.095L5.85 18h2.4v1.5h-2.4c-3.1 0-5.6-2.5-5.6-5.6 0-3 2.35-5.45 5.25-5.65a7.696 7.696 0 014.478-4.16L10.25 4zM12.5.5c.85 0 1.5.65 1.5 1.5 0 .495-.243.95-.62 1.29l-.13.11v5l-5.5 5.5c.1.9-.65 1.65-1.5 1.65s-1.5-.65-1.5-1.5c0-1.054.964-1.741 1.925-1.444l.125.044 4.95-4.95V3.3C11.3 3.05 11 2.55 11 2c0-.85.65-1.5 1.5-1.5z" fill-rule="evenodd"/></svg>