<?xml version="1.0" encoding="UTF-8"?>
<svg width="24px" height="24px" viewBox="0 0 24 24" version="1.1" xmlns="http://www.w3.org/2000/svg" xmlns:xlink="http://www.w3.org/1999/xlink">
    <title>/svg/icon/home/iot/selected</title>
    <g id="icon/home/iot/selected" stroke="none" stroke-width="1" fill="none" fill-rule="evenodd">
        <path d="M15.2499,10.5 C16.0999,10.5 16.7499,11.15 16.7499,12 C16.7499,12.825 16.0719,13.499 15.2389,13.499 L15.11315,13.49375 L15.11315,13.49375 L14.9859,13.478 L14.8499,13.45 L11.2499,17.05 L11.2499,20.2 C11.6999,20.45 11.9999,20.95 11.9999,21.5 C11.9999,22.35 11.3499,23 10.4999,23 C9.6499,23 8.9999,22.35 8.9999,21.5 C8.9999,21.05 9.20078,20.63321 9.520163,20.359709 L9.6309,20.274 L9.7499,20.2 L9.7499,16.45 L13.7999,12.4 C13.5499,11.4 14.2999,10.5 15.2499,10.5 Z M14.753,4.001 C17.602,4.852 19.75,7.351 20.1,10.4 C22.2,10.85 23.75,12.7 23.75,14.95 C23.75,17.3560882 21.9243235,19.3175329 19.5758971,19.530493 L19.361,19.545 L19.15,19.55 L12.739,19.55 L12.739,17.667 L15.424,14.983 C16.993,14.887 18.24,13.586 18.24,12 C18.24,10.323 16.927,9.01 15.25,9.01 C15.1346667,9.01 15.0206667,9.018 14.908,9.03192593 L14.74,9.057 L14.75,4.006 C14.751,4.005 14.752,4.003 14.753,4.001 Z M10.25,4 L10.26,7.083 L6.296,11.047 L6.221,11.046 L6.221,11.046 C5.435,11.046 4.696,11.351 4.139,11.904 C3.572,12.467 3.26,13.23 3.26,14.05 C3.26,15.727 4.573,17.04 6.25,17.04 C6.9169,17.04 7.56436,16.8132 8.089591,16.404069 L8.26,16.261 L8.25,19.5 L5.85,19.5 C2.75,19.5 0.25,17 0.25,13.9 C0.25,10.9 2.6,8.45 5.5,8.25 C6.32186364,6.37813636 7.85169628,4.92358264 9.71029095,4.18987838 L9.978,4.09 L10.25,4 Z M12.4999,0.5 C13.3499,0.5 13.9999,1.15 13.9999,2 C13.9999,2.44 13.8079,2.84760494 13.5004542,3.17294925 L13.3799,3.291 L13.2499,3.4 L13.2499,8.4 L7.7499,13.9 C7.8499,14.8 7.0999,15.55 6.2499,15.55 C5.3999,15.55 4.7499,14.9 4.7499,14.05 C4.7499,13.163 5.4319,12.536 6.2209,12.536 C6.32023333,12.536 6.4209,12.5462222 6.52230741,12.566963 L6.6749,12.606 L6.7999,12.65 L11.7499,7.7 L11.7499,3.3 C11.2999,3.05 10.9999,2.55 10.9999,2 C10.9999,1.15 11.6499,0.5 12.4999,0.5 Z" id="Icon" fill="#000000"></path>
    </g>
</svg>