<svg width="24" height="24" xmlns="http://www.w3.org/2000/svg"><path d="M15.25 10.5c.85 0 1.5.65 1.5 1.5a1.508 1.508 0 01-1.764 1.478l-.136-.028-3.6 3.6v3.15c.45.25.75.75.75 1.3 0 .85-.65 1.5-1.5 1.5S9 22.35 9 21.5c0-.5.248-.959.63-1.226l.12-.074v-3.75l4.05-4.05c-.25-1 .5-1.9 1.45-1.9zm-.497-6.499A7.59 7.59 0 0120.1 10.4c2.1.45 3.65 2.3 3.65 4.55a4.587 4.587 0 01-4.389 4.595l-.211.005h-6.411v-1.883l2.685-2.684A2.998 2.998 0 0018.24 12a2.958 2.958 0 00-2.99-2.99c-.173 0-.343.018-.51.047l.01-5.051a.022.022 0 00.003-.005zM10.25 4l.01 3.083-3.964 3.964-.075-.001c-.786 0-1.525.305-2.082.858a2.998 2.998 0 00-.879 2.146 2.958 2.958 0 002.99 2.99c.741 0 1.458-.28 2.01-.779L8.25 19.5h-2.4c-3.1 0-5.6-2.5-5.6-5.6 0-3 2.35-5.45 5.25-5.65a7.695 7.695 0 014.478-4.16L10.25 4zM12.5.5c.85 0 1.5.65 1.5 1.5 0 .495-.243.949-.62 1.291l-.13.109v5l-5.5 5.5c.1.9-.65 1.65-1.5 1.65s-1.5-.65-1.5-1.5c0-.887.682-1.514 1.47-1.514.15 0 .302.023.455.07l.125.044 4.95-4.95V3.3C11.3 3.05 11 2.55 11 2c0-.85.65-1.5 1.5-1.5z" fill="#000" fill-rule="evenodd"/></svg>