<svg xmlns="http://www.w3.org/2000/svg" width="24" height="24">
    <path fill="#262626" fill-rule="evenodd" d="M2.824 13.779a3.407 3.407 0 013.411-3.398l.97.038.287-.819a5.304 5.304 0 012.86-3.101V4a7.638 7.638 0 00-4.77 4.061 5.75 5.75 0 00.64 11.468H8.47v-2.353H6.22a3.402 3.402 0 01-3.397-3.397zm17.2-3.661A7.586 7.586 0 0014.588 4v2.494A5.256 5.256 0 0117.76 11.2l.033 1.078 1.082.06a2.433 2.433 0 01-.131 4.838h-6.038v2.353h6.038a4.786 4.786 0 001.28-9.411zm-8.73 9.61v-2.966l3.402-3.402c.119.032.24.05.363.052A1.412 1.412 0 1013.647 12c.003.122.02.244.052.362L9.882 16.18v3.548a1.412 1.412 0 101.412 0zm.47-15.926v4.142L7.13 12.579A1.412 1.412 0 108 13.882v-.16l5.176-5.176V3.84a1.412 1.412 0 10-1.411 0v-.038z"/>
</svg>
