<svg enable-background="new 0 0 916 220" viewBox="0 0 916 220" xmlns="http://www.w3.org/2000/svg"><path d="m299.5 89.2c0-6.9 6.2-12.1 17.1-12.1 12.1 0 18 7.1 18.7 14.9h32.5c-.9-18.3-13.7-42-51-42-30.6 0-49.8 18.5-49.8 41 0 49.3 69 29.6 69 50.5 0 6.9-6.6 11.4-19.4 11.4-14 0-20.2-7.8-20.6-16.1h-34.1c1.7 23.2 14.9 43.1 53.8 43.1 33.7 0 52.6-17.5 52.6-39.8 0-50.9-68.8-30-68.8-50.9z"/><path d="m437.1 53h-24.8v-29h-33.6v153.2h33.6v-96.8h24.8z"/><path d="m493.7 50.1c-36.7 0-62.3 28-62.3 64.7 0 38.2 25.8 65.2 62.6 65.2 28.7 0 51.4-17.3 58.8-42.4h-33.9c-4 9-13.7 13.5-23.9 13.5-16.8 0-27.7-9.2-30.1-26.3h90.1s.5-4.5.5-10c-.2-36.7-25.1-64.7-61.8-64.7zm-28.5 50.5c2.8-14.2 12.8-23.5 28.2-23.5 15.6 0 25.8 9.5 28.2 23.5z"/><path d="m635.8 50.1c-18.5 0-31.3 7.3-37 18v-15.1h-31.1v124.2h33.7v-71.1c0-16.6 9-27 25.4-27 14.9 0 21.1 10 21.1 24.4v73.7h33.7v-77.5c0-29.7-15.9-49.6-45.8-49.6z"/><path d="m756.1 80c12.3 0 22.3 7.8 24.9 18.5h34.6c-2.4-21.1-20.6-48.4-59.3-48.4-36 0-62.3 28-62.3 65s26.3 65 62.3 65c38.6 0 56.9-27.3 59.3-48.4h-34.6c-2.6 10.7-12.6 18.5-24.9 18.5-18 0-28.4-14.2-28.4-35.1s10.4-35.1 28.4-35.1z"/><path d="m828.2 53h33.7v124.2h-33.7z"/><path d="m845 3.8c-11.9 0-20.4 8.5-20.4 20.4s8.5 20.2 20.4 20.2 20.4-8.3 20.4-20.2-8.5-20.4-20.4-20.4z"/><path d="m879.7 3.1h33.7v174.1h-33.7z"/><path d="m136.7 6.8h-62c-39.6 0-72 32.4-72 72v66c0 39.6 32.4 72 72 72h62c39.6 0 72-32.4 72-72v-66c0-39.6-32.4-72-72-72zm19.8 139.8c0 11.4-16.6 20.7-28 20.7h-45.7c-11.4 0-28-9.3-28-20.7v-1.1h101.7zm0-23.9h-73.7c-11.4 0-28-9.3-28-20.7v-1.1h73.7c11.4 0 28 9.3 28 20.7zm0-44.5h-101.7v-1.1c0-11.4 16.6-20.7 28-20.7h45.7c11.4 0 28 9.3 28 20.7z"/></svg>