<svg enable-background="new 0 0 932 280" viewBox="0 0 932 280" xmlns="http://www.w3.org/2000/svg"><path d="m185.2 0h-88c-52.8 0-96 43.2-96 96v88c0 52.8 43.2 96 96 96h88c52.8 0 96-43.2 96-96v-88c0-52.8-43.2-96-96-96zm12 179.2c0 12.5-18.3 22.8-30.8 22.8h-50.4c-12.6 0-30.8-10.2-30.8-22.8v-1.2h112zm0-27.2h-81.2c-12.5 0-30.8-10.3-30.8-22.8v-1.2h81.2c12.5 0 30.8 10.3 30.8 22.8zm0-50h-112v-1.2c0-12.5 18.2-22.8 30.8-22.8h50.4c12.6 0 30.8 10.2 30.8 22.8z"/><path d="m428.5 172c0-27.4-74.4-5.9-74.4-60.3 0-23.5 18.6-42.1 50.7-42.1 32.5 0 50.9 20.6 51.7 45.7h-28c-.6-12.1-9.2-20.9-24.1-20.9-13.5 0-22.1 6.7-22.1 15.7 0 27.8 75.2 5.9 75.2 61.1 0 24.9-21.9 42.5-55 42.5-38.6 0-52.9-23.9-53.6-46.8h28.1c.8 11.4 9 21.3 27 21.3 15.3-.2 24.5-6.1 24.5-16.2z"/><path d="m505.4 210.7h-27.8v-80.7h-13.9v-21.9h13.9v-25.4h27.8v25.4h15.1v21.9h-15.1z"/><path d="m549.2 167.5c2 14.1 11 21.7 24.9 21.7 8.4 0 16.4-3.7 19.8-11.2h28c-6.1 20.8-24.9 35-48.5 35-30.3 0-51.7-22.3-51.7-53.8 0-30.3 21.1-53.4 51.5-53.4 30.3 0 50.9 23.1 50.9 53.4 0 4.5-.4 8.2-.4 8.2h-74.5zm.4-20h46.6c-2-11.6-10.4-19.4-23.3-19.4-12.7 0-20.9 7.7-23.3 19.4z"/><path d="m663.5 120.7c4.7-8.8 15.3-14.9 30.5-14.9 24.7 0 37.8 16.4 37.8 40.9v64h-27.8v-60.9c0-11.9-5.1-20.2-17.4-20.2-13.5 0-20.9 8.6-20.9 22.3v58.7h-27.8v-102.4h25.6z"/><path d="m795.4 105.8c31.9 0 47 22.5 48.9 39.9h-28.6c-2.2-8.8-10.4-15.3-20.6-15.3-14.9 0-23.5 11.7-23.5 29 0 17.2 8.6 29 23.5 29 10.2 0 18.4-6.5 20.6-15.3h28.6c-2 17.4-17 39.9-48.9 39.9-29.8 0-51.5-23.1-51.5-53.6s21.8-53.6 51.5-53.6z"/><path d="m903.2 210.7v-144.2h27.8v144.2z"/><path d="m856.9 108.2h27.8v102.6h-27.8z"/><circle cx="871" cy="82.5" r="16"/></svg>