<svg width="24" height="24" xmlns="http://www.w3.org/2000/svg"><path d="M10.5 13.5V22H4c-1.05 0-1.918-.82-1.994-1.851L2 20v-6.5h8.5zm7.25 0c.367 0 .691.294.743.651l.007.099V17h2.75c.4 0 .75.35.75.75a.772.772 0 01-.651.743l-.099.007H18.5v2.75c0 .4-.35.75-.75.75a.772.772 0 01-.743-.651L17 21.25V18.5h-2.75c-.4 0-.75-.35-.75-.75 0-.367.294-.691.651-.743L14.25 17H17v-2.75c0-.4.35-.75.75-.75zM9 15H3.5v5c0 .267.158.454.404.493L4 20.5h5V15zm1.5-13v8.5H2V4c0-1.05.82-1.918 1.851-1.994L4 2h6.5zM20 2c1.05 0 1.918.82 1.994 1.851L22 4v6.5h-8.5V2H20zM9 3.5H4c-.267 0-.454.158-.493.404L3.5 4v5H9V3.5zm11 0h-5V9h5.5V4c0-.267-.158-.454-.404-.493L20 3.5z" fill-rule="evenodd"/></svg>