<svg xmlns="http://www.w3.org/2000/svg" width="24" height="24">
    <path fill="#262626" fill-rule="evenodd" d="M10.5 13.5V22H4c-1.1 0-2-.9-2-2v-6.5h8.5zm7.25 0c.4 0 .75.35.75.75V17h2.75c.4 0 .75.35.75.75s-.35.75-.75.75H18.5v2.75c0 .4-.35.75-.75.75s-.75-.35-.75-.75V18.5h-2.75c-.4 0-.75-.35-.75-.75s.35-.75.75-.75H17v-2.75c0-.4.35-.75.75-.75zM9 15H3.5v5c0 .3.2.5.5.5h5V15zm1.5-13v8.5H2V4c0-1.1.9-2 2-2h6.5zM20 2c1.1 0 2 .9 2 2v6.5h-8.5V2zM9 3.5H4c-.3 0-.5.2-.5.5v5H9V3.5zm11 0h-5V9h5.5V4c0-.3-.2-.5-.5-.5z"/>
</svg>
