<svg height="24" width="24" xmlns="http://www.w3.org/2000/svg"><path d="m21.35 10.18c0 3.205-1.725 6.83-4.975 6.83-1.46 0-2.3-.62-2.52-1.725h-.155c-.595 1.04-1.55 1.725-2.785 1.725-1.97 0-3.23-1.525-3.23-3.78 0-2.895 1.525-5.725 4.18-5.725 1.325 0 2.21.71 2.585 1.77h.11l.2-1.48h1.635l-.86 6.06c-.155.995.135 1.7 1.085 1.7 2.055 0 3.14-2.895 3.14-5.375 0-3.76-2.275-5.99-6.235-5.99-5.195 0-8.845 4.265-8.845 9.505 0 4.09 2.785 6.61 6.215 6.61 1.725 0 3.14-.465 4.355-1.13l.53 1.35a10.047 10.047 0 0 1 -4.91 1.285c-4.245 0-7.825-3.075-7.825-8.115 0-6.08 4.375-11.01 10.5-11.01 4.82 0 7.805 2.92 7.805 7.495zm-7.255 1.33c0-1.44-.64-2.39-1.88-2.39-1.77 0-2.765 1.835-2.765 3.96 0 1.37.62 2.32 1.9 2.32 1.73 0 2.745-1.88 2.745-3.89z" fill="#262626" fill-rule="evenodd"/></svg>