<svg xmlns="http://www.w3.org/2000/svg" width="24" height="24">
    <path fill="#262626" fill-rule="evenodd" d="M13.545 2.435C7.415 2.435 2.79 7.28 2.79 13.7c0 4.845 3.4 8.36 8.08 8.36a10.26 10.26 0 005.03-1.315l.19-.105-.715-1.815-.25.135a8.605 8.605 0 01-4.235 1.1c-3.5 0-5.96-2.615-5.96-6.36 0-5.28 3.695-9.26 8.57-9.26 3.805 0 6 2.095 6 5.74 0 2.5-1.08 5.125-2.885 5.125a.84.84 0 01-.665-.245 1.5 1.5 0 01-.175-1.17l.905-6.345h-2.14L14.4 8.59a2.845 2.845 0 00-2.535-1.335c-2.875 0-4.43 3.08-4.43 6 0 2.41 1.4 4.03 3.5 4.03a3.32 3.32 0 002.8-1.535c.28.77 1 1.535 2.66 1.535 2.53 0 5.225-2.5 5.225-7.085-.02-4.7-3.18-7.765-8.075-7.765zm.3 9.065c0 1.765-.87 3.64-2.5 3.64-1.435 0-1.65-1.3-1.65-2.07 0-1.785.785-3.71 2.5-3.71 1.495.01 1.65 1.505 1.65 2.14z"/>
</svg>
