<svg width="24" height="24" xmlns="http://www.w3.org/2000/svg"><path d="M10.5 8.381a5.577 5.577 0 015.242 3.639A4.246 4.246 0 0118 15.764a4.242 4.242 0 01-4.025 4.23l-.211.006H4.673A3.877 3.877 0 01.8 16.127c0-1.391.75-2.669 1.942-3.355a3.486 3.486 0 014.262-3.158A5.574 5.574 0 0110.5 8.381zm0 1.2a4.377 4.377 0 00-2.758.978l-.191.165-.262.238-.335-.115a2.286 2.286 0 00-.738-.125c-1.206 0-2.196.94-2.277 2.126l-.005.156.024.517-.373.166A2.677 2.677 0 002 16.127a2.676 2.676 0 002.504 2.668l.169.005h9.09a3.04 3.04 0 003.037-3.036 3.044 3.044 0 00-1.613-2.68l-.178-.088-.243-.11-.082-.253A4.381 4.381 0 0010.5 9.58zm9.246 3.365a.6.6 0 01.766-.069l.083.07.849.848a.6.6 0 01-.774.912l-.075-.063-.849-.849a.6.6 0 010-.849zM16.6 6.8c1.654 0 3 1.346 3 3 0 1.132-.63 2.118-1.558 2.63a5.44 5.44 0 00-1.344-1.24 6.765 6.765 0 00-2.628-2.996A2.998 2.998 0 0116.6 6.8zm6.25 2.4a.6.6 0 01.097 1.192l-.097.008h-1.2a.6.6 0 01-.097-1.192l.097-.008h1.2zm-2.254-4.244a.6.6 0 01.917.766l-.069.083-.849.849a.598.598 0 01-.848 0 .6.6 0 01-.07-.766l.07-.083.849-.849zm-8.84 0a.6.6 0 01.766-.069l.083.07.849.848a.6.6 0 01-.774.912l-.075-.063-.848-.849a.6.6 0 010-.849zM16.6 2.95a.6.6 0 01.592.503l.008.097v1.2a.6.6 0 01-1.192.097L16 4.75v-1.2a.6.6 0 01.6-.6z" fill="#000" fill-rule="evenodd"/></svg>