<svg width="24" height="24" xmlns="http://www.w3.org/2000/svg"><path d="M10.469 8.3a5.664 5.664 0 015.29 3.608 4.368 4.368 0 012.242 3.81 4.368 4.368 0 01-4.151 4.357l-.211.006H4.81A4.015 4.015 0 01.8 16.07a4.01 4.01 0 011.897-3.405 3.635 3.635 0 013.611-3.256c.23 0 .461.024.697.074A5.659 5.659 0 0110.469 8.3zm9.278 4.646a.6.6 0 01.766-.069l.083.07.849.848a.6.6 0 01-.774.912l-.075-.064-.849-.848a.6.6 0 010-.848zM16.601 6.8c1.655 0 3 1.346 3 3 0 1.111-.61 2.08-1.51 2.598a5.558 5.558 0 00-1.379-1.314 6.835 6.835 0 00-2.598-2.947A2.992 2.992 0 0116.6 6.8zm6.25 2.4a.6.6 0 01.097 1.192l-.097.008h-1.2a.6.6 0 01-.097-1.192l.097-.008h1.2zM11.758 4.957a.6.6 0 01.765-.07l.083.07.849.848a.6.6 0 01-.774.912l-.075-.063-.848-.849a.6.6 0 010-.848zm8.838 0a.6.6 0 01.918.765l-.069.083-.849.849a.596.596 0 01-.848 0 .6.6 0 01-.07-.766l.07-.083.848-.848zM16.601 2.95a.6.6 0 01.592.503l.008.097v1.2a.6.6 0 01-1.192.097L16 4.75v-1.2a.6.6 0 01.6-.6z" fill-rule="evenodd"/></svg>