<svg width="24" height="24" xmlns="http://www.w3.org/2000/svg"><path d="M3.5 20a2 2 0 110 4 2 2 0 010-4zm14.25-8.5a6.25 6.25 0 110 12.5 6.25 6.25 0 010-12.5zm-1.47 3.72a.75.75 0 00-1.133.977l.072.084 1.47 1.47-1.47 1.469a.75.75 0 00.969 1.14l.093-.08 1.469-1.47 1.47 1.47a.748.748 0 001.06 0 .75.75 0 00.073-.976l-.073-.084-1.47-1.47 1.47-1.469a.75.75 0 00-.977-1.133l-.084.072-1.47 1.47-1.469-1.47zM2.75 17.5h7.262l-.012.25c0 .32.024.634.065.943l.045.307H2.75a.75.75 0 01-.102-1.493l.102-.007zM22.954.06a.75.75 0 01.682 1.333l-.09.046-2.271.973a1.5 1.5 0 00-.882 1.092l-.021.147-.621 6.62a7.679 7.679 0 00-1.104-.21l-.38-.035L18.833 4H2.573l.741 7.77c.066.691.586 1.236 1.26 1.34l.136.015 6.534.421c-.235.364-.439.75-.611 1.152l-.123.304-5.896-.38a2.986 2.986 0 01-2.77-2.527l-.023-.183L.925 2.5h18.24a2.998 2.998 0 011.32-1.372l.198-.094L22.954.06z" fill="#000" fill-rule="evenodd"/></svg>