<svg width="24" height="24" xmlns="http://www.w3.org/2000/svg"><path d="M3.5 20a2 2 0 110 4 2 2 0 010-4zm14.25-8.5a6.25 6.25 0 110 12.5 6.25 6.25 0 010-12.5zm0 1.5a4.75 4.75 0 100 9.5 4.75 4.75 0 000-9.5zm-2.204 2.005a.75.75 0 01.66.145l.074.07 1.47 1.47 1.47-1.47a.745.745 0 011.06 0 .745.745 0 01.077.97l-.077.09-1.47 1.47 1.47 1.47a.745.745 0 010 1.06.75.75 0 01-.976.073l-.084-.073-1.47-1.47-1.47 1.47a.75.75 0 01-1.137-.97l.077-.09 1.47-1.47-1.47-1.47a.75.75 0 01.326-1.275zM10 17.5v.25c.003.314.024.628.064.94l.046.31H2.75a.75.75 0 01-.102-1.493l.102-.007H10zM22.955.06a.75.75 0 01.68 1.334l-.09.046-2.27.975a1.5 1.5 0 00-.883 1.088l-.022.147-.62 6.62a7.755 7.755 0 00-2-.27 7.745 7.745 0 00-6.789 4.02l-.131.25-6.165-.395a2.255 2.255 0 01-2.073-1.872l-.022-.163-.82-8.59h17.17a3 3 0 011.584-2.13l.181-.085 2.27-.975z" fill="#000" fill-rule="evenodd"/></svg>