<svg width="24" height="24" xmlns="http://www.w3.org/2000/svg"><path d="M20 1a3 3 0 012.996 2.824L23 4v12a3 3 0 01-2.824 2.995L20 19h-5a2.998 2.998 0 01-2.73-1.761l.23.011a6.706 6.706 0 004.773-1.977 6.76 6.76 0 000-9.546A6.706 6.706 0 0012.5 3.75c-.164 0-.327.013-.49.023a2.998 2.998 0 012.815-2.768L15.001 1h5zm-1 1.5h-3V4h3V2.5zM5.639 6.09l.275.053.487.102.991 5.121-1.677.843a.343.343 0 00-.164.427l.065.171.155.394.09.219.206.474c.074.164.153.335.237.51l.13.264c.224.444.452.853.66 1.204l.238.39c.075.12.144.23.207.326a.344.344 0 00.372.148l.068-.025 1.676-.844 3.52 3.85-.207.452c-.633 1.378-1.509 2.217-2.605 2.491a3.162 3.162 0 01-.774.094c-.987 0-1.862-.435-2.375-.759l-.21-.14-.154-.11C5 20.34 3.636 18.11 2.82 16.485c-.818-1.624-1.797-4.047-1.82-6.371l.002-.164.01-.214c.004-.078.012-.164.022-.255l.04-.29c.124-.758.45-1.758 1.286-2.443.764-.626 1.775-.86 3.01-.698l.268.04zm10.045 1.228a4.5 4.5 0 11-6.366 6.364 4.5 4.5 0 016.366-6.364zm-3.182.606a.539.539 0 00-.533.452l-.007.088V9.96h-1.497a.54.54 0 00-.088 1.073l.088.007h1.497v1.496a.539.539 0 001.073.088l.007-.088V11.04h1.496a.538.538 0 00.54-.54.54.54 0 00-.453-.533l-.087-.007H13.04V8.464a.54.54 0 00-.54-.54z" fill-rule="evenodd"/></svg>