<svg width="24" height="24" xmlns="http://www.w3.org/2000/svg"><path d="M1 10.602l.005-.228.019-.27.023-.198.035-.21.046-.218.06-.224C1.525 8.13 2.43 6.92 4.769 7.325l.239.046.789 4.075-1.17.588a1.092 1.092 0 00-.53 1.359l.175.45a20.421 20.421 0 001.345 2.766l.284.474.258.408c.28.432.817.608 1.29.435l.117-.051 1.169-.588 2.8 3.064c-1.05 2.287-2.58 2.356-3.714 1.97l-.214-.08a4.333 4.333 0 01-.203-.088l-.19-.094-.177-.097-.234-.144-.25-.176c-1.473-1.118-2.8-2.98-3.814-4.998C1.724 14.625 1.019 12.45 1 10.602zM20 1a3 3 0 012.996 2.824L23 4v12a3 3 0 01-2.824 2.995l-.176.005h-5a2.998 2.998 0 01-2.73-1.761l.23.011a6.706 6.706 0 004.773-1.977 6.76 6.76 0 000-9.546A6.706 6.706 0 0012.5 3.75c-.164 0-.327.013-.49.023a2.998 2.998 0 012.815-2.768L15.001 1h5zm-3.787 5.788A5.213 5.213 0 0117.75 10.5a5.217 5.217 0 01-1.538 3.713 5.235 5.235 0 01-3.712 1.535 5.233 5.233 0 01-3.712-1.535A5.217 5.217 0 017.25 10.5c0-1.402.546-2.721 1.538-3.712a5.255 5.255 0 017.424 0zM12.5 6.752c-.96 0-1.921.365-2.652 1.097A3.724 3.724 0 008.75 10.5c0 1.002.39 1.943 1.098 2.652a3.754 3.754 0 005.303 0A3.729 3.729 0 0016.25 10.5a3.725 3.725 0 00-1.1-2.651 3.734 3.734 0 00-2.65-1.097zm0 1.172a.54.54 0 01.533.452l.007.088V9.96h1.496a.54.54 0 01.087 1.073l-.087.007H13.04v1.496a.537.537 0 01-.54.54.539.539 0 01-.533-.452l-.007-.088V11.04h-1.497a.54.54 0 01-.088-1.073l.088-.007h1.497V8.464c0-.299.24-.54.54-.54zM19 2.5h-3V4h3V2.5z" fill="#000" fill-rule="evenodd"/></svg>