<svg width="24" height="24" xmlns="http://www.w3.org/2000/svg"><path d="M6.511 5.187l1.595 2.445 2.68-6.112-6.675-.013 1.578 2.42A10.228 10.228 0 001.75 12c0 4.761 3.367 8.968 8.008 10.004a.751.751 0 00.327-1.464C6.125 19.656 3.25 16.064 3.25 12a8.732 8.732 0 013.261-6.813M22.252 12c0-4.762-3.37-8.969-8.01-10.004a.75.75 0 00-.327 1.464c3.96.883 6.836 4.474 6.836 8.54 0 2.664-1.238 5.166-3.264 6.809l-1.59-2.44-2.682 6.111 6.675.012-1.579-2.42c2.445-1.921 3.94-4.9 3.94-8.072" fill="#000" fill-rule="evenodd"/></svg>